<svg xmlns="http://www.w3.org/2000/svg" width="480" height="405"><defs><clipPath id="a"><path data-name="Rectángulo 7542" fill="none" d="M0 0h70v15H0z"/></clipPath></defs><g data-name="Grupo 24599"><path data-name="Rectángulo 7874" fill="#fff" d="M480 405H0V0h480z"/><g data-name="Grupo 24597"><g data-name="Group 24373"><g data-name="Group 24535"><path data-name="Trazado 29468" d="M246.943 293.501a76.5 76.5 0 000-153h-.011v-55.5a129.718 129.718 0 0157.857 13.359 131.984 131.984 0 01-115.715 237.254l24.316-49.856a76.174 76.174 0 0033.553 7.743z" fill="#c6cfd5" opacity=".522"/><path data-name="Trazado 29469" d="M246.928 85.003v55.5a76.505 76.505 0 00-33.546 145.253l-24.317 49.858c-47.168-23.007-74.123-66.142-74.123-118.626A131.984 131.984 0 01246.928 85.003z" fill="#19a301"/></g></g><g data-name="Grupo 24575"><g data-name="Grupo 24541" fill="#19a301"><path data-name="Trazado 29494" d="M370.158 374h-1.574v-8.861h-10.563V374h-1.561v-18.484h1.562v8.3h10.563v-8.3h1.574zm3.5-7.071a8.083 8.083 0 01.768-3.567 5.854 5.854 0 012.174-2.47 5.847 5.847 0 013.18-.882 5.651 5.651 0 014.443 1.923 7.411 7.411 0 011.7 5.1v.317a8.154 8.154 0 01-.768 3.586 5.735 5.735 0 01-2.162 2.455 5.935 5.935 0 01-3.187.863 5.656 5.656 0 01-4.436-1.923 7.394 7.394 0 01-1.708-5.1zm1.523.419a6.233 6.233 0 001.276 4.043 4.092 4.092 0 003.345 1.581 4.079 4.079 0 003.333-1.581 6.438 6.438 0 001.276-4.17v-.292a6.988 6.988 0 00-.584-2.882 4.692 4.692 0 00-1.638-2.025 4.185 4.185 0 00-2.412-.717 4.059 4.059 0 00-3.309 1.595 6.448 6.448 0 00-1.282 4.17zm15.26-7.084l.059 2.236a5.085 5.085 0 011.9-1.866 5.222 5.222 0 012.539-.622q3.25 0 4.126 2.666a5.157 5.157 0 011.968-1.978 5.451 5.451 0 012.717-.69q4.418 0 4.507 4.824V374h-1.524v-9.052a4.1 4.1 0 00-.793-2.729 3.23 3.23 0 00-2.545-.889 4.046 4.046 0 00-2.768 1.06 3.746 3.746 0 00-1.257 2.52V374h-1.523v-9.166a3.763 3.763 0 00-.832-2.634 3.309 3.309 0 00-2.52-.87 3.832 3.832 0 00-2.463.819 4.8 4.8 0 00-1.523 2.431V374h-1.523v-13.736zm32.72 7.007a8.272 8.272 0 01-1.422 5.1 4.541 4.541 0 01-3.821 1.883 4.936 4.936 0 01-4.342-2.133l-.063 1.879h-1.422v-19.5h1.509v7.757a4.774 4.774 0 014.291-2.247 4.583 4.583 0 013.853 1.86 8.371 8.371 0 011.416 5.173zm-1.523-.271a7.156 7.156 0 00-1.054-4.2 3.435 3.435 0 00-2.971-1.479 4.181 4.181 0 00-2.476.717 4.361 4.361 0 00-1.537 2.11v6.2a4.07 4.07 0 004.037 2.59 3.41 3.41 0 002.939-1.485 7.649 7.649 0 001.062-4.453zm11.222-5.441a5.674 5.674 0 00-1.028-.089 3.71 3.71 0 00-2.406.793 4.346 4.346 0 00-1.4 2.3V374h-1.513v-13.736H428l.025 2.184a4.04 4.04 0 013.875-2.438 2.5 2.5 0 011 .165zm7.719 12.695a5.963 5.963 0 01-3.167-.863 5.883 5.883 0 01-2.2-2.406 7.5 7.5 0 01-.787-3.459v-.546a8.083 8.083 0 01.768-3.567 6.111 6.111 0 012.139-2.495 5.277 5.277 0 012.968-.908 4.96 4.96 0 013.967 1.708 6.926 6.926 0 011.466 4.666v.851h-9.8v.292a5.752 5.752 0 001.339 3.891 4.261 4.261 0 003.371 1.555 4.95 4.95 0 002.152-.444 4.773 4.773 0 001.695-1.422l.952.724a5.543 5.543 0 01-4.863 2.423zM440.3 361.3a3.8 3.8 0 00-2.888 1.257 5.806 5.806 0 00-1.428 3.377h8.239v-.165a5.041 5.041 0 00-1.13-3.225 3.5 3.5 0 00-2.793-1.244zm16.618 9.2a2.165 2.165 0 00-.908-1.815 7 7 0 00-2.736-1.073 12.343 12.343 0 01-2.837-.889 3.78 3.78 0 01-1.5-1.225 3.056 3.056 0 01-.489-1.752 3.268 3.268 0 011.358-2.685 5.487 5.487 0 013.479-1.06 5.647 5.647 0 013.688 1.136 3.647 3.647 0 011.39 2.964h-1.521a2.46 2.46 0 00-1.009-2.001 3.971 3.971 0 00-2.545-.8 3.973 3.973 0 00-2.406.667 2.057 2.057 0 00-.908 1.733 1.873 1.873 0 00.755 1.6 7.99 7.99 0 002.755 1.035 12.948 12.948 0 013 1 3.88 3.88 0 011.479 1.282 3.282 3.282 0 01.482 1.815 3.29 3.29 0 01-1.4 2.78 5.993 5.993 0 01-3.669 1.042 6.153 6.153 0 01-3.891-1.162 3.576 3.576 0 01-1.492-2.939h1.523a2.642 2.642 0 001.124 2.076 4.593 4.593 0 002.736.743 4.317 4.317 0 002.564-.7 2.1 2.1 0 00.978-1.763z"/><path data-name="Trazado 29493" d="M370.605 328.316l1.59-15.6h16.027v3.674h-12.654l-.945 8.529a10.1 10.1 0 015.221-1.354 8.63 8.63 0 016.789 2.825 11.073 11.073 0 012.514 7.638 10.687 10.687 0 01-2.61 7.616 9.514 9.514 0 01-7.295 2.786 9.888 9.888 0 01-6.768-2.3 9.176 9.176 0 01-2.986-6.359h3.76a6.312 6.312 0 001.912 4.05 5.945 5.945 0 004.082 1.364 5.363 5.363 0 004.351-1.891 7.9 7.9 0 001.579-5.221 7.254 7.254 0 00-1.708-5.038 5.81 5.81 0 00-4.544-1.9 6.552 6.552 0 00-4.082 1.139l-1.053.859zm43.077-13.363L400.727 344h-4.168l12.912-28.016h-16.93v-3.266h21.141zm4.168 3.781a6.348 6.348 0 011.794-4.641 6.18 6.18 0 014.608-1.826 6.143 6.143 0 014.63 1.837 6.568 6.568 0 011.772 4.759v1.525a6.266 6.266 0 01-1.794 4.63 6.184 6.184 0 01-4.565 1.794 6.32 6.32 0 01-4.619-1.794 6.4 6.4 0 01-1.826-4.78zm2.965 1.646a4.065 4.065 0 00.945 2.767 3.19 3.19 0 002.535 1.087 3.128 3.128 0 002.46-1.055 4.2 4.2 0 00.935-2.886v-1.572a4.167 4.167 0 00-.924-2.778 3.112 3.112 0 00-2.514-1.1 3.112 3.112 0 00-2.514 1.1 4.3 4.3 0 00-.924 2.864zm12.267 15.95a6.311 6.311 0 011.794-4.63 6.2 6.2 0 014.608-1.815 6.255 6.255 0 014.619 1.8 6.476 6.476 0 011.8 4.791v1.525a6.311 6.311 0 01-1.794 4.63 6.172 6.172 0 01-4.582 1.82 6.32 6.32 0 01-4.619-1.794 6.4 6.4 0 01-1.826-4.78zm2.965 1.67a4.1 4.1 0 00.945 2.788 3.19 3.19 0 002.535 1.087 3.105 3.105 0 002.473-1.068 4.272 4.272 0 00.924-2.9v-1.59a4.085 4.085 0 00-.935-2.778 3.147 3.147 0 00-2.5-1.077 3.178 3.178 0 00-2.489 1.067 4.146 4.146 0 00-.953 2.871zm-10.847 3.637l-2.259-1.418 15.276-24.449 2.256 1.418z"/></g><g data-name="Grupo 24554"><g data-name="Grupo 24551"><g data-name="Grupo 24550" clip-path="url(#a)" transform="translate(372 288)"><g data-name="Grupo 24549" fill="none"><g data-name="Grupo 24548" stroke-linecap="round" stroke-linejoin="round" stroke-width="2.4"><path data-name="Line 4" stroke="#19a301" d="M41.68 7.5h8.37"/><path data-name="Line 5" stroke="#19a301" d="M58.41 7.5h.67"/><path data-name="Line 6" stroke="#19a301" d="M10.92 7.5h8.29"/><path data-name="Line 7" stroke="#82d400" d="M18.67 7.5H33.3"/></g><path data-name="Rectángulo 7541" d="M0 0h70v15H0z"/></g></g></g><path data-name="Rectángulo 7543" fill="none" d="M372 233h70v70h-70z"/><g data-name="Grupo 24553" transform="translate(389.28 242)" fill="none" stroke-linecap="round" stroke-linejoin="round" stroke-width="1.5"><circle data-name="Ellipse 2" cx="5.8" cy="5.8" r="5.8" transform="translate(0 22.5)" stroke="#19a301"/><g data-name="Grupo 24552" stroke="#000"><path data-name="Línea 3929" d="M16.46 15.85v4.53"/><path data-name="Línea 3930" d="M23.09 15.85v4.53"/><path data-name="Trazado 29470" d="M4.12 36.8v8.26h31.31V29.73a5.861 5.861 0 00-3.46-5.35l-8.88-3.99"/><path data-name="Línea 3931" d="M16.46 20.39l-4.52 2.03"/><path data-name="Línea 3932" d="M19.78 24.14l-3.32-3.76"/><path data-name="Línea 3933" d="M19.78 24.14l3.31-3.76"/><path data-name="Trazado 29471" d="M26 10.56a6.25 6.25 0 11-12.5 0"/><path data-name="Trazado 29472" d="M13.51 10.56V6.25a6.25 6.25 0 0112.5 0v4.31"/></g></g></g></g><g data-name="Grupo 24576"><g data-name="Grupo 24542"><path data-name="Trazado 29496" d="M44.559 122.494h4.34v3.244h-4.34V133h-4v-7.262H26.318V123.4l14.008-21.678h4.232zm-13.729 0h9.732v-15.34l-.473.859zm27.436-7.068h2.986a6.564 6.564 0 004.426-1.483 4.953 4.953 0 001.611-3.889q0-5.5-5.479-5.5a5.7 5.7 0 00-4.11 1.472 5.151 5.151 0 00-1.536 3.9h-3.975a7.98 7.98 0 012.711-6.177 9.9 9.9 0 016.907-2.46 9.784 9.784 0 016.943 2.342 8.46 8.46 0 012.514 6.51 6.867 6.867 0 01-1.321 3.953 7.978 7.978 0 01-3.6 2.857 7.687 7.687 0 013.985 2.707 7.518 7.518 0 011.408 4.619 8.533 8.533 0 01-2.75 6.682 10.3 10.3 0 01-7.154 2.471 10.57 10.57 0 01-7.165-2.385 7.911 7.911 0 01-2.761-6.295h4a5.113 5.113 0 001.608 3.95 6.129 6.129 0 004.318 1.486 6.014 6.014 0 004.4-1.5 5.8 5.8 0 001.53-4.323 5.259 5.259 0 00-1.676-4.189 7.3 7.3 0 00-4.834-1.5h-2.986zm18.584-7.692a6.348 6.348 0 011.794-4.641 6.18 6.18 0 014.608-1.826 6.143 6.143 0 014.63 1.837 6.568 6.568 0 011.772 4.759v1.525a6.266 6.266 0 01-1.794 4.63 6.184 6.184 0 01-4.565 1.794 6.32 6.32 0 01-4.619-1.794 6.4 6.4 0 01-1.826-4.78zm2.965 1.646a4.065 4.065 0 00.945 2.767 3.19 3.19 0 002.535 1.087 3.128 3.128 0 002.46-1.055 4.2 4.2 0 00.935-2.886v-1.572a4.167 4.167 0 00-.924-2.778 3.112 3.112 0 00-2.514-1.1 3.112 3.112 0 00-2.514 1.1 4.3 4.3 0 00-.924 2.864zm12.267 15.95a6.311 6.311 0 011.794-4.63 6.2 6.2 0 014.608-1.815 6.255 6.255 0 014.619 1.8 6.476 6.476 0 011.8 4.791v1.525a6.311 6.311 0 01-1.794 4.63 6.172 6.172 0 01-4.582 1.82 6.32 6.32 0 01-4.619-1.794 6.4 6.4 0 01-1.826-4.78zm2.965 1.67a4.1 4.1 0 00.945 2.788 3.19 3.19 0 002.535 1.087 3.105 3.105 0 002.473-1.068 4.272 4.272 0 00.924-2.9v-1.59a4.085 4.085 0 00-.935-2.778 3.147 3.147 0 00-2.5-1.077A3.178 3.178 0 0096 122.529a4.146 4.146 0 00-.953 2.871zM84.2 130.637l-2.259-1.418 15.276-24.449 2.256 1.418z"/><path data-name="Trazado 29495" d="M24.664 144.516l6.817 16.313 6.843-16.313h2.082V163h-1.562v-8.049l.127-8.252L32.091 163h-1.206l-6.855-16.237.127 8.138V163h-1.562v-18.484zm28.907 16.745a4.937 4.937 0 01-4.38 1.993 4.25 4.25 0 01-3.339-1.276 5.588 5.588 0 01-1.167-3.778v-8.937H46.2v8.747q0 3.923 3.174 3.923 3.3 0 4.177-2.729v-9.94h1.523V163H53.6zm7.084-12v15.377a4.173 4.173 0 01-.914 2.907 3.459 3.459 0 01-2.691 1 3.822 3.822 0 01-1.333-.239l.025-1.247a4.012 4.012 0 001.143.165q2.26 0 2.26-2.6v-15.36zm-.749-4.989a1.012 1.012 0 01.774.3 1.018 1.018 0 01.279.725 1 1 0 01-.279.719 1.024 1.024 0 01-.774.29.987.987 0 01-.755-.29 1.009 1.009 0 01-.273-.719 1.032 1.032 0 01.273-.725.976.976 0 01.755-.298zm10.36 18.982a5.963 5.963 0 01-3.166-.863 5.883 5.883 0 01-2.2-2.406 7.5 7.5 0 01-.787-3.459v-.546a8.083 8.083 0 01.768-3.567 6.111 6.111 0 012.139-2.495 5.277 5.277 0 012.971-.908 4.96 4.96 0 013.967 1.708 6.926 6.926 0 011.462 4.665v.851h-9.8v.292a5.752 5.752 0 001.338 3.891 4.261 4.261 0 003.371 1.555 4.95 4.95 0 002.152-.444 4.773 4.773 0 001.695-1.423l.952.724a5.543 5.543 0 01-4.862 2.425zm-.28-12.954a3.8 3.8 0 00-2.886 1.262 5.806 5.806 0 00-1.43 3.376h8.239v-.165a5.041 5.041 0 00-1.13-3.225 3.5 3.5 0 00-2.793-1.248zm14.739.254a5.674 5.674 0 00-1.025-.084 3.71 3.71 0 00-2.406.793 4.346 4.346 0 00-1.4 2.3V163h-1.516v-13.736h1.485l.025 2.184a4.04 4.04 0 013.872-2.437 2.5 2.5 0 011 .165zm7.719 12.7a5.963 5.963 0 01-3.167-.863 5.883 5.883 0 01-2.2-2.406 7.5 7.5 0 01-.787-3.459v-.546a8.083 8.083 0 01.768-3.567 6.111 6.111 0 012.139-2.495 5.277 5.277 0 012.971-.908 4.96 4.96 0 013.967 1.708 6.926 6.926 0 011.465 4.665v.851h-9.8v.292a5.752 5.752 0 001.339 3.891 4.261 4.261 0 003.371 1.555 4.95 4.95 0 002.152-.444 4.773 4.773 0 001.695-1.422l.952.724a5.543 5.543 0 01-4.865 2.424zm-.279-12.954a3.8 3.8 0 00-2.888 1.257 5.806 5.806 0 00-1.428 3.377h8.239v-.165a5.041 5.041 0 00-1.13-3.225 3.5 3.5 0 00-2.793-1.244zm16.618 9.2a2.165 2.165 0 00-.908-1.815 7 7 0 00-2.735-1.064 12.343 12.343 0 01-2.84-.889 3.78 3.78 0 01-1.5-1.225 3.056 3.056 0 01-.489-1.752 3.268 3.268 0 011.358-2.685 5.487 5.487 0 013.479-1.06 5.647 5.647 0 013.688 1.136 3.647 3.647 0 011.394 2.964h-1.523a2.46 2.46 0 00-1.007-2.01 3.971 3.971 0 00-2.545-.8 3.973 3.973 0 00-2.406.667 2.057 2.057 0 00-.908 1.733 1.873 1.873 0 00.753 1.6 7.99 7.99 0 002.755 1.035 12.948 12.948 0 013 1 3.88 3.88 0 011.479 1.282 3.282 3.282 0 01.482 1.815 3.29 3.29 0 01-1.4 2.78 5.993 5.993 0 01-3.669 1.042 6.153 6.153 0 01-3.891-1.162 3.576 3.576 0 01-1.492-2.939h1.523a2.642 2.642 0 001.124 2.076 4.593 4.593 0 002.736.743 4.317 4.317 0 002.564-.7 2.1 2.1 0 00.978-1.763z"/></g><g data-name="Grupo 24562"><g data-name="Capa 1"><g data-name="Grupo 24559"><path data-name="Rectángulo 7544" fill="none" d="M31 25h70v70H31z"/><g data-name="Grupo 24558"><g data-name="Grupo 24557" clip-path="url(#a)" transform="translate(31 80)"><g data-name="Grupo 24556" fill="none"><g data-name="Grupo 24555" stroke-linecap="round" stroke-linejoin="round" stroke-width="2.4"><path data-name="Line 4" stroke="#19a301" d="M41.68 7.5h8.37"/><path data-name="Line 5" stroke="#19a301" d="M58.41 7.5h.67"/><path data-name="Line 6" stroke="#19a301" d="M10.92 7.5h8.29"/><path data-name="Line 7" stroke="#82d400" d="M18.67 7.5H33.3"/></g><path data-name="Rectángulo 7545" d="M0 0h70v15H0z"/></g></g></g></g></g><g data-name="Grupo 24561"><g data-name="Grupo 24560" fill="none" stroke-linecap="round" stroke-linejoin="round" stroke-width="1.5" transform="translate(45.505 34.501)"><circle data-name="Ellipse 2" cx="5.8" cy="5.8" r="5.8" transform="translate(0 31.18)" stroke="#19a301"/><path data-name="Trazado 29473" d="M29 29.85a5.33 5.33 0 01-10.66 0" stroke="#000"/><path data-name="Trazado 29474" d="M34.22 29.73c.22.03.44.06.66.11a7.4 7.4 0 015.57 5.79 24.469 24.469 0 01.54 5.34v3.37H10.01" stroke="#000"/><path data-name="Trazado 29475" d="M13.38 29.72a7.85 7.85 0 00-2.12.53" stroke="#000"/><path data-name="Trazado 29476" d="M20.32 24.899v4.86h-1.99c-2.96 0-5.14.01-5.14.01V10.51a10.5 10.5 0 1121 0v8.189" stroke="#000"/><path data-name="Trazado 29477" d="M34.19 17.783V29.73s-2.22 0-5.21.01H26.8v-4.841" stroke="#000"/><path data-name="Trazado 29478" d="M31.07 14.32v4.35a6.363 6.363 0 01-6.36 6.36h-2.03a6.363 6.363 0 01-6.36-6.36v-4.35c0-.1 0-.21.01-.31v-.97h4.37s5.49.07 5.49-5.11c0 0 .15 5.04 4.74 5.04z" stroke="#000"/></g></g></g></g></g></g></svg>