<svg data-name="Group 22627" xmlns="http://www.w3.org/2000/svg" width="70" height="70"><g data-name="Group 22624"><g data-name="Group 22623" fill="none"><g data-name="Group 22622" stroke-linecap="round" stroke-linejoin="round" stroke-width="2.4"><path data-name="Line 4" stroke="#19a301" d="M41.677 62.5h8.375"/><path data-name="Line 5" stroke="#19a301" d="M58.405 62.5h.679"/><path data-name="Line 6" stroke="#19a301" d="M10.916 62.5h8.298"/><path data-name="Line 7" stroke="#82d400" d="M18.674 62.5h14.628"/></g><path data-name="Rectangle 6978" d="M0 55h70v15H0z"/></g></g><g data-name="Group 22626"><circle data-name="Ellipse 2" cx="5.795" cy="5.795" r="5.795" transform="translate(23.279 13.731)" fill="none" stroke="#19a301" stroke-linecap="round" stroke-linejoin="round" stroke-width="1.5"/><path data-name="Path 28714" d="M54.914 39.581a9.712 9.712 0 004.113-4.081L63 28.025l-8.19 1.031-6.894.868-3.143 3.995H31.184L28.2 29.924h-22v5.167h4.381l.109.211a2.909 2.909 0 01-.073 3.341" fill="none" stroke="#000" stroke-linecap="round" stroke-linejoin="round" stroke-width="1.5"/><path data-name="Path 28715" d="M20.689 21.378h-1.75v3.677h-6.87v4.869h14.137v-2.543" fill="none" stroke="#000" stroke-linecap="round" stroke-linejoin="round" stroke-width="1.5"/><path data-name="Path 28716" d="M16.679 16.277h-3.648l.133 8.778h3.584z" fill="none" stroke="#000" stroke-linecap="round" stroke-linejoin="round" stroke-width="1.5"/><path data-name="Line 3006" fill="none" stroke="#000" stroke-linecap="round" stroke-linejoin="round" stroke-width="1.5" d="M47.92 29.924H26.206"/><path data-name="Line 3007" fill="none" stroke="#000" stroke-linecap="round" stroke-linejoin="round" stroke-width="1.5" d="M22.537 25.534v1.44"/><g data-name="Group 22625"><path data-name="Path 28717" d="M36.347 52.014h-11.2a6.14 6.14 0 01-6.133-6.134v-6.3h4.193v6.3a1.943 1.943 0 001.94 1.94h11.2z" fill="none" stroke="#000" stroke-linecap="round" stroke-linejoin="round" stroke-width="1.5"/></g><path data-name="Rectangle 6979" fill="none" stroke="#000" stroke-linecap="round" stroke-linejoin="round" stroke-width="1.5" d="M36.347 45.398h3.859V54.5h-3.859z"/><path data-name="Rectangle 6980" fill="none" stroke="#000" stroke-linecap="round" stroke-linejoin="round" stroke-width="1.5" d="M40.205 47.82h21.271v4.194H40.205z"/><path data-name="Path 28718" d="M64.049 40.479c-3.027 0-3.027-1.8-6.055-1.8s-3.026 1.8-6.053 1.8-3.027-1.8-6.054-1.8-3.026 1.8-6.053 1.8-3.026-1.8-6.052-1.8-3.027 1.8-6.054 1.8-3.029-1.8-6.057-1.8-3.027 1.8-6.054 1.8-3.029-1.8-6.059-1.8-3.029 1.8-6.058 1.8" fill="none" stroke="#000" stroke-linecap="round" stroke-linejoin="round" stroke-width="1.5"/></g><path data-name="Rectangle 6981" fill="none" d="M0 0h70v70H0z"/></svg>