<svg data-name="Group 22651" xmlns="http://www.w3.org/2000/svg" width="70" height="70"><g data-name="Group 22647"><g data-name="Group 22646" fill="none"><g data-name="Group 22645" stroke-linecap="round" stroke-linejoin="round" stroke-width="2.4"><path data-name="Line 4" stroke="#19a301" d="M41.677 62.5h8.375"/><path data-name="Line 5" stroke="#19a301" d="M58.405 62.5h.679"/><path data-name="Line 6" stroke="#19a301" d="M10.916 62.5h8.298"/><path data-name="Line 7" stroke="#82d400" d="M18.674 62.5h14.628"/></g><path data-name="Rectangle 6993" d="M0 55h70v15H0z"/></g></g><g data-name="Group 22650"><circle data-name="Ellipse 2" cx="5.795" cy="5.795" r="5.795" transform="translate(14.252 23.005)" fill="none" stroke="#19a301" stroke-linecap="round" stroke-linejoin="round" stroke-width="1.5"/><g data-name="Group 22649"><g data-name="Group 22648" fill="none" stroke="#000" stroke-linecap="round" stroke-linejoin="round" stroke-width="1.533"><path data-name="Path 28736" d="M44.6 34.378l-8.783 19.441a.741.741 0 00.675 1.046h18.514a.74.74 0 00.662-1.072L45.94 34.352a.741.741 0 00-1.34.026z"/><path data-name="Line 3025" d="M45.448 42.134v5.079"/></g><ellipse data-name="Ellipse 3130" cx="1.475" cy="1.426" rx="1.475" ry="1.426" transform="translate(43.973 49.207)"/></g><g data-name="Grupo 6636" fill="none" stroke="#000" stroke-linecap="round" stroke-linejoin="round" stroke-width="1.533"><path data-name="Línea 1013" d="M31.117 19.387v3.682"/><path data-name="Línea 1014" d="M36.509 19.387v3.682"/><path data-name="Trazado 5699" d="M36.509 23.077l7.222 3.246a5.492 5.492 0 012.713 3.791v4.555"/><path data-name="Trazado 5700" d="M21.081 37.613v5.526h19.457"/><path data-name="Línea 1015" d="M31.116 23.077l-3.331 1.541"/><path data-name="Línea 1016" d="M33.813 26.126l-2.696-3.057"/><path data-name="Línea 1017" d="M33.813 26.126l2.696-3.057"/><path data-name="Trazado 5701" d="M38.87 15.084a5.078 5.078 0 11-10.156 0"/><path data-name="Trazado 5702" d="M28.709 15.084v-3.506a5.079 5.079 0 0110.157 0v3.506"/></g></g><path data-name="Rectangle 6994" fill="none" d="M0 0h70v70H0z"/></svg>