<svg data-name="Group 22677" xmlns="http://www.w3.org/2000/svg" width="70" height="70"><g data-name="Group 22671"><g data-name="Group 22670" fill="none"><g data-name="Group 22669" stroke-linecap="round" stroke-linejoin="round" stroke-width="2.4"><path data-name="Line 4" stroke="#19a301" d="M41.677 62.5h8.375"/><path data-name="Line 5" stroke="#19a301" d="M58.405 62.5h.679"/><path data-name="Line 6" stroke="#19a301" d="M10.916 62.5h8.298"/><path data-name="Line 7" stroke="#82d400" d="M18.674 62.5h14.628"/></g><path data-name="Rectangle 7005" d="M0 55h70v15H0z"/></g></g><path data-name="Rectangle 7006" fill="none" d="M0 0h70v70H0z"/><g data-name="Group 22676"><circle data-name="Ellipse 2" cx="5.795" cy="5.795" r="5.795" transform="translate(16.007 8.843)" fill="none" stroke="#19a301" stroke-linecap="round" stroke-linejoin="round" stroke-width="1.5"/><g data-name="Group 22672"><path data-name="Path 28752" d="M19.575 24.018v22.4a7.637 7.637 0 007.638 7.637h12.135l14.645-.031V9.928H30.384" fill="none" stroke="#000" stroke-linecap="round" stroke-linejoin="round" stroke-width="1.5"/></g><g data-name="Group 22675" fill="none" stroke="#000" stroke-linecap="round" stroke-linejoin="round" stroke-width="1.5"><g data-name="Group 22674"><path data-name="Line 3035" d="M36.759 29.053V44.75"/><path data-name="Line 3036" d="M44.668 23.989l-7.805 7.805"/><path data-name="Line 3037" d="M29.907 32.205l6.73 4.57"/><path data-name="Path 28753" d="M46.514 28.006a4.237 4.237 0 01-5.992-5.992c1.655-1.654 8.863-2.871 8.863-2.871s-1.217 7.208-2.871 8.863z"/><g data-name="Group 22673"><path data-name="Line 3038" d="M28.685 31.431l4.128 2.803"/><path data-name="Path 28754" d="M32.235 29.211a3.844 3.844 0 01-4.3 6.339c-1.611-1.093-3.56-7.048-3.56-7.048s6.25-.385 7.86.709z"/></g></g><path data-name="Line 3039" d="M30.153 44.79H43.93"/></g></g></svg>