<svg data-name="Group 22644" xmlns="http://www.w3.org/2000/svg" width="70" height="70"><g data-name="Group 22641"><g data-name="Group 22640" fill="none"><g data-name="Group 22639" stroke-linecap="round" stroke-linejoin="round" stroke-width="2.4"><path data-name="Line 4" stroke="#19a301" d="M41.677 62.5h8.375"/><path data-name="Line 5" stroke="#19a301" d="M58.405 62.5h.679"/><path data-name="Line 6" stroke="#19a301" d="M10.916 62.5h8.298"/><path data-name="Line 7" stroke="#82d400" d="M18.674 62.5h14.628"/></g><path data-name="Rectangle 6991" d="M0 55h70v15H0z"/></g></g><g data-name="Group 22643" fill="none" stroke-linecap="round" stroke-linejoin="round" stroke-width="1.5"><circle data-name="Ellipse 2" cx="5.795" cy="5.795" r="5.795" transform="translate(15.752 8.843)" stroke="#19a301"/><path data-name="Path 28732" d="M38.509 20.1a5.507 5.507 0 11-7.3-2.719 5.493 5.493 0 017.3 2.719z" stroke="#000"/><g data-name="Group 22642" stroke="#000"><circle data-name="Ellipse 3129" cx="3.646" cy="3.646" r="3.646" transform="translate(41.363 38.972)"/><path data-name="Path 28733" d="M52.723 36.4l-2.5.272a2.609 2.609 0 01-2.67-1.541l-1.012-2.3a10.015 10.015 0 00-1.53-.13 11.854 11.854 0 00-1.53.13l-1.012 2.3a2.609 2.609 0 01-2.67 1.541l-2.5-.272a9.907 9.907 0 00-1.524 2.648l1.484 2.027a2.609 2.609 0 010 3.083l-1.484 2.028a9.9 9.9 0 001.524 2.647l2.5-.272a2.61 2.61 0 012.67 1.542l1.012 2.3a9.069 9.069 0 003.06 0l1.012-2.3a2.61 2.61 0 012.67-1.542l2.5.272a9.9 9.9 0 001.525-2.647l-1.485-2.026a2.609 2.609 0 010-3.083l1.485-2.027a9.909 9.909 0 00-1.525-2.65z"/></g><path data-name="Path 28734" d="M19.648 23.3c0 7.62 13.8 32.2 13.8 32.2s1.59-2.83 3.69-6.87" stroke="#000"/><path data-name="Path 28735" d="M44.628 32.72c1.55-3.86 2.62-7.3 2.62-9.42a13.81 13.81 0 00-18.114-13.112" stroke="#000"/></g><path data-name="Rectangle 6992" fill="none" d="M0 0h70v70H0z"/></svg>