<svg data-name="Group 22668" xmlns="http://www.w3.org/2000/svg" width="70" height="70"><g data-name="Group 22664"><g data-name="Group 22663" fill="none"><g data-name="Group 22662" stroke-linecap="round" stroke-linejoin="round" stroke-width="2.4"><path data-name="Line 4" stroke="#19a301" d="M41.677 62.5h8.375"/><path data-name="Line 5" stroke="#19a301" d="M58.405 62.5h.679"/><path data-name="Line 6" stroke="#19a301" d="M10.916 62.5h8.298"/><path data-name="Line 7" stroke="#82d400" d="M18.674 62.5h14.628"/></g><path data-name="Rectangle 7000" d="M0 55h70v15H0z"/></g></g><g data-name="Group 22667"><circle data-name="Ellipse 2" cx="5.795" cy="5.795" r="5.795" transform="translate(25.582 5.843)" fill="none" stroke="#19a301" stroke-linecap="round" stroke-linejoin="round" stroke-width="1.5"/><rect data-name="Rectangle 7001" width="32.061" height="6.352" rx="2.355" transform="translate(30.017 29.564)" fill="none" stroke="#fff" stroke-linecap="round" stroke-linejoin="round" stroke-width="1.5"/><path data-name="Path 28743" d="M39.822 10.408h17.25a2.436 2.436 0 012.436 2.436v16.7H33.254" fill="none" stroke="#fff" stroke-linecap="round" stroke-linejoin="round" stroke-width="1.5"/><path data-name="Line 3028" fill="none" stroke="#fff" stroke-linecap="round" stroke-linejoin="round" stroke-width="1.5" d="M33.254 28.486v-8.512"/><path data-name="Line 3029" fill="none" stroke="#fff" stroke-linecap="round" stroke-linejoin="round" stroke-width="1.5" d="M39.822 15.072l19.686-.001"/><path data-name="Line 3030" fill="none" stroke="#fff" stroke-linecap="round" stroke-linejoin="round" stroke-width="1.5" d="M47.439 15.102v14.462"/><path data-name="Line 3031" fill="none" stroke="#fff" stroke-linecap="round" stroke-linejoin="round" stroke-width="1.5" d="M47.439 18.538h7.134"/><path data-name="Line 3032" fill="none" stroke="#fff" stroke-linecap="round" stroke-linejoin="round" stroke-width="1.5" d="M47.439 22.155h7.134"/><path data-name="Line 3033" fill="none" stroke="#fff" stroke-linecap="round" stroke-linejoin="round" stroke-width="1.5" d="M47.439 25.905h7.134"/><path data-name="Line 3034" fill="none" stroke="#fff" stroke-linecap="round" stroke-linejoin="round" stroke-width="1.5" d="M54.595 15.102v14.462"/><g data-name="Group 22665"><path data-name="Path 28749" d="M41.977 45.926H19.945v-4.457h22.032a2.765 2.765 0 002.762-2.762v-2.791H49.2v2.791a7.227 7.227 0 01-7.223 7.219z" fill="none" stroke="#fff" stroke-linecap="round" stroke-linejoin="round" stroke-width="1.5"/></g><path data-name="Rectangle 7002" fill="none" stroke="#fff" stroke-linecap="round" stroke-linejoin="round" stroke-width="1.5" d="M15.595 39.572h4.35v8.251h-4.35z"/><g data-name="Group 22666"><path data-name="Rectangle 7003" fill="none" stroke="#fff" stroke-linecap="round" stroke-linejoin="round" stroke-width="1.5" d="M8.316 41.469h7.278v4.457H8.316z"/></g><path data-name="Path 28750" d="M26.231 33.854c-2.288 0-2.288-2.228-4.577-2.228s-2.287 2.228-4.575 2.228-2.289-2.228-4.579-2.228-2.289 2.228-4.578 2.228" fill="none" stroke="#fff" stroke-linecap="round" stroke-linejoin="round" stroke-width="1.5"/><path data-name="Path 28751" d="M62.077 54.463c-2.707 0-2.707-2.229-5.415-2.229s-2.707 2.229-5.414 2.229-2.707-2.229-5.415-2.229-2.706 2.229-5.413 2.229-2.707-2.229-5.413-2.229-2.708 2.229-5.415 2.229-2.709-2.229-5.417-2.229-2.708 2.229-5.415 2.229-2.709-2.229-5.419-2.229-2.709 2.229-5.418 2.229" fill="none" stroke="#fff" stroke-linecap="round" stroke-linejoin="round" stroke-width="1.5"/></g><path data-name="Rectangle 7004" fill="none" d="M0 0h70v70H0z"/></svg>