<svg data-name="Group 22632" xmlns="http://www.w3.org/2000/svg" width="70" height="70"><g data-name="Group 22630"><g data-name="Group 22629" fill="none"><g data-name="Group 22628" stroke-linecap="round" stroke-linejoin="round" stroke-width="2.4"><path data-name="Line 4" stroke="#19a301" d="M41.677 62.5h8.375"/><path data-name="Line 5" stroke="#19a301" d="M58.405 62.5h.679"/><path data-name="Line 6" stroke="#19a301" d="M10.916 62.5h8.298"/><path data-name="Line 7" stroke="#82d400" d="M18.674 62.5h14.628"/></g><path data-name="Rectangle 6984" d="M0 55h70v15H0z"/></g></g><g data-name="Group 22631" fill="none" stroke-linecap="round" stroke-linejoin="round" stroke-width="1.5"><circle data-name="Ellipse 2" cx="5.795" cy="5.795" r="5.795" transform="translate(13.71 10.514)" stroke="#19a301"/><path data-name="Path 28719" d="M41.545 54.544H28.262a8.359 8.359 0 01-8.359-8.36V25.43" stroke="#000"/><path data-name="Path 28720" d="M25.838 9.456h23.224l7.228 7.468v23.645" stroke="#000"/><path data-name="Path 28721" d="M48.924 9.456V17.5h7.366" stroke="#000"/><path data-name="Line 3008" stroke="#000" d="M26.861 34.171h21.055"/><path data-name="Line 3009" stroke="#000" d="M26.861 43.671h9.055"/><path data-name="Line 3010" stroke="#000" d="M26.861 24.671h21.055"/><path data-name="Path 28722" d="M34.639 54.544h13.282a8.36 8.36 0 008.36-8.36V24.615" stroke="#000"/><path data-name="Path 28723" d="M40.5 44.171l2 4 7-8" stroke="#000"/></g><path data-name="Rectangle 6985" fill="none" d="M0 0h70v70H0z"/></svg>