<svg data-name="Group 22638" xmlns="http://www.w3.org/2000/svg" width="70" height="70"><g data-name="Group 22634"><circle data-name="Ellipse 2" cx="5.795" cy="5.795" r="5.795" transform="translate(11.255 7.296)" fill="none" stroke="#19a301" stroke-linecap="round" stroke-linejoin="round" stroke-width="1.5"/><path data-name="Line 3011" fill="none" stroke="#000" stroke-linecap="round" stroke-linejoin="round" stroke-width="1.5" d="M24.612 37.801h-6.696"/><path data-name="Line 3012" fill="none" stroke="#000" stroke-linecap="round" stroke-linejoin="round" stroke-width="1.5" d="M47.712 24.974h0"/><path data-name="Path 28724" d="M18.842 21.433v3.54h20.223" fill="none" stroke="#000" stroke-linecap="round" stroke-linejoin="round" stroke-width="1.5"/><path data-name="Path 28725" d="M47.712 24.974h3.566V14.307a1.326 1.326 0 00-1.326-1.326H25.3" fill="none" stroke="#000" stroke-linecap="round" stroke-linejoin="round" stroke-width="1.5"/><path data-name="Rectangle 6987" d="M31.73 7.823h12.208a1.827 1.827 0 011.827 1.827v3.331h0-16.147 0V9.935a2.112 2.112 0 012.112-2.112z" fill="none" stroke="#000" stroke-linecap="round" stroke-linejoin="round" stroke-width="1.5"/><path data-name="Line 3013" fill="none" stroke="#000" stroke-linecap="round" stroke-linejoin="round" stroke-width="1.5" d="M25.303 17.451h26.023"/><path data-name="Path 28726" d="M39.065 24.986h-24a1.512 1.512 0 00-1.509 1.514v15.3" fill="none" stroke="#000" stroke-linecap="round" stroke-linejoin="round" stroke-width="1.5"/><path data-name="Path 28727" d="M56.876 41.8V26.3a1.307 1.307 0 00-1.307-1.307l-7.857-.012" fill="none" stroke="#000" stroke-linecap="round" stroke-linejoin="round" stroke-width="1.5"/><path data-name="Line 3014" fill="none" stroke="#000" stroke-linecap="round" stroke-linejoin="round" stroke-width="1.5" d="M28.953 29.064l-15.397.004"/><path data-name="Line 3015" fill="none" stroke="#000" stroke-linecap="round" stroke-linejoin="round" stroke-width="1.5" d="M24.616 29.052v12.744"/><path data-name="Line 3016" fill="none" stroke="#000" stroke-linecap="round" stroke-linejoin="round" stroke-width="1.5" d="M24.612 33.041h-6.696"/><path data-name="Line 3017" fill="none" stroke="#000" stroke-linecap="round" stroke-linejoin="round" stroke-width="1.5" d="M17.893 29.052v12.744"/><path data-name="Line 3018" fill="none" stroke="#000" stroke-linecap="round" stroke-linejoin="round" stroke-width="1.5" d="M28.953 24.974v16.822"/><path data-name="Path 28728" d="M39.065 25.009l-.024 6.6H47.7V25" fill="none" stroke="#000" stroke-linecap="round" stroke-linejoin="round" stroke-width="1.5"/><path data-name="Line 3019" fill="none" stroke="#000" stroke-linecap="round" stroke-linejoin="round" stroke-width="1.5" d="M52.294 24.997v7.052"/><path data-name="Line 3020" fill="none" stroke="#000" stroke-linecap="round" stroke-linejoin="round" stroke-width="1.5" d="M33.997 24.997v7.052"/><path data-name="Line 3021" fill="none" stroke="#000" stroke-linecap="round" stroke-linejoin="round" stroke-width="1.5" d="M13.556 41.796h43.32"/><g data-name="Group 22633"><path data-name="Rectangle 6988" fill="none" stroke="#000" stroke-linecap="round" stroke-linejoin="round" stroke-width="1.5" d="M45.57 45.785h4.064v8.919H45.57z"/></g><path data-name="Path 28729" d="M45.57 53.9H36a7.047 7.047 0 01-7.047-7.046V41.8h7.31v2.776a2 2 0 002 2l7.306.014z" fill="none" stroke="#000" stroke-linecap="round" stroke-linejoin="round" stroke-width="1.5"/><path data-name="Path 28730" d="M66.888 41.81c-2.454 0-2.454-2.384-4.909-2.384s-2.454 2.384-4.909 2.384" fill="none" stroke="#000" stroke-linecap="round" stroke-linejoin="round" stroke-width="1.5"/><path data-name="Path 28731" d="M13.644 41.8c-2.633 0-2.633-2.384-5.266-2.384S5.745 41.8 3.112 41.8" fill="none" stroke="#000" stroke-linecap="round" stroke-linejoin="round" stroke-width="1.5"/><path data-name="Line 3022" fill="none" stroke="#000" stroke-linecap="round" stroke-linejoin="round" stroke-width="1.5" d="M49.677 46.586h12.668"/><path data-name="Line 3023" fill="none" stroke="#000" stroke-linecap="round" stroke-linejoin="round" stroke-width="1.5" d="M49.677 53.899h12.668"/><path data-name="Line 3024" fill="none" stroke="#000" stroke-linecap="round" stroke-linejoin="round" stroke-width="1.5" d="M37.262 46.304l-6.143 5.624"/></g><g data-name="Group 22637"><g data-name="Group 22636" fill="none"><g data-name="Group 22635" stroke-linecap="round" stroke-linejoin="round" stroke-width="2.4"><path data-name="Line 4" stroke="#19a301" d="M41.677 62.5h8.375"/><path data-name="Line 5" stroke="#19a301" d="M58.405 62.5h.679"/><path data-name="Line 6" stroke="#19a301" d="M10.916 62.5h8.298"/><path data-name="Line 7" stroke="#82d400" d="M18.674 62.5h14.628"/></g><path data-name="Rectangle 6989" d="M0 55h70v15H0z"/></g></g><path data-name="Rectangle 6990" fill="none" d="M0 0h70v70H0z"/></svg>