<svg data-name="Group 22661" xmlns="http://www.w3.org/2000/svg" width="70" height="70"><g data-name="Group 22658"><g data-name="Group 22657" fill="none"><g data-name="Group 22656" stroke-linecap="round" stroke-linejoin="round" stroke-width="2.4"><path data-name="Line 4" stroke="#19a301" d="M41.677 62.5h8.375"/><path data-name="Line 5" stroke="#19a301" d="M58.405 62.5h.679"/><path data-name="Line 6" stroke="#19a301" d="M10.916 62.5h8.298"/><path data-name="Line 7" stroke="#82d400" d="M18.674 62.5h14.628"/></g><path data-name="Rectangle 6995" d="M0 55h70v15H0z"/></g></g><g data-name="Group 22660" fill="none" stroke-linecap="round" stroke-linejoin="round" stroke-width="1.5"><circle data-name="Ellipse 2" cx="5.795" cy="5.795" r="5.795" transform="translate(14.734 18.131)" stroke="#19a301"/><path data-name="Path 28737" d="M52.09 29.283v23.309a1.909 1.909 0 01-1.909 1.908H22.3a1.839 1.839 0 01-1.839-1.84V32.731" stroke="#000"/><path data-name="Path 28738" d="M28.139 18.04h9.473a.849.849 0 00.765-.913v-4.715a.848.848 0 00-.765-.912h-16.57a.848.848 0 00-.765.912v2.556" stroke="#000"/><rect data-name="Rectangle 6996" width="5.036" height="5.394" rx="1.191" transform="translate(24.611 34.809)" stroke="#000"/><rect data-name="Rectangle 6997" width="5.036" height="5.394" rx="1.191" transform="translate(33.757 34.809)" stroke="#000"/><rect data-name="Rectangle 6998" width="5.036" height="5.394" rx="1.191" transform="translate(42.902 34.809)" stroke="#000"/><path data-name="Path 28739" d="M31.012 54.5v-8.133a.639.639 0 01.64-.639H41.7a.64.64 0 01.64.639V54.5" stroke="#000"/><path data-name="Path 28740" d="M29.076 18.071h26.19v11.212H28.6" stroke="#000"/><path data-name="Path 28741" d="M41.124 26.643v-5.789l4.026 5.789v-5.789" stroke="#000"/><g data-name="Group 22659" stroke="#000"><path data-name="Path 28742" d="M34.031 26.643l2.514-5.789L39 26.643"/><path data-name="Line 3026" d="M34.851 24.754h3.29"/></g><path data-name="Line 3027" stroke="#000" d="M47.986 26.643v-5.789"/></g><path data-name="Rectangle 6999" fill="none" d="M0 0h70v70H0z"/></svg>