<svg xmlns="http://www.w3.org/2000/svg" width="70" height="70"><g data-name="Group 22646" fill="none"><g data-name="Group 22648"><path data-name="Rectangle 6990" d="M0 0h70v70H0z"/><g data-name="Group 22651"><g data-name="Group 22053" stroke-linecap="round" stroke-linejoin="round" stroke-width="2.4"><path data-name="Line 4" stroke="#19a301" d="M41.677 62.5h8.375"/><path data-name="Line 5" stroke="#19a301" d="M58.405 62.5h.679"/><path data-name="Line 6" stroke="#19a301" d="M10.916 62.5h8.298"/><path data-name="Line 7" stroke="#82d400" d="M18.674 62.5h14.628"/></g><path data-name="Rectangle 6707" d="M0 55h70v15H0z"/></g></g><g data-name="Group 22650" stroke-linecap="round" stroke-linejoin="round" stroke-width="1.5" transform="translate(92.49 -92)"><circle data-name="Ellipse 2" cx="5.795" cy="5.795" r="5.795" transform="translate(-82.74 100.843)" stroke="#19a301"/><path data-name="Path 28787" d="M-56.3 145.873h-13.28a8.36 8.36 0 01-8.36-8.36v-21.754" stroke="#fff"/><path data-name="Path 28788" d="M-70 100.79h21.22l7.23 7.46v10.79" stroke="#fff"/><path data-name="Path 28789" d="M-48.919 100.786v8.048h7.366" stroke="#fff"/><path data-name="Line 3170" stroke="#fff" d="M-68.982 116.774h19.055"/><path data-name="Line 3171" stroke="#fff" d="M-58.546 125.27h-10.44"/><path data-name="Line 3172" stroke="#fff" d="M-61.276 133.77h-7.71"/><path data-name="Line 3173" stroke="#fff" d="M-41.565 119.04v-3.1"/><path data-name="Path 28790" d="M-63.205 145.87h13.28a8.244 8.244 0 003.61-.82" stroke="#fff"/><path data-name="Line 3174" stroke="#fff" d="M-45.185 144.4h-.01"/><g data-name="Group 22649" stroke="#fff"><g data-name="Grupo 6478"><path data-name="Path 28791" d="M-45.836 146.241l.01.01 2.786-8.095"/><path data-name="Path 28792" d="M-45.846 146.241h.01l-1.776-4.38-4.088 2.352.01.02-.03-.01 2.755-7.984"/></g><g data-name="Grupo 6479"><path data-name="Path 28793" d="M-40.961 138.066l2.826 8.186.01-.01"/><path data-name="Path 28794" d="M-38.115 146.241h-.01l1.776-4.38 4.088 2.352-.01.02.03-.01-3.008-8.286"/></g><circle data-name="Ellipse 3130" cx="9.588" cy="9.588" r="9.588" transform="translate(-52.023 119)"/></g></g></g></svg>