<svg xmlns="http://www.w3.org/2000/svg" width="84" height="84"><g data-name="Group 17146"><g data-name="Group 17135" fill="#54a020"><path data-name="Path 17661" d="M53.906 46.379a1.369 1.369 0 01-1.369 1.369 1.369 1.369 0 01-1.368-1.369 1.369 1.369 0 011.368-1.368 1.369 1.369 0 011.369 1.368"/><path data-name="Path 17662" d="M14.492 46.79a4.724 4.724 0 01-3.543-1.6 1.363 1.363 0 00-1.016-.453h-1.6A1.368 1.368 0 006.966 46.1v12.322a1.365 1.365 0 001.368 1.367h11.053a7.513 7.513 0 00-1.747 4.792 7.536 7.536 0 007.527 7.527 7.536 7.536 0 007.527-7.527 7.51 7.51 0 00-1.748-4.792h22.108a7.5 7.5 0 00-1.748 4.792 7.535 7.535 0 007.526 7.527 7.535 7.535 0 007.527-7.527 7.5 7.5 0 00-1.747-4.79h11.053a1.369 1.369 0 001.369-1.369V46.1a1.369 1.369 0 00-1.369-1.368h-1.6a1.366 1.366 0 00-1.017.453 4.722 4.722 0 01-3.543 1.6 4.8 4.8 0 01-4.79-4.79 4.8 4.8 0 014.79-4.79 4.722 4.722 0 013.543 1.6 1.366 1.366 0 001.017.453h1.6a1.369 1.369 0 001.369-1.368V25.578a1.369 1.369 0 00-1.369-1.369H64.612a7.5 7.5 0 001.747-4.789 7.536 7.536 0 00-7.527-7.528 7.535 7.535 0 00-7.526 7.528 7.5 7.5 0 001.747 4.789H30.945a7.5 7.5 0 001.749-4.789 7.536 7.536 0 00-7.527-7.528 7.536 7.536 0 00-7.527 7.528 7.5 7.5 0 001.747 4.789H8.334a1.368 1.368 0 00-1.368 1.369V37.9a1.368 1.368 0 001.368 1.368h1.6a1.363 1.363 0 001.016-.453 4.724 4.724 0 013.543-1.6 4.8 4.8 0 014.79 4.79 4.8 4.8 0 01-4.79 4.79m0-12.317a7.5 7.5 0 00-4.789 1.748v-9.28h11.358a1.369 1.369 0 001.369-1.368v-1.6a1.366 1.366 0 00-.453-1.016 4.725 4.725 0 01-1.6-3.543 4.8 4.8 0 014.79-4.79 4.8 4.8 0 014.79 4.79 4.729 4.729 0 01-1.6 3.543 1.368 1.368 0 00-.453 1.017v1.6a1.369 1.369 0 001.368 1.368h11.359V37.9a1.369 1.369 0 001.369 1.368h1.6a1.366 1.366 0 001.016-.453 4.723 4.723 0 013.543-1.6 4.79 4.79 0 014.631 3.564 1.37 1.37 0 001.673.974 1.367 1.367 0 00.974-1.672 7.532 7.532 0 00-7.278-5.6 7.506 7.506 0 00-4.79 1.748v-9.283h11.356a1.369 1.369 0 001.369-1.368v-1.6a1.366 1.366 0 00-.453-1.016 4.722 4.722 0 01-1.6-3.543 4.8 4.8 0 014.789-4.79 4.8 4.8 0 014.79 4.79 4.722 4.722 0 01-1.6 3.543 1.368 1.368 0 00-.453 1.017v1.6a1.369 1.369 0 001.369 1.368h11.359v9.275a7.5 7.5 0 00-4.79-1.748A7.535 7.535 0 0061.98 42a7.535 7.535 0 007.527 7.526 7.5 7.5 0 004.79-1.747v9.275H62.938a1.369 1.369 0 00-1.369 1.368v1.6a1.37 1.37 0 00.453 1.017 4.718 4.718 0 011.6 3.543 4.8 4.8 0 01-4.79 4.789 4.8 4.8 0 01-4.789-4.789 4.719 4.719 0 011.6-3.543 1.372 1.372 0 00.453-1.018v-1.6a1.369 1.369 0 00-1.369-1.368H43.368v-9.272a7.489 7.489 0 002.859 1.491 1.366 1.366 0 001.676-.966 1.368 1.368 0 00-.966-1.677 4.82 4.82 0 01-2.322-1.439 1.368 1.368 0 00-1.017-.453h-1.6a1.368 1.368 0 00-1.369 1.368v10.949H29.27a1.368 1.368 0 00-1.368 1.368v1.6a1.372 1.372 0 00.453 1.018 4.726 4.726 0 011.6 3.543 4.8 4.8 0 01-4.79 4.789 4.8 4.8 0 01-4.79-4.789 4.722 4.722 0 011.6-3.543 1.372 1.372 0 00.453-1.018v-1.6a1.369 1.369 0 00-1.369-1.368H9.701v-9.275a7.5 7.5 0 004.789 1.747A7.534 7.534 0 0022.019 42a7.535 7.535 0 00-7.527-7.527"/></g><path data-name="Rectangle 5321" fill="none" d="M0 0h84v84H0z"/></g></svg>