<svg data-name="Group 22244" xmlns="http://www.w3.org/2000/svg" width="70" height="70"><path data-name="Rectangle 6804" fill="none" d="M0 0h70v70H0z"/><g data-name="Group 22246"><g data-name="Group 22245" fill="none"><g data-name="Group 22244" stroke-linecap="round" stroke-linejoin="round" stroke-width="2.4"><path data-name="Line 4" stroke="#19a301" d="M41.677 62.5h8.375"/><path data-name="Line 5" stroke="#82d400" d="M58.405 62.5h.679"/><path data-name="Line 6" stroke="#19a301" d="M10.916 62.5h8.298"/><path data-name="Line 7" stroke="#82d400" d="M18.674 62.5h14.628"/></g><path data-name="Rectangle 6805" d="M0 55h70v15H0z"/></g></g><g data-name="Group 22249" fill="none" stroke-linecap="round" stroke-linejoin="round" stroke-width="1.5"><circle data-name="Ellipse 2" cx="5.795" cy="5.795" r="5.795" transform="translate(9.922 28.935)" stroke="#19a301"/><path data-name="Line 3013" stroke="#fff" d="M25.226 22.172v3.905"/><path data-name="Line 3014" stroke="#fff" d="M30.939 22.172v3.905"/><path data-name="Path 28435" d="M30.937 26.088l7.66 3.441a5.068 5.068 0 012.586 2.654" stroke="#fff"/><path data-name="Path 28436" d="M14.584 43.735v5.4H33.09" stroke="#fff"/><path data-name="Line 3015" stroke="#fff" d="M25.226 26.085l-3.752 1.687"/><path data-name="Line 3016" stroke="#fff" d="M28.083 29.317l-2.857-3.24"/><path data-name="Line 3017" stroke="#fff" d="M28.082 29.317l2.857-3.24"/><path data-name="Path 28439" d="M33.444 17.611a5.385 5.385 0 01-10.769 0" stroke="#fff"/><path data-name="Path 28440" d="M22.675 17.611v-3.718a5.385 5.385 0 1110.769 0v3.718" stroke="#fff"/><g data-name="Group 22247" stroke="#fff"><path data-name="Line 3018" d="M43.727 27.124v3.905"/><path data-name="Line 3019" d="M49.44 27.124v3.905"/><path data-name="Path 28443" d="M43.727 31.038l-7.655 3.441a5.056 5.056 0 00-2.983 4.612v15h26.989v-15a5.055 5.055 0 00-2.978-4.612l-7.654-3.441"/><path data-name="Line 3020" d="M46.584 34.269l-2.857-3.24"/><path data-name="Line 3021" d="M46.584 34.269l2.857-3.24"/><path data-name="Path 28444" d="M51.946 22.563a5.385 5.385 0 11-10.77 0"/><path data-name="Path 28445" d="M41.176 22.563v-3.718a5.385 5.385 0 0110.77 0v3.718"/></g><g data-name="Group 22248" stroke="#fff"><path data-name="Path 28446" d="M50.745 48.372s-3.7-2.328-4.944-4.758c-1.878-3.666 3.173-6.183 4.944-2.857"/><path data-name="Path 28447" d="M50.745 48.372s3.7-2.328 4.943-4.758c1.878-3.666-3.172-6.183-4.943-2.857"/></g></g><g data-name="Group 22250" fill="none" stroke="#fff" stroke-linecap="round" stroke-linejoin="round" stroke-width="1.5"><path data-name="Path 28448" d="M50.745 48.372s-3.7-2.328-4.944-4.758c-1.878-3.666 3.173-6.183 4.944-2.857"/><path data-name="Path 28449" d="M50.745 48.372s3.7-2.328 4.943-4.758c1.878-3.666-3.172-6.183-4.943-2.857"/></g></svg>