<svg xmlns="http://www.w3.org/2000/svg" width="84" height="84"><g data-name="Group 17152"><g data-name="Group 17140" fill="#8d8875"><path data-name="Path 17667" d="M77.905 40.56l-17.455.173-.024-2.466 4.709-.047a1.084 1.084 0 001.073-1.1 1.084 1.084 0 00-1.095-1.073l-4.708.053-.024-2.466 3.269-.033a4.533 4.533 0 003.212-1.367l7.059-7.2a3.389 3.389 0 001.518.34 3.379 3.379 0 002.395-1.02 3.381 3.381 0 00.972-2.416 3.379 3.379 0 00-1.02-2.395 3.379 3.379 0 00-2.415-.972 3.379 3.379 0 00-2.395 1.02A3.38 3.38 0 0072.005 22a3.394 3.394 0 00.369 1.51l-7.059 7.2a2.371 2.371 0 01-1.684.718l-3.27.033-.024-2.393a5.726 5.726 0 00-5.775-5.662l-2.392.024-.1-9.6a3.409 3.409 0 002.286-3.247 3.406 3.406 0 00-3.436-3.368 3.406 3.406 0 00-3.367 3.436 3.406 3.406 0 002.349 3.2l.095 9.6-2.467.024-.046-4.709a1.084 1.084 0 00-1.095-1.073 1.084 1.084 0 00-1.074 1.094l.047 4.71-2.466.024-.173-17.455A1.084 1.084 0 0041.628 5a1.083 1.083 0 00-1.073 1.09l.172 17.456-2.466.024-.047-4.71a1.085 1.085 0 00-1.1-1.073 1.085 1.085 0 00-1.073 1.095l.046 4.71-2.466.024-.033-3.269a4.531 4.531 0 00-1.367-3.212l-7.2-7.061a3.408 3.408 0 00-.678-3.911 3.407 3.407 0 00-4.811.048 3.407 3.407 0 00.048 4.811 3.4 3.4 0 002.415.971 3.419 3.419 0 001.508-.371l7.2 7.061a2.383 2.383 0 01.718 1.685l.032 3.269-2.392.024a5.717 5.717 0 00-1.428.2 1.085 1.085 0 00-.767 1.328 1.085 1.085 0 001.329.766 3.559 3.559 0 01.887-.121l25.491-.252a3.555 3.555 0 013.586 3.516l.253 25.491a3.574 3.574 0 01-.1.889 1.086 1.086 0 00.793 1.313 1.09 1.09 0 00.271.031 1.084 1.084 0 001.041-.825 5.713 5.713 0 00.165-1.43l-.023-2.391 9.6-.1a3.407 3.407 0 003.246 2.285 3.4 3.4 0 003.367-3.435 3.406 3.406 0 00-3.435-3.368 3.405 3.405 0 00-3.2 2.349l-9.6.095-.024-2.466 4.71-.047a1.084 1.084 0 001.075-1.089 1.084 1.084 0 00-1.1-1.074l-4.71.046-.024-2.466 17.456-.172a1.085 1.085 0 001.073-1.1 1.084 1.084 0 00-1.088-1.074m-3.382-19.454a1.222 1.222 0 01.868-.37 1.228 1.228 0 01.876.352 1.232 1.232 0 01.37.869 1.228 1.228 0 01-.353.876 1.223 1.223 0 01-.868.369 1.221 1.221 0 01-.876-.352 1.23 1.23 0 01-.37-.869 1.224 1.224 0 01.353-.875M50.942 9.39a1.234 1.234 0 011.245 1.221 1.234 1.234 0 01-1.221 1.245 1.234 1.234 0 01-1.245-1.221 1.233 1.233 0 011.221-1.245M21.1 9.473a1.234 1.234 0 01-.017-1.744 1.226 1.226 0 01.868-.369 1.234 1.234 0 01.876.351 1.236 1.236 0 01.017 1.745 1.235 1.235 0 01-1.744.017m52.259 40.254a1.233 1.233 0 011.245 1.22 1.235 1.235 0 01-1.221 1.246 1.234 1.234 0 01-1.245-1.221 1.234 1.234 0 011.221-1.245"/><path data-name="Path 17668" d="M60.483 72.378l-7.2-7.062a2.374 2.374 0 01-.717-1.684l-.032-3.27 2.391-.024a5.716 5.716 0 001.428-.194 1.083 1.083 0 00.766-1.328 1.083 1.083 0 00-1.327-.766 3.573 3.573 0 01-.888.12l-25.492.252a3.554 3.554 0 01-3.585-3.515l-.253-25.491a3.576 3.576 0 01.1-.89 1.084 1.084 0 00-.792-1.313 1.085 1.085 0 00-1.313.793 5.728 5.728 0 00-.166 1.431l.024 2.392-9.6.095a3.407 3.407 0 00-3.246-2.286 3.406 3.406 0 00-3.368 3.436 3.4 3.4 0 003.435 3.367 3.406 3.406 0 003.2-2.349l9.6-.095.025 2.467-4.71.047a1.083 1.083 0 00-1.073 1.094 1.084 1.084 0 001.1 1.073l4.709-.046.025 2.466-17.455.173a1.084 1.084 0 00-1.074 1.1 1.084 1.084 0 001.1 1.073l17.455-.172.024 2.466-4.709.047a1.083 1.083 0 00-1.073 1.094 1.083 1.083 0 001.1 1.074l4.709-.046.024 2.466-3.27.032a4.53 4.53 0 00-3.211 1.368l-7.059 7.2a3.4 3.4 0 00-1.517-.339 3.379 3.379 0 00-2.4 1.02 3.381 3.381 0 00-.972 2.415 3.377 3.377 0 001.02 2.4 3.377 3.377 0 002.415.973 3.377 3.377 0 002.395-1.02A3.38 3.38 0 0011.988 62a3.385 3.385 0 00-.369-1.511l7.059-7.2a2.38 2.38 0 011.685-.718l3.269-.032.024 2.392a5.724 5.724 0 005.775 5.662l2.393-.023.094 9.6a3.406 3.406 0 00-2.285 3.246 3.405 3.405 0 003.435 3.368 3.407 3.407 0 003.368-3.435 3.409 3.409 0 00-2.349-3.2l-.1-9.6 2.466-.024.046 4.709a1.086 1.086 0 001.1 1.074 1.085 1.085 0 001.073-1.1l-.047-4.71 2.467-.024.173 17.455A1.084 1.084 0 0042.36 79a1.084 1.084 0 001.074-1.1l-.173-17.455 2.466-.025.047 4.71a1.085 1.085 0 001.1 1.074 1.085 1.085 0 001.073-1.1l-.047-4.709 2.467-.024.033 3.269a4.527 4.527 0 001.367 3.211l7.2 7.062a3.405 3.405 0 00.678 3.91 3.388 3.388 0 002.415.971 3.389 3.389 0 002.395-1.018 3.406 3.406 0 00-.047-4.811 3.406 3.406 0 00-3.923-.6m-49.854-38.1a1.234 1.234 0 01-1.245-1.221 1.234 1.234 0 011.221-1.245 1.234 1.234 0 011.246 1.221 1.236 1.236 0 01-1.222 1.245M9.469 62.886a1.228 1.228 0 01-.868.37 1.225 1.225 0 01-.876-.353 1.226 1.226 0 01-.37-.869 1.227 1.227 0 01.352-.875 1.228 1.228 0 01.869-.37 1.225 1.225 0 01.876.353 1.226 1.226 0 01.37.868 1.225 1.225 0 01-.353.876m23.579 11.716a1.234 1.234 0 01-1.245-1.221 1.234 1.234 0 011.221-1.245 1.234 1.234 0 011.245 1.221 1.235 1.235 0 01-1.221 1.245m29.857 1.669a1.234 1.234 0 01-1.744.017 1.234 1.234 0 01-.017-1.744 1.232 1.232 0 01.869-.37 1.23 1.23 0 01.875.353 1.233 1.233 0 01.017 1.744"/><path data-name="Path 17669" d="M33.169 50.2a4.8 4.8 0 005.04 4.511 5.172 5.172 0 003.893-1.767 5.18 5.18 0 003.928 1.69 4.832 4.832 0 004.942-4.329 5.068 5.068 0 002.575-4.363 4.892 4.892 0 00-1.542-3.462 4.886 4.886 0 001.473-3.491 5.237 5.237 0 00-4.067-4.88 3.652 3.652 0 00.1-.875 4.18 4.18 0 00-4.382-3.938 4.512 4.512 0 00-3.246 1.386 4.51 4.51 0 00-3.272-1.321 4.18 4.18 0 00-4.3 4.024 3.678 3.678 0 00.116.872 5.237 5.237 0 00-3.969 4.96 4.763 4.763 0 001.172 3.074 5.361 5.361 0 00-1.109 3.3 5.581 5.581 0 002.653 4.606m2.874-14.006h.029a1.085 1.085 0 00.7-.264 1.082 1.082 0 00.205-1.4c-.008-.013-.015-.027-.024-.039l-.015-.019a1.255 1.255 0 00-.053-.069 1.612 1.612 0 01-.407-1.036 2.022 2.022 0 012.157-1.834 2.022 2.022 0 012.193 1.791 1.084 1.084 0 001.094 1.074 1.084 1.084 0 001.073-1.1 2.021 2.021 0 012.158-1.834 2.021 2.021 0 012.192 1.791 1.513 1.513 0 01-.156.683 6.042 6.042 0 00-1.774.464 1.084 1.084 0 00-.564 1.426 1.084 1.084 0 001.426.564 3.907 3.907 0 011.5-.318h.061a3.254 3.254 0 013.48 2.937 2.891 2.891 0 01-1.643 2.533 1.086 1.086 0 00-.569.965 1.083 1.083 0 00.588.953 2.892 2.892 0 011.693 2.5 2.777 2.777 0 01-.934 2.048 4.869 4.869 0 00-2.874-2.267 1.083 1.083 0 00-1.352.722 1.085 1.085 0 00.723 1.353 2.458 2.458 0 011.87 2.225 2.639 2.639 0 01-2.8 2.42 2.639 2.639 0 01-2.85-2.364l-.069-6.952a2.639 2.639 0 012.8-2.42 1.084 1.084 0 001.073-1.1 1.084 1.084 0 00-1.1-1.073 5.3 5.3 0 00-2.818.831l-.014-1.384a1.084 1.084 0 00-1.094-1.074 1.084 1.084 0 00-1.074 1.1l.06 6.018a5.146 5.146 0 00-1.2-.542 1.083 1.083 0 00-1.352.722 1.084 1.084 0 00.722 1.353 2.459 2.459 0 011.87 2.225l.023 2.318a2.641 2.641 0 01-2.8 2.42 2.64 2.64 0 01-2.85-2.365 2.18 2.18 0 01.659-1.553 1.085 1.085 0 00-.01-1.534 1.085 1.085 0 00-1.534.011 4.586 4.586 0 00-.661.847 3.308 3.308 0 01-1.107-2.38 3.691 3.691 0 013.031-3.461 1.085 1.085 0 00.8-1.307A1.085 1.085 0 0035.205 40a6.612 6.612 0 00-1.98.83 2.607 2.607 0 01-.608-1.632 3.256 3.256 0 013.422-3.006"/></g><path data-name="Rectangle 5324" fill="none" d="M0 0h84v84H0z"/></g></svg>