<svg xmlns="http://www.w3.org/2000/svg" width="70" height="70"><g data-name="Group 22279" fill="none"><path data-name="Rectangle 6819" d="M0 0h70v70H0z"/><g data-name="Group 22280"><g data-name="Group 22279" stroke-linecap="round" stroke-linejoin="round" stroke-width="2.4"><path data-name="Line 4" stroke="#fff" d="M41.677 62.5h8.375"/><path data-name="Line 5" stroke="#82d400" d="M58.405 62.5h.679"/><path data-name="Line 6" stroke="#fff" d="M10.916 62.5h8.298"/><path data-name="Line 7" stroke="#82d400" d="M18.674 62.5h14.628"/></g><path data-name="Rectangle 6820" d="M0 55h70v15H0z"/></g><g data-name="Group 22281" stroke-linecap="round" stroke-linejoin="round" stroke-width="1.5" transform="translate(450)"><circle data-name="Ellipse 2" cx="5.795" cy="5.795" r="5.795" transform="translate(-432.238 8.843)" stroke="#fff"/><path data-name="Path 28510" d="M-407.084 39.487v14.742h-15.832V34.956h15.832z" stroke="#000"/><path data-name="Rectangle 6821" stroke="#000" d="M-407.084 46h15.832v8.229h-15.832z"/><path data-name="Rectangle 6822" stroke="#000" d="M-438.749 42.386h15.832v11.843h-15.832z"/><path data-name="Path 28511" d="M-418.054 15.855l2.89-5.855 2.89 5.855 6.461.939-4.675 4.557 1.1 6.435-5.779-3.038-5.779 3.038 1.1-6.435-.808-.788" stroke="#000"/></g></g></svg>