<svg xmlns="http://www.w3.org/2000/svg" width="84" height="84"><g data-name="Group 17150"><path data-name="Path 17666" d="M69.926 53.3l-6.829-1.138v-2.481a8.9 8.9 0 004.15-5.462h.292a4.446 4.446 0 004.442-4.441 4.434 4.434 0 00-3.276-4.266 6.656 6.656 0 003.276-5.726 6.668 6.668 0 00-6.663-6.662 4.418 4.418 0 00-3.19 1.364 8.546 8.546 0 00-4.626-1.364h-1.5a8.569 8.569 0 00-7.018 3.636l-.9.6a6.158 6.158 0 00-2.749 5.134 6.175 6.175 0 00.185 1.5l.768 3.072a4.4 4.4 0 00-.953 2.716 4.447 4.447 0 004.442 4.442h.291a8.908 8.908 0 004.144 5.458v2.483l-6.828 1.136a7.749 7.749 0 00-6.5 7.667v15.454h35.532V60.968a7.749 7.749 0 00-6.5-7.667m-15.084 1.01l2.409 3.213-2.2 2.754-.592-5.9zm3.614 11.007h.4l1.777 8.883h-3.955zm.558-2.221h-.717L57.4 60.88l1.246-1.558 1.245 1.557zm1.046-5.574l2.41-3.213.384.064-.591 5.9zm9.7-17.744A2.224 2.224 0 0167.539 42v-4.442a2.224 2.224 0 012.221 2.221m-6.663-12.214a2.224 2.224 0 012.221-2.221 4.447 4.447 0 014.442 4.442 4.447 4.447 0 01-4.442 4.441H53.104a1.111 1.111 0 01-1.11-1.11h-2.221v2.221a4.408 4.408 0 00-1.558.3l-.545-2.181a3.984 3.984 0 01-.118-.959 3.942 3.942 0 011.758-3.287l1.263-.842.123-.185a6.356 6.356 0 015.3-2.837h1.5a6.358 6.358 0 013.534 1.069l.01.007a4.482 4.482 0 00-.167 1.146m-13.321 12.21a2.224 2.224 0 012.221-2.221V42a2.223 2.223 0 01-2.221-2.221M51.994 42v-5.757a3.273 3.273 0 001.11.205h12.214V42a6.669 6.669 0 01-6.662 6.662A6.668 6.668 0 0151.994 42m6.662 8.883a8.857 8.857 0 002.221-.292v2.144l-2.221 2.96-2.221-2.96v-2.144a8.845 8.845 0 002.221.292M43.112 60.968a5.537 5.537 0 014.639-5.477l4.513-.751 1.118 11.177 2.435-3.044.577 1.441-1.982 9.886h-4.641V61.987H47.55V74.2h-4.438zM74.201 74.2H69.76V61.987h-2.221V74.2h-4.641l-1.978-9.888.576-1.442 2.435 3.044 1.118-11.177 4.513.752a5.539 5.539 0 014.639 5.478zm-64.4-10.593v12.815h24.428v-2.793a23.684 23.684 0 00-6.662-16.511v-2.9h1.535a4.029 4.029 0 001.8-.424 4 4 0 002.21-3.594v-2.958l3.331-1.111v-.8c0-3.239-1.9-9.193-2.232-10.2a10 10 0 00-9.982-9.785h-2.217a10 10 0 00-9.993 9.994v3.917a20.013 20.013 0 01-2.105 8.91 22.283 22.283 0 00-2.337 9.9v.586a6.643 6.643 0 002.221 4.952m2.221 8.372h6.662V74.2h-6.662zM32.012 74.2h-11.1v-8.882h-2.221v4.442h-6.662v-4.831a6.645 6.645 0 002.22.389 6.669 6.669 0 006.663-6.662h5.085a21.486 21.486 0 016.015 14.973zm-1.111-28.56v4.56a1.784 1.784 0 01-.994 1.606 1.784 1.784 0 01-.8.191H23.13v2.22h2.221v2.221H20.91v-8.462l-1.318-.658a1.628 1.628 0 01-.9-1.463 1.636 1.636 0 011.635-1.634h1.549l.911-6.369a1.641 1.641 0 011.618-1.4h7.912a46.589 46.589 0 011.884 8.094zm-21.1 12.429a20.009 20.009 0 012.1-8.91 22.3 22.3 0 002.337-9.9v-3.921a7.782 7.782 0 017.773-7.773h2.221a7.779 7.779 0 017.684 6.662h-7.525a3.878 3.878 0 00-3.817 3.311l-.639 4.481a3.86 3.86 0 00-3.476 3.836 3.835 3.835 0 002.132 3.449l.089.044v9.308a4.446 4.446 0 01-4.442 4.441 4.446 4.446 0 01-4.441-4.441zm19.986-17.181A1.111 1.111 0 0128.675 42a1.111 1.111 0 01-1.11-1.111 1.111 1.111 0 011.11-1.11 1.111 1.111 0 011.11 1.11m15.546-26.648H29.786V12.02h15.545zm-4.441 4.441H29.785v-2.221H40.89zm-3.791 4.442l3.655 3.655a2.7 2.7 0 001.9.786 2.683 2.683 0 002.681-2.68v-1.761h.185a4.262 4.262 0 004.257-4.258V12.02a4.447 4.447 0 00-4.442-4.442H29.789a4.447 4.447 0 00-4.441 4.442v6.846a4.263 4.263 0 004.258 4.258zm-9.534-4.258V12.02a2.223 2.223 0 012.22-2.221h15.546a2.223 2.223 0 012.221 2.221v6.846a2.039 2.039 0 01-2.04 2.034h-2.4v3.982a.478.478 0 01-.785.325L38.02 20.9h-8.416a2.039 2.039 0 01-2.037-2.037" fill="#4a4793"/><path data-name="Rectangle 5323" fill="none" d="M0 0h84v84H0z"/></g></svg>