<svg data-name="Group 17151" xmlns="http://www.w3.org/2000/svg" width="84" height="84"><g data-name="Group 17143" fill="#dd195b"><path data-name="Path 17670" d="M35.659 69.478l-.21 1.021.2-1.022a1.042 1.042 0 10-.4 2.044h.019a1.017 1.017 0 00.2.018 1.042 1.042 0 00.195-2.066"/><path data-name="Path 17671" d="M43.626 69.813l.1 1.037-.107-1.036a1.042 1.042 0 00.1 2.078h.137a1.042 1.042 0 00-.239-2.071"/><path data-name="Path 17672" d="M39.637 69.945h-.015a1.036 1.036 0 00-1.08 1 1.048 1.048 0 001 1.088h.049a1.042 1.042 0 00.046-2.083"/><path data-name="Path 17673" d="M31.809 68.419h-.013a1.036 1.036 0 00-1.326.631 1.048 1.048 0 00.634 1.336 1.066 1.066 0 00.353.061 1.042 1.042 0 00.352-2.023"/><path data-name="Path 17674" d="M47.559 69.084l.256 1.01-.259-1.009a1.042 1.042 0 00.259 2.051 1.073 1.073 0 00.261-.033l.024-.003a1.042 1.042 0 00-.544-2.012"/><path data-name="Path 17675" d="M51.326 67.77l.413.956-.416-.956a1.043 1.043 0 00.417 2 1.055 1.055 0 00.415-.087l.025-.012a1.042 1.042 0 00-.854-1.9"/><g data-name="Group 17142"><path data-name="Path 17676" d="M27.829 20.265a1.057 1.057 0 00.494-.123 1.042 1.042 0 00-.981-1.839l-.013.007a1.04 1.04 0 00.5 1.955"/><path data-name="Path 17677" d="M15.775 31.905a1.043 1.043 0 001.407-.439l.018-.036a1.042 1.042 0 10-1.425.475"/><path data-name="Path 17678" d="M14.307 35.825a1.06 1.06 0 00.335.056 1.042 1.042 0 00.986-.709l.014-.041a1.042 1.042 0 10-1.335.694"/><path data-name="Path 17679" d="M17.831 28.259a1.04 1.04 0 001.455-.229l.014-.019a1.042 1.042 0 00-1.7-1.211l.84.618-.84-.618a1.041 1.041 0 00.23 1.455"/><path data-name="Path 17680" d="M24.291 22.516a1.046 1.046 0 10-.6-1.893l-.027.019a1.043 1.043 0 00.63 1.874"/><path data-name="Path 17681" d="M13.377 51.629a1.041 1.041 0 00.994.735 1.06 1.06 0 00.308-.046 1.049 1.049 0 10-1.315-.735l.013.046"/><path data-name="Path 17682" d="M21.143 25.262a1.045 1.045 0 10-.728-1.786l-.018.018a1.04 1.04 0 00.746 1.768"/><path data-name="Path 17683" d="M14.529 47.086a1.042 1.042 0 00-2.068.258l.006.042a1.039 1.039 0 001.028.888.985.985 0 00.153-.011 1.042 1.042 0 00.881-1.177"/><path data-name="Path 17684" d="M13.22 44.1h.031a1.043 1.043 0 001.042-1.012v-.045A1.043 1.043 0 1013.22 44.1"/><path data-name="Path 17685" d="M13.448 39.922a1.068 1.068 0 00.185.016 1.043 1.043 0 001.025-.858l.007-.046a1.042 1.042 0 10-1.217.888"/><path data-name="Path 17686" d="M62.606 28.588a1.042 1.042 0 001.715-1.183l-.866.579.863-.584a1.042 1.042 0 00-1.725 1.169z"/><path data-name="Path 17687" d="M67.928 39.075a1.041 1.041 0 00-.919 1.152v.045a1.042 1.042 0 001.031.9 1.064 1.064 0 00.148-.011 1.049 1.049 0 00-.265-2.081"/><path data-name="Path 17688" d="M66.169 36.134v.014a1.042 1.042 0 002-.589v-.014a1.042 1.042 0 00-2 .589"/><path data-name="Path 17689" d="M64.7 32.238a1.048 1.048 0 00.94.585 1.042 1.042 0 00.933-1.5l-.944.44.943-.442a1.042 1.042 0 10-1.887.885z"/><path data-name="Path 17690" d="M59.981 25.334a1.039 1.039 0 10-.032-.033z"/><path data-name="Path 17691" d="M68.266 43.426a1.049 1.049 0 00-.089 2.1.582.582 0 00.059 0 1.043 1.043 0 001.04-.985v-.043a1.04 1.04 0 00-1.011-1.069"/><path data-name="Path 17692" d="M53.317 20.217l.025.013a1.027 1.027 0 00.486.122 1.043 1.043 0 00.494-1.961l-.5.912.5-.914a1.042 1.042 0 10-1 1.828"/><path data-name="Path 17693" d="M56.842 22.5l.016.013a1.042 1.042 0 001.26-1.661h-.007a1.042 1.042 0 10-1.269 1.648"/><path data-name="Path 17694" d="M76.927 59.2l-4.892-4.9a2.2 2.2 0 00-3.116 0l-.114.115-.321-.322a4.214 4.214 0 01-.912-1.365 1.069 1.069 0 00-.074-.193 4.206 4.206 0 01-.243-1.416v-1.385a1.042 1.042 0 00.31.1 1.066 1.066 0 00.177.015 1.049 1.049 0 10-.494-1.973 5.874 5.874 0 00-1.722-3.918l-4.745-4.754a5.632 5.632 0 00-7.2-.647l-.5-.506V26.137a5.917 5.917 0 00-1.468-3.9 4.2 4.2 0 01-1.045-2.776v-.873h.072a2.206 2.206 0 002.2-2.2V9.45a2.206 2.206 0 00-2.2-2.2H31.17a2.205 2.205 0 00-2.2 2.2v6.932a2.205 2.205 0 002.2 2.2h.161v.457a4.183 4.183 0 01-1.231 2.978l-2.1 2.1a5.879 5.879 0 00-1.728 4.18v6.723a5.615 5.615 0 00.6 2.54 5.593 5.593 0 00-3.656 1.644l-4.746 4.754a5.878 5.878 0 00-1.729 4.181v2.981a4.181 4.181 0 01-1.229 2.974l-.318.318-.112-.115a2.2 2.2 0 00-3.117 0L7.073 59.2a2.211 2.211 0 000 3.117L8.749 64a1.042 1.042 0 101.474-1.473l-1.675-1.681a.123.123 0 010-.172l4.893-4.9a.117.117 0 01.165 0l.851.852L26.071 68.26l1.3 1.3a.121.121 0 010 .171l-4.892 4.9a.117.117 0 01-.166 0l-9.14-9.156a1.042 1.042 0 00-1.473 1.476l9.14 9.156a2.2 2.2 0 003.116 0l4.892-4.9a2.208 2.208 0 000-3.116l-.053-.053.617-.619a4.191 4.191 0 012.7-1.222 5.889 5.889 0 003.794-1.72l4.494-4.5a3.569 3.569 0 002.579-2.718 3.553 3.553 0 005.078-3.215v-2.479a3.551 3.551 0 005.024-3.239v-7.315l3.206 3.221a1.042 1.042 0 101.477-1.47l-2.673-2.686a3.549 3.549 0 014.219.606l4.746 4.754a3.812 3.812 0 011.12 2.708v2.976a6.254 6.254 0 001.838 4.446l.323.324-1.516 1.51-9.142 9.159-.51-.511-.016-.015-.089-.09a6.279 6.279 0 00-4.036-1.83A3.818 3.818 0 0149.571 63l-3.424-3.4a1.042 1.042 0 00-1.47 1.478l3.422 3.4a5.889 5.889 0 003.8 1.72 4.188 4.188 0 012.695 1.222l.05.05a1.2 1.2 0 00.087.088l.48.48-.053.054a2.21 2.21 0 000 3.116l4.892 4.9a2.2 2.2 0 003.116 0l13.761-13.79a2.21 2.21 0 000-3.116m-8.973-10.363h-.02l-.19-.039zM34.426 63a3.812 3.812 0 01-2.454 1.113 6.281 6.281 0 00-4.036 1.83l-.615.616-.553-.555-.022-.021L16.668 55.89l.323-.324a6.254 6.254 0 001.838-4.446v-2.976a3.8 3.8 0 011.12-2.708l4.746-4.754a3.548 3.548 0 014.224-.6l-2.677 2.682a1.042 1.042 0 001.476 1.472l3.2-3.2V54.04a3.561 3.561 0 003.551 3.56 3.524 3.524 0 001.542-.353 3.573 3.573 0 001.767 2.4zm16.566-14.674a1.47 1.47 0 11-2.94 0V36.7a1.042 1.042 0 10-2.084 0v17.34a1.47 1.47 0 01-2.92.244V36.69a1.053 1.053 0 00-2.1.012V54.04a3.6 3.6 0 00.021.39v2.1a1.47 1.47 0 11-2.94 0V36.678a1.042 1.042 0 00-2.084 0V54.04a1.47 1.47 0 11-2.94 0V34.655a1.042 1.042 0 10-2.084 0v3.586a.981.981 0 00-.251.12 3.568 3.568 0 01-2.31-3.336V28.3a3.808 3.808 0 011.12-2.708l2.1-2.1a6.249 6.249 0 001.839-4.446v-.457h2.091a1.043 1.043 0 000-2.085h-4.34a.119.119 0 01-.119-.119V9.45a.119.119 0 01.119-.119h19.465a.12.12 0 01.12.119v6.932a.119.119 0 01-.12.119H40.4a1.043 1.043 0 000 2.085h8.08v.873a6.293 6.293 0 001.561 4.151 3.829 3.829 0 01.951 2.527zm24.46 12.52L61.687 74.635a.117.117 0 01-.167 0l-4.892-4.9a.121.121 0 010-.171l.788-.789 7.991-8.005 4.987-5a.116.116 0 01.165 0l4.893 4.9a.123.123 0 010 .172"/><path data-name="Path 17695" d="M34.469 11.8a1.112 1.112 0 101.11 1.112 1.112 1.112 0 00-1.11-1.112"/><path data-name="Path 17696" d="M70.817 59.308a1.112 1.112 0 101.11 1.111 1.111 1.111 0 00-1.11-1.111"/></g><path data-name="Path 17697" d="M23.8 69.939a1.11 1.11 0 10-1.109 1.112 1.112 1.112 0 001.109-1.112"/></g><path data-name="Rectangle 5325" fill="none" d="M0 0h84v84H0z"/></svg>