<svg data-name="Group 22928" xmlns="http://www.w3.org/2000/svg" width="70" height="70"><g data-name="Group 22930"><path data-name="Path 28956" d="M26.381 8.492l4.3-3.022 2.73-.97.65 1.48-2.45 1.21-3.43 4.36v3.34h.97l2.04 3.01-.46 1.44 2.68 2.22 3.44-.93 2.13.05 2.69 2.78.69-1.02 3.61-.34" fill="none" stroke="#000" stroke-linecap="round" stroke-linejoin="round" stroke-width="1.5"/><path data-name="Path 28957" d="M43.381 40.89v.1h-2.55l2.27 4.77-.74 9.74-1.34-.88h-1.49l1.09-4.12-4.98-.61-3.57 1.34-7-6.53-3.48-.42-4.73-.09-5-2.92 2.55-6.22 2.96-1.71-1.99-2 .88-4.54-2.69-4.91 1.95-3.2 1.67 1.81.159-2.03" fill="none" stroke="#000" stroke-linecap="round" stroke-linejoin="round" stroke-width="1.5"/><g data-name="Group 22929"><path data-name="Path 28958" d="M35.836 33.323h-3.272v7.563h23.007v-7.563H35.836z" fill="none" stroke="#000" stroke-linecap="round" stroke-linejoin="round" stroke-width="1.5"/><path data-name="Rectangle 7110" fill="none" stroke="#000" stroke-linecap="round" stroke-linejoin="round" stroke-width="1.5" d="M32.564 41.41H30v-8.611h2.564z"/><path data-name="Rectangle 7111" fill="none" stroke="#000" stroke-linecap="round" stroke-linejoin="round" stroke-width="1.5" d="M58.139 41.41h-2.564v-8.611h2.564z"/><path data-name="Path 28959" d="M44.167 29.834v3.49h7.61v-6.6h-7.61z" fill="none" stroke="#000" stroke-linecap="round" stroke-linejoin="round" stroke-width="1.5"/><g data-name="Group 22928"><circle data-name="Elipse 2295" cx="3.602" cy="3.602" r="3.602" transform="translate(44.37 15.5)" fill="none" stroke="#000" stroke-linecap="round" stroke-linejoin="round" stroke-width="1.5"/></g><path data-name="Line 3177" fill="none" stroke="#000" stroke-linecap="round" stroke-linejoin="round" stroke-width="1.5" d="M47.972 26.726v-4.02"/></g><circle data-name="Ellipse 2" cx="5.795" cy="5.795" r="5.795" transform="translate(12.426 4.405)" fill="none" stroke="#19a301" stroke-linecap="round" stroke-linejoin="round" stroke-width="1.5"/></g><g data-name="Group 22933"><g data-name="Group 22932" fill="none"><g data-name="Group 22931" stroke-linecap="round" stroke-linejoin="round" stroke-width="2.4"><path data-name="Line 4" stroke="#19a301" d="M41.677 62.5h8.375"/><path data-name="Line 5" stroke="#19a301" d="M58.405 62.5h.679"/><path data-name="Line 6" stroke="#19a301" d="M10.916 62.5h8.298"/><path data-name="Line 7" stroke="#82d400" d="M18.674 62.5h14.628"/></g><path data-name="Rectangle 7112" d="M0 55h70v15H0z"/></g></g><path data-name="Rectangle 7113" fill="none" d="M0 0h70v70H0z"/></svg>