<svg xmlns="http://www.w3.org/2000/svg" width="70" height="70"><g data-name="Group 22951" fill="none"><g data-name="Group 22952"><g data-name="Group 22951" stroke-linecap="round" stroke-linejoin="round" stroke-width="2.4"><path data-name="Line 4" stroke="#19a301" d="M41.677 62.5h8.375"/><path data-name="Line 5" stroke="#19a301" d="M58.405 62.5h.679"/><path data-name="Line 6" stroke="#19a301" d="M10.916 62.5h8.298"/><path data-name="Line 7" stroke="#82d400" d="M18.674 62.5h14.628"/></g><path data-name="Rectangle 7115" d="M0 55h70v15H0z"/></g><g data-name="Group 22953" stroke-linecap="round" stroke-linejoin="round" stroke-width="1.5" transform="translate(-177)"><circle data-name="Ellipse 2" cx="5.795" cy="5.795" r="5.795" transform="translate(191.837 10.131)" stroke="#19a301"/><rect data-name="Rectangle 7116" width="8.826" height="4.48" rx=".698" transform="translate(208.049 9.5)" stroke="#000"/><path data-name="Path 28960" d="M200.856 24.633v1.9h-1.172a1.448 1.448 0 00-1.448 1.448v.689a1.448 1.448 0 001.448 1.449h1.172v6.964h-1.172a1.448 1.448 0 00-1.448 1.448v.69a1.448 1.448 0 001.448 1.448h1.172v8.964h24.687v-8.962h1.172a1.448 1.448 0 001.448-1.448v-.69a1.448 1.448 0 00-1.448-1.448h-1.172v-6.964h1.172a1.448 1.448 0 001.448-1.449v-.689a1.448 1.448 0 00-1.448-1.448h-1.172V18.26h-18.162" stroke="#000"/><path data-name="Line 3178" stroke="#000" d="M205.635 27.933h15.129"/><path data-name="Line 3179" stroke="#000" d="M205.635 38.437h15.129"/><rect data-name="Rectangle 7117" width="29.927" height="4.281" rx="1.687" transform="translate(198.236 49.635)" stroke="#000"/><path data-name="Path 28961" d="M206.1 13.98h21a1.059 1.059 0 011.059 1.059V17.2a1.059 1.059 0 01-1.059 1.06h-20.658" stroke="#000"/></g><path data-name="Rectangle 7118" d="M0 0h70v70H0z"/></g></svg>