<svg xmlns="http://www.w3.org/2000/svg" width="70" height="70"><g data-name="Group 22962" fill="none"><g data-name="Group 22962" stroke-linecap="round" stroke-linejoin="round" stroke-width="1.5" transform="translate(-90)"><circle data-name="Ellipse 2" cx="5.795" cy="5.795" r="5.795" transform="translate(102.185 15.605)" stroke="#19a301"/><path data-name="Path 28962" d="M154.4 54.267c-3.675 0-3.675-3.59-7.35-3.59s-3.675 3.59-7.35 3.59-3.674-3.59-7.348-3.59-3.675 3.59-7.35 3.59-3.676-3.59-7.352-3.59-3.675 3.59-7.35 3.59-3.678-3.59-7.355-3.59-3.678 3.59-7.355 3.59" stroke="#000"/><path data-name="Line 3180" stroke="#000" d="M114.752 47.406h-7.127"/><path data-name="Line 3181" stroke="#000" d="M139.336 33.753h0"/><path data-name="Path 28963" d="M108.611 29.986v3.768h21.522" stroke="#000"/><path data-name="Path 28964" d="M139.336 33.753h3.8V22.4a1.412 1.412 0 00-1.412-1.411h-24.967" stroke="#000"/><path data-name="Rectangle 7123" d="M122.319 15.5h13.009a1.936 1.936 0 011.936 1.936v3.554h0-17.184 0v-3.251a2.239 2.239 0 012.239-2.239z" stroke="#000"/><path data-name="Line 3182" stroke="#000" d="M116.337 25.747h26.846"/><path data-name="Path 28965" d="M130.133 33.766H104.6a1.61 1.61 0 00-1.61 1.611V50.25" stroke="#000"/><path data-name="Path 28966" d="M149.089 51.222V35.157a1.391 1.391 0 00-1.391-1.391l-8.362-.013" stroke="#000"/><path data-name="Line 3183" stroke="#000" d="M119.372 38.107l-16.387.004"/><path data-name="Line 3184" stroke="#000" d="M114.756 38.094v13.563"/><path data-name="Line 3185" stroke="#000" d="M114.752 42.339h-7.127"/><path data-name="Line 3186" stroke="#000" d="M107.601 38.094v14.979"/><path data-name="Line 3187" stroke="#000" d="M119.372 33.753v16.828"/><path data-name="Path 28967" d="M130.133 33.791l-.025 7.026h9.216v-7.039" stroke="#000"/><path data-name="Line 3188" stroke="#000" d="M144.213 33.778v7.505"/><path data-name="Line 3189" stroke="#000" d="M124.74 33.778v7.505"/></g><g data-name="Group 22964"><g data-name="Group 22963" stroke-linecap="round" stroke-linejoin="round" stroke-width="2.4"><path data-name="Line 4" stroke="#19a301" d="M41.677 62.5h8.375"/><path data-name="Line 5" stroke="#19a301" d="M58.405 62.5h.679"/><path data-name="Line 6" stroke="#19a301" d="M10.916 62.5h8.298"/><path data-name="Line 7" stroke="#82d400" d="M18.674 62.5h14.628"/></g><path data-name="Rectangle 7124" d="M0 55h70v15H0z"/></g><path data-name="Rectangle 7125" d="M0 0h70v70H0z"/></g></svg>