<svg xmlns="http://www.w3.org/2000/svg" width="200" height="200"><g data-name="Grupo 24890"><path data-name="Trazado 29515" d="M100 0A100 100 0 110 100 100 100 0 01100 0z" fill="#2e3d43"/><g data-name="Grupo 24852" fill="none"><g data-name="Grupo 24848"><g data-name="Grupo 24847"><g data-name="Grupo 24846" stroke-linecap="round" stroke-linejoin="round" stroke-width="2.4"><path data-name="Line 4" stroke="#fff" d="M106.677 127.5h8.375"/><path data-name="Line 5" stroke="#19a301" d="M123.405 127.5h.679"/><path data-name="Line 6" stroke="#fff" d="M75.916 127.5h8.298"/><path data-name="Line 7" stroke="#82d400" d="M83.674 127.5h14.628"/></g><path data-name="Rectángulo 7943" d="M65 120h70v15H65z"/></g><path data-name="Rectángulo 7944" d="M65 65h70v70H65z"/></g><g data-name="Grupo 24851" stroke-linecap="round" stroke-linejoin="round" stroke-width="1.5" transform="translate(155 65)"><g data-name="Grupo 24849"><circle data-name="Ellipse 2" cx="5.795" cy="5.795" r="5.795" transform="translate(-79.245 7.843)" stroke="#19a301"/><path data-name="Trazado 29835" d="M-52.8 52.873h-13.286a8.36 8.36 0 01-8.359-8.36V22.759" stroke="#fff"/><path data-name="Trazado 29836" d="M-65.838 7.79h20.56l7.22 7.46v5.91l-.01 15.67" stroke="#fff"/><path data-name="Trazado 29837" d="M-38.628 47.28v5.59h-21.08" stroke="#fff"/><path data-name="Trazado 29838" d="M-45.424 7.786v8.048h7.366" stroke="#fff"/><path data-name="Línea 4165" stroke="#fff" d="M-65.487 24.774h19.055"/><path data-name="Línea 4166" stroke="#fff" d="M-48.578 30.77h-16.91"/><path data-name="Línea 4167" stroke="#fff" d="M-54.968 36.77h-10.52"/><path data-name="Línea 4168" stroke="#fff" d="M-54.668 42.77h-10.82"/></g><g data-name="Grupo 24850" stroke="#fff"><circle data-name="Elipse 3263" cx="8.831" cy="8.831" r="8.831" transform="translate(-55.359 30.524)"/><path data-name="Rectángulo 7945" d="M-39.954 46.074l1.485-1.634h0l7.353 6.681a1.1 1.1 0 01.074 1.554h0a1.1 1.1 0 01-1.56.08l-7.352-6.681h0z"/></g><circle data-name="Elipse 3264" cx="4.876" cy="4.876" r="4.876" transform="translate(-51.404 34.479)" stroke="#fff"/></g></g></g></svg>