<svg xmlns="http://www.w3.org/2000/svg" width="70" height="70"><g data-name="Grupo 24438"><path data-name="Rectángulo 7784" fill="none" d="M0 0h70v70H0z"/></g><path data-name="Rectángulo 7785" fill="none" d="M0 55h70v15H0z"/><path fill="none" stroke="#fff" stroke-linecap="round" stroke-linejoin="round" stroke-width="2.4" d="M41.7 62.5h8.4"/><path fill="none" stroke="#82d400" stroke-linecap="round" stroke-linejoin="round" stroke-width="2.4" d="M58.4 62.5h.7"/><path fill="none" stroke="#fff" stroke-linecap="round" stroke-linejoin="round" stroke-width="2.4" d="M10.9 62.5h8.3"/><path fill="none" stroke="#82d400" stroke-linecap="round" stroke-linejoin="round" stroke-width="2.4" d="M18.7 62.5h14.6"/><circle cx="5.8" cy="5.8" r="5.8" transform="translate(8.1 15)" fill="none" stroke="#fff" stroke-linecap="round" stroke-linejoin="round" stroke-width="1.5"/><path data-name="Trazado 29496" d="M62.3 19.5v29.4H13.5V29.3" fill="none" stroke="#fff" stroke-linecap="round" stroke-linejoin="round" stroke-miterlimit="10" stroke-width="1.5"/><g data-name="Grupo 24439"><path data-name="Trazado 29497" d="M62.3 19.5L37 33.7l-15.9-9.6" fill="none" stroke="#fff" stroke-linecap="round" stroke-linejoin="round" stroke-miterlimit="10" stroke-width="1.5"/></g><g data-name="Grupo 24440" fill="none" stroke="#fff" stroke-linecap="round" stroke-linejoin="round" stroke-miterlimit="10" stroke-width="1.5"><path d="M49.612 11.887l4.944-2.836 4.33 7.546-4.945 2.836zM33.4 24.5L51 14.4l1.5 2.6L35 27z"/><path d="M62.3 19.5l-7.7 4.4-2-3.7 7.6-4.4zM46.108 8.974l7.633-4.379 2.14 3.73-7.633 4.379z"/></g><path data-name="Línea 3907" fill="none" stroke="#fff" stroke-linecap="round" stroke-linejoin="round" stroke-miterlimit="10" stroke-width="1.5" d="M42.5 19.2H23"/></svg>