<svg data-name="Capa 1" xmlns="http://www.w3.org/2000/svg" xmlns:xlink="http://www.w3.org/1999/xlink" viewBox="0 0 70 70"><defs><symbol id="a" data-name="OCENSA-EXT" viewBox="0 0 70 15"><path data-name="Line 4" fill="none" stroke="#19a301" stroke-linecap="round" stroke-linejoin="round" stroke-width="2.4" d="M41.68 7.5h8.37"/><path data-name="Line 5" fill="none" stroke="#19a301" stroke-linecap="round" stroke-linejoin="round" stroke-width="2.4" d="M58.4 7.5h.68"/><path data-name="Line 6" fill="none" stroke="#19a301" stroke-linecap="round" stroke-linejoin="round" stroke-width="2.4" d="M10.92 7.5h8.29"/><path data-name="Line 7" fill="none" stroke="#82d400" stroke-linecap="round" stroke-linejoin="round" stroke-width="2.4" d="M18.67 7.5H33.3"/><path fill="none" d="M0 0h70v15H0z"/></symbol></defs><path fill="none" d="M0 0h70v70H0z"/><circle data-name="Ellipse 2" cx="16.64" cy="11.64" r="5.8" fill="none" stroke="#19a301" stroke-linecap="round" stroke-linejoin="round" stroke-width="1.5"/><path fill="none" stroke="#000" stroke-linecap="round" stroke-linejoin="round" stroke-width="1.5" d="M24.58 5.79h20.23l7.33 7.46v25.93m-36.5-18.42v21.75A8.36 8.36 0 0024 50.87h19.87"/><path fill="none" stroke="#000" stroke-linecap="round" stroke-linejoin="round" stroke-width="1.5" d="M44.66 5.79v8.04h7.37M24.6 29.77h19.06m-19.06 6h19.06m-19.06 6h19.06m7.41 5.42a2.15 2.15 0 112.15-2.14m-2.15 2.14a2.15 2.15 0 11-2.15 2.15m2.15-6.44v-1.19m0 10.97v-1.19M34.13 11.95l1.93 3.92 4.33.63-3.13 3.05.74 4.31-3.87-2.04-3.87 2.04.74-4.31-3.13-3.05 4.32-.63 1.94-3.92z"/><circle cx="51.07" cy="47.19" r="8.09" fill="none" stroke="#000" stroke-linecap="round" stroke-linejoin="round" stroke-width="1.5"/><use width="70" height="15" transform="translate(0 55)" xlink:href="#a"/></svg>