<svg xmlns="http://www.w3.org/2000/svg" width="70" height="70"><g data-name="Grupo 23691"><g data-name="Grupo 23690" fill="none"><g data-name="Grupo 23689" stroke-linecap="round" stroke-linejoin="round" stroke-width="2.4"><path data-name="Line 4" stroke="#19a301" d="M41.677 62.5h8.375"/><path data-name="Line 5" stroke="#19a301" d="M58.405 62.5h.679"/><path data-name="Line 6" stroke="#19a301" d="M10.916 62.5h8.298"/><path data-name="Line 7" stroke="#82d400" d="M18.674 62.5h14.628"/></g><path data-name="Rectángulo 7303" d="M0 55h70v15H0z"/></g></g><g data-name="Grupo 23695"><g data-name="Grupo 23692" fill="none" stroke="#000" stroke-linecap="round" stroke-linejoin="round" stroke-width="1.5"><path data-name="Línea 3883" d="M46.028 24.01l-1.04-1.65"/><path data-name="Línea 3884" d="M64.298 53l-15.04-23.87"/><path data-name="Trazado 29184" d="M41.708 20.97l-11.55 17.82L20.3 54"/><path data-name="Trazado 29185" d="M18.135 27.406l2.385-3.316 9.64 14.7"/><path data-name="Línea 3885" d="M7.996 41.514L5.48 45.01"/><path data-name="Trazado 29187" d="M32.3 36l5 6 5.753-3.61L48.3 42l5-6"/></g><g data-name="Grupo 23694"><g data-name="Grupo 23693" fill="none" stroke="#000" stroke-linecap="round" stroke-linejoin="round" stroke-width="1.5"><path data-name="Trazado 29188" d="M48.642 22.4a8.021 8.021 0 00-3.565 2.661c-1.726 2.288-1.868 4.693-1.867 7.208 2.446-.678 4.582-1.181 6.307-3.468a9.172 9.172 0 001.767-4.534 2.741 2.741 0 01-2.642-1.867z"/><path data-name="Trazado 29189" d="M48.611 22.3a2.728 2.728 0 011.128-3.065 8.063 8.063 0 00-3.759-2.566c-2.73-.873-5.047-.212-7.419.62 1.447 2.084 2.627 3.934 5.356 4.806a9.1 9.1 0 004.694.205z"/><path data-name="Trazado 29190" d="M51.134 18.783a2.731 2.731 0 011.873.647 8.14 8.14 0 001.52-4.473c.082-2.866-1.2-4.908-2.653-6.957-1.6 1.969-3.051 3.616-3.132 6.48a9.128 9.128 0 001.158 4.655 2.738 2.738 0 011.234-.352z"/><path data-name="Trazado 29191" d="M53.822 22.449a2.744 2.744 0 01-2.471 1.816 8.091 8.091 0 001.4 4.392c1.621 2.365 3.856 3.263 6.24 4.061.135-2.534.338-4.719-1.283-7.081a9.247 9.247 0 00-3.886-3.188z"/><path data-name="Trazado 29192" d="M57.422 16.961a9.233 9.233 0 00-4.3 2.571 2.734 2.734 0 01.7 2.9 8.164 8.164 0 004.766.215c2.773-.728 4.373-2.529 5.929-4.5-2.335-.987-4.324-1.914-7.095-1.186z"/></g></g><circle data-name="Ellipse 2" cx="5.795" cy="5.795" r="5.795" transform="translate(7.545 28.46)" fill="none" stroke="#19a301" stroke-linecap="round" stroke-linejoin="round" stroke-width="1.5"/></g><path data-name="Rectángulo 7304" fill="none" d="M0 0h70v70H0z"/></svg>