<svg version="1.1" id="Layer_1" xmlns="http://www.w3.org/2000/svg" x="0" y="0" viewBox="0 0 70 70" xml:space="preserve"><style>.st0{fill:none}.st1,.st4{fill:none;stroke:#19a301;stroke-width:2.4;stroke-linecap:round;stroke-linejoin:round}.st4{stroke:#000;stroke-width:1.5;stroke-miterlimit:10}</style><path class="st0" d="M0 0h70v70H0z"/><path class="st0" d="M0 55h70v15H0z"/><path id="Line_4_1_" class="st1" d="M41.7 62.5h8.4"/><path id="Line_5_1_" class="st1" d="M58.4 62.5h.7"/><path id="Line_6_1_" class="st1" d="M10.9 62.5h8.3"/><path id="Line_7_1_" fill="none" stroke="#82d400" stroke-width="2.4" stroke-linecap="round" stroke-linejoin="round" d="M18.7 62.5h14.6"/><circle id="Ellipse_2_7_" cx="18.4" cy="23.3" r="4.9" fill="none" stroke="#19a301" stroke-width="1.5" stroke-linecap="round" stroke-linejoin="round"/><path id="XMLID_1_" class="st4" d="M20.3 15.6c3.1-4.7 8.5-7.8 14.6-7.8 9.7 0 17.6 7.9 17.6 17.6 0 9.7-7.9 17.6-17.6 17.6-7.7 0-14.2-4.9-16.6-11.7"/><path d="M35.3 10.5l2.1.2.2.6 2.3.4.5-.7h2l1 1.5-1.1 1.1V15l-3.2 1.8-.8-.6-.2-3.2h-1.3l-.5-.8-1.1.8v.7h.9l-.4 1.1-.7.6.4 1.2.6-.6 2 2-3.9 2.9H32v1.7l1.3-.2v1.2l1.6 1.8h.8l1.1-.7h.6v.9l1.2-.6h.8l.9 1.4h1.3l.5 1.3 3.7 1.1v.9L44.6 31l-.3 2H43l-.8.8v.8l-4.3 4.1v3.5h-1.1v-2.3H36v-.8l.8-.8v-4.6l.8-.8-2.7-3.4.3-2.8-.7-.2-2.5-2.1-1-.7-.8-2.7-1.4-1.3.2-1.9-1.1-2-2-.6-.5.8h-1.1l-.7-1.8.7-1.3 1.4-.3.4.7 2.1.1 3.2-1.9 1.3.1 1.1-.6h.6l.9-.5m0-1.5c-.3 0-.5.1-.7.2l-.5.3h-.2c-.2 0-.5.1-.7.2l-.8.4-.9-.1h-.1c-.3 0-.5.1-.8.2l-2.8 1.7-.8-.1c-.3-.5-.8-.7-1.3-.7h-.3l-1.4.3c-.4.1-.8.4-1 .7l-.7 1.3c-.2.4-.3.9-.1 1.3l.7 1.8c.2.6.8.9 1.4.9h1.1c.4 0 .8-.2 1.1-.5l.5.1.6 1-.1 1.4c0 .5.1.9.5 1.2l1.1 1 .7 2.3c.1.5.5.8.9 1l.9.3 2.3 1.9-.2 1.7c0 .4.1.8.3 1.1l1.9 2.4c-.2.3-.4.6-.4 1v4l-.4.4c-.3.3-.4.7-.4 1.1v.8c0 .6.3 1 .8 1.3v1c0 .8.7 1.5 1.5 1.5h1.1c.8 0 1.5-.7 1.5-1.5v-2.8l3.8-3.7c.3-.3.5-.7.5-1.1v-.1h.5c.7 0 1.4-.6 1.5-1.3l.2-1.5.9-.9c.3-.3.4-.7.4-1v-.9c0-.7-.4-1.2-1.1-1.4l-3-.9-.3-.5c-.2-.6-.8-1-1.4-1h-.5l-.5-.7c-.3-.4-.7-.7-1.2-.7h-1c-.3-.2-.6-.3-.9-.3h-.6c-.3 0-.5.1-.8.2l-.5.3-.6-.7v-.8c.1 0 .1-.1.2-.1l3.9-2.9c.3-.2.5-.5.6-.9.1 0 .2-.1.3-.1l3.2-1.8c.5-.3.8-.8.8-1.3v-.8l.7-.7c.5-.5.6-1.3.2-1.8l-1-1.5c-.3-.4-.8-.7-1.3-.7h-2c-.5 0-.9.2-1.2.6l-.5-.1c-.2-.4-.7-.7-1.2-.7L35.5 9h-.2z" id="XMLID_6_"/><path class="st4" d="M15.1 45.3c1.8 0 1.8 1.9 3.6 1.9s1.8-1.9 3.6-1.9 1.8 1.9 3.6 1.9 1.8-1.9 3.6-1.9 1.8 1.9 3.6 1.9 1.8-1.9 3.6-1.9 1.8 1.9 3.6 1.9 1.8-1.9 3.6-1.9 1.8 1.9 3.6 1.9 1.8-1.9 3.6-1.9 1.8 1.9 3.6 1.9m-39.6 3.2c1.8 0 1.8 1.9 3.6 1.9s1.8-1.9 3.6-1.9 1.8 1.9 3.6 1.9 1.8-1.9 3.6-1.9 1.8 1.9 3.6 1.9 1.8-1.9 3.6-1.9 1.8 1.9 3.6 1.9 1.8-1.9 3.6-1.9 1.8 1.9 3.6 1.9 1.8-1.9 3.6-1.9 1.8 1.9 3.6 1.9"/></svg>