<svg data-name="Grupo 24901" xmlns="http://www.w3.org/2000/svg" width="70" height="70"><path data-name="Rectángulo 7943" fill="none" d="M0 0h70v70H0z"/><g data-name="Grupo 24903" fill="none" stroke="#fff" stroke-linecap="round" stroke-linejoin="round" stroke-width="1.5"><g data-name="Grupo 24901"><circle data-name="Ellipse 2" cx="5.795" cy="5.795" r="5.795" transform="translate(11.686 29.843)"/><g data-name="Grupo 24900"><path data-name="Línea 1013" d="M27.559 21.654v4.341"/><path data-name="Línea 1014" d="M33.917 21.654v4.341"/><path data-name="Línea 4165" d="M41.748 29.52L33.918 26"/><path data-name="Línea 4166" d="M45.628 46.74v-.36"/><path data-name="Trazado 29835" d="M15.728 44.52v5.14h21.89"/><path data-name="Línea 1015" d="M27.559 26.004l-4.637 2.145"/><path data-name="Línea 1016" d="M30.738 29.598l-3.179-3.604"/><path data-name="Línea 1017" d="M30.738 29.598l3.179-3.604"/><path data-name="Trazado 5701" d="M36.7 16.581a5.987 5.987 0 11-11.974 0"/><path data-name="Trazado 5702" d="M24.722 16.581v-6.2a5.987 5.987 0 1111.974 0v6.2"/><path data-name="Línea 4167" d="M21.922 11.224h17.515"/></g></g><g data-name="Grupo 24902"><path data-name="Trazado 29836" d="M42.738 37.34l2.162 2.946 5.271-5.954"/><path data-name="Trazado 29837" d="M54.735 33.524a9.1 9.1 0 11-12.063-4.494 9.076 9.076 0 0112.063 4.494z"/><path data-name="Trazado 29838" d="M45.818 46.425l-5.153 8.506a.358.358 0 01-.589 0l-1.126-1.8a.627.627 0 00-.582-.271l-2.232.174c-.266.021-.454-.224-.329-.431l5.011-8.151"/><path data-name="Trazado 29839" d="M48.241 46.255l5.175 8.792a.359.359 0 00.59 0l1.125-1.8a.627.627 0 01.582-.271l2.232.174c.267.021.454-.224.33-.431l-5.358-9"/></g></g><g data-name="Grupo 24906"><g data-name="Grupo 24905" fill="none"><g data-name="Grupo 24904" stroke-linecap="round" stroke-linejoin="round" stroke-width="2.4"><path data-name="Line 4" stroke="#fff" d="M41.677 62.5h8.375"/><path data-name="Line 5" stroke="#82d400" d="M58.405 62.5h.679"/><path data-name="Line 6" stroke="#fff" d="M10.916 62.5h8.298"/><path data-name="Line 7" stroke="#82d400" d="M18.674 62.5h14.628"/></g><path data-name="Rectángulo 7944" d="M0 55h70v15H0z"/></g></g></svg>