<svg version="1.1" id="Capa_1" xmlns="http://www.w3.org/2000/svg" x="0" y="0" viewBox="0 0 40 40" xml:space="preserve"><style>.st0{fill:none;stroke:#19a301;stroke-linecap:round;stroke-linejoin:round;stroke-miterlimit:10}</style><path class="st0" d="M20.1 12.5c-.9 0-1.7-.8-1.7-1.7s.8-1.7 1.7-1.7c.9 0 1.7.8 1.7 1.7m-1.7 1.7c1 0 1.9.8 1.9 1.9s-.8 1.9-1.9 1.9c-1 0-1.9-.8-1.9-1.9m1.9-5.3V7.7m0 9.9v-1.4"/><circle class="st0" cx="20" cy="12.5" r="7.3"/><path class="st0" d="M16.2 32.1l.8-.8h7.8l5-4.4 2.6-4.3s-1.3-1-2.6.1l-1.6 1.6-1.7 1.5"/><path class="st0" d="M12 27.8l2.7-2.6c.2-.2.6-.4.9-.4h2.9c.1 0 .3 0 .4.1l1.6.7h4.6l1.5.1c0 2.5-1.6 2.5-1.6 2.5h-4.8l-1.8.8"/><path transform="rotate(-45.001 12.602 31.675)" class="st0" d="M10.5 26.6h4.2v10.2h-4.2z"/><path fill="none" d="M0 0h40v40H0z"/></svg>