<svg xmlns="http://www.w3.org/2000/svg" width="200" height="200"><g data-name="Grupo 24996"><path data-name="Trazado 29440" d="M100 0A100 100 0 110 100 100 100 0 01100 0z" fill="#19a301"/><g data-name="Grupo 24912"><path data-name="Rectángulo 7963" fill="none" d="M65 64.794h70v70H65z"/><g data-name="Grupo 24959" fill="none" stroke="#fff" stroke-linecap="round" stroke-linejoin="round" stroke-width="1.5"><g data-name="Grupo 24956" transform="translate(65 64.794)"><circle data-name="Ellipse 2" cx="5.795" cy="5.795" r="5.795" transform="translate(12.383 9.149)"/><path data-name="Trazado 29877" d="M45.655 9.941v8h7.323"/><path data-name="Trazado 29878" d="M16.8 24.284v19.649A10.366 10.366 0 0027.167 54.3h25.811V17.943"/><path data-name="Trazado 29879" d="M52.969 17.784l-7.475-8.327-1.75.016H25.489"/><path data-name="Línea 4198" d="M27.041 44.171h16.85"/><path data-name="Línea 4199" d="M27.041 49.404h16.85"/></g><g data-name="Grupo 24957"><path data-name="Trazado 29880" d="M90.9 96.394l5.186-2.55a6.07 6.07 0 014.538-.605l1.776.655a4.08 4.08 0 001.41.251h2.13s1.3.087 1.3 1.254a1.254 1.254 0 01-1.08 1.3h-5.882"/><path data-name="Trazado 29881" d="M93.8 100.972h11.242a2.519 2.519 0 001.47-.474l3.388-2.431a2.514 2.514 0 00.673-.721l2.707-4.375a2.342 2.342 0 00.367-1.107 1.268 1.268 0 00-.659-1.265c-1.127-.605-1.988.865-1.988.865l-1.37 2.259a2.521 2.521 0 01-.572.654l-1.9 1.538"/><path data-name="Trazado 29882" d="M87.892 95.862l1.23-.722a.874.874 0 011.188.3l3.836 6.276a.874.874 0 01-.315 1.216l-1.361.772a.874.874 0 01-1.185-.319l-3.7-6.326a.873.873 0 01.307-1.197z"/></g><g data-name="Grupo 24958"><path data-name="Trazado 29883" d="M100.553 88.23s-3.7-2.328-4.943-4.758c-1.879-3.667 3.172-6.183 4.943-2.858"/><path data-name="Trazado 29884" d="M100.553 88.23s3.7-2.328 4.944-4.758c1.878-3.667-3.173-6.183-4.944-2.858"/></g></g><g data-name="Grupo 24962"><g data-name="Grupo 24961" fill="none"><g data-name="Grupo 24960" stroke-linecap="round" stroke-linejoin="round" stroke-width="2.4"><path data-name="Line 4" stroke="#fff" d="M106.677 127.294h8.375"/><path data-name="Line 5" stroke="#82d400" d="M123.405 127.294h.679"/><path data-name="Line 6" stroke="#fff" d="M75.916 127.294h8.298"/><path data-name="Line 7" stroke="#82d400" d="M83.674 127.294h14.628"/></g><path data-name="Rectángulo 7964" d="M65 119.794h70v15H65z"/></g></g></g></g></svg>