<svg version="1.1" id="Layer_1" xmlns="http://www.w3.org/2000/svg" xmlns:xlink="http://www.w3.org/1999/xlink" x="0" y="0" viewBox="0 0 70 70" xml:space="preserve"><style>.st0{stroke:#19a301;stroke-width:2.4;stroke-linecap:round;stroke-linejoin:round}.st0,.st2,.st4{fill:none}.st4{stroke:#000;stroke-width:1.3075;stroke-linecap:round;stroke-linejoin:round;stroke-miterlimit:10}</style><symbol id="OCENSA-EXT" viewBox="-35 -7.5 70 15"><path id="Line_4_1_" class="st0" d="M6.7 0h8.4"/><path id="Line_5_1_" class="st0" d="M23.4 0h.7"/><path id="Line_6_1_" class="st0" d="M-24.1 0h8.3"/><path id="Line_7_1_" fill="none" stroke="#82d400" stroke-width="2.4" stroke-linecap="round" stroke-linejoin="round" d="M-16.3 0h14.6"/><path class="st2" d="M-35-7.5h70v15h-70z"/></symbol><g id="Capa_1"><defs><path id="SVGID_1_" d="M0 55h70v15H0z"/></defs><clipPath id="SVGID_2_"><use xlink:href="#SVGID_1_" overflow="visible"/></clipPath><g clip-path="url(#SVGID_2_)"><use xlink:href="#OCENSA-EXT" width="70" height="15" x="-35" y="-7.5" transform="matrix(1 0 0 -1 35 62.5)" overflow="visible"/></g><path class="st2" d="M0 0h70v70H0z"/></g><circle id="Ellipse_2_3_" cx="22.7" cy="31.2" r="5.8" fill="none" stroke="#19a301" stroke-width="1.5" stroke-linecap="round" stroke-linejoin="round"/><path class="st4" d="M18.3 55c4.2 0 4.2-2.5 8.3-2.5 4.2 0 4.2 2.5 8.3 2.5 4.2 0 4.2-2.5 8.3-2.5 4.2 0 4.2 2.5 8.3 2.5M30.4 36.4c.4.2.7.3 1.1.5 2 .8 3.5 1.1 3.5 1.1v-.1c-.3-.7-2.9-8 0-13.5 0 0 0-.1-.1-.1-3.2-5.8-11.6-7.4-11.6-7.4s-.6 1.5-1 3.8l-.3 1.8"/><path class="st4" d="M46.6 30.5C43.4 36.3 35 37.9 35 37.9s-3.2-7.9 0-13.7c3.2-5.8 11.6-7.4 11.6-7.4s3.2 7.8 0 13.7z"/><path class="st4" d="M34.9 24.1s0 .1.1.1c0 0 0-.1.1-.1 1.5-2.7 4-4.5 6.4-5.6C40.6 12.6 35 7.9 35 7.9s-5.6 4.6-6.5 10.6c2.4 1.2 5 3 6.4 5.6zm.1 30.3V37.9m2.1 5.1c-2.3 2.3-1.9 6.3-1.9 6.3s4 .4 6.3-1.9 1.9-6.3 1.9-6.3-4-.4-6.3 1.9zm-1.8 6.3l4.1-4.1"/></svg>