<svg data-name="Grupo 24974" xmlns="http://www.w3.org/2000/svg" width="70" height="70"><path data-name="Rectángulo 7967" fill="none" d="M0 0h70v70H0z"/><g data-name="Grupo 24970" fill="none" stroke="#fff" stroke-linecap="round" stroke-linejoin="round"><circle data-name="Ellipse 2" cx="5.795" cy="5.795" r="5.795" transform="translate(9.703 8.843)" stroke-width="1.5"/><path data-name="Trazado 29889" d="M14.5 23.759v21.754a8.36 8.36 0 008.36 8.36h20.18" stroke-width="1.5"/><path data-name="Trazado 29890" d="M23.437 8.79h20.23l7.22 7.46v7.44" stroke-width="1.5"/><path data-name="Trazado 29891" d="M43.524 8.786v8.048h7.366" stroke-width="1.5"/><path data-name="Línea 4202" stroke-width="1.5" d="M23.461 32.774h19.055"/><path data-name="Línea 4203" stroke-width="1.5" d="M23.461 24.774h19.055"/><path data-name="Línea 4204" stroke-width="1.5" d="M40.747 40.77h-17.29"/><g data-name="Grupo 24969" stroke-width="1.63"><path data-name="Línea 4205" d="M48.125 33.799v2.907"/><path data-name="Línea 4206" d="M52.378 33.799v2.907"/><path data-name="Trazado 29892" d="M48.125 36.712l-5.7 2.561a3.766 3.766 0 00-2.221 3.433v11.167H60.3V42.706a3.764 3.764 0 00-2.221-3.433l-5.7-2.561"/><path data-name="Línea 4207" d="M50.252 39.117l-2.127-2.412"/><path data-name="Línea 4208" d="M50.252 39.117l2.127-2.412"/><path data-name="Trazado 29893" d="M54.243 30.4a4.008 4.008 0 11-8.017 0"/><path data-name="Trazado 29894" d="M46.226 30.4v-2.764a4.008 4.008 0 018.017 0V30.4"/></g></g><g data-name="Grupo 24973"><g data-name="Grupo 24972" fill="none"><g data-name="Grupo 24971" stroke-linecap="round" stroke-linejoin="round" stroke-width="2.4"><path data-name="Line 4" stroke="#fff" d="M41.677 62.5h8.375"/><path data-name="Line 5" stroke="#82d400" d="M58.405 62.5h.679"/><path data-name="Line 6" stroke="#fff" d="M10.916 62.5h8.298"/><path data-name="Line 7" stroke="#82d400" d="M18.674 62.5h14.628"/></g><path data-name="Rectángulo 7968" d="M0 55h70v15H0z"/></g></g></svg>