<svg version="1.1" id="Grupo_24206" xmlns="http://www.w3.org/2000/svg" x="0" y="0" viewBox="0 0 70 70" xml:space="preserve"><style>.st0,.st1{stroke-width:2.4;stroke-linecap:round;stroke-linejoin:round}.st0{fill:none;stroke:#fff}.st1{stroke:#82d400}.st1,.st2,.st3{fill:none}.st3{stroke:#fff;stroke-width:1.5;stroke-linecap:round;stroke-linejoin:round}</style><g id="Grupo_24200"><g id="Grupo_24199"><g id="Grupo_24198"><path id="Line_4" class="st0" d="M41.7 62.5h8.4"/><path id="Line_5" class="st1" d="M58.4 62.5h.7"/><path id="Line_6" class="st0" d="M10.9 62.5h8.3"/><path id="Line_7" class="st1" d="M18.7 62.5h14.6"/></g><path id="Rectángulo_7724" class="st2" d="M0 55h70v15H0z"/></g></g><path id="Rectángulo_7725" class="st2" d="M0 0h70v70H0z"/><path id="Trazado_29433" class="st3" d="M33.9 53.9h13.3"/><g id="Grupo_24202"><circle id="Ellipse_2" class="st3" cx="15.5" cy="14.6" r="5.8"/><path id="Trazado_29434" class="st3" d="M36.1 53.9H22.9c-4.6 0-8.4-3.7-8.4-8.4V23.8"/><path id="Trazado_29435" class="st3" d="M23.4 8.8h20.2l7.2 7.5v37.6h-3.7"/><path id="Trazado_29436" class="st3" d="M43.5 8.8v8h7.4"/><path id="Línea_3915" class="st3" d="M23.5 32.8h19"/><path id="Línea_3916" class="st3" d="M23.5 38.8h19"/><path id="Línea_3917" class="st3" d="M23.5 44.8h19"/><g id="Grupo_24201"><path id="Trazado_29437" d="M31.8 25.7c0-.6.1-1.2.3-1.8.2-.6.6-1.1 1-1.5l1.3-1.3c.5-.5.8-1.2.8-2 0-.6-.2-1.1-.5-1.6-.4-.4-1-.6-1.6-.6s-1.1.2-1.6.5c-.4.4-.6.9-.6 1.4h-1.8c0-1 .4-1.9 1.1-2.5.8-.7 1.8-1 2.9-1 1-.1 2.1.3 2.9 1 .7.7 1.1 1.7 1 2.7-.1 1.3-.6 2.5-1.6 3.3l-1.1 1c-.5.6-.8 1.4-.7 2.3l-1.8.1zm-.1 3.1c0-.3.1-.5.3-.7.2-.2.5-.3.8-.3s.6.1.8.3c.2.2.3.5.3.7 0 .3-.1.5-.3.7s-.5.3-.8.3c-.5.1-1-.3-1.1-.9v-.1z" fill="#fff"/></g></g></svg>