<svg version="1.1" id="Layer_1" xmlns="http://www.w3.org/2000/svg" xmlns:xlink="http://www.w3.org/1999/xlink" x="0" y="0" viewBox="0 0 70 70" xml:space="preserve"><style>.st0{stroke:#19a301;stroke-width:2.4;stroke-linecap:round;stroke-linejoin:round}.st0,.st2{fill:none}</style><symbol id="OCENSA-EXT" viewBox="-35 -7.5 70 15"><path id="Line_4_1_" class="st0" d="M6.7 0h8.4"/><path id="Line_5_1_" class="st0" d="M23.4 0h.7"/><path id="Line_6_1_" class="st0" d="M-24.1 0h8.3"/><path id="Line_7_1_" fill="none" stroke="#82d400" stroke-width="2.4" stroke-linecap="round" stroke-linejoin="round" d="M-16.3 0h14.6"/><path class="st2" d="M-35-7.5h70v15h-70z"/></symbol><g id="Capa_2"><defs><path id="SVGID_1_" d="M0 55h70v15H0z"/></defs><clipPath id="SVGID_2_"><use xlink:href="#SVGID_1_" overflow="visible"/></clipPath><g clip-path="url(#SVGID_2_)"><use xlink:href="#OCENSA-EXT" width="70" height="15" x="-35" y="-7.5" transform="matrix(1 0 0 -1 35 62.5)" overflow="visible"/></g><path class="st2" d="M0 0h70v70H0z"/><g fill="none" stroke-width="1.5" stroke-linecap="round" stroke-linejoin="round"><circle id="Ellipse_2_131_" cx="14.3" cy="37" r="5.8" stroke="#19a301"/><path d="M14.1 45.5v8.7m-4.3 0h51.7M38.8 37.4v16.7m5.1-14.4l-17.8-9.9-4.6 2.2m37.2-12H58c1-.8 1.7-2 1.7-3.5 0-2.3-1.7-4.2-3.9-4.2H54c.3-.5.5-1.1.5-1.8 0-2.3-2.1-4.1-4.7-4.1S45 8.2 45 10.5c0 .6.2 1.2.5 1.8h-1.9c-2.1 0-3.9 1.9-3.9 4.2 0 1.5.7 2.7 1.7 3.5h-.8c-3.2 0-5.7 2.8-5.7 6.2s2.6 6.2 5.7 6.2h18c3.2 0 5.7-2.8 5.7-6.2S61.9 20 58.7 20zm-9 34.2V19.6m5 5l-4.4 2.7" stroke="#fff" stroke-miterlimit="10"/></g></g></svg>