<svg data-name="Grupo 24838" xmlns="http://www.w3.org/2000/svg" width="70" height="70"><g data-name="Grupo 24833"><g data-name="Grupo 24832" fill="none"><g data-name="Grupo 24831" stroke-linecap="round" stroke-linejoin="round" stroke-width="2.4"><path data-name="Line 4" stroke="#19a301" d="M41.677 62.5h8.375"/><path data-name="Line 5" stroke="#19a301" d="M58.405 62.5h.679"/><path data-name="Line 6" stroke="#19a301" d="M10.916 62.5h8.298"/><path data-name="Line 7" stroke="#82d400" d="M18.674 62.5h14.628"/></g><path data-name="Rectángulo 7935" d="M0 55h70v15H0z"/></g></g><path data-name="Rectángulo 7936" fill="none" d="M0 0h70v70H0z"/><g data-name="Grupo 24837"><g data-name="Grupo 24834"><path data-name="Trazado 29811" d="M42.665 44.757h4.6l.084 4.948a.376.376 0 00.624.276l5.964-5.224h6.642a2.636 2.636 0 002.636-2.635V30.178a2.636 2.636 0 00-2.636-2.636H42.665a2.636 2.636 0 00-2.636 2.636v11.944a2.636 2.636 0 002.636 2.635z" fill="none" stroke="#fff" stroke-linecap="round" stroke-linejoin="round" stroke-width="1.5"/></g><path data-name="Línea 4149" fill="none" stroke="#fff" stroke-linecap="round" stroke-linejoin="round" stroke-width="1.5" d="M45.796 34.655H57.03"/><path data-name="Línea 4150" fill="none" stroke="#fff" stroke-linecap="round" stroke-linejoin="round" stroke-width="1.5" d="M45.796 38.655H57.03"/><g data-name="Grupo 24836" fill="none" stroke="#fff" stroke-linecap="round" stroke-linejoin="round" stroke-width="1.5"><circle data-name="Ellipse 2" cx="5.795" cy="5.795" r="5.795" transform="translate(6.787 30.843)" opacity=".487"/><g data-name="Grupo 24835"><path data-name="Línea 4151" d="M24.766 24.826v4.539"/><path data-name="Línea 4152" d="M31.408 24.826v4.539"/><path data-name="Línea 4153" d="M40.031 33.25l-8.62-3.87"/><path data-name="Trazado 29812" d="M43.771 44.76v9.33H12.4v-8.27"/><path data-name="Línea 4154" d="M24.766 29.375l-4.531 2.037"/><path data-name="Línea 4155" d="M28.087 33.131l-3.321-3.766"/><path data-name="Línea 4156" d="M28.087 33.131l3.321-3.766"/><path data-name="Trazado 29815" d="M34.32 19.524a6.259 6.259 0 01-12.519 0"/><path data-name="Trazado 29816" d="M21.8 19.524V15.2a6.259 6.259 0 0112.519 0v4.322"/><path data-name="Trazado 29817" d="M19.66 14.74a8.316 8.316 0 0116.63.17v.3"/><path data-name="Rectángulo 7937" d="M34.32 15.213h3.429v4.681H34.32z"/><path data-name="Rectángulo 7938" d="M18.373 14.745h3.429v4.681h-3.429z"/><path data-name="Trazado 29818" d="M19.66 19.47v2.85h6.43"/><rect data-name="Rectángulo 7939" width="3.489" height="2.979" rx="1.489" transform="translate(26 20.34)"/></g></g></g></svg>