<svg xmlns="http://www.w3.org/2000/svg" width="70" height="70"><defs><clipPath id="a"><path data-name="Rectangle 7614" transform="translate(-35 -7.5)" fill="none" d="M0 0h70v15H0z"/></clipPath></defs><g data-name="Group 24906" transform="translate(35 62.5)" clip-path="url(#a)" fill="none"><g data-name="Group 24905" stroke-linecap="round" stroke-linejoin="round" stroke-width="2.4"><path stroke="#19a301" d="M6.68 0h8.37m8.36 0h.67m-48.16 0h8.29"/><path stroke="#82d400" d="M-16.33 0H-1.7"/></g><path data-name="Rectangle 7613" d="M-35-7.5h70v15h-70z"/></g><path data-name="Rectangle 7615" fill="none" d="M0 0h70v70H0z"/><g data-name="Group 24909" fill="none" stroke-linecap="round" stroke-linejoin="round" stroke-width="1.5"><circle cx="5.8" cy="5.8" r="5.8" transform="translate(17.28 31.5)" stroke="#19a301"/><g data-name="Group 24907" stroke="#000" stroke-miterlimit="10"><path data-name="Line 3874" d="M33.74 24.85v4.53"/><path data-name="Line 3875" d="M40.37 24.85v4.53"/><path data-name="Path 29365" d="M21.4 45.8v8.26h31.31V38.73a5.861 5.861 0 00-3.46-5.35l-8.88-3.99"/><path data-name="Line 3876" d="M33.74 29.39l-4.52 2.03"/><path data-name="Line 3877" d="M37.06 33.14l-3.32-3.76"/><path data-name="Line 3878" d="M37.06 33.14l3.31-3.76"/><path data-name="Path 29366" d="M43.28 19.56a6.25 6.25 0 11-12.5 0"/><path data-name="Path 29367" d="M30.79 19.56v-4.31a6.25 6.25 0 0112.5 0v4.31"/></g><g data-name="Group 24908" stroke="#000" stroke-miterlimit="10"><path data-name="Path 29368" d="M42.42 48.56s-3.83-2.41-5.12-4.93c-1.94-3.8 3.29-6.4 5.12-2.96"/><path data-name="Path 29369" d="M42.42 48.56s3.83-2.41 5.12-4.93c1.94-3.8-3.29-6.4-5.12-2.96"/></g></g></svg>