<svg data-name="Group 23419" xmlns="http://www.w3.org/2000/svg" width="70" height="70"><g data-name="Group 23415"><g data-name="Group 23414" fill="none"><g data-name="Group 23413" stroke-linecap="round" stroke-linejoin="round" stroke-width="2.4"><path data-name="Line 4" stroke="#19a301" d="M41.677 62.5h8.375"/><path data-name="Line 5" stroke="#19a301" d="M58.405 62.5h.679"/><path data-name="Line 6" stroke="#19a301" d="M10.916 62.5h8.298"/><path data-name="Line 7" stroke="#82d400" d="M18.674 62.5h14.628"/></g><path data-name="Rectangle 7285" d="M0 55h70v15H0z"/></g></g><path data-name="Rectangle 7286" fill="none" d="M0 0h70v70H0z"/><g data-name="Group 23418"><circle data-name="Ellipse 2" cx="5.795" cy="5.795" r="5.795" transform="translate(42.904 8.843)" fill="none" stroke="#19a301" stroke-linecap="round" stroke-linejoin="round" stroke-width="1.5"/><path data-name="Path 29138" d="M29.777 54.205h20.947V23.833" fill="none" stroke="#000" stroke-linecap="round" stroke-linejoin="round" stroke-width="1.5"/><path data-name="Path 29139" d="M40.49 10.568H15.506V40.68" fill="none" stroke="#000" stroke-linecap="round" stroke-linejoin="round" stroke-width="1.5"/><path data-name="Path 29140" d="M36.461 54.205H23.606a8.09 8.09 0 01-8.091-8.091V25.239" fill="none" stroke="#000" stroke-linecap="round" stroke-linejoin="round" stroke-width="1.5"/><g data-name="Group 23417"><g data-name="Group 23416" fill="none" stroke="#000" stroke-linecap="round" stroke-linejoin="round" stroke-width="1.5"><path data-name="Line 3182" d="M30.267 27.444v2.985"/><path data-name="Line 3183" d="M34.634 27.444v2.985"/><path data-name="Path 29143" d="M30.267 30.435l-5.851 2.631a3.864 3.864 0 00-2.28 3.525V45h20.63v-8.409a3.864 3.864 0 00-2.281-3.525l-5.851-2.63"/><path data-name="Line 3184" d="M32.451 32.905l-2.184-2.476"/><path data-name="Line 3185" d="M32.451 32.905l2.184-2.476"/><path data-name="Path 29144" d="M36.549 23.958a4.116 4.116 0 01-8.232 0"/><path data-name="Path 29145" d="M28.317 23.958v-2.842a4.116 4.116 0 018.232 0v2.842"/></g></g></g></svg>