<svg xmlns="http://www.w3.org/2000/svg" xmlns:xlink="http://www.w3.org/1999/xlink" viewBox="0 0 70 70"><style>.st0{stroke:#19a301;stroke-width:2.4;stroke-linecap:round;stroke-linejoin:round}.st0,.st2,.st5{fill:none}.st5{stroke:#000;stroke-width:1.5;stroke-linecap:round;stroke-linejoin:round;stroke-miterlimit:10}</style><symbol id="OCENSA-EXT" viewBox="-35 -7.5 70 15"><path id="Line_4_2_" class="st0" d="M6.68 0h8.37"/><path id="Line_5_2_" class="st0" d="M23.41 0h.67"/><path id="Line_6_2_" class="st0" d="M-24.08 0h8.29"/><path id="Line_7_2_" fill="none" stroke="#82d400" stroke-width="2.4" stroke-linecap="round" stroke-linejoin="round" d="M-16.33 0H-1.7"/><path class="st2" d="M-35-7.5h70v15h-70z"/></symbol><g id="Capa_1"><use xlink:href="#OCENSA-EXT" width="70" height="15" x="-35" y="-7.5" transform="matrix(1 0 0 -1 35 62.5)" overflow="visible"/><path class="st2" d="M0 0h70v70H0z"/><circle id="Ellipse_2_191_" cx="15.57" cy="18.64" r="5.8" fill="none" stroke="#19a301" stroke-width="1.5" stroke-linecap="round" stroke-linejoin="round"/><path class="st5" d="M43 55V41.73l-8-.64L32 36H13v19"/><path class="st5" d="M61 55.85c-4.07 0-4.07-5.7-8.14-5.7s-4.07 5.7-8.14 5.7-4.07-5.7-8.14-5.7-4.07 5.7-8.14 5.7-4.07-5.7-8.14-5.7-4.07 5.7-8.15 5.7-4.07-5.7-8.15-5.7m11.03-22.57c.92 1.29 2.36 2.12 3.99 2.12H34.8c2.78 0 5.03-2.42 5.03-5.41 0-2.98-2.25-5.4-5.03-5.4h-.65c.91-.66 1.51-1.78 1.51-3.04 0-2.02-1.53-3.66-3.4-3.66h-1.65c.26-.48.41-1.01.41-1.57 0-2-1.84-3.62-4.11-3.62s-4.11 1.62-4.11 3.62c0 .56.15 1.09.41 1.57h-1.64c-.15 0-.31.01-.46.03m5.8 6.33v17.12m4.38-12.74l-3.89 2.39M19.21 36v7.5m4.47-7.5v3.5l1.82 1v7M31.29 36v4"/></g></svg>