<svg data-name="Capa 1" xmlns="http://www.w3.org/2000/svg" xmlns:xlink="http://www.w3.org/1999/xlink" viewBox="0 0 70 70"><defs><symbol id="a" data-name="OCENSA-EXT" viewBox="0 0 70 15"><path data-name="Line 4" fill="none" stroke="#19a301" stroke-linecap="round" stroke-linejoin="round" stroke-width="2.4" d="M41.68 7.5h8.37"/><path data-name="Line 5" fill="none" stroke="#19a301" stroke-linecap="round" stroke-linejoin="round" stroke-width="2.4" d="M58.4 7.5h.68"/><path data-name="Line 6" fill="none" stroke="#19a301" stroke-linecap="round" stroke-linejoin="round" stroke-width="2.4" d="M10.92 7.5h8.29"/><path data-name="Line 7" fill="none" stroke="#82d400" stroke-linecap="round" stroke-linejoin="round" stroke-width="2.4" d="M18.67 7.5H33.3"/><path fill="none" d="M0 0h70v15H0z"/></symbol></defs><circle data-name="Ellipse 2" cx="20.8" cy="14.41" r="5.8" fill="none" stroke="#19a301" stroke-linecap="round" stroke-linejoin="round" stroke-width="1.5"/><path d="M41 54.19H20.49V23.65" fill="none" stroke="#000" stroke-linecap="round" stroke-linejoin="round" stroke-width="1.5"/><path fill="none" stroke="#000" stroke-linecap="round" stroke-linejoin="round" stroke-width="1.5" d="M29.83 12.49h18.31l6.85 7.08v34.62H34.45"/><path fill="none" stroke="#000" stroke-linecap="round" stroke-linejoin="round" stroke-width="1.5" d="M48.01 12.49v7.63h6.98M26.6 46.98h21.41"/><path fill="none" stroke="#000" stroke-linecap="round" stroke-linejoin="round" stroke-width="1.63" d="M35.78 26.52v2.09m3.05-2.09v2.09m-3.05 0l-4.09 1.84a2.69 2.69 0 00-1.59 2.46v8h14.4v-8a2.69 2.69 0 00-1.59-2.46l-4.08-1.84m-1.53 1.73l-1.52-1.73m1.52 1.73l1.53-1.73m1.33-4.52a2.87 2.87 0 01-5.74 0m0 0v-2a2.87 2.87 0 115.74 0v2"/><path fill="none" d="M0 0h70v70H0z"/><use width="70" height="15" transform="translate(0 55)" xlink:href="#a"/></svg>