<svg data-name="Capa 1" xmlns="http://www.w3.org/2000/svg" xmlns:xlink="http://www.w3.org/1999/xlink" viewBox="0 0 70 70"><defs><symbol id="a" data-name="OCENSA-EXT" viewBox="0 0 70 15"><path data-name="Line 4" fill="none" stroke="#19a301" stroke-linecap="round" stroke-linejoin="round" stroke-width="2.4" d="M41.68 7.5h8.37"/><path data-name="Line 5" fill="none" stroke="#19a301" stroke-linecap="round" stroke-linejoin="round" stroke-width="2.4" d="M58.4 7.5h.68"/><path data-name="Line 6" fill="none" stroke="#19a301" stroke-linecap="round" stroke-linejoin="round" stroke-width="2.4" d="M10.92 7.5h8.29"/><path data-name="Line 7" fill="none" stroke="#82d400" stroke-linecap="round" stroke-linejoin="round" stroke-width="2.4" d="M18.67 7.5H33.3"/><path fill="none" d="M0 0h70v15H0z"/></symbol></defs><use width="70" height="15" transform="translate(0 55)" xlink:href="#a"/><path fill="none" d="M0 0h70v70H0z"/><circle data-name="Ellipse 2" cx="18.56" cy="22.64" r="5.8" fill="none" stroke="#19a301" stroke-linecap="round" stroke-linejoin="round" stroke-width="1.5"/><path d="M63 53.9c-3.5 0-3.5-3.41-7-3.41s-3.5 3.41-7 3.41-3.5-3.41-7-3.41-3.5 3.41-7 3.41-3.5-3.41-7-3.41-3.5 3.41-7 3.41-3.5-3.41-7-3.41-3.5 3.41-7 3.41m18.24-6.53h-6.78m30.19-12.99h0M19.4 30.79v3.59h20.49m8.76 0h3.61V23.57a1.34 1.34 0 00-1.34-1.34H27.15M31.59 17h14a1.1 1.1 0 011.1 1.1v4.12h0-16.37 0v-4A1.27 1.27 0 0131.59 17zm-4.84 9.75h25.56" fill="none" stroke="#000" stroke-linecap="round" stroke-linejoin="round" stroke-width="1.5"/><path d="M39.89 34.39H15.58A1.53 1.53 0 0014 35.92v14.16m43.93.92V35.71a1.32 1.32 0 00-1.32-1.32h-8m-18.97 4.13h-15.6m11.21-.01v12.91m-.01-8.87h-6.78m-.02-4.04v14.26m11.2-18.39v16.01" fill="none" stroke="#000" stroke-linecap="round" stroke-linejoin="round" stroke-width="1.5"/><path fill="none" stroke="#000" stroke-linecap="round" stroke-linejoin="round" stroke-width="1.5" d="M39.89 34.41l-.03 6.69h8.77v-6.7"/></svg>