<svg xmlns="http://www.w3.org/2000/svg" xmlns:xlink="http://www.w3.org/1999/xlink" viewBox="0 0 70 70"><style>.st0{stroke:#19a301;stroke-width:2.4;stroke-linecap:round;stroke-linejoin:round}.st0,.st17,.st2{fill:none}.st17{stroke:#000;stroke-width:1.5545;stroke-linecap:round;stroke-linejoin:round;stroke-miterlimit:10}</style><symbol id="OCENSA-EXT" viewBox="-35 -7.5 70 15"><path id="Line_4_2_" class="st0" d="M6.68 0h8.37"/><path id="Line_5_2_" class="st0" d="M23.41 0h.67"/><path id="Line_6_2_" class="st0" d="M-24.08 0h8.29"/><path id="Line_7_2_" fill="none" stroke="#82d400" stroke-width="2.4" stroke-linecap="round" stroke-linejoin="round" d="M-16.33 0H-1.7"/><path class="st2" d="M-35-7.5h70v15h-70z"/></symbol><g id="Capa_1"><use xlink:href="#OCENSA-EXT" width="70" height="15" x="-35" y="-7.5" transform="matrix(1 0 0 -1 35 62.5)" overflow="visible"/><path class="st2" d="M0 0h70v70H0z"/><circle id="Ellipse_2_18_" cx="56.01" cy="17.37" r="5.8" fill="none" stroke="#19a301" stroke-width="1.5" stroke-linecap="round" stroke-linejoin="round"/><path class="st17" d="M44.68 42.44V18.43m-3.55 5.83l3.5 2.5m3.55-6.05l-3.5 2.14m9.48 3.05c-1.28 4.11-5.11 7.09-9.64 7.09-5.57 0-10.09-4.52-10.09-10.09s4.52-10.1 10.09-10.1c1.29 0 2.52.24 3.66.68M23.5 54.43c-4.56-2.44-9.37-4.79-13.57-7.83-2.86-2.07-1.85-5.02.55-6.87 2.56-1.97 5.23-3.82 7.88-5.68 1.77-1.24 3.62-2.37 5.39-3.6 1.11-.77 4.46-2.41 2.31-3.73-1.05-.65-13.82-7.42-13.82-7.42m22.25 4.69l-9.23-4.68"/><path class="st17" d="M40.52 32.16l-5.96 6.78s-1.3 1.46 1.13 3.15c2.42 1.7 13.33 6.63 13.33 6.63M16.15 37.97s1 .36 1.5 1.17c.21.34.48.7.86.93.94.58 2-.35 2.32-1.04.5-1.07 1.5-.97 1.5-.97m0 .02s.99.12 1.44 1.07c.28.6.91 1.29 1.8 1.06.67-.17 1.15-.65 1.39-1.17.5-1.07 1.5-.97 1.5-.97m.09.01s.99.12 1.44 1.07c.24.5.82 1.14 1.56 1.12m-7.6 6.81s1 .36 1.5 1.17c.21.34.48.7.86.93.94.58 2-.35 2.32-1.04.5-1.07 1.5-.97 1.5-.97m.01.01s.99.12 1.44 1.07c.28.6.91 1.29 1.8 1.06.67-.17 1.15-.65 1.39-1.17.5-1.07 1.5-.97 1.5-.97m.08.01s.99.12 1.44 1.07c.24.5.82 1.14 1.56 1.12m-6.99-30.06H8.41"/></g></svg>