<svg data-name="Capa 1" xmlns="http://www.w3.org/2000/svg" viewBox="0 0 70 70"><g data-name="Grupo 24550-2"><path data-name="Rectángulo 7858" fill="none" d="M0 0h70v70H0z"/></g><path data-name="Rectángulo 7859" fill="none" d="M0 55h70v15H0z"/><path data-name="Line 4" fill="none" stroke="#19a301" stroke-linecap="round" stroke-linejoin="round" stroke-width="2.4" d="M41.7 62.5h8.4"/><path data-name="Line 5" fill="none" stroke="#19a301" stroke-linecap="round" stroke-linejoin="round" stroke-width="2.4" d="M58.4 62.5h.7"/><path data-name="Line 6" fill="none" stroke="#19a301" stroke-linecap="round" stroke-linejoin="round" stroke-width="2.4" d="M10.9 62.5h8.3"/><path data-name="Line 7" fill="none" stroke="#82d400" stroke-linecap="round" stroke-linejoin="round" stroke-width="2.4" d="M18.7 62.5h14.6"/><g data-name="Grupo 24551"><path data-name="Rectángulo 7860" fill="none" d="M0 0h70v70H0z"/></g><path data-name="Rectángulo 7861" fill="none" d="M0 55h70v15H0z"/><path data-name="Line 4-2" fill="none" stroke="#19a301" stroke-linecap="round" stroke-linejoin="round" stroke-width="2.4" d="M41.7 62.5h8.4"/><path data-name="Line 5-2" fill="none" stroke="#19a301" stroke-linecap="round" stroke-linejoin="round" stroke-width="2.4" d="M58.4 62.5h.7"/><path data-name="Line 6-2" fill="none" stroke="#19a301" stroke-linecap="round" stroke-linejoin="round" stroke-width="2.4" d="M10.9 62.5h8.3"/><path data-name="Line 7-2" fill="none" stroke="#82d400" stroke-linecap="round" stroke-linejoin="round" stroke-width="2.4" d="M18.7 62.5h14.6"/><path data-name="Trazado 29424" d="M27.2 11.7a4.66 4.66 0 00-1.3-3.3 4.88 4.88 0 101.3 3.3z" fill="none" stroke="#19a301" stroke-linecap="round" stroke-linejoin="round" stroke-width="1.5"/><path data-name="Trazado 29425" d="M46 10.8V18h6.6" fill="none" stroke="#000" stroke-linecap="round" stroke-linejoin="round" stroke-width="1.5"/><path data-name="Trazado 29426" d="M20 20.4v21a9.38 9.38 0 009.38 9.4H52.7V18" fill="none" stroke="#000" stroke-linecap="round" stroke-linejoin="round" stroke-width="1.5"/><path data-name="Trazado 29427" d="M52.6 17.8l-6.7-7.5h-15" fill="none" stroke="#000" stroke-linecap="round" stroke-linejoin="round" stroke-width="1.5"/><g data-name="Grupo 24552" fill="none" stroke="#000" stroke-linecap="round" stroke-linejoin="round" stroke-width="1.5"><path data-name="Rectángulo 7862" d="M28.39 27.77h3.38v5.09h-3.38a2.55 2.55 0 01-2.55-2.54h0a2.55 2.55 0 012.55-2.55z"/><path data-name="Trazado 29428" d="M31.77 32.86l11.82 5V22.77l-11.82 5z"/><path data-name="Trazado 29429" d="M43.59 33.58a3.27 3.27 0 000-6.53h0"/><path data-name="Trazado 29430" d="M28.8 33.08v6.61a1.49 1.49 0 001.48 1.49h0a1.49 1.49 0 001.48-1.49v-6.83"/></g></svg>