<svg xmlns="http://www.w3.org/2000/svg" width="70" height="70"><g data-name="Grupo 24994" fill="none"><path data-name="Rectángulo 7975" d="M0 0h70v70H0z"/><g data-name="Grupo 24991" stroke="#fff" stroke-linecap="round" stroke-linejoin="round" stroke-width="1.5" transform="translate(-93.83)"><g data-name="Grupo 24990"><circle data-name="Ellipse 2" cx="5.795" cy="5.795" r="5.795" transform="translate(104.681 4.843)"/><path data-name="Trazado 29906" d="M137.953 5.636v8h7.323"/><path data-name="Línea 4218" d="M145.279 40.01V13.64"/><path data-name="Trazado 29907" d="M109.1 19.98v19.65a10.364 10.364 0 0010.37 10.36h18.94"/><path data-name="Trazado 29908" d="M145.267 13.478l-7.475-8.327-1.75.016h-18.255"/><g data-name="Grupo 24989"><path data-name="Trazado 29909" d="M127.519 24.391l-1.656 7.363 1.656 2.878"/><path data-name="Trazado 29910" d="M127.519 24.391l1.656 7.363-1.656 2.878"/><path data-name="Línea 4219" d="M125.852 20.614v2.298"/><path data-name="Línea 4220" d="M129.214 20.614v2.298"/><path data-name="Trazado 29911" d="M125.852 22.917l-4.5 2.025a2.977 2.977 0 00-1.755 2.714v6.976h15.882v-6.976a2.976 2.976 0 00-1.756-2.714l-4.5-2.025"/><path data-name="Línea 4221" d="M127.533 24.818l-1.681-1.906"/><path data-name="Línea 4222" d="M127.533 24.818l1.681-1.906"/><path data-name="Trazado 29914" d="M130.688 17.93a3.169 3.169 0 11-6.337 0"/><path data-name="Trazado 29915" d="M124.351 17.93v-2.187a3.169 3.169 0 116.337 0v2.187"/></g><path data-name="Línea 4223" d="M119.338 39.866h16.85"/><path data-name="Línea 4224" d="M119.338 45.099h16.85"/></g><circle data-name="Elipse 3268" cx="7.5" cy="7.5" r="7.5" transform="translate(137.979 40)"/><path data-name="Trazado 29916" d="M141.979 48l2 3 5-6"/></g><g data-name="Grupo 24993"><g data-name="Grupo 24992" stroke-linecap="round" stroke-linejoin="round" stroke-width="2.4"><path data-name="Line 4" stroke="#fff" d="M41.677 62.5h8.375"/><path data-name="Line 5" stroke="#82d400" d="M58.405 62.5h.679"/><path data-name="Line 6" stroke="#fff" d="M10.916 62.5h8.298"/><path data-name="Line 7" stroke="#82d400" d="M18.674 62.5h14.628"/></g><path data-name="Rectángulo 7976" d="M0 55h70v15H0z"/></g></g></svg>