<svg xmlns="http://www.w3.org/2000/svg" width="70" height="70"><defs><clipPath id="a"><path data-name="Rectángulo 7558" transform="translate(0 55)" d="M0 0h70v15H0z"/></clipPath><clipPath id="b"><path data-name="Rectángulo 7557" transform="translate(-35 -7.5)" fill="none" d="M0 0h70v15H0z"/></clipPath></defs><g data-name="Grupo 24432"><g data-name="Grupo 24431"><g data-name="Grupo 24430" clip-path="url(#a)"><g data-name="Grupo 24429" transform="translate(35 62.5)" clip-path="url(#b)" fill="none"><g data-name="Grupo 24428" stroke-linecap="round" stroke-linejoin="round" stroke-width="2.4"><path stroke="#19a301" d="M6.7 0h8.4m8.3 0h.7m-48.2 0h8.3"/><path stroke="#82d400" d="M-16.3 0h14.6"/></g><path data-name="Rectángulo 7556" d="M-35-7.5h70v15h-70z"/></g></g></g><path data-name="Rectángulo 7559" fill="none" d="M0 0h70v70H0z"/></g><g data-name="Grupo 24439"><circle cx="5.8" cy="5.8" r="5.8" transform="translate(39.1 39.7)" fill="none" stroke="#19a301" stroke-linecap="round" stroke-linejoin="round" stroke-width="1.5"/><g data-name="Grupo 24434"><path data-name="Trazado 29374" d="M27 21.9c1 3.8 3.9 6.2 8 7.9 2.7-3.6 4-7 3-10.9a14.564 14.564 0 00-8.3-9.1A14.76 14.76 0 0027 21.9z" fill="none" stroke="#fff" stroke-linecap="round" stroke-linejoin="round" stroke-miterlimit="10" stroke-width="1.308"/><g data-name="Grupo 24433"><path data-name="Trazado 29375" d="M31.6 16.1l4 13.5a.632.632 0 01-1.2.4l-3.3-13.7c0-.1.1-.3.2-.3a.192.192 0 01.3.1z" fill="#fff"/></g></g><g data-name="Grupo 24436"><path data-name="Trazado 29376" d="M25 39.1c3.3 1.4 6.5.6 10.1-1.4-1.1-3.8-2.8-6.7-6.1-8.1a13.257 13.257 0 00-11.1.9 12.978 12.978 0 007.1 8.6z" fill="none" stroke="#fff" stroke-linecap="round" stroke-linejoin="round" stroke-miterlimit="10" stroke-width="1.308"/><g data-name="Grupo 24435"><path data-name="Trazado 29377" d="M23.5 32.6l11.9 4.6a.632.632 0 11-.4 1.2l-11.6-5.2c-.1-.1-.2-.2-.1-.4-.1-.2 0-.3.2-.2z" fill="#fff"/></g></g><g data-name="Grupo 24438"><path data-name="Trazado 29378" d="M39.3 24.6c-2.9 2-4 5.2-4.2 9.2C39 35 42.3 35 45.2 33a12.868 12.868 0 005.1-9.8 12.724 12.724 0 00-11 1.4z" fill="none" stroke="#fff" stroke-linecap="round" stroke-linejoin="round" stroke-miterlimit="10" stroke-width="1.308"/><g data-name="Grupo 24437"><path data-name="Trazado 29379" d="M45.7 26.8l-10.2 7.6a.64.64 0 11-.8-1l10.6-7c.1-.1.3 0 .4.1.1 0 .1.2 0 .3z" fill="#fff"/></g></g><path data-name="Línea 3971" fill="none" stroke="#fff" stroke-linecap="round" stroke-linejoin="round" stroke-miterlimit="10" stroke-width="1.308" d="M35.1 29.3v15.6"/><path data-name="Trazado 29380" d="M37 45.2a12.226 12.226 0 00-8.9 2l-11 7.8h35.8l-3.5-2.7" fill="none" stroke="#fff" stroke-linecap="round" stroke-linejoin="round" stroke-miterlimit="10" stroke-width="1.308"/></g><path data-name="Línea 3972" fill="none" stroke="#fff" stroke-linecap="round" stroke-linejoin="round" stroke-miterlimit="10" stroke-width="1.308" d="M52.9 55h3.6"/><path data-name="Línea 3973" fill="none" stroke="#fff" stroke-linecap="round" stroke-linejoin="round" stroke-miterlimit="10" stroke-width="1.308" d="M13.5 55h3.6"/></svg>