<svg xmlns="http://www.w3.org/2000/svg" xmlns:xlink="http://www.w3.org/1999/xlink" viewBox="0 0 70 70"><style>.st0{stroke:#19a301;stroke-width:2.4;stroke-linecap:round;stroke-linejoin:round}.st0,.st2,.st5{fill:none}.st5{stroke:#000;stroke-width:1.5;stroke-linecap:round;stroke-linejoin:round;stroke-miterlimit:10}</style><symbol id="OCENSA-EXT" viewBox="-35 -7.5 70 15"><path id="Line_4_2_" class="st0" d="M6.68 0h8.37"/><path id="Line_5_2_" class="st0" d="M23.41 0h.67"/><path id="Line_6_2_" class="st0" d="M-24.08 0h8.29"/><path id="Line_7_2_" fill="none" stroke="#82d400" stroke-width="2.4" stroke-linecap="round" stroke-linejoin="round" d="M-16.33 0H-1.7"/><path class="st2" d="M-35-7.5h70v15h-70z"/></symbol><g id="Capa_1"><use xlink:href="#OCENSA-EXT" width="70" height="15" x="-35" y="-7.5" transform="matrix(1 0 0 -1 35 62.5)" overflow="visible"/><circle id="Ellipse_2_137_" cx="14.47" cy="32.92" r="5.08" fill="none" stroke="#19a301" stroke-width="1.315" stroke-linecap="round" stroke-linejoin="round"/><path class="st5" d="M23.86 28.44V18.38S24.82 9 33.84 9s10.25 6.08 10.25 6.51.78 2.06-1.3 6.19c-2.08 4.14-.87 6.66 2.17 7.61v5.12s-.26 7.05-6.95 10.6-12.68.77-13.28.42c-.61-.35-2.43-1.65-2.43-1.65"/><path class="st5" d="M44.96 29.32c8-1.15 15.63 1.1 15.63 1.1s.62-4.88-4.57-10.34-11.93-4.57-11.93-4.57-3.62-2.98-7.85-1.41c-3.54 1.32-5.42 5.16-4.76 8.95.44 2.54 2.11 4.47 4.12 5.92 3.07 2.2 8.71 5.37 7.62 11.03m-1.27-16.11s11.68-.9 18.64 6.53m-9.78-5.56s.68-4.67 4.63-5.34m-16.78-1.25v2M21.89 30.94c2.47-3.13 5.52-5.36 8.96-2.6 4.23 3.39 2.35 7.55 1.32 8.99-1.03 1.45-7.62 8.96-18.62 5.95l1.89-2.73"/><path class="st5" d="M22.3 43.82l-6.85 8.77s5 2.62 8.08-1.58c2.29-3.13 1.93-5.21 1.93-5.21m4.89 1.02v2.91c-.18-.06-.41-.03-.59-.03-.99.01-1.81.31-2.5 1.04-.62.66-1.02 1.57-.88 2.48.11.69.75 1.12 1.45 1.12 1.09 0 1.58-.89 1.67-1.62h7.09c-.07 0 .32.99.36 1.05 1.04 1.52 3.24.11 2.67-1.53-.97-2.79-3.73-2.4-6.13-2.4V46.6"/><path class="st2" d="M0 0h70v70H0z"/></g></svg>