<svg data-name="Grupo 23398" xmlns="http://www.w3.org/2000/svg" width="70" height="70"><g data-name="Grupo 23420"><g data-name="Grupo 23419" fill="none"><g data-name="Grupo 23418" stroke-linecap="round" stroke-linejoin="round" stroke-width="2.4"><path data-name="Line 4" stroke="#19a301" d="M41.677 62.5h8.375"/><path data-name="Line 5" stroke="#19a301" d="M58.405 62.5h.679"/><path data-name="Line 6" stroke="#19a301" d="M10.916 62.5h8.298"/><path data-name="Line 7" stroke="#82d400" d="M18.674 62.5h14.628"/></g><path data-name="Rectángulo 7205" d="M0 55h70v15H0z"/></g></g><path data-name="Rectángulo 7206" fill="none" d="M0 0h70v70H0z"/><g data-name="Grupo 23421" fill="none" stroke-linecap="round" stroke-linejoin="round" stroke-width="1.5"><circle data-name="Ellipse 2" cx="5.795" cy="5.795" r="5.795" transform="translate(18.258 16.843)" stroke="#19a301"/><path data-name="Trazado 29008" d="M21.442 30.672l-.569 2.6-1.662-.831-4.8 4.8-2.031-1.662-2.77 3.6.923 1.108-.462 1.754H8.593L7.947 45l1.477 3.693 4.617 5.725 8.125-2.77 3.047.739L29 48.784l13.48-5.632 1.293-3.693 3.97-2.4V35.3l6.279-3.047h2.308l5.725-7.479-1.2-1.385-2.4-.554-1.755-2.674h-4.9l-1.477 1.293-8.4-.369-3.323-1.108-6.208 1.123" stroke="#000"/></g></svg>