<svg version="1.1" id="Capa_1" xmlns="http://www.w3.org/2000/svg" x="0" y="0" viewBox="0 0 40 40" xml:space="preserve"><style>.st0{fill:none;stroke:#19a301;stroke-linecap:round;stroke-linejoin:round;stroke-miterlimit:10}</style><path class="st0" d="M20.5 21.1l-2.3 10.5 2.3 4.1m0-14.6l2.4 10.5-2.4 4.1m-2.3-20V19m4.8-3.3V19"/><path class="st0" d="M18.2 19l-6.4 2.9c-1.5.7-2.5 2.2-2.5 3.9v10H32v-10c0-1.7-1-3.2-2.5-3.9L23 19m-2.4 2.7L18.2 19m2.4 2.7L23 19m2.1-7.1c0 2.5-2 4.5-4.5 4.5s-4.5-2-4.5-4.5"/><path class="st0" d="M16 11.9V8.8c0-2.5 2-4.5 4.5-4.5s4.5 2 4.5 4.5v3.1"/><path fill="none" d="M0 0h40v40H0z"/></svg>