<svg xmlns="http://www.w3.org/2000/svg" width="70" height="70"><g data-name="Grupo 23440" fill="none"><g data-name="Grupo 23442"><g data-name="Grupo 23441" stroke-linecap="round" stroke-linejoin="round" stroke-width="2.4"><path data-name="Line 4" stroke="#19a301" d="M41.677 62.5h8.375"/><path data-name="Line 5" stroke="#19a301" d="M58.405 62.5h.679"/><path data-name="Line 6" stroke="#19a301" d="M10.916 62.5h8.298"/><path data-name="Line 7" stroke="#82d400" d="M18.674 62.5h14.628"/></g><path data-name="Rectángulo 7217" d="M0 55h70v15H0z"/></g><path data-name="Rectángulo 7218" d="M0 0h70v70H0z"/><g data-name="Grupo 23444" stroke-linecap="round" stroke-linejoin="round" stroke-width="1.5" transform="translate(-778 90)"><circle data-name="Ellipse 2" cx="5.795" cy="5.795" r="5.795" transform="translate(826.712 -81.157)" stroke="#19a301"/><g data-name="Grupo 23443" stroke="#000"><path data-name="Trazado 29026" d="M813.717-56.744h-.817a4.671 4.671 0 001.887-3.8 4.423 4.423 0 00-4.253-4.576h-2.055a4.057 4.057 0 00.513-1.961c0-2.5-2.3-4.526-5.14-4.526s-5.14 2.026-5.14 4.526a4.057 4.057 0 00.513 1.961h-2.055a4.423 4.423 0 00-4.253 4.576 4.671 4.671 0 001.887 3.8h-.821a6.534 6.534 0 00-6.281 6.759 6.533 6.533 0 006.281 6.759h19.738A6.533 6.533 0 00820-49.985a6.534 6.534 0 00-6.283-6.759z"/><path data-name="Línea 3769" d="M803.848-57.16v21.411"/><path data-name="Línea 3770" d="M829.615-35.749h-33.833"/></g><path data-name="Línea 3771" stroke="#000" d="M823.334-35.749v-33.174"/><path data-name="Línea 3772" stroke="#000" d="M818.388-62.087l4.873 3.491"/><path data-name="Línea 3773" stroke="#000" d="M828.207-67.026l-4.873 2.982"/><path data-name="Línea 3774" stroke="#000" d="M809.326-51.685l-4.873 2.982"/><path data-name="Trazado 29027" d="M824.369-76.72q-.482-.041-.974-.041a11.513 11.513 0 00-11.506 11.505c0 .118 0 .248.012.366" stroke="#000"/><path data-name="Trazado 29028" d="M814.226-58.305a11.687 11.687 0 002.266 2.254l.023.024c.295.212.6.424.921.613.012.012.023.012.035.024a11.452 11.452 0 005.924 1.64A11.505 11.505 0 00834.9-65.256a11.521 11.521 0 00-.17-1.978" stroke="#000"/></g></g></svg>