<svg xmlns="http://www.w3.org/2000/svg" width="70" height="70"><g data-name="Group 22358" transform="translate(540 -90)"><g data-name="Group 22106" fill="none"><g data-name="Group 22105" stroke-linecap="round" stroke-linejoin="round" stroke-width="2.4"><path data-name="Line 4" stroke="#19a301" d="M-498.323 152.5h8.375"/><path data-name="Line 5" stroke="#19a301" d="M-481.595 152.5h.679"/><path data-name="Line 6" stroke="#19a301" d="M-529.084 152.5h8.298"/><path data-name="Line 7" stroke="#82d400" d="M-521.326 152.5h14.628"/></g><path data-name="Rectangle 6737" d="M-540 145h70v15h-70z"/></g><circle data-name="Ellipse 2" cx="5.795" cy="5.795" r="5.795" transform="translate(-534.987 108.843)" fill="none" stroke="#19a301" stroke-linecap="round" stroke-linejoin="round" stroke-width="1.5"/><path data-name="Rectangle 6738" fill="none" d="M-540 90h70v70h-70z"/><path data-name="Rectángulo 2137" fill="none" stroke="#000" stroke-linecap="round" stroke-linejoin="round" stroke-width="1.5" d="M-501.142 123.183h17.581v20.911h-17.581z"/><path data-name="Trazado 5455" d="M-517.542 101.706h-11.1v3.994" fill="none" stroke="#000" stroke-linecap="round" stroke-linejoin="round" stroke-width="1.5"/><path data-name="Trazado 5456" d="M-528.643 123.816v20.278h11.1v-41.968" fill="none" stroke="#000" stroke-linecap="round" stroke-linejoin="round" stroke-width="1.5"/><path data-name="Path 28252" d="M-517.556 123.184h5.983a4.021 4.021 0 013.857 4.158v5.983a4 4 0 003.842 4.145h2.594" fill="none" stroke="#000" stroke-linecap="round" stroke-linejoin="round" stroke-width="1.5"/><path data-name="Trazado 5459" d="M-517.236 106.276h.684c2.832 0 5.125 1.858 5.125 4.151V144.1" fill="none" stroke="#000" stroke-linecap="round" stroke-linejoin="round" stroke-width="1.5"/><path data-name="Línea 708" fill="none" stroke="#000" stroke-linecap="round" stroke-linejoin="round" stroke-width="1.659" d="M-478 144.094h-55.426"/><path data-name="Trazado 5460" d="M-492.16 128.552c-.664 1.67-1.348 3.325-2.028 4.99-.545 1.328-1.2 2.776-.239 4.083a2.866 2.866 0 002.267 1.193 2.935 2.935 0 002.667-1.909c.482-1.2-.1-2.552-.618-3.621-.622-1.288-2.095-4.622-2.049-4.736z" fill="none" stroke="#000" stroke-linecap="round" stroke-linejoin="round" stroke-width="1.5"/><path data-name="Rectangle 6739" fill="none" stroke="#000" stroke-linecap="round" stroke-linejoin="round" stroke-width="1.5" d="M-505.389 104.376h26.075v12.351h-26.075z"/><path data-name="Line 2907" fill="none" stroke="#000" stroke-linecap="round" stroke-linejoin="round" stroke-width="1.5" d="M-492.115 116.727v6.457"/><g data-name="Group 22107" stroke="#000" stroke-miterlimit="10" stroke-width=".343"><path data-name="Path 28253" d="M-497.257 107.527a2.6 2.6 0 01.857 1.674h-.973a2.027 2.027 0 00-.659-1.128 2.093 2.093 0 00-1.387-.416 2.225 2.225 0 00-1.757.765 3.487 3.487 0 00-.669 2.344 3.409 3.409 0 00.6 2.1 2.114 2.114 0 001.8.8 1.9 1.9 0 001.68-.847 3.221 3.221 0 00.456-1.174h.973a3.325 3.325 0 01-.862 1.951 3.069 3.069 0 01-2.367.948 3.125 3.125 0 01-2.156-.778 4.047 4.047 0 01-1.148-3.174 4.053 4.053 0 01.862-2.672 3.148 3.148 0 012.572-1.133 3.018 3.018 0 012.178.74z"/><path data-name="Path 28254" d="M-494.033 106.99v4.553a2.687 2.687 0 00.3 1.334 1.582 1.582 0 001.505.8 1.769 1.769 0 001.725-.867 2.778 2.778 0 00.245-1.269v-4.551h1.013v4.137a4.787 4.787 0 01-.366 2.091 2.572 2.572 0 01-2.537 1.334 2.561 2.561 0 01-2.532-1.334 4.786 4.786 0 01-.366-2.091v-4.137z"/><path data-name="Path 28255" d="M-487.049 111.979a2.018 2.018 0 00.3 1.018 1.962 1.962 0 001.75.732 3.092 3.092 0 001.023-.16 1.138 1.138 0 00.893-1.113.963.963 0 00-.376-.858 3.809 3.809 0 00-1.194-.436l-1-.226a4.534 4.534 0 01-1.384-.486 1.541 1.541 0 01-.7-1.379 2.125 2.125 0 01.687-1.63 2.76 2.76 0 011.946-.636 3.392 3.392 0 011.968.558 2.02 2.02 0 01.81 1.788h-.938a1.839 1.839 0 00-.321-.907 1.861 1.861 0 00-1.549-.577 1.8 1.8 0 00-1.269.371 1.163 1.163 0 00-.386.863.843.843 0 00.451.792 6.689 6.689 0 001.339.4l1.033.236a3.151 3.151 0 011.153.466 1.746 1.746 0 01.7 1.5 1.87 1.87 0 01-.89 1.75 3.983 3.983 0 01-2.068.527 3.092 3.092 0 01-2.151-.7 2.37 2.37 0 01-.762-1.891z"/></g></g></svg>