<svg data-name="Grupo 24772" xmlns="http://www.w3.org/2000/svg" width="70" height="70"><g data-name="Grupo 24771"><g data-name="Grupo 24768"><g data-name="Grupo 24767" fill="none"><g data-name="Grupo 24766" stroke-linecap="round" stroke-linejoin="round" stroke-width="2.4"><path data-name="Line 4" stroke="#19a301" d="M41.677 62.5h8.375"/><path data-name="Line 5" stroke="#19a301" d="M58.405 62.5h.679"/><path data-name="Line 6" stroke="#19a301" d="M10.916 62.5h8.298"/><path data-name="Line 7" stroke="#82d400" d="M18.674 62.5h14.628"/></g><path data-name="Rectángulo 7909" d="M0 55h70v15H0z"/></g></g><path data-name="Rectángulo 7910" fill="none" d="M0 0h70v70H0z"/><path data-name="Rectángulo 7911" fill="none" d="M0 0h70v70H0z"/><g data-name="Grupo 24770"><circle data-name="Ellipse 2" cx="5.795" cy="5.795" r="5.795" transform="translate(8.61 8.843)" fill="none" stroke="#19a301" stroke-linecap="round" stroke-linejoin="round" stroke-width="1.5"/><path data-name="Trazado 29773" d="M35.052 53.873H21.77a8.36 8.36 0 01-8.36-8.36V23.759" fill="none" stroke="#000" stroke-linecap="round" stroke-linejoin="round" stroke-width="1.5"/><path data-name="Trazado 29774" d="M49.788 43.35v10.52h-21.64" fill="none" stroke="#000" stroke-linecap="round" stroke-linejoin="round" stroke-width="1.5"/><path data-name="Trazado 29775" d="M22.018 8.79h20.56l7.22 7.46v7.85" fill="none" stroke="#000" stroke-linecap="round" stroke-linejoin="round" stroke-width="1.5"/><path data-name="Trazado 29776" d="M42.432 8.786v8.048H49.8" fill="none" stroke="#000" stroke-linecap="round" stroke-linejoin="round" stroke-width="1.5"/><path data-name="Línea 4114" fill="none" stroke="#000" stroke-linecap="round" stroke-linejoin="round" stroke-width="1.5" d="M31.883 25.77H19.198"/><path data-name="Línea 4115" fill="none" stroke="#000" stroke-linecap="round" stroke-linejoin="round" stroke-width="1.5" d="M31.902 31.77H19.368"/><path data-name="Línea 4116" fill="none" stroke="#000" stroke-linecap="round" stroke-linejoin="round" stroke-width="1.5" d="M31.902 37.77H19.368"/><path data-name="Línea 4117" fill="none" stroke="#000" stroke-linecap="round" stroke-linejoin="round" stroke-width="1.5" d="M37.651 43.77H19.364"/><g data-name="Grupo 24769"><path data-name="Trazado 29777" d="M40.842 41.315h4.6l.084 4.947a.376.376 0 00.623.277l5.965-5.224h6.642a2.636 2.636 0 002.634-2.635V26.735a2.636 2.636 0 00-2.636-2.635H40.842a2.636 2.636 0 00-2.636 2.635V38.68a2.636 2.636 0 002.636 2.635z" fill="none" stroke="#000" stroke-linecap="round" stroke-linejoin="round" stroke-width="1.5"/></g><path data-name="Línea 4118" fill="none" stroke="#000" stroke-linecap="round" stroke-linejoin="round" stroke-width="1.5" d="M43.973 31.213h11.234"/><path data-name="Línea 4119" fill="none" stroke="#000" stroke-linecap="round" stroke-linejoin="round" stroke-width="1.5" d="M43.973 35.213h11.234"/></g></g></svg>