<svg data-name="Grupo 24204" xmlns="http://www.w3.org/2000/svg" width="70" height="70"><g data-name="Grupo 24187"><g data-name="Grupo 24186" fill="none"><g data-name="Grupo 24185" stroke-linecap="round" stroke-linejoin="round" stroke-width="2.4"><path data-name="Line 4" stroke="#19a301" d="M41.677 62.5h8.375"/><path data-name="Line 5" stroke="#19a301" d="M58.405 62.5h.679"/><path data-name="Line 6" stroke="#19a301" d="M10.916 62.5h8.298"/><path data-name="Line 7" stroke="#82d400" d="M18.674 62.5h14.628"/></g><path data-name="Rectángulo 7720" d="M0 55h70v15H0z"/></g></g><path data-name="Rectángulo 7721" fill="none" d="M0 0h70v70H0z"/><path data-name="Trazado 29418" d="M33.94 53.87h13.28" fill="none" stroke="#fff" stroke-linecap="round" stroke-linejoin="round" stroke-width="1.5"/><g data-name="Grupo 24190" fill="none" stroke-linecap="round" stroke-linejoin="round"><circle data-name="Ellipse 2" cx="5.795" cy="5.795" r="5.795" transform="translate(9.703 8.843)" stroke="#19a301" stroke-width="1.5"/><path data-name="Trazado 29419" d="M36.145 53.873H22.863a8.36 8.36 0 01-8.36-8.36V23.759" stroke="#fff" stroke-width="1.5"/><path data-name="Trazado 29420" d="M23.437 8.79h20.23l7.22 7.46v7.44" stroke="#fff" stroke-width="1.5"/><path data-name="Trazado 29421" d="M43.524 8.786v8.048h7.366" stroke="#fff" stroke-width="1.5"/><path data-name="Línea 3902" stroke="#fff" stroke-width="1.5" d="M23.461 32.774h19.055"/><path data-name="Línea 3903" stroke="#fff" stroke-width="1.5" d="M40.747 40.77h-17.29"/><g data-name="Grupo 24188" stroke="#fff" stroke-width="1.63"><path data-name="Línea 3904" d="M48.125 33.799v2.907"/><path data-name="Línea 3905" d="M52.378 33.799v2.907"/><path data-name="Trazado 29422" d="M48.125 36.712l-5.7 2.561a3.766 3.766 0 00-2.221 3.433v11.167H60.3V42.706a3.764 3.764 0 00-2.221-3.433l-5.7-2.561"/><path data-name="Línea 3906" d="M50.252 39.117l-2.127-2.412"/><path data-name="Línea 3907" d="M50.252 39.117l2.127-2.412"/><path data-name="Trazado 29423" d="M54.243 30.4a4.008 4.008 0 11-8.017 0"/><path data-name="Trazado 29424" d="M46.226 30.4v-2.764a4.008 4.008 0 018.017 0V30.4"/></g><g data-name="Grupo 24189" stroke="#fff" stroke-width="1.5"><path data-name="Trazado 29425" d="M32.526 21.5a2.328 2.328 0 112.328-2.328"/><path data-name="Trazado 29426" d="M32.526 21.5a2.329 2.329 0 11-2.326 2.33"/><path data-name="Línea 3908" d="M32.526 16.844v-1.293"/><path data-name="Línea 3909" d="M32.526 27.452v-1.293"/></g></g></svg>