<svg data-name="Grupo 24178" xmlns="http://www.w3.org/2000/svg" width="70" height="70"><path data-name="Rectángulo 7716" fill="none" d="M0 0h70v70H0z"/><g data-name="Grupo 24176"><g data-name="Grupo 24175" fill="none"><g data-name="Grupo 24174" stroke-linecap="round" stroke-linejoin="round" stroke-width="2.4"><path data-name="Line 4" stroke="#fff" d="M41.677 62.5h8.375"/><path data-name="Line 5" stroke="#82d400" d="M58.405 62.5h.679"/><path data-name="Line 6" stroke="#fff" d="M10.916 62.5h8.298"/><path data-name="Line 7" stroke="#82d400" d="M18.674 62.5h14.628"/></g><path data-name="Rectángulo 7717" d="M0 55h70v15H0z"/></g></g><g data-name="Grupo 24177" fill="none" stroke="#fff" stroke-linecap="round" stroke-linejoin="round" stroke-width="1.5"><path data-name="Trazado 29402" d="M18.347 19.21a5.8 5.8 0 11-5.8-5.795 5.778 5.778 0 015.8 5.795z"/><path data-name="Trazado 29404" d="M40.9 53.337h17.173V33.361h-34.44v19.976H40.9z"/><path data-name="Línea 3880" d="M58.073 33.361v4.208"/><path data-name="Línea 3881" d="M30.774 33.361v4.208"/><path data-name="Línea 3882" d="M41.321 33.361v4.208"/><path data-name="Línea 3883" d="M51.868 33.361v4.208"/><path data-name="Línea 3884" d="M23.62 37.634v-4.273"/><path data-name="Línea 3885" d="M61.487 37.657H20.219"/><path data-name="Línea 3886" d="M58.019 48.15H35.023"/><path data-name="Línea 3887" d="M29.02 48.15h-5.387"/><path data-name="Trazado 29406" d="M12.34 28.186v25.151h11.28"/><path data-name="Trazado 29407" d="M51.868 33.361V17.943H21.219"/><path data-name="Línea 3888" d="M51.868 17.943v4.208"/><path data-name="Línea 3889" d="M23.167 17.943v4.208"/><path data-name="Línea 3890" d="M31.108 17.943v4.208"/><path data-name="Línea 3891" d="M43.01 17.943v4.208"/><path data-name="Línea 3892" d="M55.282 22.239H21.219"/><path data-name="Línea 3893" d="M17.727 32.732H12.34"/></g></svg>