<svg data-name="Grupo 24184" xmlns="http://www.w3.org/2000/svg" width="70" height="70"><g data-name="Grupo 24181"><g data-name="Grupo 24180" fill="none"><g data-name="Grupo 24179" stroke-linecap="round" stroke-linejoin="round" stroke-width="2.4"><path data-name="Line 4" stroke="#19a301" d="M41.677 62.5h8.375"/><path data-name="Line 5" stroke="#19a301" d="M58.405 62.5h.679"/><path data-name="Line 6" stroke="#19a301" d="M10.916 62.5h8.298"/><path data-name="Line 7" stroke="#82d400" d="M18.674 62.5h14.628"/></g><path data-name="Rectángulo 7718" d="M0 55h70v15H0z"/></g></g><path data-name="Rectángulo 7719" fill="none" d="M0 0h70v70H0z"/><g data-name="Grupo 24183" fill="none" stroke-linecap="round" stroke-linejoin="round" stroke-width="1.5"><circle data-name="Ellipse 2" cx="5.795" cy="5.795" r="5.795" transform="translate(14.703 8.843)" stroke="#19a301"/><path data-name="Trazado 29408" d="M47.974 9.636v8H55.3" stroke="#000"/><path data-name="Trazado 29409" d="M19.121 23.979v19.649a10.366 10.366 0 0010.365 10.365H55.3V17.637" stroke="#000"/><path data-name="Trazado 29410" d="M55.288 17.478l-7.475-8.326-1.75.016H27.808" stroke="#000"/><g data-name="Grupo 24182" stroke="#000"><path data-name="Trazado 29411" d="M37.541 28.391l-1.656 7.363 1.656 2.878"/><path data-name="Trazado 29412" d="M37.541 28.391l1.659 7.363-1.656 2.878"/><path data-name="Línea 3895" d="M35.873 24.614v2.298"/><path data-name="Línea 3896" d="M39.235 24.614v2.298"/><path data-name="Trazado 29413" d="M35.873 26.917l-4.5 2.025a2.976 2.976 0 00-1.756 2.714v6.976h15.878v-6.976a2.977 2.977 0 00-1.755-2.714l-4.505-2.025"/><path data-name="Línea 3897" d="M37.554 28.818l-1.681-1.906"/><path data-name="Línea 3898" d="M37.554 28.818l1.681-1.906"/><path data-name="Trazado 29416" d="M40.71 21.93a3.169 3.169 0 11-6.338 0"/><path data-name="Trazado 29417" d="M34.372 21.93v-2.187a3.169 3.169 0 116.338 0v2.187"/></g><path data-name="Línea 3899" stroke="#000" d="M29.36 43.866h16.85"/><path data-name="Línea 3900" stroke="#000" d="M29.36 49.099h16.85"/></g></svg>