<svg data-name="Grupo 23676" xmlns="http://www.w3.org/2000/svg" width="70" height="70"><g data-name="Grupo 23673"><g data-name="Grupo 23672" fill="none"><g data-name="Grupo 23671" stroke-linecap="round" stroke-linejoin="round" stroke-width="2.4"><path data-name="Line 4" stroke="#19a301" d="M41.677 62.5h8.375"/><path data-name="Line 5" stroke="#19a301" d="M58.405 62.5h.679"/><path data-name="Line 6" stroke="#19a301" d="M10.916 62.5h8.298"/><path data-name="Line 7" stroke="#82d400" d="M18.674 62.5h14.628"/></g><path data-name="Rectángulo 7298" d="M0 55h70v15H0z"/></g></g><path data-name="Rectángulo 7299" fill="none" d="M0 0h70v70H0z"/><g data-name="Grupo 23675"><g data-name="Grupo 23674"><circle data-name="Ellipse 2" cx="5.795" cy="5.795" r="5.795" transform="translate(16.688 15.46)" fill="none" stroke="#19a301" stroke-linecap="round" stroke-linejoin="round" stroke-width="1.5"/></g><path data-name="Trazado 29182" d="M26.445 13.545l1.288-2.535 5.5 5.19-1.29 4.53 9.55 10.2 2.91-3.56 6.16.32 2.75 9.07-4.37 8.26 1.13 4.05-1.78 5.02h-2.43L44.4 47.12l-7.44 6.97-9.56-2.92-6.64 4.37-3.88-3.56 3.56-9.23L24 41.29l-2.91-4.53 1.78-2.75 3.08.81-.129-5.393" fill="none" stroke="#000" stroke-linecap="round" stroke-linejoin="round" stroke-width="1.5"/></g></svg>