<svg version="1.1" id="Layer_1" xmlns="http://www.w3.org/2000/svg" xmlns:xlink="http://www.w3.org/1999/xlink" x="0" y="0" viewBox="0 0 70 70" xml:space="preserve"><style>.st0{stroke:#19a301;stroke-width:2.4;stroke-linecap:round;stroke-linejoin:round}.st0,.st2{fill:none}</style><symbol id="OCENSA-EXT" viewBox="-35 -7.5 70 15"><path id="Line_4_1_" class="st0" d="M6.7 0h8.4"/><path id="Line_5_1_" class="st0" d="M23.4 0h.7"/><path id="Line_6_1_" class="st0" d="M-24.1 0h8.3"/><path id="Line_7_1_" fill="none" stroke="#82d400" stroke-width="2.4" stroke-linecap="round" stroke-linejoin="round" d="M-16.3 0h14.6"/><path class="st2" d="M-35-7.5h70v15h-70z"/></symbol><g id="Capa_2"><defs><path id="SVGID_1_" d="M0 55h70v15H0z"/></defs><clipPath id="SVGID_2_"><use xlink:href="#SVGID_1_" overflow="visible"/></clipPath><g clip-path="url(#SVGID_2_)"><use xlink:href="#OCENSA-EXT" width="70" height="15" x="-35" y="-7.5" transform="matrix(1 0 0 -1 35 62.5)" overflow="visible"/></g><path class="st2" d="M0 0h70v70H0z"/><g stroke-width="1.5" stroke-linecap="round" stroke-linejoin="round" stroke-miterlimit="10" fill="none"><path d="M42.2 55V37.4M28.2 55V37.4m13.1 17.7H29c-3.1 0-5.6-2.5-5.6-5.6V32.7c0-3.1 2.5-5.6 5.6-5.6h12.3c3.1 0 5.6 2.5 5.6 5.6v16.7c.1 3.1-2.4 5.7-5.6 5.7z" stroke="#fff"/><circle cx="34.9" cy="16.5" r="6.3" stroke="#19a301"/></g></g></svg>