<svg xmlns="http://www.w3.org/2000/svg" width="70" height="70"><g data-name="Grupo 23107" fill="none"><g data-name="Grupo 22032"><g data-name="Grupo 22031" stroke-linecap="round" stroke-linejoin="round" stroke-width="2.4"><path data-name="Line 4" stroke="#19a301" d="M41.677 62.5h8.375"/><path data-name="Line 5" stroke="#19a301" d="M58.405 62.5h.679"/><path data-name="Line 6" stroke="#19a301" d="M10.916 62.5h8.298"/><path data-name="Line 7" stroke="#82d400" d="M18.674 62.5h14.628"/></g><path data-name="Rectángulo 6696" d="M0 55h70v15H0z"/></g><path data-name="Rectángulo 6697" d="M0 0h70v70H0z"/><g data-name="Grupo 22035" stroke-width="1.5" transform="translate(0 -90)"><g data-name="Grupo 22033" stroke="#fff" stroke-linecap="round" stroke-linejoin="round"><path data-name="Trazado 28191" d="M7.811 139.43v-10.818a4.612 4.612 0 014.6-4.6H22.48a4.619 4.619 0 014.426 3.361"/><circle data-name="Elipse 3079" cx="5.145" cy="5.145" r="5.145" transform="translate(12.091 110.283)"/></g><path data-name="Trazado 28192" d="M24.112 144.117v-12.208a5.109 5.109 0 015.1-5.094h11.132a5.109 5.109 0 015.094 5.094v12.208" stroke="#fff" stroke-linecap="round" stroke-linejoin="round"/><circle data-name="Elipse 3080" cx="5.696" cy="5.696" r="5.696" transform="translate(28.849 111.622)" stroke="#19a301" stroke-miterlimit="10"/><g data-name="Grupo 22034" stroke="#fff" stroke-linecap="round" stroke-linejoin="round"><path data-name="Trazado 28193" d="M43.031 127.6a4.624 4.624 0 014.489-3.586h10.068a4.621 4.621 0 014.6 4.6v10.816"/><circle data-name="Elipse 3081" cx="5.145" cy="5.145" r="5.145" transform="translate(47.198 110.283)"/></g></g></g></svg>