<svg xmlns="http://www.w3.org/2000/svg" width="70" height="70"><defs><clipPath id="a"><path data-name="Rect치ngulo 7607" transform="translate(119 1500.266)" fill="#fd0d1b" d="M0 0h70v70H0z"/></clipPath><clipPath id="b"><path data-name="Rect치ngulo 7610" transform="translate(-35 -7.5)" fill="none" d="M0 0h70v15H0z"/></clipPath></defs><g data-name="Enmascarar grupo 1" transform="translate(-119 -1500.266)" clip-path="url(#a)"><g transform="translate(119 1500.266)" fill="none"><path data-name="Rect치ngulo 7608" d="M0 0h70v70H0z"/><g data-name="Grupo 24387" transform="translate(35 62.5)" clip-path="url(#b)"><g data-name="Grupo 24386" stroke-linecap="round" stroke-linejoin="round" stroke-width="2.4"><path stroke="#19a301" d="M6.7 0h8.4m8.3 0h.7m-48.2 0h8.3"/><path stroke="#82d400" d="M-16.3 0h14.6"/></g><path data-name="Rect치ngulo 7609" d="M-35-7.5h70v15h-70z"/></g><g stroke="#000" stroke-linecap="round" stroke-linejoin="round" stroke-miterlimit="10" stroke-width="1.5"><path d="M36.1 14.2l3-.5v20.5l-18-2.8h-6.6a3.372 3.372 0 01-3.4-3.4v-8.3a3.372 3.372 0 013.4-3.4h4.8"/><path d="M45.9 39h-3.4a3.372 3.372 0 01-3.4-3.4V12.4A3.372 3.372 0 0142.5 9h3.4v30zm.1-8.5h0V17.2h0a4.8 4.8 0 014.8 4.8v3.7a4.935 4.935 0 01-4.8 4.8zm-18.5 1.9v18.3h-2.7a4.118 4.118 0 01-4.1-4.1V19.9m33.5 3.4H59m-4.1 3.8l3.4 3.4m-3.4-11l3.4-3.3"/></g><circle cx="5.8" cy="5.8" r="5.8" transform="translate(21.7 7.9)" stroke="#19a301" stroke-linecap="round" stroke-linejoin="round" stroke-width="1.5"/></g></g></svg>