<svg data-name="Capa 1" xmlns="http://www.w3.org/2000/svg" xmlns:xlink="http://www.w3.org/1999/xlink" viewBox="0 0 70 70"><defs><symbol id="a" data-name="OCENSA-EXT" viewBox="0 0 70 15"><path data-name="Line 4" fill="none" stroke="#19a301" stroke-linecap="round" stroke-linejoin="round" stroke-width="2.4" d="M41.68 7.5h8.37"/><path data-name="Line 5" fill="none" stroke="#19a301" stroke-linecap="round" stroke-linejoin="round" stroke-width="2.4" d="M58.4 7.5h.68"/><path data-name="Line 6" fill="none" stroke="#19a301" stroke-linecap="round" stroke-linejoin="round" stroke-width="2.4" d="M10.92 7.5h8.29"/><path data-name="Line 7" fill="none" stroke="#82d400" stroke-linecap="round" stroke-linejoin="round" stroke-width="2.4" d="M18.67 7.5H33.3"/><path fill="none" d="M0 0h70v15H0z"/></symbol></defs><path data-name="Trazado 5456" d="M38.5 7.26H26.2v19.88h12.3V7.68" fill="none" stroke="#000" stroke-linecap="round" stroke-linejoin="round" stroke-width="1.5"/><path d="M38.49 16.47h8.28a4 4 0 013.85 4.15v9.14" fill="none" stroke="#000" stroke-linecap="round" stroke-linejoin="round" stroke-width="1.5"/><path data-name="Trazado 5459" d="M38.81 11.83h.68c2.84 0 5.13 1.85 5.13 4.15v13.21" fill="none" stroke="#000" stroke-linecap="round" stroke-linejoin="round" stroke-width="1.5"/><path data-name="Trazado 5460" d="M32.31 12.06q-1 2.51-2 5c-.55 1.33-1.2 2.78-.24 4.09a2.89 2.89 0 002.27 1.19A2.92 2.92 0 0035 20.42c.49-1.2-.1-2.55-.61-3.62-.66-1.29-2.13-4.62-2.08-4.74z" fill="none" stroke="#000" stroke-linecap="round" stroke-linejoin="round" stroke-width="1.5"/><circle data-name="Ellipse 2" cx="13.52" cy="30.75" r="5.14" fill="none" stroke="#19a301" stroke-linecap="round" stroke-linejoin="round" stroke-width="1.5"/><path fill="none" stroke="#000" stroke-linecap="round" stroke-linejoin="round" stroke-width="1.5" d="M13.12 49.64h48.03m-41.04-22.5h19.24a7.44 7.44 0 017.44 7.44h0A7.44 7.44 0 0139.35 42H17.91a7.44 7.44 0 01-6.77-4.33m39.97-7.91h4.35a1.26 1.26 0 011.21.91l1.06 3.48 2 1.17a2 2 0 011 1.77V42H48.69v-9.82a2.42 2.42 0 012.42-2.42z"/><path d="M14.21 42H61.4a1.33 1.33 0 011.33 1.33h0a1.32 1.32 0 01-1.33 1.33H14.21z" fill="none" stroke="#000" stroke-linecap="round" stroke-linejoin="round" stroke-width="1.5"/><circle cx="18.66" cy="45.29" r="3" fill="#fff" stroke="#000" stroke-linecap="round" stroke-linejoin="round" stroke-width="1.5"/><circle cx="26.53" cy="45.29" r="3" fill="#fff" stroke="#000" stroke-linecap="round" stroke-linejoin="round" stroke-width="1.5"/><circle cx="54.74" cy="45.29" r="3" fill="#fff" stroke="#000" stroke-linecap="round" stroke-linejoin="round" stroke-width="1.5"/><path fill="none" stroke="#000" stroke-linecap="round" stroke-linejoin="round" stroke-width="1.5" d="M60.78 42.02v2.66M20.11 25.11h3.42v2.03h-3.42zm11.93 0h3.42v2.03h-3.42zm25.69 9.04h-9.04m3.74-4.39v4.39m7.41 4.95h.94V42h0-.94a1.46 1.46 0 01-1.46-1.46v0a1.46 1.46 0 011.46-1.44zm-6.92-2.55h1.25"/><use width="70" height="15" transform="translate(0 55)" xlink:href="#a"/><path fill="none" d="M0 0h70v70H0z"/></svg>