<svg xmlns="http://www.w3.org/2000/svg" xmlns:xlink="http://www.w3.org/1999/xlink" viewBox="0 0 70 70"><style>.st0{stroke:#19a301;stroke-width:2.4;stroke-linecap:round;stroke-linejoin:round}.st0,.st2,.st5{fill:none}.st5{stroke:#000;stroke-width:1.5;stroke-linecap:round;stroke-linejoin:round;stroke-miterlimit:10}</style><symbol id="OCENSA-EXT" viewBox="-35 -7.5 70 15"><path id="Line_4_2_" class="st0" d="M6.68 0h8.37"/><path id="Line_5_2_" class="st0" d="M23.41 0h.67"/><path id="Line_6_2_" class="st0" d="M-24.08 0h8.29"/><path id="Line_7_2_" fill="none" stroke="#82d400" stroke-width="2.4" stroke-linecap="round" stroke-linejoin="round" d="M-16.33 0H-1.7"/><path class="st2" d="M-35-7.5h70v15h-70z"/></symbol><g id="Capa_1"><circle id="Ellipse_2_193_" cx="12.27" cy="43.59" r="5.8" fill="none" stroke="#19a301" stroke-width="1.5" stroke-linecap="round" stroke-linejoin="round"/><path id="Línea_1013_9_" class="st5" d="M22.35 29.85v3.96"/><path id="Línea_1014_9_" class="st5" d="M28.14 29.85v3.96"/><path class="st5" d="M17 36.19l5.29-2.39m5.84.01l7.76 3.5c1.52.68 2.58 2.49 2.92 4.07v14H11.62v-2.89"/><path id="Trazado_5701_9_" class="st5" d="M30.68 25.23a5.46 5.46 0 01-10.92 0"/><path id="Trazado_5702_8_" class="st5" d="M19.76 25.23v-3.77a5.46 5.46 0 0110.92 0v3.77"/><path class="st5" d="M15.65 20.94h19.77m-13.5 13.08s3.48 2.47 6.67 0"/><path id="Trazado_6132_9_" class="st5" d="M33.57 17.46c-.12 1.77-1.91 3.08-1.91 3.08s-1.59-1.55-1.46-3.31 1.91-3.08 1.91-3.08 1.59 1.54 1.46 3.31z"/><path id="Trazado_6132_8_" class="st5" d="M36.02 20.89c-1.74.32-3.46-1.07-3.46-1.07s1.1-1.93 2.84-2.25c1.74-.32 3.46 1.07 3.46 1.07s-1.1 1.93-2.84 2.25z"/><path class="st5" d="M19.76 35.01l10.43 11.47 6.39-8.77m-6.55 17.67v-8.9"/><path id="Línea_1013_8_" class="st5" d="M47.06 29.86v3.95"/><path id="Línea_1014_8_" class="st5" d="M52.85 29.86v3.95"/><path class="st5" d="M37.67 38.59c.44-.56.98-1.01 1.58-1.28l7.76-3.5M36.33 55.38h27.2V41.4c-.34-1.6-1.4-3.39-2.92-4.08l-7.77-3.5"/><path id="Trazado_5701_8_" class="st5" d="M55.39 25.23a5.46 5.46 0 01-10.92 0"/><path class="st5" d="M54.98 19.42c-.1-.23-.2-.45-.33-.65-.15-.29-.33-.55-.52-.78-.01-.01-.03-.01-.03-.03m-9.24 1.46c.82-2 2.77-3.41 5.06-3.41.59 0 1.16.1 1.69.26m3.78 8.97v-3.33m-10.92 3.33v-3.33m2.16 12.11s3.48 2.47 6.67 0"/><path id="Trazado_6132_7_" class="st5" d="M54.96 15.93c-.12 1.77-1.91 3.08-1.91 3.08s-1.59-1.55-1.46-3.31 1.91-3.08 1.91-3.08 1.59 1.54 1.46 3.31z"/><path id="Trazado_6132_6_" class="st5" d="M57.41 19.36c-1.74.32-3.46-1.07-3.46-1.07s1.1-1.93 2.84-2.25c1.74-.32 3.46 1.07 3.46 1.07s-1.1 1.93-2.84 2.25z"/><path class="st5" d="M40.26 19.42h19.2v2.49h-19.2zm17.01 0v-.03m-15.16.03a7.674 7.674 0 0110.46-5.92m2.29 1.45c.1.07.19.16.27.25.33.33.64.7.91 1.09M42 36.06V21.91m15.93 13.95V21.91M45.51 35.12l-2.83 2.89 2.83 2.9-2.83 2.89 2.83 2.89-2.83 2.9 2.83 2.9-2.83 2.9"/><use xlink:href="#OCENSA-EXT" width="70" height="15" x="-35" y="-7.5" transform="matrix(1 0 0 -1 35 62.5)" overflow="visible"/><path class="st2" d="M0 0h70v70H0z"/></g></svg>