<svg xmlns="http://www.w3.org/2000/svg" width="70" height="70"><g data-name="Group 22438" transform="translate(90)"><g data-name="Group 22439" fill="none"><g data-name="Group 22438" stroke-linecap="round" stroke-linejoin="round" stroke-width="2.4"><path data-name="Line 4" stroke="#19a301" d="M-48.323 62.5h8.375"/><path data-name="Line 5" stroke="#19a301" d="M-31.595 62.5h.679"/><path data-name="Line 6" stroke="#19a301" d="M-79.084 62.5h8.298"/><path data-name="Line 7" stroke="#82d400" d="M-71.326 62.5h14.628"/></g><path data-name="Rectangle 6903" d="M-90 55h70v15h-70z"/></g><path data-name="Rectangle 6904" fill="none" d="M-90 0h70v70h-70z"/><circle data-name="Ellipse 2" cx="5.795" cy="5.795" r="5.795" transform="translate(-84.986 18.843)" fill="none" stroke="#19a301" stroke-linecap="round" stroke-linejoin="round" stroke-width="1.5"/><path data-name="Rectángulo 2137" fill="none" stroke="#000" stroke-linecap="round" stroke-linejoin="round" stroke-width="1.5" d="M-51.142 33.183h17.581v20.911h-17.581z"/><path data-name="Trazado 5455" d="M-67.542 11.706h-11.1V15.7" fill="none" stroke="#000" stroke-linecap="round" stroke-linejoin="round" stroke-width="1.5"/><path data-name="Trazado 5456" d="M-78.643 33.816v20.278h11.1V12.126" fill="none" stroke="#000" stroke-linecap="round" stroke-linejoin="round" stroke-width="1.5"/><path data-name="Path 28555" d="M-67.556 33.184h5.983a4.021 4.021 0 013.857 4.158v5.983a4 4 0 003.842 4.145h2.594" fill="none" stroke="#000" stroke-linecap="round" stroke-linejoin="round" stroke-width="1.5"/><path data-name="Trazado 5459" d="M-67.236 16.276h.684c2.832 0 5.125 1.858 5.125 4.151V54.1" fill="none" stroke="#000" stroke-linecap="round" stroke-linejoin="round" stroke-width="1.5"/><path data-name="Línea 708" fill="none" stroke="#000" stroke-linecap="round" stroke-linejoin="round" stroke-width="1.659" d="M-28 54.094h-55.426"/><path data-name="Trazado 5460" d="M-42.16 38.552c-.664 1.67-1.348 3.325-2.028 4.99-.545 1.328-1.2 2.776-.239 4.083a2.866 2.866 0 002.267 1.193 2.935 2.935 0 002.667-1.909c.482-1.2-.1-2.552-.618-3.621-.622-1.288-2.095-4.622-2.049-4.736z" fill="none" stroke="#000" stroke-linecap="round" stroke-linejoin="round" stroke-width="1.5"/><path data-name="Rectangle 6905" fill="none" stroke="#000" stroke-linecap="round" stroke-linejoin="round" stroke-width="1.5" d="M-55.389 14.376h26.075v12.351h-26.075z"/><path data-name="Line 3077" fill="none" stroke="#000" stroke-linecap="round" stroke-linejoin="round" stroke-width="1.5" d="M-42.115 26.727v6.457"/><g data-name="Group 22440" stroke="#000" stroke-miterlimit="10" stroke-width=".437"><path data-name="Path 28556" d="M-46.461 22.136l.01.031a2.319 2.319 0 01-.761 1.815 2.913 2.913 0 01-2.068.729 2.712 2.712 0 01-2.128-.926 3.4 3.4 0 01-.822-2.347v-1.369a3.414 3.414 0 01.822-2.351 2.714 2.714 0 012.128-.928 2.985 2.985 0 012.078.7 2.3 2.3 0 01.751 1.842l-.01.032h-1a1.721 1.721 0 00-.475-1.28 1.835 1.835 0 00-1.344-.47 1.639 1.639 0 00-1.39.7 2.866 2.866 0 00-.518 1.745v1.38a2.883 2.883 0 00.518 1.756 1.641 1.641 0 001.39.7 1.842 1.842 0 001.344-.468 1.733 1.733 0 00.475-1.293z"/><path data-name="Path 28557" d="M-39.218 21.438a3.285 3.285 0 01-.875 2.343 2.975 2.975 0 01-2.271.93 2.819 2.819 0 01-2.191-.93 3.355 3.355 0 01-.843-2.343v-1.369a3.366 3.366 0 01.843-2.343 2.814 2.814 0 012.191-.936 2.971 2.971 0 012.271.934 3.29 3.29 0 01.875 2.345zm-1.041-1.38a2.6 2.6 0 00-.571-1.735 1.9 1.9 0 00-1.534-.676 1.764 1.764 0 00-1.451.676 2.693 2.693 0 00-.542 1.735v1.38a2.707 2.707 0 00.542 1.745 1.765 1.765 0 001.451.677 1.9 1.9 0 001.536-.674 2.62 2.62 0 00.569-1.748z"/><path data-name="Path 28558" d="M-35.495 22.58l.174.64h.032l.174-.64 1.988-5.678H-32l-2.861 7.7h-.894l-2.86-7.7h1.132z"/></g></g></svg>