<svg data-name="Capa 1" xmlns="http://www.w3.org/2000/svg" xmlns:xlink="http://www.w3.org/1999/xlink" viewBox="0 0 70 70"><defs><symbol id="a" data-name="OCENSA-EXT" viewBox="0 0 70 15"><path data-name="Line 4" fill="none" stroke="#19a301" stroke-linecap="round" stroke-linejoin="round" stroke-width="2.4" d="M41.68 7.5h8.37"/><path data-name="Line 5" fill="none" stroke="#19a301" stroke-linecap="round" stroke-linejoin="round" stroke-width="2.4" d="M58.4 7.5h.68"/><path data-name="Line 6" fill="none" stroke="#19a301" stroke-linecap="round" stroke-linejoin="round" stroke-width="2.4" d="M10.92 7.5h8.29"/><path data-name="Line 7" fill="none" stroke="#82d400" stroke-linecap="round" stroke-linejoin="round" stroke-width="2.4" d="M18.67 7.5H33.3"/><path fill="none" d="M0 0h70v15H0z"/></symbol></defs><circle data-name="Ellipse 2" cx="20.8" cy="14.41" r="5.8" fill="none" stroke="#19a301" stroke-linecap="round" stroke-linejoin="round" stroke-width="1.5"/><path d="M41 54.19H20.49V23.65" fill="none" stroke="#000" stroke-linecap="round" stroke-linejoin="round" stroke-width="1.5"/><path fill="none" stroke="#000" stroke-linecap="round" stroke-linejoin="round" stroke-width="1.5" d="M29.83 12.49h18.31l6.85 7.08v34.62H34.45"/><path fill="none" stroke="#000" stroke-linecap="round" stroke-linejoin="round" stroke-width="1.5" d="M48.01 12.49v7.63h6.98M26.6 36.98h21.41m-21.41 5h21.41m-21.41 5h21.41"/><path d="M29.7 30.82v-7.11H32a2.69 2.69 0 011.74.48 1.72 1.72 0 01.58 1.41 1.45 1.45 0 01-.28.89 1.91 1.91 0 01-.77.59 1.7 1.7 0 01.91.61 1.78 1.78 0 01.33 1.08 1.89 1.89 0 01-.62 1.5 2.53 2.53 0 01-1.75.55zm.94-4.08h1.42a1.46 1.46 0 001-.31 1 1 0 00.37-.83 1.06 1.06 0 00-.34-.86 1.75 1.75 0 00-1-.26h-1.45zm0 .75v2.56h1.55a1.47 1.47 0 001-.34 1.18 1.18 0 00.38-.93c0-.86-.47-1.29-1.4-1.29zm10.07-3.01h-2.29v6.34h-.93v-6.34h-2.28v-.77h5.5zm6.38 3.01a4.33 4.33 0 01-.35 1.83 2.66 2.66 0 01-1 1.19 2.77 2.77 0 01-1.51.41 2.7 2.7 0 01-1.49-.42 2.62 2.62 0 01-1-1.17 4.11 4.11 0 01-.37-1.77V27a4.49 4.49 0 01.35-1.81 2.79 2.79 0 011-1.2 2.7 2.7 0 011.49-.42 2.82 2.82 0 011.51.41 2.7 2.7 0 011 1.2 4.32 4.32 0 01.37 1.82zm-.93-.49a3.18 3.18 0 00-.51-1.94 1.82 1.82 0 00-2.82 0 3.13 3.13 0 00-.52 1.94v.52a3.23 3.23 0 00.51 1.93 1.81 1.81 0 002.83 0 3.18 3.18 0 00.51-1.9z"/><path fill="none" d="M0 0h70v70H0z"/><use width="70" height="15" transform="translate(0 55)" xlink:href="#a"/></svg>