<svg data-name="Grupo 24905" xmlns="http://www.w3.org/2000/svg" width="70" height="70"><g data-name="Grupo 24917"><g data-name="Grupo 24916" fill="none"><g data-name="Grupo 24915" stroke-linecap="round" stroke-linejoin="round" stroke-width="2.4"><path data-name="Line 4" stroke="#19a301" d="M41.677 62.5h8.375"/><path data-name="Line 5" stroke="#19a301" d="M58.405 62.5h.679"/><path data-name="Line 6" stroke="#19a301" d="M10.916 62.5h8.298"/><path data-name="Line 7" stroke="#82d400" d="M18.674 62.5h14.628"/></g><path data-name="Rectángulo 7947" d="M0 55h70v15H0z"/></g></g><path data-name="Rectángulo 7948" fill="none" d="M0 0h70v70H0z"/><g data-name="Grupo 24919" fill="none" stroke-linecap="round" stroke-linejoin="round" stroke-width="1.5"><circle data-name="Ellipse 2" cx="5.795" cy="5.795" r="5.795" transform="translate(15.007 8.843)" stroke="#19a301"/><g data-name="Grupo 24918" stroke="#fff"><path data-name="Línea 4175" d="M23.232 30.353h13.215"/><path data-name="Trazado 29846" d="M47.71 9.889v7.957h7.283"/><path data-name="Trazado 29847" d="M19.017 23.542v20.15A10.308 10.308 0 0029.325 54h25.668V17.846"/><path data-name="Trazado 29848" d="M54.984 17.687l-7.433-8.28-1.74.015h-17.35"/><path data-name="Rectángulo 7949" d="M42.173 27.074h7.112v6.558h-7.112z"/><path data-name="Trazado 29849" d="M44.96 29.389l1.482 1.684 4.336-5.146"/><path data-name="Línea 4176" d="M23.232 42.13h13.215"/><path data-name="Rectángulo 7950" d="M42.173 38.851h7.112v6.558h-7.112z"/><path data-name="Trazado 29850" d="M44.96 41.165l1.482 1.684 4.336-5.149"/></g></g></svg>