<svg version="1.1" id="Layer_1" xmlns="http://www.w3.org/2000/svg" xmlns:xlink="http://www.w3.org/1999/xlink" x="0" y="0" viewBox="0 0 70 70" xml:space="preserve"><style>.st0{stroke:#19a301;stroke-width:2.4;stroke-linecap:round;stroke-linejoin:round}.st0,.st2,.st4{fill:none}.st4{stroke:#fff;stroke-width:1.5;stroke-linecap:round;stroke-linejoin:round;stroke-miterlimit:10}</style><symbol id="OCENSA-EXT" viewBox="-35 -7.5 70 15"><path id="Line_4_1_" class="st0" d="M6.7 0h8.4"/><path id="Line_5_1_" class="st0" d="M23.4 0h.7"/><path id="Line_6_1_" class="st0" d="M-24.1 0h8.3"/><path id="Line_7_1_" fill="none" stroke="#82d400" stroke-width="2.4" stroke-linecap="round" stroke-linejoin="round" d="M-16.3 0h14.6"/><path class="st2" d="M-35-7.5h70v15h-70z"/></symbol><g id="Capa_2"><path class="st2" d="M0 0h70v70H0z"/><circle id="Ellipse_2_141_" cx="24.8" cy="15.7" r="5.8" fill="none" stroke="#19a301" stroke-width="1.5" stroke-linecap="round" stroke-linejoin="round"/><path class="st4" d="M32.3 11c1.4-.5 3-.8 4.5-.8 3.5 0 7 2.1 8.5 5.2 1.3 2.7 1.1 5.9.2 8.7-.3 1-.8 2-1.2 2.9-.8 1.7-1.9 3.4-2.8 5-1.8 2.9-3.5 5.7-5.6 8.5-1.9-2.9-3.7-5.9-5.5-8.8-1.4-2.3-2.7-4.7-3.5-7.3"/><circle class="st4" cx="36.8" cy="19.6" r="4.2"/><path class="st4" d="M40.7 33.3h6.9l12.6 21H9.8l12.6-21h8.9m24.4 13.4H14.3m36.6-8H37.2m-2.6 0H19.1"/><defs><path id="SVGID_1_" d="M0 55h70v15H0z"/></defs><clipPath id="SVGID_2_"><use xlink:href="#SVGID_1_" overflow="visible"/></clipPath><g clip-path="url(#SVGID_2_)"><use xlink:href="#OCENSA-EXT" width="70" height="15" x="-35" y="-7.5" transform="matrix(1 0 0 -1 35 62.5)" overflow="visible"/></g></g></svg>