<svg version="1.1" id="Layer_1" xmlns="http://www.w3.org/2000/svg" xmlns:xlink="http://www.w3.org/1999/xlink" x="0" y="0" viewBox="0 0 70 70" xml:space="preserve"><style>.st0{stroke:#19a301;stroke-width:2.4;stroke-linecap:round;stroke-linejoin:round}.st0,.st2,.st4{fill:none}.st4{stroke:#fff;stroke-width:1.5;stroke-linecap:round;stroke-linejoin:round;stroke-miterlimit:10}</style><symbol id="OCENSA-EXT" viewBox="-35 -7.5 70 15"><path id="Line_4_1_" class="st0" d="M6.7 0h8.4"/><path id="Line_5_1_" class="st0" d="M23.4 0h.7"/><path id="Line_6_1_" class="st0" d="M-24.1 0h8.3"/><path id="Line_7_1_" fill="none" stroke="#82d400" stroke-width="2.4" stroke-linecap="round" stroke-linejoin="round" d="M-16.3 0h14.6"/><path class="st2" d="M-35-7.5h70v15h-70z"/></symbol><g id="Capa_2"><path class="st2" d="M0 0h70v70H0z"/><circle id="Ellipse_2_9_" cx="23.8" cy="13.7" r="5.8" fill="none" stroke="#19a301" stroke-width="1.5" stroke-linecap="round" stroke-linejoin="round"/><path class="st4" d="M47.9 33.7l2.9 5 9.4 15.6H9.8l9.3-15.6 2.9-4.8m33.7 12.8H14.3"/><path class="st4" d="M21.6 22.2c-1.8 1.2-3 3.3-3 5.8 0 2.6 1.4 4.9 3.4 6 .9.5 1.8.8 2.9.8h19.8c1.2 0 2.3-.4 3.3-1 1.8-1.2 3-3.3 3-5.7 0-3.7-2.8-6.8-6.3-6.8h-.8c1.1-.8 1.9-2.2 1.9-3.8 0-2.5-1.9-4.6-4.2-4.6h-2.1c.3-.6.5-1.3.5-2 0-2.5-2.3-4.5-5.1-4.5-1.6 0-3 .6-3.9 1.6m3.7 12.8v25.4m5.5-20l-4.9 3"/><path fill="none" stroke="#fff" stroke-width="1.495" stroke-linecap="round" stroke-linejoin="round" stroke-miterlimit="10" d="M19 39h32"/><defs><path id="SVGID_1_" d="M0 55h70v15H0z"/></defs><clipPath id="SVGID_2_"><use xlink:href="#SVGID_1_" overflow="visible"/></clipPath><g clip-path="url(#SVGID_2_)"><use xlink:href="#OCENSA-EXT" width="70" height="15" x="-35" y="-7.5" transform="matrix(1 0 0 -1 35 62.5)" overflow="visible"/></g></g></svg>