<svg data-name="Grupo 23789" xmlns="http://www.w3.org/2000/svg" width="70" height="70"><g data-name="Grupo 23785"><g data-name="Grupo 23784" fill="none"><g data-name="Grupo 23783" stroke-linecap="round" stroke-linejoin="round" stroke-width="2.4"><path data-name="Line 4" stroke="#19a301" d="M41.677 62.5h8.375"/><path data-name="Line 5" stroke="#19a301" d="M58.405 62.5h.679"/><path data-name="Line 6" stroke="#19a301" d="M10.916 62.5h8.298"/><path data-name="Line 7" stroke="#82d400" d="M18.674 62.5h14.628"/></g><path data-name="Rectángulo 7328" d="M0 55h70v15H0z"/></g></g><path data-name="Rectángulo 7329" fill="none" d="M0 0h70v70H0z"/><g data-name="Grupo 23788" fill="none" stroke-linecap="round" stroke-linejoin="round" stroke-width="1.5"><circle data-name="Ellipse 2" cx="5.795" cy="5.795" r="5.795" transform="translate(7.507 21.605)" stroke="#19a301"/><g data-name="Grupo 23787" stroke="#000"><g data-name="Grupo 23786"><path data-name="Trazado 29225" d="M32.317 34.011l9.424-14.921 9.424 15.216"/><path data-name="Trazado 29226" d="M20.183 34.011l8.655-12.046 6.077 7.366"/><path data-name="Trazado 29227" d="M36.987 26.691l2.637 2.356 2.188-2.3 2.412 2.244 2.244-2.3"/></g><path data-name="Trazado 29228" d="M13.971 18.448V17.8a3.862 3.862 0 013.861-3.862H54.76a3.862 3.862 0 013.862 3.862v23.439A3.862 3.862 0 0154.76 45.1H17.832a3.861 3.861 0 01-3.861-3.861v-4.686"/><path data-name="Trazado 29231" d="M24.477 45.19v9.341h-4.418v-9.282"/><path data-name="Trazado 29232" d="M52.885 45.19v9.341h-4.418v-9.282"/><path data-name="Trazado 29235" d="M20.059 13.86v-2.132A2.138 2.138 0 0122.2 9.59h.142a2.138 2.138 0 012.138 2.138V13.8"/><path data-name="Trazado 29236" d="M48.365 13.86v-2.132A2.138 2.138 0 0150.5 9.59h.142a2.138 2.138 0 012.138 2.138V13.8"/><circle data-name="Elipse 3195" cx="2.349" cy="2.349" r="2.349" transform="translate(49.847 18.452)"/></g><path data-name="Línea 3905" stroke="#000" d="M10.099 54.521h52.394"/></g></svg>