<svg version="1.1" id="Capa_1" xmlns="http://www.w3.org/2000/svg" xmlns:xlink="http://www.w3.org/1999/xlink" x="0" y="0" viewBox="0 0 70 70" xml:space="preserve"><style>.st0{stroke:#19a301;stroke-width:2.4;stroke-linecap:round;stroke-linejoin:round}.st0,.st2,.st3{fill:none}.st3{stroke:#000;stroke-width:1.5;stroke-linecap:round;stroke-linejoin:round;stroke-miterlimit:10}</style><symbol id="OCENSA-EXT_2" viewBox="-35 -7.5 70 15"><path id="Line_4_3_" class="st0" d="M6.7 0h8.4"/><path id="Line_5_3_" class="st0" d="M23.4 0h.7"/><path id="Line_6_3_" class="st0" d="M-24.1 0h8.3"/><path id="Line_7_3_" fill="none" stroke="#82d400" stroke-width="2.4" stroke-linecap="round" stroke-linejoin="round" d="M-16.3 0h14.6"/><path class="st2" d="M-35-7.5h70v15h-70z"/></symbol><path class="st2" d="M0 0h70v70H0z"/><use xlink:href="#OCENSA-EXT_2" width="70" height="15" x="-35" y="-7.5" transform="matrix(1 0 0 -1 35 62.5)" overflow="visible"/><g id="Group_3863_4_" transform="translate(534 287)"><g id="Group_3862_4_"><path id="Path_4289_2_" class="st3" d="M-497.9-272.8l3-.5v20.5l-18-2.8h-6.6c-1.9 0-3.4-1.5-3.4-3.4v-8.3c0-1.9 1.5-3.4 3.4-3.4h4.8"/><path id="Rectangle_1487_4_" class="st3" d="M-488.1-248h-3.4c-1.9 0-3.4-1.5-3.4-3.4v-23.2c0-1.9 1.5-3.4 3.4-3.4h3.4v30z"/><path id="Rectangle_1488_4_" class="st3" d="M-488-256.5v-13.3c2.6 0 4.8 2.1 4.8 4.8v3.7c-.1 2.6-2.2 4.8-4.8 4.8z"/><path id="Path_4290_4_" class="st3" d="M-506.5-254.6v18.3h-2.7c-2.3 0-4.1-1.9-4.1-4.1v-26.7"/><path id="Line_379_4_" class="st3" d="M-479.8-263.7h4.8"/><path id="Line_380_4_" class="st3" d="M-479.1-259.9l3.4 3.4"/><path id="Line_381_4_" class="st3" d="M-479.1-267.5l3.4-3.3"/></g></g><circle id="Ellipse_2_4_" cx="27.5" cy="13.7" r="5.8" fill="none" stroke="#19a301" stroke-width="1.5" stroke-linecap="round" stroke-linejoin="round"/></svg>