<svg data-name="Capa 1" xmlns="http://www.w3.org/2000/svg" xmlns:xlink="http://www.w3.org/1999/xlink" viewBox="0 0 70 70"><defs><symbol id="a" data-name="OCENSA-EXT" viewBox="0 0 70 15"><path data-name="Line 4" fill="none" stroke="#19a301" stroke-linecap="round" stroke-linejoin="round" stroke-width="2.4" d="M41.68 7.5h8.37"/><path data-name="Line 5" fill="none" stroke="#19a301" stroke-linecap="round" stroke-linejoin="round" stroke-width="2.4" d="M58.4 7.5h.68"/><path data-name="Line 6" fill="none" stroke="#19a301" stroke-linecap="round" stroke-linejoin="round" stroke-width="2.4" d="M10.92 7.5h8.29"/><path data-name="Line 7" fill="none" stroke="#82d400" stroke-linecap="round" stroke-linejoin="round" stroke-width="2.4" d="M18.67 7.5H33.3"/><path fill="none" d="M0 0h70v15H0z"/></symbol></defs><path fill="none" stroke="#000" stroke-linecap="round" stroke-linejoin="round" stroke-width="1.5" d="M37.29 35.91H12.98V25.85h24.31zm6.11 1.25h-6.1V24.6h6.1zm-19.23-1.25v-2.78m0-7.29v2.83"/><path d="M13.86 13.77a4.66 4.66 0 11-6.17-2.3 4.62 4.62 0 016.17 2.3z" fill="none" stroke="#19a500" stroke-linecap="round" stroke-linejoin="round" stroke-width="1.5"/><path fill="none" stroke="#000" stroke-linecap="round" stroke-linejoin="round" stroke-width="1.5" d="M12.99 23.53v2.31h18.04v-9.7H18.17m3.84 0v-5.92m-3.84 0h7.98M18.1 20.99h12.93m22.26 21.76h11.74v10.06H53.29zm-6.11-1.24h6.1v12.56h-6.1zm-8.13 3.83v8m3.34-3l-3.34 3.34-3.34-3.34"/><path fill="none" d="M0 0h70v70H0z"/><use width="70" height="15" transform="translate(0 55)" xlink:href="#a"/></svg>