<svg version="1.1" id="Capa_1" xmlns="http://www.w3.org/2000/svg" x="0" y="0" viewBox="0 0 40 40" xml:space="preserve"><style>.st0{fill:none;stroke:#19a301;stroke-linecap:round;stroke-linejoin:round;stroke-miterlimit:10}</style><path class="st0" d="M18.5 9.6v2m3-2v2m-3 0l-3.9 1.8c-.9.4-1.5 1.3-1.5 1.3v6h13.7v-6c0 .1-.6-.8-1.5-1.3l-3.9-1.8M20 13.2l-1.5-1.6m1.5 1.6l1.5-1.6m1.2-4.3c0 1.5-1.2 2.7-2.7 2.7s-2.7-1.2-2.7-2.7"/><path class="st0" d="M17.2 7.3V5.4c0-1.5 1.2-2.7 2.7-2.7s2.7 1.2 2.7 2.7v1.9m-6.4 25.5l.8-.8h7.8l5-4.4 2.6-4.3s-1.3-1-2.6.1L28.3 25l-1.7 1.5"/><path class="st0" d="M12 28.5l2.7-2.6c.2-.2.6-.4.9-.4h2.9c.1 0 .3 0 .4.1l1.6.7h4.6l1.5.1C26.6 29 25 29 25 29h-4.8l-1.7.8"/><path transform="rotate(-45.001 12.602 32.407)" class="st0" d="M10.5 27.3h4.2v10.2h-4.2z"/><path fill="none" d="M0 0h40v40H0z"/></svg>