<svg data-name="Group 24557" xmlns="http://www.w3.org/2000/svg" width="70" height="70"><g data-name="Group 24559"><g data-name="Group 24558" fill="none"><g data-name="Group 24557" stroke-linecap="round" stroke-linejoin="round" stroke-width="2.4"><path data-name="Line 4" stroke="#19a301" d="M41.677 62.5h8.375"/><path data-name="Line 5" stroke="#19a301" d="M58.405 62.5h.679"/><path data-name="Line 6" stroke="#19a301" d="M10.916 62.5h8.298"/><path data-name="Line 7" stroke="#82d400" d="M18.674 62.5h14.628"/></g><path data-name="Rectangle 7863" d="M0 55h70v15H0z"/></g></g><g data-name="Group 24561"><circle data-name="Ellipse 2" cx="5.795" cy="5.795" r="5.795" transform="translate(4.377 18.519)" fill="none" stroke="#19a301" stroke-linecap="round" stroke-linejoin="round" stroke-width="1.5"/><path data-name="Línea 2918" fill="none" stroke="#000" stroke-linecap="round" stroke-linejoin="round" stroke-width="1.5" d="M6.691 54.011h58.932"/><path data-name="Path 29431" d="M10.789 15.441a3.455 3.455 0 013.451-3.452h9.551a3.455 3.455 0 013.452 3.452v22.025" fill="none" stroke="#000" stroke-linecap="round" stroke-linejoin="round" stroke-width="1.5"/><path data-name="Línea 2919" fill="none" stroke="#000" stroke-linecap="round" stroke-linejoin="round" stroke-width="1.5" d="M10.79 54.005V33.094"/><path data-name="Trazado 12588" d="M44.757 53.921V40.555a3.323 3.323 0 013.323-3.323h10.1a3.323 3.323 0 013.32 3.323v13.45" fill="none" stroke="#000" stroke-linecap="round" stroke-linejoin="round" stroke-width="1.5"/><path data-name="Trazado 12589" d="M38.4 53.921V31.366a3.323 3.323 0 013.323-3.323h8a3.323 3.323 0 013.323 3.323v5.7" fill="none" stroke="#000" stroke-linecap="round" stroke-linejoin="round" stroke-width="1.5"/><path data-name="Line 3943" fill="none" stroke="#000" stroke-linecap="round" stroke-linejoin="round" stroke-width="1.5" d="M44.757 46.042h16.744"/><path data-name="Line 3944" fill="none" stroke="#000" stroke-linecap="round" stroke-linejoin="round" stroke-width="1.5" d="M27.238 23.56h-6.226"/><path data-name="Line 3945" fill="none" stroke="#000" stroke-linecap="round" stroke-linejoin="round" stroke-width="1.5" d="M27.238 27.968h-4.011"/><path data-name="Line 3946" fill="none" stroke="#000" stroke-linecap="round" stroke-linejoin="round" stroke-width="1.5" d="M45.721 50.834h3.813"/><path data-name="Line 3947" fill="none" stroke="#000" stroke-linecap="round" stroke-linejoin="round" stroke-width="1.5" d="M10.881 37.466h27.542"/><path data-name="Rectangle 7864" fill="none" stroke="#000" stroke-linecap="round" stroke-linejoin="round" stroke-width="1.5" d="M32.941 8.958h26.075v12.351H32.941z"/><path data-name="Line 3948" fill="none" stroke="#000" stroke-linecap="round" stroke-linejoin="round" stroke-width="1.5" d="M46.215 21.309v6.457"/><g data-name="Group 24560"><path data-name="Path 29433" d="M40.006 16.863a.827.827 0 00-.322-.7 4.285 4.285 0 00-1.16-.516 8.1 8.1 0 01-1.327-.534 2.168 2.168 0 01-1.332-1.939 1.882 1.882 0 01.358-1.13 2.324 2.324 0 011.025-.776 3.866 3.866 0 011.5-.28 3.506 3.506 0 011.493.3 2.381 2.381 0 011.018.856 2.248 2.248 0 01.362 1.257h-1.609a1.054 1.054 0 00-.339-.835 1.387 1.387 0 00-.95-.3 1.485 1.485 0 00-.919.25.789.789 0 00-.327.658.756.756 0 00.383.639 4.352 4.352 0 001.131.483 4.892 4.892 0 012 1.026 2.043 2.043 0 01.628 1.526 1.882 1.882 0 01-.768 1.592 3.361 3.361 0 01-2.068.577 4 4 0 01-1.643-.33 2.6 2.6 0 01-1.131-.9 2.321 2.321 0 01-.389-1.332h1.62q0 1.295 1.547 1.3a1.5 1.5 0 00.9-.234.76.76 0 00.319-.658z"/><path data-name="Path 29434" d="M49.137 15.182a4.723 4.723 0 01-.408 2.025 3.078 3.078 0 01-1.168 1.343 3.455 3.455 0 01-3.478.005 3.109 3.109 0 01-1.183-1.334 4.6 4.6 0 01-.424-2v-.387a4.7 4.7 0 01.416-2.032 3.1 3.1 0 011.177-1.349 3.447 3.447 0 013.475 0 3.109 3.109 0 011.176 1.349 4.672 4.672 0 01.416 2.027zm-1.637-.354a3.293 3.293 0 00-.44-1.87 1.556 1.556 0 00-2.508-.008 3.248 3.248 0 00-.442 1.85v.381a3.342 3.342 0 00.44 1.859 1.434 1.434 0 001.268.66 1.418 1.418 0 001.246-.637 3.3 3.3 0 00.44-1.855z"/><path data-name="Path 29435" d="M53.2 16.052h-1.28v2.863h-1.612V11.1h2.906a3.291 3.291 0 012.138.617 2.134 2.134 0 01.752 1.746 2.4 2.4 0 01-.347 1.335 2.363 2.363 0 01-1.05.851l1.692 3.2v.075H54.67zm-1.28-1.305h1.3a1.33 1.33 0 00.94-.309 1.1 1.1 0 00.333-.851 1.182 1.182 0 00-.314-.87 1.3 1.3 0 00-.964-.317H51.92z"/></g></g><path data-name="Rectangle 7865" fill="none" d="M0 0h70v70H0z"/></svg>