<svg xmlns="http://www.w3.org/2000/svg" xmlns:xlink="http://www.w3.org/1999/xlink" viewBox="0 0 70 70"><style>.st0{stroke:#19a301;stroke-width:2.4;stroke-linecap:round;stroke-linejoin:round}.st0,.st2{fill:none}</style><symbol id="OCENSA-EXT" viewBox="-35 -7.5 70 15"><path id="Line_4_2_" class="st0" d="M6.68 0h8.37"/><path id="Line_5_2_" class="st0" d="M23.41 0h.67"/><path id="Line_6_2_" class="st0" d="M-24.08 0h8.29"/><path id="Line_7_2_" fill="none" stroke="#82d400" stroke-width="2.4" stroke-linecap="round" stroke-linejoin="round" d="M-16.33 0H-1.7"/><path class="st2" d="M-35-7.5h70v15h-70z"/></symbol><g id="Capa_1"><use xlink:href="#OCENSA-EXT" width="70" height="15" x="-35" y="-7.5" transform="matrix(1 0 0 -1 35 62.5)" overflow="visible"/><path class="st2" d="M0 0h70v70H0z"/><g fill="none" stroke-width="1.5" stroke-linecap="round" stroke-linejoin="round"><circle id="Ellipse_2_21_" cx="20.8" cy="20.64" r="5.8" stroke="#19a301"/><path stroke="#000" stroke-miterlimit="10" d="M20.3 12.3l2.54-2.04 2.81 1.62 1.34-2.46 3.24 1.48v5.13l3.51 2.54 6.97 1.9 4.57 5.77-.49 4.57-4.64 3.17.49 5.06 4.46 6.03h3.49l1.16 3.49 5.24-1.22v2.68l-3.66.56-4.22 3.17-6.54-1.55-1.97.35-1.76 1.83-4.15-3.59.14-3.16-4.79-5.14.14-6.9 4.09-3.09-2.68-7.11-1.09-.92"/></g></g></svg>