<svg xmlns="http://www.w3.org/2000/svg" xmlns:xlink="http://www.w3.org/1999/xlink" viewBox="0 0 70 70"><style>.st0{stroke:#19a301;stroke-width:2.4;stroke-linecap:round;stroke-linejoin:round}.st0,.st2{fill:none}</style><symbol id="OCENSA-EXT" viewBox="-35 -7.5 70 15"><path id="Line_4_2_" class="st0" d="M6.68 0h8.37"/><path id="Line_5_2_" class="st0" d="M23.41 0h.67"/><path id="Line_6_2_" class="st0" d="M-24.08 0h8.29"/><path id="Line_7_2_" fill="none" stroke="#82d400" stroke-width="2.4" stroke-linecap="round" stroke-linejoin="round" d="M-16.33 0H-1.7"/><path class="st2" d="M-35-7.5h70v15h-70z"/></symbol><g id="Capa_1"><use xlink:href="#OCENSA-EXT" width="70" height="15" x="-35" y="-7.5" transform="matrix(1 0 0 -1 35 62.5)" overflow="visible"/><path class="st2" d="M0 0h70v70H0z"/><g fill="none" stroke-width="1.5" stroke-linecap="round" stroke-linejoin="round"><circle id="Ellipse_2_200_" cx="19.13" cy="29.64" r="5.8" stroke="#19a301"/><path stroke="#000" stroke-miterlimit="10" d="M12.34 35.74l-.32 5.34 3.85 1.75-1.4 6.66h4.91V53l4.91-6.31 1.4 4.21 3.51-.71L32.35 53l2.11-8.42h6.31l3.55-10.22L57.98 12 35.62 24.42l-6.42 9.64-1.75-.48"/></g></g></svg>