<svg data-name="Grupo 24205" xmlns="http://www.w3.org/2000/svg" width="70" height="70"><g data-name="Grupo 24194"><g data-name="Grupo 24193" fill="none"><g data-name="Grupo 24192" stroke-linecap="round" stroke-linejoin="round" stroke-width="2.4"><path data-name="Line 4" stroke="#19a301" d="M41.677 62.5h8.375"/><path data-name="Line 5" stroke="#19a301" d="M58.405 62.5h.679"/><path data-name="Line 6" stroke="#19a301" d="M10.916 62.5h8.298"/><path data-name="Line 7" stroke="#82d400" d="M18.674 62.5h14.628"/></g><path data-name="Rectángulo 7722" d="M0 55h70v15H0z"/></g></g><path data-name="Rectángulo 7723" fill="none" d="M0 0h70v70H0z"/><path data-name="Trazado 29427" d="M33.94 53.87h13.28" fill="none" stroke="#fff" stroke-linecap="round" stroke-linejoin="round" stroke-width="1.5"/><g data-name="Grupo 24196" fill="none" stroke-linecap="round" stroke-linejoin="round" stroke-width="1.5"><circle data-name="Ellipse 2" cx="5.795" cy="5.795" r="5.795" transform="translate(9.703 8.843)" stroke="#19a301"/><path data-name="Trazado 29428" d="M36.145 53.873H22.863a8.36 8.36 0 01-8.36-8.36V23.759" stroke="#fff"/><path data-name="Trazado 29429" d="M23.437 8.79h20.23l7.22 7.46v37.62H47.22" stroke="#fff"/><path data-name="Trazado 29430" d="M43.524 8.786v8.048h7.366" stroke="#fff"/><path data-name="Línea 3910" stroke="#fff" d="M23.461 32.774h19.055"/><path data-name="Línea 3911" stroke="#fff" d="M23.461 38.774h19.055"/><path data-name="Línea 3912" stroke="#fff" d="M23.461 44.774h19.055"/><g data-name="Grupo 24195" stroke="#fff"><path data-name="Trazado 29431" d="M32.526 21.5a2.328 2.328 0 112.328-2.328"/><path data-name="Trazado 29432" d="M32.526 21.5a2.329 2.329 0 11-2.326 2.33"/><path data-name="Línea 3913" d="M32.526 16.844v-1.293"/><path data-name="Línea 3914" d="M32.526 27.452v-1.293"/></g></g></svg>