<svg xmlns="http://www.w3.org/2000/svg" width="70" height="70"><g data-name="Grupo 23933" fill="none"><g data-name="Grupo 23934"><g data-name="Grupo 23933" stroke-linecap="round" stroke-linejoin="round" stroke-width="2.4"><path data-name="Line 4" stroke="#19a301" d="M41.677 62.5h8.375"/><path data-name="Line 5" stroke="#19a301" d="M58.405 62.5h.679"/><path data-name="Line 6" stroke="#19a301" d="M10.916 62.5h8.298"/><path data-name="Line 7" stroke="#82d400" d="M18.674 62.5h14.628"/></g><path data-name="Rectángulo 7400" d="M0 55h70v15H0z"/></g><path data-name="Rectángulo 7401" d="M0 0h70v70H0z"/><g data-name="Grupo 23936" stroke-linecap="round" stroke-linejoin="round" stroke-width="1.5" transform="translate(-90 -90)"><circle data-name="Ellipse 2" cx="5.795" cy="5.795" r="5.795" transform="translate(101.573 116.843)" stroke="#19a301"/><g data-name="Grupo 23935" stroke="#fff"><path data-name="Línea 3863" d="M119.551 110.826v4.539"/><path data-name="Línea 3864" d="M126.193 110.826v4.539"/><path data-name="Trazado 29348" d="M126.2 115.38l8.9 4a5.854 5.854 0 013.46 5.36v2.88"/><path data-name="Trazado 29349" d="M132.446 140.09h-25.26v-8.27"/><path data-name="Línea 3865" d="M119.551 115.375l-4.531 2.037"/><path data-name="Línea 3866" d="M122.872 119.131l-3.321-3.766"/><path data-name="Línea 3867" d="M122.872 119.131l3.321-3.766"/><path data-name="Trazado 29352" d="M122.872 119.131l-3.39 15.072 3.39 5.891"/><path data-name="Trazado 29353" d="M122.872 119.131l3.39 15.072-3.39 5.891"/><path data-name="Trazado 29354" d="M129.1 105.524a6.259 6.259 0 01-12.519 0"/><path data-name="Trazado 29355" d="M116.586 105.524V101.2a6.259 6.259 0 0112.519 0v4.322"/></g><circle data-name="Elipse 3193" cx="8.511" cy="8.511" r="8.511" transform="translate(131.406 127.511)" stroke="#fff"/><path data-name="Trazado 29356" d="M135.619 136.4l2.979 3.83 4.851-7.915" stroke="#fff"/></g></g></svg>