<svg version="1.1" id="Capa_1" xmlns="http://www.w3.org/2000/svg" x="0" y="0" viewBox="0 0 40 40" xml:space="preserve"><style>.st0{fill:none;stroke:#19a301;stroke-linecap:round;stroke-linejoin:round;stroke-miterlimit:10}</style><path class="st0" d="M16.2 32.1l.8-.8h7.8l5-4.4 2.6-4.3s-1.3-1-2.6.1l-1.6 1.6-1.7 1.5"/><path class="st0" d="M12 27.8l2.7-2.6c.2-.2.6-.4.9-.4h2.9c.1 0 .3 0 .4.1l1.6.7h4.6l1.5.1c0 2.5-1.6 2.5-1.6 2.5h-4.8l-1.8.8"/><path transform="rotate(-45.001 12.602 31.675)" class="st0" d="M10.5 26.6h4.2v10.2h-4.2z"/><circle class="st0" cx="20" cy="11.9" r="4"/><path class="st0" d="M27.9 14.7L26.6 13c-.6-.8-.6-1.8-.1-2.6l1.2-1.7-.6-1.2c-.2-.4-.5-.8-.8-1l-2.1.3c-.9.1-1.9-.4-2.3-1.2L21 3.7c-.8-.1-1.7-.1-2.6.1l-.8 2c-.4.9-1.3 1.4-2.2 1.4L13.3 7c-.5.7-.9 1.5-1.2 2.3l1.3 1.7c.6.8.6 1.8.1 2.6l-1.2 1.7.6 1.2c.2.4.5.7.8 1l2.1-.3c.9-.1 1.9.4 2.3 1.2l.9 1.9c.8.1 1.7.1 2.6-.1l.8-2c.4-.9 1.3-1.4 2.2-1.4l2.1.2c.5-.7.9-1.5 1.2-2.3z"/><path fill="none" d="M0 0h40v40H0z"/></svg>