<svg version="1.1" id="Layer_1" xmlns="http://www.w3.org/2000/svg" x="0" y="0" viewBox="0 0 70 70" xml:space="preserve"><style>.st0,.st1{fill:none}.st1{stroke:#19a301;stroke-linecap:round;stroke-linejoin:round}.st1,.st2{stroke-width:2.4}.st2,.st4{fill:none;stroke-linecap:round;stroke-linejoin:round}.st2{stroke:#82d400}.st4{stroke:#000;stroke-width:1.5;stroke-miterlimit:10}</style><path class="st0" d="M0 0h70v70H0z"/><path class="st0" d="M0 55h70v15H0z"/><path id="Line_4_11_" class="st1" d="M41.7 62.5h8.4"/><path id="Line_5_11_" class="st1" d="M58.4 62.5h.7"/><path id="Line_6_11_" class="st1" d="M10.9 62.5h8.3"/><path id="Line_7_11_" class="st2" d="M18.7 62.5h14.6"/><path class="st0" d="M0 0h70v70H0z"/><path class="st0" d="M0 55h70v15H0z"/><path id="Line_4_10_" class="st1" d="M41.7 62.5h8.4"/><path id="Line_5_10_" class="st1" d="M58.4 62.5h.7"/><path id="Line_6_10_" class="st1" d="M10.9 62.5h8.3"/><path id="Line_7_10_" class="st2" d="M18.7 62.5h14.6"/><circle id="Ellipse_2_3_" cx="19.4" cy="17.2" r="5.1" fill="none" stroke="#19a301" stroke-width="1.5" stroke-linecap="round" stroke-linejoin="round"/><circle class="st4" cx="56.1" cy="28" r="1.4"/><path class="st4" d="M26.8 19.2h16.5c1.5 0 2.7 1.2 2.7 2.7V42c0 1.5-1.2 2.7-2.7 2.7H23.6c-1.5 0-2.7-1.2-2.7-2.7V25.4"/><path class="st4" d="M49.7 24.8V19c0-1.9-1.6-3.5-3.5-3.5h-5.6M26.4 48.6h-5.7c-1.9 0-3.5-1.6-3.5-3.5v-5.8m32.5.2V45c0 1.9-1.6 3.5-3.5 3.5h-5.6M29.4 17.2v-2.8m2.7 2.8V8.4l3.1-3.1m-.4 11.9V9.9l3.3-3.4m-.6 10.7v-2.8m-8.1 35.2v-2.8m2.7 2.8v-2.8m2.7 2.8v-2.8m2.7 2.8v-2.8M48.2 28h6.5m-6.5 2.7H51m-2.8 2.7H51M48.2 36H51m-35.1-8h2.8m-2.8 2.7h2.8m-2.8 2.7h2.8M12 36h6.7"/><circle class="st4" cx="10.5" cy="36" r="1.4"/><path class="st4" d="M28.1 33.3c-.3.2-.7.3-1 .3-.6 0-1.1-.2-1.5-.6m5.1-5.8c0 1.5-.9 2.9-2.3 3.4m1.6-1.1c1 .2 1.7 1.1 1.7 2.1M29 24c.6.1 1.1.5 1.4 1m-2.7 12.8c.4-.8 1.3-1.3 2.2-1.3.7 0 1.3.3 1.8.7m-1.5-.7c0-1 .8-1.8 1.8-1.8m7.3-1.4c.3.2.7.3 1 .3.6 0 1.1-.2 1.5-.6m-5.1-5.8c0 1.5.9 2.9 2.3 3.4m-1.6-1.1c-1 .2-1.7 1.1-1.7 2.1m2.7-7.6c-.6.1-1.1.5-1.4 1m2.7 12.8c-.4-.8-1.3-1.3-2.2-1.3-.7 0-1.3.3-1.8.7m1.5-.7c0-1-.8-1.8-1.8-1.8"/><path class="st4" d="M33.7 31.3c0 1.4 0 5.5-.6 7.7-.1.4-.4.7-.7.9-.4.2-.8.2-1.2.1-1.2-.5-2.8-1.3-3.2-1.8-1.2-.2-1.4-.9-1.3-1.5-1-.3-1.8-2.5-1.1-4.1.7-1.4.5-2.1.4-2.9-.3-1.9 2.6-6 3.9-6.3 1.3-.4 2.2-.2 2.6.4.4.6.2.8.9 1.5.2.3.4.7.4 1.1-.1 2.3-.1 4.9-.1 4.9z"/><path class="st4" d="M33.7 31.3c0 1.4 0 5.5.6 7.7.1.4.4.7.7.9.4.2.8.2 1.2.1 1.2-.5 2.8-1.3 3.2-1.8 1.2-.2 1.4-.9 1.3-1.5 1-.3 1.8-2.5 1.1-4.1-.7-1.4-.5-2.1-.4-2.9.3-1.9-2.6-6-3.9-6.3-1.3-.4-2.2-.2-2.6.4-.4.6-.2.8-.9 1.5-.2.3-.4.7-.4 1.1.1 2.3.1 4.9.1 4.9z"/></svg>