<svg xmlns="http://www.w3.org/2000/svg" width="70" height="70"><g data-name="Group 22450" transform="translate(360 89.472)"><g data-name="Group 22451" fill="none"><g data-name="Group 22450" stroke-linecap="round" stroke-linejoin="round" stroke-width="2.4"><path data-name="Line 4" stroke="#19a301" d="M-318.323-26.971h8.375"/><path data-name="Line 5" stroke="#19a301" d="M-301.595-26.971h.679"/><path data-name="Line 6" stroke="#19a301" d="M-349.084-26.971h8.298"/><path data-name="Line 7" stroke="#82d400" d="M-341.326-26.971h14.628"/></g><path data-name="Rectangle 6915" d="M-360-34.471h70v15h-70z"/></g><path data-name="Rectangle 6916" fill="none" d="M-360-89.471h70v70h-70z"/><circle data-name="Ellipse 2" cx="5.795" cy="5.795" r="5.795" transform="translate(-354.986 -70.628)" fill="none" stroke="#19a301" stroke-linecap="round" stroke-linejoin="round" stroke-width="1.5"/><path data-name="Rectángulo 2137" fill="none" stroke="#000" stroke-linecap="round" stroke-linejoin="round" stroke-width="1.5" d="M-321.142-56.289h17.581v20.911h-17.581z"/><path data-name="Trazado 5455" d="M-337.542-77.765h-11.1v3.994" fill="none" stroke="#000" stroke-linecap="round" stroke-linejoin="round" stroke-width="1.5"/><path data-name="Trazado 5456" d="M-348.643-55.655v20.278h11.1v-41.968" fill="none" stroke="#000" stroke-linecap="round" stroke-linejoin="round" stroke-width="1.5"/><path data-name="Path 28571" d="M-337.556-56.288h5.983a4.021 4.021 0 013.857 4.158v5.984A4 4 0 00-323.874-42h2.594" fill="none" stroke="#000" stroke-linecap="round" stroke-linejoin="round" stroke-width="1.5"/><path data-name="Trazado 5459" d="M-337.236-73.195h.684c2.832 0 5.125 1.857 5.125 4.15v33.673" fill="none" stroke="#000" stroke-linecap="round" stroke-linejoin="round" stroke-width="1.5"/><path data-name="Línea 708" fill="none" stroke="#000" stroke-linecap="round" stroke-linejoin="round" stroke-width="1.659" d="M-298-35.377h-55.426"/><path data-name="Trazado 5460" d="M-312.16-50.919c-.664 1.67-1.348 3.325-2.028 4.99-.545 1.328-1.2 2.775-.239 4.083a2.866 2.866 0 002.267 1.193 2.935 2.935 0 002.667-1.909c.482-1.2-.1-2.553-.618-3.621-.622-1.292-2.095-4.622-2.049-4.736z" fill="none" stroke="#000" stroke-linecap="round" stroke-linejoin="round" stroke-width="1.5"/><path data-name="Rectangle 6917" fill="none" stroke="#000" stroke-linecap="round" stroke-linejoin="round" stroke-width="1.5" d="M-325.389-75.095h26.075v12.351h-26.075z"/><path data-name="Line 3081" fill="none" stroke="#000" stroke-linecap="round" stroke-linejoin="round" stroke-width="1.5" d="M-312.115-62.744v6.457"/><g data-name="Group 22452" stroke="#000" stroke-miterlimit="10" stroke-width=".437"><path data-name="Path 28572" d="M-318.608-66.839l.174.639h.032l.175-.639 1.988-5.679h1.126l-2.86 7.7h-.894l-2.861-7.7h1.132z"/><path data-name="Path 28573" d="M-310.518-66.8h-2.9l-.687 1.982h-1.063l2.776-7.7h.894l2.718 7.7h-1.063zm-2.6-.873h2.3l-1.121-3.305h-.032z"/><path data-name="Path 28574" d="M-303.544-66.76a1.156 1.156 0 00-.376-.878 3.126 3.126 0 00-1.321-.6 4.4 4.4 0 01-1.832-.856 1.8 1.8 0 01-.659-1.423 1.9 1.9 0 01.709-1.507 2.743 2.743 0 011.84-.6 2.69 2.69 0 011.938.69 2.089 2.089 0 01.7 1.609l-.016.033h-.994a1.418 1.418 0 00-.457-1.084 1.643 1.643 0 00-1.171-.429 1.6 1.6 0 00-1.118.354 1.186 1.186 0 00-.389.92 1.026 1.026 0 00.426.838 3.89 3.89 0 001.382.59 3.928 3.928 0 011.772.889 1.931 1.931 0 01.607 1.448 1.8 1.8 0 01-.732 1.5 3.033 3.033 0 01-1.911.567 3.251 3.251 0 01-1.97-.624 1.9 1.9 0 01-.827-1.677l.01-.033h.994a1.3 1.3 0 00.55 1.12 2.093 2.093 0 001.243.393 1.869 1.869 0 001.171-.333 1.083 1.083 0 00.431-.907z"/></g></g></svg>