<svg data-name="Grupo 24986" xmlns="http://www.w3.org/2000/svg" width="70" height="70"><path data-name="Rectángulo 7971" fill="none" d="M0 0h70v70H0z"/><g data-name="Grupo 24982" fill="none" stroke="#fff" stroke-linecap="round" stroke-linejoin="round" stroke-width="1.5"><circle data-name="Ellipse 2" cx="5.795" cy="5.795" r="5.795" transform="translate(15.007 8.843)"/><g data-name="Grupo 24981"><path data-name="Línea 4216" d="M23.232 30.353h13.215"/><path data-name="Trazado 29901" d="M47.71 9.889v7.957h7.283"/><path data-name="Trazado 29902" d="M19.017 23.542v20.15A10.308 10.308 0 0029.325 54h25.668V17.846"/><path data-name="Trazado 29903" d="M54.984 17.687l-7.433-8.28-1.74.015h-17.35"/><path data-name="Rectángulo 7972" d="M42.173 27.074h7.112v6.558h-7.112z"/><path data-name="Trazado 29904" d="M44.96 29.389l1.482 1.684 4.336-5.146"/><path data-name="Línea 4217" d="M23.232 42.13h13.215"/><path data-name="Rectángulo 7973" d="M42.173 38.851h7.112v6.558h-7.112z"/><path data-name="Trazado 29905" d="M44.96 41.165l1.482 1.684 4.336-5.149"/></g></g><g data-name="Grupo 24985"><g data-name="Grupo 24984" fill="none"><g data-name="Grupo 24983" stroke-linecap="round" stroke-linejoin="round" stroke-width="2.4"><path data-name="Line 4" stroke="#fff" d="M41.677 62.5h8.375"/><path data-name="Line 5" stroke="#82d400" d="M58.405 62.5h.679"/><path data-name="Line 6" stroke="#fff" d="M10.916 62.5h8.298"/><path data-name="Line 7" stroke="#82d400" d="M18.674 62.5h14.628"/></g><path data-name="Rectángulo 7974" d="M0 55h70v15H0z"/></g></g></svg>