<svg data-name="Grupo 23943" xmlns="http://www.w3.org/2000/svg" width="70" height="70"><g data-name="Grupo 23945"><g data-name="Grupo 23944" fill="none"><g data-name="Grupo 23943" stroke-linecap="round" stroke-linejoin="round" stroke-width="2.4"><path data-name="Line 4" stroke="#19a301" d="M41.677 62.5h8.375"/><path data-name="Line 5" stroke="#19a301" d="M58.405 62.5h.679"/><path data-name="Line 6" stroke="#19a301" d="M10.916 62.5h8.298"/><path data-name="Line 7" stroke="#82d400" d="M18.674 62.5h14.628"/></g><path data-name="Rectángulo 7386" d="M0 55h70v15H0z"/></g></g><path data-name="Rectángulo 7387" fill="none" d="M0 0h70v70H0z"/><g data-name="Grupo 23948"><circle data-name="Ellipse 2" cx="5.795" cy="5.795" r="5.795" transform="translate(17.012 16.843)" fill="none" stroke="#19a301" stroke-linecap="round" stroke-linejoin="round" stroke-width="1.5"/><path data-name="Trazado 29304" d="M31.082 25.435h14.165a1.747 1.747 0 011.747 1.747v9.461" fill="none" stroke="#fff" stroke-linecap="round" stroke-linejoin="round" stroke-width="1.5"/><path data-name="Línea 3982" fill="none" stroke="#fff" stroke-linecap="round" stroke-linejoin="round" stroke-width="1.5" d="M23.247 35.841v-4.777"/><path data-name="Trazado 29305" d="M31.082 18.481h9.494a1.165 1.165 0 011.165 1.165v5.8" fill="none" stroke="#fff" stroke-linecap="round" stroke-linejoin="round" stroke-width="1.5"/><g data-name="Grupo 23946" fill="none" stroke="#fff" stroke-linecap="round" stroke-linejoin="round" stroke-width="1.5"><path data-name="Trazado 29306" d="M45.807 53l4.452-13.262a1.364 1.364 0 00-.63-1.633l-14.521-8.056a1.365 1.365 0 00-1.319 0L19.142 38.1a1.365 1.365 0 00-.626 1.659L22.807 52"/><path data-name="Línea 3983" d="M34.449 29.87V53"/></g><circle data-name="Elipse 3210" cx="1.772" cy="1.772" r="1.772" transform="translate(25.576 37.874)" fill="none" stroke="#fff" stroke-linecap="round" stroke-linejoin="round" stroke-width="1.5"/><circle data-name="Elipse 3211" cx="1.772" cy="1.772" r="1.772" transform="translate(39.741 37.874)" fill="none" stroke="#fff" stroke-linecap="round" stroke-linejoin="round" stroke-width="1.5"/><path data-name="Rectángulo 7388" d="M32.948 10h3.893a1.048 1.048 0 011.047 1.048v7.433h0-5.915 0v-7.506a.975.975 0 01.975-.975z" fill="none" stroke="#fff" stroke-linecap="round" stroke-linejoin="round" stroke-width="1.5"/><g data-name="Grupo 23947"><path data-name="Trazado 29307" d="M55.193 53.505c-2.524 0-2.524-2.465-5.047-2.465s-2.523 2.465-5.046 2.465-2.523-2.465-5.046-2.465-2.524 2.465-5.047 2.465-2.523-2.465-5.045-2.465-2.525 2.465-5.049 2.465-2.527-2.465-5.053-2.465-2.526 2.465-5.053 2.465" fill="none" stroke="#fff" stroke-linecap="round" stroke-linejoin="round" stroke-width="1.5"/></g></g></svg>