<svg data-name="Capa 1" xmlns="http://www.w3.org/2000/svg" xmlns:xlink="http://www.w3.org/1999/xlink" viewBox="0 0 70 70"><defs><symbol id="a" data-name="OCENSA-EXT" viewBox="0 0 70 15"><path data-name="Line 4" fill="none" stroke="#19a301" stroke-linecap="round" stroke-linejoin="round" stroke-width="2.4" d="M41.68 7.5h8.37"/><path data-name="Line 5" fill="none" stroke="#19a301" stroke-linecap="round" stroke-linejoin="round" stroke-width="2.4" d="M58.4 7.5h.68"/><path data-name="Line 6" fill="none" stroke="#19a301" stroke-linecap="round" stroke-linejoin="round" stroke-width="2.4" d="M10.92 7.5h8.29"/><path data-name="Line 7" fill="none" stroke="#82d400" stroke-linecap="round" stroke-linejoin="round" stroke-width="2.4" d="M18.67 7.5H33.3"/><path fill="none" d="M0 0h70v15H0z"/></symbol></defs><circle data-name="Ellipse 2" cx="23.73" cy="28.53" r="5.14" fill="none" stroke="#19a301" stroke-linecap="round" stroke-linejoin="round" stroke-width="1.5"/><path d="M23.76 40.1h21.3a3 3 0 013 3v4h0-27.25 0V43a3 3 0 012.95-2.9zm3.75-18.2a3.84 3.84 0 013.8-3.38h6.21a3.82 3.82 0 013.79 3.38l1.61 13.88h-17m-2.19 0H45.1v4.32H23.73z" fill="none" stroke="#000" stroke-linecap="round" stroke-linejoin="round" stroke-width="1.5"/><path d="M34.41 28h0a3.44 3.44 0 013.44 3.44v4.35h0H31h0v-4.36A3.44 3.44 0 0134.41 28zm0-16.34v4.66m10.94-1.65l-3.29 3.29m-19.45-3.29l3.3 3.29" fill="none" stroke="#000" stroke-linecap="round" stroke-linejoin="round" stroke-width="1.5"/><path fill="none" d="M0 0h70v70H0z"/><use width="70" height="15" transform="translate(0 55)" xlink:href="#a"/><path fill="none" d="M0 0h70v70H0z"/></svg>