<svg data-name="Grupo 23657" xmlns="http://www.w3.org/2000/svg" width="70" height="70"><g data-name="Grupo 23654"><g data-name="Grupo 23653" fill="none"><g data-name="Grupo 23652" stroke-linecap="round" stroke-linejoin="round" stroke-width="2.4"><path data-name="Line 4" stroke="#19a301" d="M41.677 62.5h8.375"/><path data-name="Line 5" stroke="#19a301" d="M58.405 62.5h.679"/><path data-name="Line 6" stroke="#19a301" d="M10.916 62.5h8.298"/><path data-name="Line 7" stroke="#82d400" d="M18.674 62.5h14.628"/></g><path data-name="Rectángulo 7292" d="M0 55h70v15H0z"/></g></g><path data-name="Rectángulo 7293" fill="none" d="M0 0h70v70H0z"/><g data-name="Grupo 23656"><g data-name="Grupo 23655"><circle data-name="Ellipse 2" cx="5.795" cy="5.795" r="5.795" transform="translate(14.914 13.716)" fill="none" stroke="#19a301" stroke-linecap="round" stroke-linejoin="round" stroke-width="1.5"/></g><path data-name="Trazado 29180" d="M29.239 18.921l1.217-1 5.36-7.04 5.35 3.98 6.88-4.44 1.23 2.76-7.8 10.4 8.25 7.49h4.59l.77 7.8-10.4 10.86-4.44 4.74-5.96-3.36-2.6 1.98-1.23-1.53 1.23-5.2-5.81 1.38-4.9-4.59 2.91-9.02-7.8-5.2 1.264-1.548" fill="none" stroke="#000" stroke-linecap="round" stroke-linejoin="round" stroke-width="1.5"/></g></svg>