<svg xmlns="http://www.w3.org/2000/svg" width="70" height="70"><g data-name="Group 22355" transform="translate(360 -90)"><g data-name="Group 22100" fill="none"><g data-name="Group 22099" stroke-linecap="round" stroke-linejoin="round" stroke-width="2.4"><path data-name="Line 4" stroke="#19a301" d="M-318.323 152.5h8.375"/><path data-name="Line 5" stroke="#19a301" d="M-301.595 152.5h.679"/><path data-name="Line 6" stroke="#19a301" d="M-349.084 152.5h8.298"/><path data-name="Line 7" stroke="#82d400" d="M-341.326 152.5h14.628"/></g><path data-name="Rectangle 6731" d="M-360 145h70v15h-70z"/></g><path data-name="Rectangle 6732" fill="none" d="M-360 90h70v70h-70z"/><circle data-name="Ellipse 2" cx="5.795" cy="5.795" r="5.795" transform="translate(-354.986 108.843)" fill="none" stroke="#19a301" stroke-linecap="round" stroke-linejoin="round" stroke-width="1.5"/><path data-name="Rectángulo 2137" fill="none" stroke="#000" stroke-linecap="round" stroke-linejoin="round" stroke-width="1.5" d="M-321.142 123.183h17.581v20.911h-17.581z"/><path data-name="Trazado 5455" d="M-337.542 101.706h-11.1v3.994" fill="none" stroke="#000" stroke-linecap="round" stroke-linejoin="round" stroke-width="1.5"/><path data-name="Trazado 5456" d="M-348.643 123.816v20.278h11.1v-41.968" fill="none" stroke="#000" stroke-linecap="round" stroke-linejoin="round" stroke-width="1.5"/><path data-name="Path 28244" d="M-337.556 123.184h5.983a4.021 4.021 0 013.857 4.158v5.983a4 4 0 003.842 4.145h2.594" fill="none" stroke="#000" stroke-linecap="round" stroke-linejoin="round" stroke-width="1.5"/><path data-name="Trazado 5459" d="M-337.236 106.276h.684c2.832 0 5.125 1.858 5.125 4.151V144.1" fill="none" stroke="#000" stroke-linecap="round" stroke-linejoin="round" stroke-width="1.5"/><path data-name="Línea 708" fill="none" stroke="#000" stroke-linecap="round" stroke-linejoin="round" stroke-width="1.659" d="M-298 144.094h-55.426"/><path data-name="Trazado 5460" d="M-312.16 128.552c-.664 1.67-1.348 3.325-2.028 4.99-.545 1.328-1.2 2.776-.239 4.083a2.866 2.866 0 002.267 1.193 2.935 2.935 0 002.667-1.909c.482-1.2-.1-2.552-.618-3.621-.622-1.288-2.095-4.622-2.049-4.736z" fill="none" stroke="#000" stroke-linecap="round" stroke-linejoin="round" stroke-width="1.5"/><path data-name="Rectangle 6733" fill="none" stroke="#000" stroke-linecap="round" stroke-linejoin="round" stroke-width="1.5" d="M-325.389 104.376h26.075v12.351h-26.075z"/><path data-name="Line 2905" fill="none" stroke="#000" stroke-linecap="round" stroke-linejoin="round" stroke-width="1.5" d="M-312.115 116.727v6.457"/><g data-name="Group 22101" stroke="#000" stroke-miterlimit="10" stroke-width=".437"><path data-name="Path 28245" d="M-317.174 107.49a2.656 2.656 0 01.875 1.71h-.993a2.069 2.069 0 00-.674-1.152 2.131 2.131 0 00-1.415-.425 2.268 2.268 0 00-1.794.781 3.546 3.546 0 00-.685 2.393 3.48 3.48 0 00.617 2.144 2.16 2.16 0 001.841.821 1.945 1.945 0 001.715-.865 3.275 3.275 0 00.466-1.2h.994a3.4 3.4 0 01-.881 1.992 3.134 3.134 0 01-2.417.968 3.189 3.189 0 01-2.2-.794 4.133 4.133 0 01-1.173-3.241 4.142 4.142 0 01.881-2.729 3.217 3.217 0 012.626-1.157 3.083 3.083 0 012.217.754z"/><path data-name="Path 28246" d="M-313.882 106.942v4.649a2.734 2.734 0 00.307 1.362 1.615 1.615 0 001.536.819 1.8 1.8 0 001.762-.886 2.822 2.822 0 00.25-1.295v-4.649h1.035v4.224a4.888 4.888 0 01-.374 2.135 2.627 2.627 0 01-2.591 1.362 2.616 2.616 0 01-2.586-1.362 4.89 4.89 0 01-.373-2.135v-4.224z"/><path data-name="Path 28247" d="M-307.318 106.942h3.384a2.3 2.3 0 011.618.565 2.056 2.056 0 01.615 1.59 2.308 2.308 0 01-.548 1.533 2.071 2.071 0 01-1.685.654h-2.366v3.179h-1.019zm3.973 1.034a2.212 2.212 0 00-.926-.159h-2.029v2.607h2.028a1.938 1.938 0 001.112-.292 1.159 1.159 0 00.429-1.03 1.131 1.131 0 00-.614-1.126z"/></g></g></svg>