<svg xmlns="http://www.w3.org/2000/svg" xmlns:xlink="http://www.w3.org/1999/xlink" viewBox="0 0 70 70"><style>.st0{stroke:#19a301;stroke-width:2.4;stroke-linecap:round;stroke-linejoin:round}.st0,.st2{fill:none}</style><symbol id="OCENSA-EXT" viewBox="-35 -7.5 70 15"><path id="Line_4_2_" class="st0" d="M6.68 0h8.37"/><path id="Line_5_2_" class="st0" d="M23.41 0h.67"/><path id="Line_6_2_" class="st0" d="M-24.08 0h8.29"/><path id="Line_7_2_" fill="none" stroke="#82d400" stroke-width="2.4" stroke-linecap="round" stroke-linejoin="round" d="M-16.33 0H-1.7"/><path class="st2" d="M-35-7.5h70v15h-70z"/></symbol><g id="Capa_1"><use xlink:href="#OCENSA-EXT" width="70" height="15" x="-35" y="-7.5" transform="matrix(1 0 0 -1 35 62.5)" overflow="visible"/><path class="st2" d="M0 0h70v70H0z"/><g fill="none" stroke-width="1.5" stroke-linecap="round" stroke-linejoin="round"><circle id="Ellipse_2_186_" cx="19.03" cy="43.64" r="5.8" stroke="#19a301"/><path stroke="#000" stroke-miterlimit="10" d="M21.13 51.98L22.38 54l10.13-.82 4.5-7.47h3.48l6.25-6.55 10.02-3.89-4.4-6.34-5.32 2.25-3.27-2.45-1.13-7.27 4.4-1.84-9.1-9.01L27.7 10l-2.55 6.55-4.81 3.07 4.65 10.59-2.13 5.6"/></g></g></svg>