<svg data-name="Grupo 24908" xmlns="http://www.w3.org/2000/svg" width="70" height="70"><g data-name="Grupo 24932"><g data-name="Grupo 24931" fill="none"><g data-name="Grupo 24930" stroke-linecap="round" stroke-linejoin="round" stroke-width="2.4"><path data-name="Line 4" stroke="#19a301" d="M41.677 62.5h8.375"/><path data-name="Line 5" stroke="#19a301" d="M58.405 62.5h.679"/><path data-name="Line 6" stroke="#19a301" d="M10.916 62.5h8.298"/><path data-name="Line 7" stroke="#82d400" d="M18.674 62.5h14.628"/></g><path data-name="Rectángulo 7953" d="M0 55h70v15H0z"/></g></g><path data-name="Rectángulo 7954" fill="none" d="M0 0h70v70H0z"/><g data-name="Grupo 24935"><circle data-name="Ellipse 2" cx="5.795" cy="5.795" r="5.795" transform="translate(16.007 8.843)" fill="none" stroke="#19a301" stroke-linecap="round" stroke-linejoin="round" stroke-width="1.5"/><g data-name="Grupo 24933"><path data-name="Trazado 29862" d="M19.575 24.018v22.4a7.637 7.637 0 007.638 7.637h12.135l14.645-.031V9.928H30.384" fill="none" stroke="#000" stroke-linecap="round" stroke-linejoin="round" stroke-width="1.5"/></g><g data-name="Grupo 24934" fill="none" stroke="#000" stroke-linecap="round" stroke-linejoin="round" stroke-width="1.5"><path data-name="Trazado 29863" d="M33.01 29.136l2.166 2.946 5.271-5.954"/><path data-name="Trazado 29864" d="M45.008 25.321a9.1 9.1 0 11-12.063-4.495 9.068 9.068 0 0112.063 4.495z"/><path data-name="Trazado 29865" d="M36.09 38.221l-5.152 8.506a.359.359 0 01-.59 0l-1.126-1.8a.626.626 0 00-.581-.272l-2.232.175c-.267.02-.454-.224-.33-.431l5.012-8.151"/><path data-name="Trazado 29866" d="M38.514 38.052l5.175 8.792a.358.358 0 00.589 0l1.126-1.8a.626.626 0 01.581-.271l2.233.174a.3.3 0 00.329-.431l-5.357-8.994"/></g></g></svg>