<svg data-name="Grupo 24206" xmlns="http://www.w3.org/2000/svg" width="70" height="70"><g data-name="Grupo 24200"><g data-name="Grupo 24199" fill="none"><g data-name="Grupo 24198" stroke-linecap="round" stroke-linejoin="round" stroke-width="2.4"><path data-name="Line 4" stroke="#19a301" d="M41.677 62.5h8.375"/><path data-name="Line 5" stroke="#19a301" d="M58.405 62.5h.679"/><path data-name="Line 6" stroke="#19a301" d="M10.916 62.5h8.298"/><path data-name="Line 7" stroke="#82d400" d="M18.674 62.5h14.628"/></g><path data-name="Rectángulo 7724" d="M0 55h70v15H0z"/></g></g><path data-name="Rectángulo 7725" fill="none" d="M0 0h70v70H0z"/><path data-name="Trazado 29433" d="M33.94 53.87h13.28" fill="none" stroke="#fff" stroke-linecap="round" stroke-linejoin="round" stroke-width="1.5"/><g data-name="Grupo 24202"><circle data-name="Ellipse 2" cx="5.795" cy="5.795" r="5.795" transform="translate(9.703 8.843)" fill="none" stroke="#19a301" stroke-linecap="round" stroke-linejoin="round" stroke-width="1.5"/><path data-name="Trazado 29434" d="M36.145 53.873H22.863a8.36 8.36 0 01-8.36-8.36V23.759" fill="none" stroke="#fff" stroke-linecap="round" stroke-linejoin="round" stroke-width="1.5"/><path data-name="Trazado 29435" d="M23.437 8.79h20.23l7.22 7.46v37.62H47.22" fill="none" stroke="#fff" stroke-linecap="round" stroke-linejoin="round" stroke-width="1.5"/><path data-name="Trazado 29436" d="M43.524 8.786v8.048h7.366" fill="none" stroke="#fff" stroke-linecap="round" stroke-linejoin="round" stroke-width="1.5"/><path data-name="Línea 3915" fill="none" stroke="#fff" stroke-linecap="round" stroke-linejoin="round" stroke-width="1.5" d="M23.461 32.774h19.055"/><path data-name="Línea 3916" fill="none" stroke="#fff" stroke-linecap="round" stroke-linejoin="round" stroke-width="1.5" d="M23.461 38.774h19.055"/><path data-name="Línea 3917" fill="none" stroke="#fff" stroke-linecap="round" stroke-linejoin="round" stroke-width="1.5" d="M23.461 44.774h19.055"/><g data-name="Grupo 24201"><path data-name="Trazado 29437" d="M31.8 25.69a5.8 5.8 0 01.261-1.819 4.688 4.688 0 01.989-1.481l1.27-1.307a2.925 2.925 0 00.814-1.973 2.255 2.255 0 00-.533-1.591 2.011 2.011 0 00-1.551-.575 2.331 2.331 0 00-1.589.523 1.77 1.77 0 00-.6 1.406h-1.797a3.265 3.265 0 011.12-2.535 4.185 4.185 0 012.864-.964 3.956 3.956 0 012.855.982 3.559 3.559 0 011.022 2.695 4.87 4.87 0 01-1.57 3.339L34.3 23.435a3.255 3.255 0 00-.708 2.255zm-.078 3.079a1.065 1.065 0 01.267-.738 1 1 0 01.79-.3 1.021 1.021 0 01.795.3 1.054 1.054 0 01.271.738 1.02 1.02 0 01-.271.729 1.041 1.041 0 01-.795.289.961.961 0 01-1.057-1.018z" fill="#fff"/></g></g></svg>