<svg data-name="Grupo 23525" xmlns="http://www.w3.org/2000/svg" width="70" height="70"><g data-name="Grupo 23503"><g data-name="Grupo 23502" fill="none"><g data-name="Grupo 23501" stroke-linecap="round" stroke-linejoin="round" stroke-width="2.4"><path data-name="Line 4" stroke="#19a301" d="M41.677 62.5h8.375"/><path data-name="Line 5" stroke="#19a301" d="M58.405 62.5h.679"/><path data-name="Line 6" stroke="#19a301" d="M10.916 62.5h8.298"/><path data-name="Line 7" stroke="#82d400" d="M18.674 62.5h14.628"/></g><path data-name="Rectángulo 7240" d="M0 55h70v15H0z"/></g></g><path data-name="Rectángulo 7241" fill="none" d="M0 0h70v70H0z"/><g data-name="Grupo 23504" fill="none" stroke-linecap="round" stroke-linejoin="round"><circle data-name="Ellipse 2" cx="5.795" cy="5.795" r="5.795" transform="translate(6.507 18.843)" stroke="#19a301" stroke-width="1.5"/><path data-name="Rectángulo 2137" stroke="#fff" stroke-width="1.5" d="M40.351 33.183h17.581v20.911H40.351z"/><path data-name="Trazado 5455" d="M23.951 11.706H12.85V15.7" stroke="#fff" stroke-width="1.5"/><path data-name="Trazado 5456" d="M12.85 33.816v20.278h11.1V12.126" stroke="#fff" stroke-width="1.5"/><path data-name="Trazado 29063" d="M23.937 33.184h5.984a4.02 4.02 0 013.856 4.158v5.983a4 4 0 003.842 4.145h2.594" stroke="#fff" stroke-width="1.5"/><path data-name="Trazado 5459" d="M24.257 16.276h.684c2.832 0 5.125 1.858 5.125 4.151V54.1" stroke="#fff" stroke-width="1.5"/><path data-name="Línea 708" stroke="#fff" stroke-width="1.659" d="M63.493 54.094H8.067"/><path data-name="Trazado 5460" d="M49.334 38.552c-.664 1.67-1.349 3.325-2.029 4.99-.544 1.328-1.2 2.776-.238 4.083a2.863 2.863 0 002.267 1.193A2.934 2.934 0 0052 46.909c.482-1.2-.1-2.552-.617-3.621-.623-1.288-2.096-4.622-2.049-4.736z" stroke="#fff" stroke-width="1.5"/></g></svg>