<svg xmlns="http://www.w3.org/2000/svg" xmlns:xlink="http://www.w3.org/1999/xlink" viewBox="0 0 70 70"><style>.st0{stroke:#19a301;stroke-width:2.4;stroke-linecap:round;stroke-linejoin:round}.st0,.st2{fill:none}</style><symbol id="OCENSA-EXT" viewBox="-35 -7.5 70 15"><path id="Line_4_2_" class="st0" d="M6.68 0h8.37"/><path id="Line_5_2_" class="st0" d="M23.41 0h.67"/><path id="Line_6_2_" class="st0" d="M-24.08 0h8.29"/><path id="Line_7_2_" fill="none" stroke="#82d400" stroke-width="2.4" stroke-linecap="round" stroke-linejoin="round" d="M-16.33 0H-1.7"/><path class="st2" d="M-35-7.5h70v15h-70z"/></symbol><g id="Capa_1"><use xlink:href="#OCENSA-EXT" width="70" height="15" x="-35" y="-7.5" transform="matrix(1 0 0 -1 35 62.5)" overflow="visible"/><path class="st2" d="M0 0h70v70H0z"/><g fill="none" stroke-width="1.5" stroke-linecap="round" stroke-linejoin="round"><circle id="Ellipse_2_192_" cx="34.34" cy="42.64" r="5.8" stroke="#19a301"/><path stroke="#000" stroke-miterlimit="10" d="M26.63 39.15l-4.78 3.86-3.13-1.11 1.1-4.96-3.86-2.21-.92-7.36-6.81-2.76 5.89-8.28 6.81 8.28.92-4.96 6.8 1.84h18.58l1.29 11.03 13.25 3.87-3.5 7.35h3.5v3.87L48.15 55.7l-6.44-4.6 2.58-6.07-1.85-.61"/></g></g></svg>