<svg xmlns="http://www.w3.org/2000/svg" width="70" height="70"><g data-name="Grupo 24760"><g data-name="Grupo 24759" fill="none"><g data-name="Grupo 24755"><g data-name="Grupo 24754" stroke-linecap="round" stroke-linejoin="round" stroke-width="2.4"><path data-name="Line 4" stroke="#19a301" d="M41.677 62.5h8.375"/><path data-name="Line 5" stroke="#19a301" d="M58.405 62.5h.679"/><path data-name="Line 6" stroke="#19a301" d="M10.916 62.5h8.298"/><path data-name="Line 7" stroke="#82d400" d="M18.674 62.5h14.628"/></g><path data-name="Rectángulo 7904" d="M0 55h70v15H0z"/></g><path data-name="Rectángulo 7905" d="M0 0h70v70H0z"/><path data-name="Rectángulo 7906" d="M0 0h70v70H0z"/><g data-name="Grupo 24758" stroke-linecap="round" stroke-linejoin="round" stroke-width="1.5" transform="translate(-90 90)"><g data-name="Grupo 24756"><circle data-name="Ellipse 2" cx="5.795" cy="5.795" r="5.795" transform="translate(100.383 -82.157)" stroke="#19a301"/><path data-name="Trazado 29759" d="M126.825-37.127h-13.283a8.36 8.36 0 01-8.36-8.36v-21.754" stroke="#000"/><path data-name="Línea 4101" stroke="#000" d="M141.567-51.59v-.01"/><path data-name="Trazado 29760" d="M113.787-82.21h20.56l7.22 7.46v5.91l-.01 17.25" stroke="#000"/><path data-name="Trazado 29761" d="M136.947-38.01a8.415 8.415 0 01-3.75.88h-13.28" stroke="#000"/><path data-name="Trazado 29762" d="M134.2-82.214v8.048h7.366" stroke="#000"/><path data-name="Línea 4102" stroke="#000" d="M114.141-65.226h19.055"/><path data-name="Línea 4103" stroke="#000" d="M114.141-59.226h19.055"/><path data-name="Línea 4104" stroke="#000" d="M114.141-53.226h19.055"/><path data-name="Línea 4105" stroke="#000" d="M132.423-47.23h-18.287"/></g><circle data-name="Elipse 3256" cx="7.707" cy="7.707" r="7.707" transform="translate(134.204 -51.6)" stroke="#000"/><g data-name="Grupo 24757" stroke="#000"><path data-name="Línea 4106" d="M144.846-46.829l-5.872 5.872"/><path data-name="Línea 4107" d="M144.846-40.957l-5.872-5.872"/></g></g></g></g></svg>