<svg data-name="Group 23587" xmlns="http://www.w3.org/2000/svg" width="70" height="70"><g data-name="Group 23583"><g data-name="Group 23582" fill="none"><g data-name="Group 23581" stroke-linecap="round" stroke-linejoin="round" stroke-width="2.4"><path data-name="Line 4" stroke="#19a301" d="M41.677 62.5h8.375"/><path data-name="Line 5" stroke="#19a301" d="M58.405 62.5h.679"/><path data-name="Line 6" stroke="#19a301" d="M10.916 62.5h8.298"/><path data-name="Line 7" stroke="#82d400" d="M18.674 62.5h14.628"/></g><path data-name="Rectangle 7271" d="M0 55h70v15H0z"/></g></g><path data-name="Rectangle 7272" fill="none" d="M0 0h70v70H0z"/><g data-name="Group 23586" transform="translate(7.507 9.59)" fill="none" stroke-linecap="round" stroke-linejoin="round" stroke-width="1.5"><circle data-name="Ellipse 2" cx="5.795" cy="5.795" r="5.795" transform="translate(0 12.015)" stroke="#19a301"/><g data-name="Group 23585" transform="translate(6.464)" stroke="#000"><g data-name="Group 23584"><path data-name="Path 29126" d="M18.346 24.421L27.77 9.5l9.424 15.216"/><path data-name="Path 29127" d="M6.212 24.421l8.655-12.046 6.077 7.366"/><path data-name="Path 29128" d="M23.016 17.101l2.637 2.356 2.188-2.3 2.412 2.244 2.244-2.3"/></g><path data-name="Path 29129" d="M0 8.858V8.21a3.862 3.862 0 013.861-3.862h36.928a3.862 3.862 0 013.862 3.862v23.439a3.862 3.862 0 01-3.862 3.861H3.861A3.861 3.861 0 010 31.649v-4.686"/><path data-name="Path 29132" d="M10.506 35.6v9.341H6.088v-9.282"/><path data-name="Path 29133" d="M38.914 35.6v9.341h-4.418v-9.282"/><path data-name="Path 29136" d="M6.088 4.27V2.138A2.138 2.138 0 018.229 0h.142a2.138 2.138 0 012.138 2.138V4.21"/><path data-name="Path 29137" d="M34.394 4.27V2.138A2.138 2.138 0 0136.529 0h.142a2.138 2.138 0 012.138 2.138V4.21"/><circle data-name="Ellipse 3183" cx="2.349" cy="2.349" r="2.349" transform="translate(35.876 8.862)"/></g><path data-name="Line 3847" stroke="#000" d="M2.592 44.931h52.394"/></g></svg>