<svg version="1.1" id="Capa_1" xmlns="http://www.w3.org/2000/svg" x="0" y="0" viewBox="0 0 40 40" xml:space="preserve"><style>.st0{fill:none;stroke:#19a301;stroke-linecap:round;stroke-linejoin:round;stroke-miterlimit:10}</style><path class="st0" d="M22.2 4.1h-4.9c-.3 0-.5.2-.5.5v2.2c0 .3.2.5.5.5h4.9c.3 0 .5-.2.5-.5V4.6c-.1-.2-.3-.5-.5-.5zM12 11.2v5.5h-.8c-.5 0-1 .4-1 1v.5c0 .5.4 1 1 1h.8v4.6h-.8c-.5 0-1 .4-1 1v.5c0 .5.4 1 1 1h.8V32h16.3v-6h.8c.5 0 1-.4 1-1v-.5c0-.5-.4-1-1-1h-.8v-4.6h.8c.5 0 1-.4 1-1v-.5c0-.5-.4-1-1-1h-.8v-5.5m1 25H11.1c-.5 0-.8-.4-.8-.8v-2.2c0-.5.4-.8.8-.8h18.2c.5 0 .8.4.8.8V35c0 .5-.4.9-.8.9z"/><path class="st0" d="M29.2 11.2H11c-.4 0-.8-.4-.8-.8V8.2c0-.4.4-.8.8-.8h18.2c.4 0 .8.4.8.8v2.2c0 .4-.4.8-.8.8zm-6.1 11.5c0 1.6-1.3 2.9-2.9 2.9-1.6 0-2.9-1.3-2.9-2.9 0-1.6 2.9-5.9 2.9-5.9s2.9 4.3 2.9 5.9z"/><path fill="none" d="M0 0h40v40H0z"/></svg>