<svg xmlns="http://www.w3.org/2000/svg" xmlns:xlink="http://www.w3.org/1999/xlink" viewBox="0 0 70 70"><style>.st0{stroke:#19a301;stroke-width:2.4;stroke-linecap:round;stroke-linejoin:round}.st0,.st2,.st5{fill:none}.st5{stroke:#000;stroke-width:1.5;stroke-linecap:round;stroke-linejoin:round;stroke-miterlimit:10}</style><symbol id="OCENSA-EXT" viewBox="-35 -7.5 70 15"><path id="Line_4_2_" class="st0" d="M6.68 0h8.37"/><path id="Line_5_2_" class="st0" d="M23.41 0h.67"/><path id="Line_6_2_" class="st0" d="M-24.08 0h8.29"/><path id="Line_7_2_" fill="none" stroke="#82d400" stroke-width="2.4" stroke-linecap="round" stroke-linejoin="round" d="M-16.33 0H-1.7"/><path class="st2" d="M-35-7.5h70v15h-70z"/></symbol><g id="Capa_1"><use xlink:href="#OCENSA-EXT" width="70" height="15" x="-35" y="-7.5" transform="matrix(1 0 0 -1 35 62.5)" overflow="visible"/><path class="st2" d="M0 0h70v70H0z"/><circle id="Ellipse_2_197_" cx="13.3" cy="27.4" r="5.8" fill="none" stroke="#19a301" stroke-width="1.5" stroke-linecap="round" stroke-linejoin="round"/><path class="st5" d="M13.97 18.45v-.65c0-2.13 1.73-3.86 3.86-3.86h36.93c2.13 0 3.86 1.73 3.86 3.86v23.44c0 2.13-1.73 3.86-3.86 3.86H17.83c-2.13 0-3.86-1.73-3.86-3.86v-4.69m10.51 8.64v9.34h-4.42v-9.28m32.82-.06v9.34h-4.41v-9.28M20.06 13.86v-2.13c0-1.18.96-2.14 2.14-2.14h.14c1.18 0 2.14.96 2.14 2.14v2.07m23.89.06v-2.13c0-1.18.96-2.14 2.14-2.14h.14c1.18 0 2.14.96 2.14 2.14v2.07"/><circle class="st5" cx="52.2" cy="20.8" r="2.35"/><path class="st5" d="M10.1 54.52h52.39M50 31.58c0 3.47-5.16 6.29-11.52 6.29s-9.43-6.29-9.43-6.29 3.06-6.29 9.43-6.29S50 28.11 50 31.58z"/><path class="st5" d="M29.61 29.01l-4.76-4.76v14.67l5.24-4.19"/><circle class="st5" cx="43.19" cy="30.01" r="1.57"/><path class="st5" d="M43.55 25.94s-2.98-5.88-6.13-5.88l-1.4 5.57"/></g></svg>