<svg data-name="Capa 1" xmlns="http://www.w3.org/2000/svg" viewBox="0 0 70 70"><g data-name="Grupo 24547"><path data-name="Rectángulo 7854" fill="none" d="M0 0h70v70H0z"/></g><path data-name="Rectángulo 7855" fill="none" d="M0 55h70v15H0z"/><path data-name="Line 4" fill="none" stroke="#19a301" stroke-linecap="round" stroke-linejoin="round" stroke-width="2.4" d="M41.7 62.5h8.4"/><path data-name="Line 5" fill="none" stroke="#19a301" stroke-linecap="round" stroke-linejoin="round" stroke-width="2.4" d="M58.4 62.5h.7"/><path data-name="Line 6" fill="none" stroke="#19a301" stroke-linecap="round" stroke-linejoin="round" stroke-width="2.4" d="M10.9 62.5h8.3"/><path data-name="Line 7" fill="none" stroke="#82d400" stroke-linecap="round" stroke-linejoin="round" stroke-width="2.4" d="M18.7 62.5h14.6"/><g data-name="Grupo 24548"><path data-name="Rectángulo 7856" fill="none" d="M0 0h70v70H0z"/></g><path data-name="Rectángulo 7857" fill="none" d="M0 55h70v15H0z"/><path data-name="Line 4-2" fill="none" stroke="#19a301" stroke-linecap="round" stroke-linejoin="round" stroke-width="2.4" d="M41.7 62.5h8.4"/><path data-name="Line 5-2" fill="none" stroke="#19a301" stroke-linecap="round" stroke-linejoin="round" stroke-width="2.4" d="M58.4 62.5h.7"/><path data-name="Line 6-2" fill="none" stroke="#19a301" stroke-linecap="round" stroke-linejoin="round" stroke-width="2.4" d="M10.9 62.5h8.3"/><path data-name="Line 7-2" fill="none" stroke="#82d400" stroke-linecap="round" stroke-linejoin="round" stroke-width="2.4" d="M18.7 62.5h14.6"/><path data-name="Trazado 29420" d="M27.2 11.7a4.66 4.66 0 00-1.3-3.3 4.88 4.88 0 101.3 3.3z" fill="none" stroke="#19a301" stroke-linecap="round" stroke-linejoin="round" stroke-width="1.5"/><path data-name="Trazado 29421" d="M46 10.8V18h6.6" fill="none" stroke="#fff" stroke-linecap="round" stroke-linejoin="round" stroke-width="1.5"/><path data-name="Trazado 29422" d="M20 20.4v21a9.38 9.38 0 009.38 9.4H52.7V18" fill="none" stroke="#fff" stroke-linecap="round" stroke-linejoin="round" stroke-width="1.5"/><path data-name="Trazado 29423" d="M52.6 17.8l-6.7-7.5h-15" fill="none" stroke="#fff" stroke-linecap="round" stroke-linejoin="round" stroke-width="1.5"/><path data-name="Línea 3939" fill="none" stroke="#fff" stroke-linecap="round" stroke-linejoin="round" stroke-width="1.5" d="M27.71 25.65h17.28"/><path data-name="Línea 3940" fill="none" stroke="#fff" stroke-linecap="round" stroke-linejoin="round" stroke-width="1.5" d="M27.71 30.82h17.28"/><path data-name="Línea 3941" fill="none" stroke="#fff" stroke-linecap="round" stroke-linejoin="round" stroke-width="1.5" d="M27.71 35.99h17.28"/><path data-name="Línea 3942" fill="none" stroke="#fff" stroke-linecap="round" stroke-linejoin="round" stroke-width="1.5" d="M27.71 41.15h7.51"/></svg>