<svg xmlns="http://www.w3.org/2000/svg" width="42.396" height="29"><g data-name="Grupo 24884" transform="translate(-427.016 -2533.863)"><circle data-name="Elipse 2754" cx="6" cy="6" r="6" transform="translate(427.016 2542.362)" fill="#172211" opacity=".7" style="mix-blend-mode:multiply;isolation:isolate"/><path data-name="Trazado 12028" d="M469.412 2548.363a14.5 14.5 0 01-14.5 14.5 14.5 14.5 0 01-14.5-14.5 14.5 14.5 0 0114.5-14.5 14.5 14.5 0 0114.5 14.5z" fill="#ffff10"/><path data-name="Trazado 12029" d="M442.412 2543.087l4.95 4.95-4.95 4.95-9.396-4.95z" fill="#ffff10"/><g data-name="Group 13222" fill="none" stroke="#00009e" stroke-linecap="round" stroke-linejoin="round" stroke-width="1.4"><path data-name="Path 11404" d="M453.651 2543.002a2.973 2.973 0 01-2.974 2.972 2.972 2.972 0 01-2.972-2.974 2.973 2.973 0 012.973-2.972 2.966 2.966 0 012.973 2.957z"/><path data-name="Path 11405" d="M456.464 2540.501a8.159 8.159 0 015.232 2.378"/><path data-name="Path 11406" d="M450.124 2554.451a8.152 8.152 0 01-2.4-5.656"/><path data-name="Path 11407" d="M461.696 2542.878a8.183 8.183 0 010 11.573 8.182 8.182 0 01-11.572 0"/></g></g></svg>