<svg data-name="Grupo 24167" xmlns="http://www.w3.org/2000/svg" width="70" height="70"><g data-name="Grupo 24163" fill="none" stroke-linecap="round" stroke-linejoin="round" stroke-width="1.5"><circle data-name="Ellipse 2" cx="5.795" cy="5.795" r="5.795" transform="translate(15.507 30.843)" stroke="#19a301"/><g data-name="Grupo 24162" stroke="#000"><path data-name="Línea 3867" d="M33.485 24.826v4.539"/><path data-name="Línea 3868" d="M40.127 24.826v4.539"/><path data-name="Trazado 29387" d="M21.119 45.818v8.276h31.374V38.736a5.878 5.878 0 00-3.468-5.361l-8.9-4"/><path data-name="Línea 3869" d="M33.485 29.375l-4.531 2.037"/><path data-name="Línea 3870" d="M36.806 33.131l-3.321-3.766"/><path data-name="Línea 3871" d="M36.806 33.131l3.321-3.766"/><path data-name="Trazado 29390" d="M36.806 33.131L33.417 48.2l3.39 5.891"/><path data-name="Trazado 29391" d="M36.806 33.131L40.2 48.2l-3.39 5.891"/><path data-name="Trazado 29392" d="M43.039 19.524a6.259 6.259 0 11-12.518 0"/><path data-name="Trazado 29393" d="M30.521 19.524V15.2a6.259 6.259 0 0112.518 0v4.322"/></g></g><g data-name="Grupo 24166"><g data-name="Grupo 24165" fill="none"><g data-name="Grupo 24164" stroke-linecap="round" stroke-linejoin="round" stroke-width="2.4"><path data-name="Line 4" stroke="#19a301" d="M41.677 62.5h8.375"/><path data-name="Line 5" stroke="#19a301" d="M58.405 62.5h.679"/><path data-name="Line 6" stroke="#19a301" d="M10.916 62.5h8.298"/><path data-name="Line 7" stroke="#82d400" d="M18.674 62.5h14.628"/></g><path data-name="Rectángulo 7712" d="M0 55h70v15H0z"/></g></g><path data-name="Rectángulo 7713" fill="none" d="M0 0h70v70H0z"/></svg>