<svg data-name="Grupo 24417" xmlns="http://www.w3.org/2000/svg" width="56" height="56"><g data-name="Grupo 24416" fill="none" stroke="#19a301" stroke-linecap="round" stroke-linejoin="round" stroke-width="1.3"><g data-name="Grupo 24413"><path data-name="Trazado 29005" d="M4.609 38.522v-9.307a3.969 3.969 0 013.959-3.959h8.662a3.973 3.973 0 013.807 2.891"/><circle data-name="Elipse 3239" cx="4.426" cy="4.426" r="4.426" transform="translate(8.291 13.446)"/></g><g data-name="Grupo 24414"><path data-name="Trazado 29006" d="M18.634 42.554v-10.5a4.4 4.4 0 014.382-4.382H32.6a4.4 4.4 0 014.382 4.382v10.5"/><circle data-name="Elipse 3240" cx="4.9" cy="4.9" r="4.9" transform="translate(22.708 14.599)"/></g><g data-name="Grupo 24415"><path data-name="Trazado 29007" d="M34.909 28.341a3.977 3.977 0 013.861-3.085h8.662a3.976 3.976 0 013.959 3.959v9.307"/><circle data-name="Elipse 3241" cx="4.426" cy="4.426" r="4.426" transform="translate(38.494 13.446)"/></g></g><path data-name="Rectángulo 7623" fill="none" d="M0 0h56v56H0z"/></svg>