<svg version="1.1" id="Layer_1" xmlns="http://www.w3.org/2000/svg" x="0" y="0" viewBox="0 0 70 70" xml:space="preserve"><style>.st0,.st1{fill:none}.st1{stroke:#19a301;stroke-linecap:round;stroke-linejoin:round}.st1,.st2{stroke-width:2.4}.st2,.st4{fill:none;stroke-linecap:round;stroke-linejoin:round}.st2{stroke:#82d400}.st4{stroke:#000;stroke-width:1.5;stroke-miterlimit:10}</style><path class="st0" d="M0 0h70v70H0z"/><path class="st0" d="M0 55h70v15H0z"/><path id="Line_4_5_" class="st1" d="M41.7 62.5h8.4"/><path id="Line_5_5_" class="st1" d="M58.4 62.5h.7"/><path id="Line_6_5_" class="st1" d="M10.9 62.5h8.3"/><path id="Line_7_5_" class="st2" d="M18.7 62.5h14.6"/><path class="st0" d="M0 0h70v70H0z"/><path class="st0" d="M0 55h70v15H0z"/><path id="Line_4_4_" class="st1" d="M41.7 62.5h8.4"/><path id="Line_5_4_" class="st1" d="M58.4 62.5h.7"/><path id="Line_6_4_" class="st1" d="M10.9 62.5h8.3"/><path id="Line_7_4_" class="st2" d="M18.7 62.5h14.6"/><circle id="Ellipse_2_1_" cx="12.7" cy="17" r="5.1" fill="none" stroke="#19a301" stroke-width="1.5" stroke-linecap="round" stroke-linejoin="round"/><path class="st4" d="M14.5 26.5c.9-1.3 2.4-2.1 4.1-2.1 2.8 0 5 2.2 5 5 0 2.7-2.2 5-5 5-1.7 0-3.2-.8-4.1-2.1"/><path class="st4" d="M19.5 18.3h2.6c-.7-.8-1.1-1.9-1.1-3.1 0-2.8 2.2-5 5-5s5 2.2 5 5c0 1.2-.4 2.2-1.1 3.1h14c-.7-.8-1.1-1.9-1.1-3.1 0-2.8 2.2-5 5-5s5 2.2 5 5c0 1.2-.4 2.2-1.1 3.1H59v8.2c-.9-1.3-2.4-2.1-4.1-2.1-2.8 0-5 2.2-5 5 0 2.7 2.2 5 5 5 1.7 0 3.2-.8 4.1-2.1v8.3h-7.4c.7.8 1.1 2 1.1 3.2 0 2.8-2.2 5-5 5s-5-2.2-5-5c0-1.2.4-2.3 1.1-3.2H29.7c.7.8 1.2 2 1.2 3.2 0 2.8-2.2 5-5 5-2.7 0-5-2.2-5-5 0-1.2.4-2.3 1.2-3.2h-7.7v-8.3c.9 1.3 2.4 2.1 4.1 2.1 2.8 0 5-2.2 5-5s-2.2-5-5-5c-1.7 0-3.2.8-4.1 2.1v-2.6"/><path class="st4" d="M36.8 40.5V33c.9.8 2 1.2 3.3 1.2 2.8 0 5-2.2 5-5s-2.2-5-5-5c-1.2 0-2.4.5-3.3 1.2v-7.3"/></svg>