<svg xmlns="http://www.w3.org/2000/svg" width="45.396" height="29"><g data-name="Grupo 24886" transform="translate(15286.566 9603.138)"><circle data-name="Elipse 3196" cx="6" cy="6" r="6" transform="translate(-15253.17 -9595.638)" fill="#172211" opacity=".7" style="mix-blend-mode:multiply;isolation:isolate"/><path data-name="Trazado 12028" d="M-15286.566-9588.638a14.5 14.5 0 0014.5 14.5 14.5 14.5 0 0014.5-14.5 14.5 14.5 0 00-14.5-14.5 14.5 14.5 0 00-14.5 14.5z" fill="#ffff10"/><path data-name="Trazado 12029" d="M-15259.566-9593.915l-4.95 4.95 4.95 4.95 9.396-4.95z" fill="#ffff10"/><g data-name="Group 13222" fill="none" stroke="#00009e" stroke-linecap="round" stroke-linejoin="round" stroke-width="1.4"><path data-name="Path 11404" d="M-15275.301-9593.998a2.973 2.973 0 01-2.974 2.972 2.972 2.972 0 01-2.972-2.974 2.973 2.973 0 012.973-2.972 2.966 2.966 0 012.973 2.957z"/><path data-name="Path 11405" d="M-15272.489-9596.499a8.159 8.159 0 015.232 2.378"/><path data-name="Path 11406" d="M-15278.828-9582.549a8.152 8.152 0 01-2.4-5.656"/><path data-name="Path 11407" d="M-15267.256-9594.122a8.183 8.183 0 010 11.573 8.182 8.182 0 01-11.572 0"/></g></g></svg>