<svg xmlns="http://www.w3.org/2000/svg" xmlns:xlink="http://www.w3.org/1999/xlink" viewBox="0 0 70 70"><style>.st0{stroke:#19a301;stroke-width:2.4;stroke-linecap:round;stroke-linejoin:round}.st0,.st2{fill:none}</style><symbol id="OCENSA-EXT" viewBox="-35 -7.5 70 15"><path id="Line_4_2_" class="st0" d="M6.68 0h8.37"/><path id="Line_5_2_" class="st0" d="M23.41 0h.67"/><path id="Line_6_2_" class="st0" d="M-24.08 0h8.29"/><path id="Line_7_2_" fill="none" stroke="#82d400" stroke-width="2.4" stroke-linecap="round" stroke-linejoin="round" d="M-16.33 0H-1.7"/><path class="st2" d="M-35-7.5h70v15h-70z"/></symbol><g id="Capa_1"><use xlink:href="#OCENSA-EXT" width="70" height="15" x="-35" y="-7.5" transform="matrix(1 0 0 -1 35 62.5)" overflow="visible"/><path class="st2" d="M0 0h70v70H0z"/><g fill="none" stroke-width="1.5" stroke-linecap="round" stroke-linejoin="round"><circle id="Ellipse_2_53_" cx="22.9" cy="14.3" r="5.8" stroke="#19a301"/><path stroke="#000" stroke-miterlimit="10" d="M30.83 10.08l2.35-1.74 7.43 10.94 6.62 1.08 3.78 10.27 1.89 10.4-6.89 1.89-4.46-3.65-.27 4.46 4.58 5.79 5.12 3.84-3.54.96-2.11-2.08-2.29 1.48-2.57-2.7.68-1.35-2.98-1.08-3.1-5.54-11.21-2.16-5.54-6.48 1.21-7.03-2.43-2.43 1.47-2.72"/></g></g></svg>