<svg xmlns="http://www.w3.org/2000/svg" width="70" height="70"><g data-name="Group 24562"><g data-name="Group 24563" fill="none"><g data-name="Group 24562" stroke-linecap="round" stroke-linejoin="round" stroke-width="2.4"><path data-name="Line 4" stroke="#19a301" d="M41.677 62.5h8.375"/><path data-name="Line 5" stroke="#19a301" d="M58.405 62.5h.679"/><path data-name="Line 6" stroke="#19a301" d="M10.916 62.5h8.298"/><path data-name="Line 7" stroke="#82d400" d="M18.674 62.5h14.628"/></g><path data-name="Rectangle 7866" d="M0 55h70v15H0z"/></g><g data-name="Group 24565" transform="translate(-2350 187)"><circle data-name="Ellipse 2" cx="5.795" cy="5.795" r="5.795" transform="translate(2354.377 -168.481)" fill="none" stroke="#19a301" stroke-linecap="round" stroke-linejoin="round" stroke-width="1.5"/><path data-name="Línea 2918" fill="none" stroke="#000" stroke-linecap="round" stroke-linejoin="round" stroke-width="1.5" d="M2356.691-132.989h58.932"/><path data-name="Path 29436" d="M2360.789-171.559a3.455 3.455 0 013.451-3.452h9.551a3.455 3.455 0 013.452 3.452v22.025" fill="none" stroke="#000" stroke-linecap="round" stroke-linejoin="round" stroke-width="1.5"/><path data-name="Línea 2919" fill="none" stroke="#000" stroke-linecap="round" stroke-linejoin="round" stroke-width="1.5" d="M2360.79-132.995v-20.911"/><path data-name="Trazado 12588" d="M2394.757-133.079v-13.366a3.323 3.323 0 013.323-3.323h10.1a3.323 3.323 0 013.323 3.323v13.45" fill="none" stroke="#000" stroke-linecap="round" stroke-linejoin="round" stroke-width="1.5"/><path data-name="Trazado 12589" d="M2388.4-133.079v-22.555a3.323 3.323 0 013.323-3.323h8a3.323 3.323 0 013.323 3.323v5.7" fill="none" stroke="#000" stroke-linecap="round" stroke-linejoin="round" stroke-width="1.5"/><path data-name="Line 3949" fill="none" stroke="#000" stroke-linecap="round" stroke-linejoin="round" stroke-width="1.5" d="M2394.757-140.958h16.744"/><path data-name="Line 3950" fill="none" stroke="#000" stroke-linecap="round" stroke-linejoin="round" stroke-width="1.5" d="M2377.238-163.44h-6.226"/><path data-name="Line 3951" fill="none" stroke="#000" stroke-linecap="round" stroke-linejoin="round" stroke-width="1.5" d="M2377.238-159.032h-4.011"/><path data-name="Line 3952" fill="none" stroke="#000" stroke-linecap="round" stroke-linejoin="round" stroke-width="1.5" d="M2395.721-136.166h3.813"/><path data-name="Line 3953" fill="none" stroke="#000" stroke-linecap="round" stroke-linejoin="round" stroke-width="1.5" d="M2360.881-149.534h27.542"/><path data-name="Rectangle 7867" fill="none" stroke="#000" stroke-linecap="round" stroke-linejoin="round" stroke-width="1.5" d="M2382.941-178.042h26.075v12.351h-26.075z"/><path data-name="Line 3954" fill="none" stroke="#000" stroke-linecap="round" stroke-linejoin="round" stroke-width="1.5" d="M2396.215-165.691v6.457"/><g data-name="Group 24564"><path data-name="Path 29438" d="M2387.8-171.123v2.756h-1.611v-7.821h3.05a3.531 3.531 0 011.55.323 2.382 2.382 0 011.029.916 2.548 2.548 0 01.36 1.35 2.248 2.248 0 01-.787 1.813 3.28 3.28 0 01-2.178.663zm0-1.3h1.439a1.414 1.414 0 00.975-.3 1.091 1.091 0 00.336-.859 1.283 1.283 0 00-.339-.929 1.26 1.26 0 00-.933-.365h-1.478z"/><path data-name="Path 29439" d="M2399.2-176.188v5.151a2.64 2.64 0 01-.8 2.031 3.1 3.1 0 01-2.2.746 3.129 3.129 0 01-2.175-.725 2.593 2.593 0 01-.822-1.993v-5.21h1.611v5.162a1.493 1.493 0 00.369 1.12 1.409 1.409 0 001.017.352q1.359 0 1.38-1.429v-5.205z"/><path data-name="Path 29440" d="M2405.231-171.756h-3.094v2.094h3.631v1.295h-5.242v-7.821h5.231v1.306h-3.62v1.863h3.094z"/></g></g><path data-name="Rectangle 7868" fill="none" d="M0 0h70v70H0z"/></g></svg>