<svg xmlns="http://www.w3.org/2000/svg" width="70" height="70"><g data-name="Group 22102" transform="translate(450 -90)"><g data-name="Group 22103" fill="none"><g data-name="Group 22102" stroke-linecap="round" stroke-linejoin="round" stroke-width="2.4"><path data-name="Line 4" stroke="#19a301" d="M-408.323 152.5h8.375"/><path data-name="Line 5" stroke="#19a301" d="M-391.595 152.5h.679"/><path data-name="Line 6" stroke="#19a301" d="M-439.084 152.5h8.298"/><path data-name="Line 7" stroke="#82d400" d="M-431.326 152.5h14.628"/></g><path data-name="Rectangle 6734" d="M-450 145h70v15h-70z"/></g><path data-name="Rectangle 6735" fill="none" d="M-450 90h70v70h-70z"/><circle data-name="Ellipse 2" cx="5.795" cy="5.795" r="5.795" transform="translate(-444.986 108.843)" fill="none" stroke="#19a301" stroke-linecap="round" stroke-linejoin="round" stroke-width="1.5"/><path data-name="Rectángulo 2137" fill="none" stroke="#000" stroke-linecap="round" stroke-linejoin="round" stroke-width="1.5" d="M-411.142 123.183h17.581v20.911h-17.581z"/><path data-name="Trazado 5455" d="M-427.542 101.706h-11.1v3.994" fill="none" stroke="#000" stroke-linecap="round" stroke-linejoin="round" stroke-width="1.5"/><path data-name="Trazado 5456" d="M-438.643 123.816v20.278h11.1v-41.968" fill="none" stroke="#000" stroke-linecap="round" stroke-linejoin="round" stroke-width="1.5"/><path data-name="Path 28248" d="M-427.556 123.184h5.983a4.021 4.021 0 013.857 4.158v5.983a4 4 0 003.842 4.145h2.594" fill="none" stroke="#000" stroke-linecap="round" stroke-linejoin="round" stroke-width="1.5"/><path data-name="Trazado 5459" d="M-427.236 106.276h.684c2.832 0 5.125 1.858 5.125 4.151V144.1" fill="none" stroke="#000" stroke-linecap="round" stroke-linejoin="round" stroke-width="1.5"/><path data-name="Línea 708" fill="none" stroke="#000" stroke-linecap="round" stroke-linejoin="round" stroke-width="1.659" d="M-388 144.094h-55.426"/><path data-name="Trazado 5460" d="M-402.16 128.552c-.664 1.67-1.348 3.325-2.028 4.99-.545 1.328-1.2 2.776-.239 4.083a2.866 2.866 0 002.267 1.193 2.935 2.935 0 002.667-1.909c.482-1.2-.1-2.552-.618-3.621-.622-1.288-2.095-4.622-2.049-4.736z" fill="none" stroke="#000" stroke-linecap="round" stroke-linejoin="round" stroke-width="1.5"/><path data-name="Rectangle 6736" fill="none" stroke="#000" stroke-linecap="round" stroke-linejoin="round" stroke-width="1.5" d="M-415.389 104.376h26.075v12.351h-26.075z"/><path data-name="Line 2906" fill="none" stroke="#000" stroke-linecap="round" stroke-linejoin="round" stroke-width="1.5" d="M-402.115 116.727v6.457"/><g data-name="Group 22104" stroke="#000" stroke-miterlimit="10" stroke-width=".418"><path data-name="Path 28249" d="M-412.511 106.992h3.241a2.2 2.2 0 011.549.541 1.967 1.967 0 01.589 1.523 2.207 2.207 0 01-.527 1.467 1.975 1.975 0 01-1.611.626h-2.265v3.044h-.976zm3.8.99a2.114 2.114 0 00-.885-.152h-1.942v2.495h1.942a1.855 1.855 0 001.065-.279 1.111 1.111 0 00.409-.985 1.083 1.083 0 00-.586-1.079z"/><path data-name="Path 28250" d="M-399.976 108.022a3.964 3.964 0 01.716 2.446 4.283 4.283 0 01-.818 2.681 3.247 3.247 0 01-2.741 1.255 3.274 3.274 0 01-2.612-1.1 4.143 4.143 0 01-.848-2.677 4.256 4.256 0 01.725-2.5 3.145 3.145 0 012.754-1.327 3.3 3.3 0 012.824 1.222zm-.859 4.586a3.952 3.952 0 00.575-2.126 3.041 3.041 0 00-.663-2.044 2.272 2.272 0 00-1.817-.774 2.366 2.366 0 00-1.824.768 3.232 3.232 0 00-.706 2.261 3.293 3.293 0 00.6 2.016 2.273 2.273 0 001.964.822 2.034 2.034 0 001.871-.923z"/><path data-name="Path 28251" d="M-397.98 106.992h3.333a3.327 3.327 0 011.358.24 1.7 1.7 0 011.014 1.7 1.912 1.912 0 01-.267 1.059 1.936 1.936 0 01-.747.662 1.478 1.478 0 01.635.451 1.625 1.625 0 01.237.907l.035.965a2.916 2.916 0 00.068.613.6.6 0 00.314.441v.162h-1.2a.9.9 0 01-.079-.24 4.959 4.959 0 01-.049-.569l-.058-1.2a1.01 1.01 0 00-.525-.946 2.173 2.173 0 00-.877-.132h-2.221v3.088h-.975zm3.23 3.3a1.9 1.9 0 001.087-.274 1.123 1.123 0 00.4-.991 1.062 1.062 0 00-.559-1.049 1.824 1.824 0 00-.8-.147h-2.382v2.461z"/></g></g></svg>