<svg data-name="Group 24362" xmlns="http://www.w3.org/2000/svg" width="70" height="70"><g data-name="Group 24364"><g data-name="Group 24363" fill="none"><g data-name="Group 24362" stroke-linecap="round" stroke-linejoin="round" stroke-width="2.4"><path data-name="Line 4" stroke="#19a301" d="M41.677 62.5h8.375"/><path data-name="Line 5" stroke="#19a301" d="M58.405 62.5h.679"/><path data-name="Line 6" stroke="#19a301" d="M10.916 62.5h8.298"/><path data-name="Line 7" stroke="#82d400" d="M18.674 62.5h14.628"/></g><path data-name="Rectangle 7533" d="M0 55h70v15H0z"/></g></g><path data-name="Rectangle 7534" fill="none" d="M0 0h70v70H0z"/><g data-name="Group 24366"><g data-name="Group 24365"><circle data-name="Ellipse 2" cx="5.795" cy="5.795" r="5.795" transform="translate(11.43 6.843)" fill="none" stroke="#19a301" stroke-linecap="round" stroke-linejoin="round" stroke-width="1.5"/></g><path data-name="Path 29453" d="M26.474 11h21.6v41h-31V22.319" fill="none" stroke="#fff" stroke-linecap="round" stroke-linejoin="round" stroke-width="1.448"/><path data-name="Rectangle 7535" fill="none" stroke="#fff" stroke-linecap="round" stroke-linejoin="round" stroke-width="1.448" d="M28.07 37h10v15h-10z"/><path data-name="Line 3923" fill="none" stroke="#fff" stroke-linecap="round" stroke-linejoin="round" stroke-width="1.448" d="M24.57 18.5h17"/><path data-name="Line 3924" fill="none" stroke="#fff" stroke-linecap="round" stroke-linejoin="round" stroke-width="1.448" d="M24.57 24.5h17"/><path data-name="Line 3925" fill="none" stroke="#fff" stroke-linecap="round" stroke-linejoin="round" stroke-width="1.448" d="M24.57 30.5h17"/><path data-name="Path 29454" d="M48.07 32h10.5v20h-11" fill="none" stroke="#fff" stroke-linecap="round" stroke-linejoin="round" stroke-width="1.448"/><path data-name="Line 3926" fill="none" stroke="#fff" stroke-linecap="round" stroke-linejoin="round" stroke-width="1.448" d="M50.57 35.5h5"/><path data-name="Line 3927" fill="none" stroke="#fff" stroke-linecap="round" stroke-linejoin="round" stroke-width="1.448" d="M50.57 39.5h5"/><path data-name="Line 3928" fill="none" stroke="#fff" stroke-linecap="round" stroke-linejoin="round" stroke-width="1.448" d="M50.57 43.5h5"/></g></svg>