<svg version="1.1" id="Grupo_24205" xmlns="http://www.w3.org/2000/svg" x="0" y="0" viewBox="0 0 70 70" xml:space="preserve"><style>.st0,.st1{stroke-width:2.4;stroke-linecap:round;stroke-linejoin:round}.st0{fill:none;stroke:#fff}.st1{stroke:#82d400}.st1,.st2,.st3{fill:none}.st3{stroke:#fff;stroke-width:1.5;stroke-linecap:round;stroke-linejoin:round}</style><g id="Grupo_24194"><g id="Grupo_24193"><g id="Grupo_24192"><path id="Line_4" class="st0" d="M41.7 62.5h8.4"/><path id="Line_5" class="st1" d="M58.4 62.5h.7"/><path id="Line_6" class="st0" d="M10.9 62.5h8.3"/><path id="Line_7" class="st1" d="M18.7 62.5h14.6"/></g><path id="Rectángulo_7722" class="st2" d="M0 55h70v15H0z"/></g></g><path id="Rectángulo_7723" class="st2" d="M0 0h70v70H0z"/><path id="Trazado_29427" class="st3" d="M33.9 53.9h13.3"/><g id="Grupo_24196"><circle id="Ellipse_2" class="st3" cx="15.5" cy="14.6" r="5.8"/><path id="Trazado_29428" class="st3" d="M36.1 53.9H22.9c-4.6 0-8.4-3.7-8.4-8.4V23.8"/><path id="Trazado_29429" class="st3" d="M23.4 8.8h20.2l7.2 7.5v37.6h-3.7"/><path id="Trazado_29430" class="st3" d="M43.5 8.8v8h7.4"/><path id="Línea_3910" class="st3" d="M23.5 32.8h19"/><path id="Línea_3911" class="st3" d="M23.5 38.8h19"/><path id="Línea_3912" class="st3" d="M23.5 44.8h19"/><g id="Grupo_24195"><path id="Trazado_29431" class="st3" d="M32.5 21.5c-1.3 0-2.3-1-2.3-2.3s1-2.3 2.3-2.3 2.3 1 2.3 2.3"/><path id="Trazado_29432" class="st3" d="M32.5 21.5c1.3 0 2.3 1 2.3 2.3s-1 2.3-2.3 2.3-2.3-1-2.3-2.3"/><path id="Línea_3913" class="st3" d="M32.5 16.8v-1.2"/><path id="Línea_3914" class="st3" d="M32.5 27.5v-1.3"/></g></g></svg>