<svg data-name="Capa 1" xmlns="http://www.w3.org/2000/svg" xmlns:xlink="http://www.w3.org/1999/xlink" viewBox="0 0 70 70"><defs><symbol id="a" data-name="OCENSA-EXT" viewBox="0 0 70 15"><path data-name="Line 4" fill="none" stroke="#19a301" stroke-linecap="round" stroke-linejoin="round" stroke-width="2.4" d="M41.68 7.5h8.37"/><path data-name="Line 5" fill="none" stroke="#19a301" stroke-linecap="round" stroke-linejoin="round" stroke-width="2.4" d="M58.4 7.5h.68"/><path data-name="Line 6" fill="none" stroke="#19a301" stroke-linecap="round" stroke-linejoin="round" stroke-width="2.4" d="M10.92 7.5h8.29"/><path data-name="Line 7" fill="none" stroke="#82d400" stroke-linecap="round" stroke-linejoin="round" stroke-width="2.4" d="M18.67 7.5H33.3"/><path fill="none" d="M0 0h70v15H0z"/></symbol></defs><use width="70" height="15" transform="translate(0 55)" xlink:href="#a"/><circle data-name="Ellipse 2" cx="9.81" cy="24.64" r="5.8" fill="none" stroke="#19a301" stroke-linecap="round" stroke-linejoin="round" stroke-width="1.5"/><path data-name="Rectángulo 2137" fill="none" stroke="#000" stroke-linecap="round" stroke-linejoin="round" stroke-width="1.5" d="M38.86 33.18h17.58v20.91H38.86z"/><path data-name="Trazado 5455" d="M21.46 11.71h-11.1v4" fill="none" stroke="#000" stroke-linecap="round" stroke-linejoin="round" stroke-width="1.5"/><path data-name="Trazado 5456" d="M10.36 33.82v20.27h11.1v-42" fill="none" stroke="#000" stroke-linecap="round" stroke-linejoin="round" stroke-width="1.5"/><path d="M21.44 33.18h6a4 4 0 013.85 4.16v6a4 4 0 003.85 4.14h2.59" fill="none" stroke="#000" stroke-linecap="round" stroke-linejoin="round" stroke-width="1.5"/><path data-name="Trazado 5459" d="M21.76 16.28h.69c2.83 0 5.12 1.85 5.12 4.15V54.1" fill="none" stroke="#000" stroke-linecap="round" stroke-linejoin="round" stroke-width="1.5"/><path data-name="Línea 708" fill="none" stroke="#000" stroke-linecap="round" stroke-linejoin="round" stroke-width="1.659" d="M62 54.09H6.57"/><path data-name="Trazado 5460" d="M47.84 38.55c-.66 1.67-1.35 3.33-2 5-.54 1.33-1.2 2.78-.24 4.08a2.87 2.87 0 002.27 1.2 3 3 0 002.67-1.91c.48-1.2-.11-2.55-.62-3.62-.65-1.3-2.13-4.63-2.08-4.75z" fill="none" stroke="#000" stroke-linecap="round" stroke-linejoin="round" stroke-width="1.5"/><path fill="none" d="M0 0h70v70H0z"/></svg>