<svg version="1.1" id="Layer_1" xmlns="http://www.w3.org/2000/svg" x="0" y="0" viewBox="0 0 70 70" xml:space="preserve"><style>.st0,.st1{fill:none}.st1{stroke:#19a301;stroke-linecap:round;stroke-linejoin:round}.st1,.st2{stroke-width:2.4}.st2,.st4{fill:none;stroke-linecap:round;stroke-linejoin:round}.st2{stroke:#82d400}.st4{stroke:#000;stroke-width:1.5;stroke-miterlimit:10}</style><path class="st0" d="M0 0h70v70H0z"/><path class="st0" d="M0 55h70v15H0z"/><path id="Line_4_7_" class="st1" d="M41.7 62.5h8.4"/><path id="Line_5_7_" class="st1" d="M58.4 62.5h.7"/><path id="Line_6_7_" class="st1" d="M10.9 62.5h8.3"/><path id="Line_7_7_" class="st2" d="M18.7 62.5h14.6"/><path class="st0" d="M0 0h70v70H0z"/><path class="st0" d="M0 55h70v15H0z"/><path id="Line_4_6_" class="st1" d="M41.7 62.5h8.4"/><path id="Line_5_6_" class="st1" d="M58.4 62.5h.7"/><path id="Line_6_6_" class="st1" d="M10.9 62.5h8.3"/><path id="Line_7_6_" class="st2" d="M18.7 62.5h14.6"/><circle id="Ellipse_2_11_" cx="23.4" cy="18.6" r="4.2" fill="none" stroke="#19a301" stroke-width="1.5" stroke-linecap="round" stroke-linejoin="round"/><path class="st4" d="M29.3 11.8l4.5-4.1 4.4 4.1 6.1-.3.8 6.1 4.9 3.7-3.3 5.1 1.3 6-5.8 1.8-2.8 5.4-5.6-2.4-5.7 2.4-2.8-5.4-5.8-1.8 1.4-6"/><path class="st4" d="M28.3 14.2c1.6-.9 3.5-1.4 5.4-1.4 6 0 10.9 4.9 10.9 10.9s-4.9 10.9-10.9 10.9c-5.6 0-10.3-4.3-10.9-9.8m11-17.1v5m10.5-1.2l-3.1 4.1m8.8 5.7l-5.4.8M48 32.4l-5-3m-3.6 10.2l-2-5.7m-9.3 5.7l2-5.7m-10.6-1.5l5-2.9m11.6 8.7l-4.8 12.5-3.9-5.4-6.6 1.3 4.7-12.2"/><path class="st4" d="M34.8 41.5l3.4 8.6 3.9-5.4 6.6 1.3-4.8-12.3m-15.4-8.1l3.8 3.8L39 18.9"/></svg>