<svg version="1.1" id="Layer_1" xmlns="http://www.w3.org/2000/svg" x="0" y="0" viewBox="0 0 70 70" xml:space="preserve"><style>.st0,.st1{fill:none}.st1{stroke:#19a301;stroke-linecap:round;stroke-linejoin:round}.st1,.st2{stroke-width:2.4}.st2,.st4{fill:none;stroke-linecap:round;stroke-linejoin:round}.st2{stroke:#82d400}.st4{stroke:#000;stroke-width:1.5;stroke-miterlimit:10}</style><path class="st0" d="M0 0h70v70H0z"/><path class="st0" d="M0 55h70v15H0z"/><path id="Line_4_9_" class="st1" d="M41.7 62.5h8.4"/><path id="Line_5_9_" class="st1" d="M58.4 62.5h.7"/><path id="Line_6_9_" class="st1" d="M10.9 62.5h8.3"/><path id="Line_7_9_" class="st2" d="M18.7 62.5h14.6"/><path class="st0" d="M0 0h70v70H0z"/><path class="st0" d="M0 55h70v15H0z"/><path id="Line_4_8_" class="st1" d="M41.7 62.5h8.4"/><path id="Line_5_8_" class="st1" d="M58.4 62.5h.7"/><path id="Line_6_8_" class="st1" d="M10.9 62.5h8.3"/><path id="Line_7_8_" class="st2" d="M18.7 62.5h14.6"/><circle cx="13" cy="37.2" r="3.4" fill="none" stroke="#19a301" stroke-width="1.5" stroke-linecap="round" stroke-linejoin="round"/><path class="st4" d="M18.8 20.9H22s4 .1 4-3.7c0 0 .1 3.7 3.5 3.7m18.9 15.4l-3 8.4 3 4.1m0-12.5l2.9 8.4-2.9 4.1m-13.8 1.3h27.5M51.6 33.5l5.4.5c2.2.5 3.9 2.3 4.2 4.5l1 11.7M51.6 33.5l-3.2 2.8-3.3-2.8m8.6-9.8c0 3-2.4 5.3-5.3 5.3-3 0-5.3-2.4-5.3-5.3m-.1 0V20c0-3 2.4-5.3 5.3-5.3 3 0 5.3 2.4 5.3 5.3v3.7m-8.5 9.8l-5.3.5c-2.2.5-3.9 2.3-4.2 4.5l-1 11.7m-24.2-.1h27.5"/><path class="st4" d="M27.4 33.5l5.4.5c1.5.3 2.8 1.2 3.5 2.5m-8.9-3l-.6 1.2c-1.1 2-4 2-5.1 0l-.6-1.2m8.4-9.8c0 3-2.4 5.3-5.3 5.3s-5.3-2.4-5.3-5.3m-.1 0V20c0-3 2.4-5.3 5.3-5.3s5.3 2.4 5.3 5.3v3.7M11 41.3l-.6 7.7m10.5-15.5l-3.5.3m12.1-10.6v10.5m-10.7-12v12M29.5 4.4v8.8h7.6l4.1 2.8V4.4zm2.9 3.9h5.8"/></svg>