<svg data-name="Grupo 24409" xmlns="http://www.w3.org/2000/svg" width="56" height="56"><g data-name="Grupo 24408" fill="none" stroke="#19a301" stroke-linecap="round" stroke-linejoin="round" stroke-width="1.3"><path data-name="Trazado 28997" d="M32.961 35.174a4.982 4.982 0 11-9.965 0"/><path data-name="Trazado 28998" d="M37.834 35.064c.209.024.414.057.617.1a6.933 6.933 0 015.208 5.416 22.959 22.959 0 01.509 4.994v3.143H15.213"/><path data-name="Trazado 28999" d="M18.166 35.064a6.61 6.61 0 00-.617.1 6.933 6.933 0 00-5.208 5.416 22.959 22.959 0 00-.509 4.994v3.143h28.955"/><path data-name="Trazado 29000" d="M18.36 35.053a7.125 7.125 0 00-1.982.494"/><path data-name="Trazado 29001" d="M30.905 30.552v4.521h2.038l4.876-.009V17.1A9.815 9.815 0 0028 7.284h0a9.815 9.815 0 00-9.811 9.816v18L23 35.091h1.858v-4.539"/><path data-name="Trazado 29002" d="M34.9 20.663v4.065a5.945 5.945 0 01-5.944 5.945h-1.899a5.945 5.945 0 01-5.944-5.945v-4.065c0-.1 0-.194.007-.29v-.9h4.08s5.126.069 5.126-4.78c0 0 .139 4.711 4.434 4.711z"/></g><path data-name="Rectángulo 7620" fill="none" d="M0 0h56v56H0z"/></svg>