<svg xmlns="http://www.w3.org/2000/svg" xmlns:xlink="http://www.w3.org/1999/xlink" viewBox="0 0 70 70"><style>.st0{stroke:#19a301;stroke-width:2.4;stroke-linecap:round;stroke-linejoin:round}.st0,.st2,.st5{fill:none}.st5{stroke:#000;stroke-width:1.5;stroke-linecap:round;stroke-linejoin:round;stroke-miterlimit:10}</style><symbol id="OCENSA-EXT" viewBox="-35 -7.5 70 15"><path id="Line_4_2_" class="st0" d="M6.68 0h8.37"/><path id="Line_5_2_" class="st0" d="M23.41 0h.67"/><path id="Line_6_2_" class="st0" d="M-24.08 0h8.29"/><path id="Line_7_2_" fill="none" stroke="#82d400" stroke-width="2.4" stroke-linecap="round" stroke-linejoin="round" d="M-16.33 0H-1.7"/><path class="st2" d="M-35-7.5h70v15h-70z"/></symbol><g id="Capa_1"><use xlink:href="#OCENSA-EXT" width="70" height="15" x="-35" y="-7.5" transform="matrix(1 0 0 -1 35 62.5)" overflow="visible"/><path class="st2" d="M0 0h70v70H0z"/><circle id="Ellipse_2_196_" cx="39.26" cy="26.64" r="5.8" fill="none" stroke="#19a301" stroke-width="1.5" stroke-linecap="round" stroke-linejoin="round"/><path class="st5" d="M31.07 24.84c-6.7-.61-11.38 1-11.38 1-8.17-1.09-8.99 2.45-8.99 2.45s-7.08 2.72-2.45 9.53c0 0 3.54 4.36 9.26-1.63m35.41-.82a40.424 40.424 0 00-5.78-4.74"/><path class="st5" d="M48.84 39.45s12.26 7.08 14.43 0c0 0 1.35-10.2-11.71-5.37M26.69 43s11.25 3.46 25.15-2.08m-35.98-3.23s1.07 2.98 4.91 3.87"/><path class="st5" d="M22.69 39l-3.02 4.03c-1.47 1.95-.59 4.77 1.73 5.54a3.58 3.58 0 004.7-3.07l.59-6.5M6.74 34.17l.81-.32c.93-.37 1.9.43 1.71 1.41l-.57 2.97"/><circle cx="12.69" cy="31" r="1"/></g></svg>