<svg data-name="Grupo 24923" xmlns="http://www.w3.org/2000/svg" width="70" height="70"><g data-name="Grupo 24921"><g data-name="Grupo 24920" fill="none"><g data-name="Grupo 24919" stroke-linecap="round" stroke-linejoin="round" stroke-width="2.4"><path data-name="Line 4" stroke="#19a301" d="M41.677 62.5h8.375"/><path data-name="Line 5" stroke="#19a301" d="M58.405 62.5h.679"/><path data-name="Line 6" stroke="#19a301" d="M10.916 62.5h8.298"/><path data-name="Line 7" stroke="#82d400" d="M18.674 62.5h14.628"/></g><path data-name="Rectángulo 7785" d="M0 55h70v15H0z"/></g></g><path data-name="Rectángulo 7786" fill="none" d="M0 0h70v70H0z"/><g data-name="Grupo 24922" fill="none" stroke-linecap="round" stroke-linejoin="round" stroke-width="1.5"><circle data-name="Ellipse 2" cx="5.795" cy="5.795" r="5.795" transform="translate(42.904 8.843)" stroke="#19a301"/><path data-name="Trazado 29277" d="M29.777 54.205h20.947V23.833" stroke="#000"/><path data-name="Trazado 29278" d="M40.49 10.568H15.506V40.68" stroke="#000"/><path data-name="Línea 3853" stroke="#000" d="M24.516 40.255h18.442"/><path data-name="Línea 3854" stroke="#000" d="M24.516 33.838h18.442"/><path data-name="Línea 3855" stroke="#000" d="M24.516 46.673h18.442"/><path data-name="Trazado 29279" d="M36.461 54.205H23.606a8.09 8.09 0 01-8.091-8.091V25.239" stroke="#000"/><path data-name="Rectángulo 7787" stroke="#000" d="M24.516 21.046h18.192v8.014H24.516z"/></g></svg>