<svg data-name="Capa 1" xmlns="http://www.w3.org/2000/svg" xmlns:xlink="http://www.w3.org/1999/xlink" viewBox="0 0 70 70"><defs><symbol id="a" data-name="OCENSA-EXT" viewBox="0 0 70 15"><path data-name="Line 4" fill="none" stroke="#19a301" stroke-linecap="round" stroke-linejoin="round" stroke-width="2.4" d="M41.68 7.5h8.37"/><path data-name="Line 5" fill="none" stroke="#19a301" stroke-linecap="round" stroke-linejoin="round" stroke-width="2.4" d="M58.4 7.5h.68"/><path data-name="Line 6" fill="none" stroke="#19a301" stroke-linecap="round" stroke-linejoin="round" stroke-width="2.4" d="M10.92 7.5h8.29"/><path data-name="Line 7" fill="none" stroke="#82d400" stroke-linecap="round" stroke-linejoin="round" stroke-width="2.4" d="M18.67 7.5H33.3"/><path fill="none" d="M0 0h70v15H0z"/></symbol></defs><circle data-name="Ellipse 2" cx="12.62" cy="24.17" r="5.14" fill="none" stroke="#19a301" stroke-linecap="round" stroke-linejoin="round" stroke-width="1.5"/><path fill="none" stroke="#000" stroke-linecap="round" stroke-linejoin="round" stroke-width="1.5" d="M12.23 43.06h48.02m-41.04-22.5h19.24A7.44 7.44 0 0145.89 28h0a7.44 7.44 0 01-7.44 7.44H17a7.45 7.45 0 01-6.77-4.33m39.98-7.93h4.35a1.29 1.29 0 011.22.9l1 3.49 2 1.17a2 2 0 011 1.77v4.93H47.8V25.6a2.41 2.41 0 012.41-2.42z"/><path d="M13.31 35.44h47.2a1.33 1.33 0 011.32 1.33h0a1.33 1.33 0 01-1.32 1.33h-47.2z" fill="none" stroke="#000" stroke-linecap="round" stroke-linejoin="round" stroke-width="1.5"/><circle cx="17.76" cy="38.71" r="3" fill="#fff" stroke="#000" stroke-linecap="round" stroke-linejoin="round" stroke-width="1.5"/><circle cx="25.63" cy="38.71" r="3" fill="#fff" stroke="#000" stroke-linecap="round" stroke-linejoin="round" stroke-width="1.5"/><circle cx="53.84" cy="38.71" r="3" fill="#fff" stroke="#000" stroke-linecap="round" stroke-linejoin="round" stroke-width="1.5"/><path fill="none" stroke="#000" stroke-linecap="round" stroke-linejoin="round" stroke-width="1.5" d="M59.88 35.44v2.66M19.21 18.53h3.42v2.03h-3.42zm11.93 0h3.42v2.03h-3.42zm25.69 9.04H47.8m3.74-4.39v4.39m7.4 4.95h.94v2.92h0-.94A1.46 1.46 0 0157.48 34v0a1.46 1.46 0 011.46-1.46zm-6.92-2.55h1.25"/><use width="70" height="15" transform="translate(0 55)" xlink:href="#a"/><path fill="none" d="M0 0h70v70H0z"/></svg>