<svg version="1.1" id="Layer_1" xmlns="http://www.w3.org/2000/svg" xmlns:xlink="http://www.w3.org/1999/xlink" x="0" y="0" viewBox="0 0 70 70" xml:space="preserve"><style>.st0{stroke:#19a301;stroke-width:2.4;stroke-linecap:round;stroke-linejoin:round}.st0,.st2,.st4{fill:none}.st4{stroke:#fff;stroke-width:1.5944;stroke-linecap:round;stroke-linejoin:round;stroke-miterlimit:10}</style><symbol id="OCENSA-EXT" viewBox="-35 -7.5 70 15"><path id="Line_4_1_" class="st0" d="M6.7 0h8.4"/><path id="Line_5_1_" class="st0" d="M23.4 0h.7"/><path id="Line_6_1_" class="st0" d="M-24.1 0h8.3"/><path id="Line_7_1_" fill="none" stroke="#82d400" stroke-width="2.4" stroke-linecap="round" stroke-linejoin="round" d="M-16.3 0h14.6"/><path class="st2" d="M-35-7.5h70v15h-70z"/></symbol><g id="Capa_2"><path class="st2" d="M0 0h70v70H0z"/><circle id="Ellipse_2_143_" cx="30" cy="20.5" r="5.8" fill="none" stroke="#19a301" stroke-width="1.5" stroke-linecap="round" stroke-linejoin="round"/><path class="st4" d="M30.4 29.5v8.6c-2 1.5-3.6 4.2-3.6 7.2 0 5 4 9 9 9s9-4 9-9c0-2.9-1.4-5.5-3.6-7.2V13.9c0-3-2.4-5.4-5.4-5.4-2.2 0-4.1 1.4-5 3.3m10.7 7h4.3m-4.3 4.8h4.3m-4.4 4.9h4.4"/><circle class="st4" cx="36" cy="45.3" r="3"/><defs><path id="SVGID_1_" d="M0 55h70v15H0z"/></defs><clipPath id="SVGID_2_"><use xlink:href="#SVGID_1_" overflow="visible"/></clipPath><g clip-path="url(#SVGID_2_)"><use xlink:href="#OCENSA-EXT" width="70" height="15" x="-35" y="-7.5" transform="matrix(1 0 0 -1 35 62.5)" overflow="visible"/></g></g></svg>