<svg xmlns="http://www.w3.org/2000/svg" width="29" height="42.396"><g data-name="Grupo 24883" transform="translate(15034 8795)"><circle data-name="Elipse 2754" cx="6" cy="6" r="6" transform="translate(-15026.23 -8764.604)" fill="#172211" opacity=".7" style="mix-blend-mode:multiply;isolation:isolate"/><path data-name="Trazado 12028" d="M-15019.5-8795a14.5 14.5 0 0114.5 14.5 14.5 14.5 0 01-14.5 14.5 14.5 14.5 0 01-14.5-14.5 14.5 14.5 0 0114.5-14.5z" fill="#ffff10"/><path data-name="Trazado 12029" d="M-15024.777-8768l4.95-4.95 4.95 4.95-4.95 9.396z" fill="#ffff10"/><g data-name="Group 13222" fill="none" stroke="#00009e" stroke-linecap="round" stroke-linejoin="round" stroke-width="1.4"><path data-name="Path 11404" d="M-15021.248-8785.86a2.973 2.973 0 01-2.974 2.972 2.972 2.972 0 01-2.972-2.974 2.973 2.973 0 012.973-2.972 2.966 2.966 0 012.973 2.957z"/><path data-name="Path 11405" d="M-15018.435-8788.361a8.159 8.159 0 015.232 2.378"/><path data-name="Path 11406" d="M-15024.775-8774.411a8.152 8.152 0 01-2.4-5.656"/><path data-name="Path 11407" d="M-15013.203-8785.984a8.183 8.183 0 010 11.573 8.182 8.182 0 01-11.572 0"/></g></g></svg>