<svg data-name="Grupo 23515" xmlns="http://www.w3.org/2000/svg" width="70" height="70"><g data-name="Grupo 23513"><g data-name="Grupo 23512" fill="none"><g data-name="Grupo 23511" stroke-linecap="round" stroke-linejoin="round" stroke-width="2.4"><path data-name="Line 4" stroke="#19a301" d="M41.677 62.5h8.375"/><path data-name="Line 5" stroke="#19a301" d="M58.405 62.5h.679"/><path data-name="Line 6" stroke="#19a301" d="M10.916 62.5h8.298"/><path data-name="Line 7" stroke="#82d400" d="M18.674 62.5h14.628"/></g><path data-name="Rectángulo 7244" d="M0 55h70v15H0z"/></g></g><g data-name="Grupo 23514" fill="none" stroke-linecap="round" stroke-linejoin="round"><path data-name="Trazado 29070" d="M18.538 26.93l.75 4.69 8.07 2.44h3.48l2.53-7.23 2.91 1.79-2.07 3.28.76 1.69 4.5-4.41 2.35.19 6.29-5.35-1.22-5.63 1.22-.47 1.59 2.44 1.69-.85 1.97-8.16L59.748 9l4.03 1.13-3.1 5.44-1.31 5.16-4.41 3.01.66 8.35 2.34-.09-1.03 5.91-1.88-.66-5.82 5.07-2.06-2.06-2.63 3.38 1.03 2.06-1.5 2.25-1.22-.65-.47 4.97-1.13 1.32-3.09-1.04-3.29-3h-2.91l-.19-1.6 1.79-1.87-.75-3.66-1.32-1.22h-.47l.1-1.41-3.48-3.1-4.03 3.66-4.88-2.25-1.51-6.1-6.66.56.52-2.263" stroke="#000" stroke-width="1.288"/><circle data-name="Ellipse 2" cx="5.795" cy="5.795" r="5.795" transform="translate(6.222 15.29)" stroke="#19a301" stroke-width="1.5"/></g><path data-name="Rectángulo 7245" fill="none" d="M0 0h70v70H0z"/></svg>