<svg data-name="Grupo 23008" xmlns="http://www.w3.org/2000/svg" width="70" height="70"><g data-name="Grupo 23010"><g data-name="Grupo 23009" fill="none"><g data-name="Grupo 23008" stroke-linecap="round" stroke-linejoin="round" stroke-width="2.4"><path data-name="Line 4" stroke="#19a301" d="M41.677 62.5h8.375"/><path data-name="Line 5" stroke="#19a301" d="M58.405 62.5h.679"/><path data-name="Line 6" stroke="#19a301" d="M10.916 62.5h8.298"/><path data-name="Line 7" stroke="#82d400" d="M18.674 62.5h14.628"/></g><path data-name="Rectángulo 7155" d="M0 55h70v15H0z"/></g></g><g data-name="Grupo 23011" transform="translate(11.455 8.218)" fill="none" stroke-width="1.5"><circle data-name="Ellipse 2" cx="5.795" cy="5.795" r="5.795" transform="translate(0 9.625)" stroke="#00a800" stroke-miterlimit="10"/><path data-name="Línea 3319" stroke="#fff" stroke-linecap="round" stroke-linejoin="round" d="M19.234 13.307v32.16"/><path data-name="Línea 3320" stroke="#fff" stroke-linecap="round" stroke-linejoin="round" d="M33.027 36.468v8.925"/><path data-name="Línea 3321" stroke="#fff" stroke-linecap="round" stroke-linejoin="round" d="M15.094 15.889l4.137 4.287"/><path data-name="Línea 3322" stroke="#fff" stroke-linecap="round" stroke-linejoin="round" d="M15.094 26.142l4.137 4.287"/><path data-name="Línea 3323" stroke="#fff" stroke-linecap="round" stroke-linejoin="round" d="M23.403 15.901l-4.137 4.287"/><path data-name="Línea 3324" stroke="#fff" stroke-linecap="round" stroke-linejoin="round" d="M23.403 26.154l-4.137 4.287"/><path data-name="Línea 3325" stroke="#fff" stroke-linecap="round" stroke-linejoin="round" d="M34.133 22.796l2.608-2.669"/><path data-name="Trazado 28990" d="M3.523 23.871a7.414 7.414 0 005.3 12.6h20.175a7.415 7.415 0 001.727-14.623 6 6 0 00-2.682-10.7A9.316 9.316 0 009.816 7.29" stroke="#fff" stroke-linecap="round" stroke-linejoin="round"/><path data-name="Trazado 28991" d="M25.011 36.475h16.143a5.933 5.933 0 001.381-11.7 4.8 4.8 0 00-2.145-8.56 7.548 7.548 0 00.146-1.467 7.454 7.454 0 00-11.939-5.954" stroke="#fff" stroke-linecap="round" stroke-linejoin="round"/><path data-name="Línea 3326" stroke="#fff" stroke-linecap="round" stroke-linejoin="round" d="M41.986 45.782h-37"/></g><path data-name="Rectángulo 7156" fill="none" d="M0 0h70v70H0z"/></svg>