<svg xmlns="http://www.w3.org/2000/svg" width="70" height="70"><g data-name="Group 22444" transform="translate(270)"><g data-name="Group 22445" fill="none"><g data-name="Group 22444" stroke-linecap="round" stroke-linejoin="round" stroke-width="2.4"><path data-name="Line 4" stroke="#19a301" d="M-228.323 62.5h8.375"/><path data-name="Line 5" stroke="#19a301" d="M-211.595 62.5h.679"/><path data-name="Line 6" stroke="#19a301" d="M-259.084 62.5h8.298"/><path data-name="Line 7" stroke="#82d400" d="M-251.326 62.5h14.628"/></g><path data-name="Rectangle 6909" d="M-270 55h70v15h-70z"/></g><path data-name="Rectangle 6910" fill="none" d="M-270 0h70v70h-70z"/><circle data-name="Ellipse 2" cx="5.795" cy="5.795" r="5.795" transform="translate(-264.986 18.843)" fill="none" stroke="#19a301" stroke-linecap="round" stroke-linejoin="round" stroke-width="1.5"/><path data-name="Rectángulo 2137" fill="none" stroke="#000" stroke-linecap="round" stroke-linejoin="round" stroke-width="1.5" d="M-231.142 33.183h17.581v20.911h-17.581z"/><path data-name="Trazado 5455" d="M-247.542 11.706h-11.1V15.7" fill="none" stroke="#000" stroke-linecap="round" stroke-linejoin="round" stroke-width="1.5"/><path data-name="Trazado 5456" d="M-258.643 33.816v20.278h11.1V12.126" fill="none" stroke="#000" stroke-linecap="round" stroke-linejoin="round" stroke-width="1.5"/><path data-name="Path 28563" d="M-247.556 33.184h5.983a4.021 4.021 0 013.857 4.158v5.983a4 4 0 003.842 4.145h2.594" fill="none" stroke="#000" stroke-linecap="round" stroke-linejoin="round" stroke-width="1.5"/><path data-name="Trazado 5459" d="M-247.236 16.276h.684c2.832 0 5.125 1.858 5.125 4.151V54.1" fill="none" stroke="#000" stroke-linecap="round" stroke-linejoin="round" stroke-width="1.5"/><path data-name="Línea 708" fill="none" stroke="#000" stroke-linecap="round" stroke-linejoin="round" stroke-width="1.659" d="M-208 54.094h-55.426"/><path data-name="Trazado 5460" d="M-222.16 38.552c-.664 1.67-1.348 3.325-2.028 4.99-.545 1.328-1.2 2.776-.239 4.083a2.866 2.866 0 002.267 1.193 2.935 2.935 0 002.667-1.909c.482-1.2-.1-2.552-.618-3.621-.622-1.288-2.095-4.622-2.049-4.736z" fill="none" stroke="#000" stroke-linecap="round" stroke-linejoin="round" stroke-width="1.5"/><path data-name="Rectangle 6911" fill="none" stroke="#000" stroke-linecap="round" stroke-linejoin="round" stroke-width="1.5" d="M-235.389 14.376h26.075v12.351h-26.075z"/><path data-name="Line 3079" fill="none" stroke="#000" stroke-linecap="round" stroke-linejoin="round" stroke-width="1.5" d="M-222.115 26.727v6.457"/><g data-name="Group 22446" stroke="#000" stroke-miterlimit="10" stroke-width=".437"><path data-name="Path 28564" d="M-226.368 22.188l.011.031a2.313 2.313 0 01-.762 1.814 2.906 2.906 0 01-2.067.73 2.714 2.714 0 01-2.128-.926 3.4 3.4 0 01-.822-2.348V20.12a3.414 3.414 0 01.822-2.35 2.713 2.713 0 012.128-.928 2.986 2.986 0 012.078.7 2.3 2.3 0 01.751 1.843l-.011.031h-1a1.717 1.717 0 00-.476-1.279 1.831 1.831 0 00-1.343-.471 1.643 1.643 0 00-1.391.7 2.867 2.867 0 00-.518 1.746v1.379a2.879 2.879 0 00.518 1.756 1.641 1.641 0 001.391.7 1.838 1.838 0 001.343-.467 1.735 1.735 0 00.476-1.293z"/><path data-name="Path 28565" d="M-221.027 22.669h-2.9l-.687 1.983h-1.063l2.776-7.7h.894l2.717 7.7h-1.063zm-2.6-.873h2.3l-1.121-3.305h-.032z"/><path data-name="Path 28566" d="M-212.567 16.953v5.113a2.485 2.485 0 01-.825 1.983 3.133 3.133 0 01-2.126.714 2.951 2.951 0 01-2.051-.717 2.522 2.522 0 01-.8-1.98v-5.113h1.042v5.113a1.855 1.855 0 00.505 1.382 1.773 1.773 0 001.3.5 1.929 1.929 0 001.377-.5 1.8 1.8 0 00.532-1.382v-5.113z"/></g></g></svg>