<svg version="1.1" id="Layer_1" xmlns="http://www.w3.org/2000/svg" x="0" y="0" viewBox="0 0 70 70" xml:space="preserve"><style>.st0{fill:none}.st1,.st4{fill:none;stroke:#19a301;stroke-width:2.4;stroke-linecap:round;stroke-linejoin:round}.st4{stroke:#fff;stroke-width:1.5;stroke-miterlimit:10}</style><path class="st0" d="M0 0h70v70H0z"/><path class="st0" d="M0 55h70v15H0z"/><path id="Line_4_1_" class="st1" d="M41.7 62.5h8.4"/><path id="Line_5_1_" class="st1" d="M58.4 62.5h.7"/><path id="Line_6_1_" class="st1" d="M10.9 62.5h8.3"/><path id="Line_7_1_" fill="none" stroke="#82d400" stroke-width="2.4" stroke-linecap="round" stroke-linejoin="round" d="M18.7 62.5h14.6"/><circle id="Ellipse_2_2_" cx="15.7" cy="22" r="5.8" fill="none" stroke="#19a301" stroke-width="1.5" stroke-linecap="round" stroke-linejoin="round"/><path class="st4" d="M54.5 22.4v29.2h-39V30.7m0-17.2v-3h31.9"/><path class="st4" d="M50.1 21.1v5.8H26V15.6h20.5M20.6 33.2h5.5m6.1 0h5.6m6.1 0h5.5m-28.8 5.5h5.5m6.1 0h5.6m6.1 0h5.5m5.1 1.5h4.6v9.5h-4.6z"/><path class="st4" d="M30.5 26.9c0-4 3.3-7.3 7.3-7.3s7.3 3.3 7.3 7.3m-7.3 0l1.6-3.7"/><circle class="st4" cx="54.5" cy="14.3" r="8"/><path class="st4" d="M54.5 14.2c-1.1 0-2-.9-2-2s.9-2 2-2 2 .9 2 2m-2 2c1.2 0 2.2 1 2.2 2.2 0 1.2-1 2.2-2.2 2.2-1.2 0-2.2-1-2.2-2.2m2.3-6.2V8.6m0 11.5v-1.6"/></svg>