<svg xmlns="http://www.w3.org/2000/svg" xmlns:xlink="http://www.w3.org/1999/xlink" viewBox="0 0 70 70"><style>.st0{stroke:#19a301;stroke-width:2.4;stroke-linecap:round;stroke-linejoin:round}.st0,.st2{fill:none}</style><symbol id="OCENSA-EXT" viewBox="-35 -7.5 70 15"><path id="Line_4_2_" class="st0" d="M6.68 0h8.37"/><path id="Line_5_2_" class="st0" d="M23.41 0h.67"/><path id="Line_6_2_" class="st0" d="M-24.08 0h8.29"/><path id="Line_7_2_" fill="none" stroke="#82d400" stroke-width="2.4" stroke-linecap="round" stroke-linejoin="round" d="M-16.33 0H-1.7"/><path class="st2" d="M-35-7.5h70v15h-70z"/></symbol><g id="Capa_1"><use xlink:href="#OCENSA-EXT" width="70" height="15" x="-35" y="-7.5" transform="matrix(1 0 0 -1 35 62.5)" overflow="visible"/><path class="st2" d="M0 0h70v70H0z"/><g fill="none" stroke-width="1.5" stroke-linecap="round" stroke-linejoin="round"><circle id="Ellipse_2_182_" cx="48.39" cy="44.64" r="5.8" stroke="#19a301"/><path stroke="#000" stroke-miterlimit="10" d="M53.07 37.56l3.75-3.06-1.87-2.95-4.4 3.38-4.32-6.62 3.03-3.96-6.19-6.41L29.82 29.1h-6.63l-1.73-4.32 3.75-10.73-2.52-5.19-5.19 2.24.72 10.08-1.94-2.16-3.1 4.32 7.85 8.64-5.91 2.52 2.38 10.44 7.06-.5L25.82 54h6l1.31-2.51 4.61 3.61 2.66-2.81 3.47-.6"/></g></g></svg>