<svg data-name="Grupo 23644" xmlns="http://www.w3.org/2000/svg" width="70" height="70"><path data-name="Línea 3872" fill="none" stroke="#000" stroke-linecap="round" stroke-linejoin="round" stroke-width="1.5" d="M7 25.205h3.298"/><path data-name="Línea 3873" fill="none" stroke="#000" stroke-linecap="round" stroke-linejoin="round" stroke-width="1.5" d="M35.855 15.172l2.305-2.357"/><path data-name="Línea 3874" fill="none" stroke="#000" stroke-linecap="round" stroke-linejoin="round" stroke-width="1.5" d="M12.112 12.815l2.306 2.357"/><path data-name="Línea 3875" fill="none" stroke="#000" stroke-linecap="round" stroke-linejoin="round" stroke-width="1.5" d="M25.137 8.387v3.297"/><path data-name="Trazado 29172" d="M20.521 37.076A11.212 11.212 0 0125.8 15.971c5.724 0 10.445 4.963 11.117 10.516" fill="none" stroke="#000" stroke-linecap="round" stroke-linejoin="round" stroke-width="1.5"/><path data-name="Trazado 29173" d="M54.334 35.776a9.773 9.773 0 01-.8 1.964A7.564 7.564 0 0160 45.22v.68a7.573 7.573 0 01-7.58 7.57H21.41a7.571 7.571 0 01-7.57-7.57v-.68a7.573 7.573 0 017.25-7.56v-.01a8.571 8.571 0 0114.05-6.6 9.9 9.9 0 0111.148-7.8" fill="none" stroke="#000" stroke-linecap="round" stroke-linejoin="round" stroke-width="1.5"/><circle data-name="Ellipse 2" cx="5.795" cy="5.795" r="5.795" transform="translate(48.12 21.12)" fill="none" stroke="#19a301" stroke-linecap="round" stroke-linejoin="round" stroke-width="1.5"/><g data-name="Grupo 23643"><g data-name="Grupo 23642" fill="none"><g data-name="Grupo 23641" stroke-linecap="round" stroke-linejoin="round" stroke-width="2.4"><path data-name="Line 4" stroke="#19a301" d="M41.677 62.5h8.375"/><path data-name="Line 5" stroke="#19a301" d="M58.405 62.5h.679"/><path data-name="Line 6" stroke="#19a301" d="M10.916 62.5h8.298"/><path data-name="Line 7" stroke="#82d400" d="M18.674 62.5h14.628"/></g><path data-name="Rectángulo 7288" d="M0 55h70v15H0z"/></g></g><path data-name="Rectángulo 7289" fill="none" d="M0 0h70v70H0z"/></svg>