<svg xmlns="http://www.w3.org/2000/svg" width="200" height="200"><g data-name="Grupo 24995"><path data-name="Trazado 29441" d="M100 0A100 100 0 110 100 100 100 0 01100 0z" fill="#6d7f89"/><g data-name="Grupo 24913"><path data-name="Rectángulo 7965" fill="none" d="M66 64.794h70v70H66z"/><g data-name="Grupo 24965" fill="none" stroke="#fff" stroke-linecap="round" stroke-linejoin="round" stroke-width="1.5" transform="translate(66 64.794)"><g data-name="Grupo 24964"><circle data-name="Ellipse 2" cx="5.795" cy="5.795" r="5.795" transform="translate(12.383 9.149)"/><path data-name="Trazado 29885" d="M45.655 9.941v8h7.323"/><path data-name="Trazado 29886" d="M16.8 24.284v19.649A10.366 10.366 0 0027.167 54.3h25.811V17.943"/><path data-name="Trazado 29887" d="M52.969 17.784l-7.475-8.327-1.75.016H25.489"/><path data-name="Línea 4200" d="M27.041 44.171h16.85"/><path data-name="Línea 4201" d="M27.041 49.404h16.85"/></g><path data-name="Trazado 29888" d="M42 26c0 3.866-7 13-7 13s-7-9.134-7-13a7 7 0 0114 0z"/><circle data-name="Elipse 3265" cx="3" cy="3" r="3" transform="translate(32 22)"/></g><g data-name="Grupo 24968"><g data-name="Grupo 24967" fill="none"><g data-name="Grupo 24966" stroke-linecap="round" stroke-linejoin="round" stroke-width="2.4"><path data-name="Line 4" stroke="#fff" d="M107.677 127.294h8.375"/><path data-name="Line 5" stroke="#82d400" d="M124.405 127.294h.679"/><path data-name="Line 6" stroke="#fff" d="M76.916 127.294h8.298"/><path data-name="Line 7" stroke="#82d400" d="M84.674 127.294h14.628"/></g><path data-name="Rectángulo 7966" d="M66 119.794h70v15H66z"/></g></g></g></g></svg>