<svg xmlns="http://www.w3.org/2000/svg" width="70" height="70"><g data-name="Grupo 24747"><g data-name="Grupo 24753" fill="none"><g data-name="Grupo 24748"><g data-name="Grupo 24747" stroke-linecap="round" stroke-linejoin="round" stroke-width="2.4"><path data-name="Line 4" stroke="#19a301" d="M41.677 62.5h8.375"/><path data-name="Line 5" stroke="#19a301" d="M58.405 62.5h.679"/><path data-name="Line 6" stroke="#19a301" d="M10.916 62.5h8.298"/><path data-name="Line 7" stroke="#82d400" d="M18.674 62.5h14.628"/></g><path data-name="Rectángulo 7899" d="M0 55h70v15H0z"/></g><path data-name="Rectángulo 7900" d="M0 0h70v70H0z"/><path data-name="Rectángulo 7901" d="M0 0h70v70H0z"/><g data-name="Grupo 24752" stroke-linecap="round" stroke-linejoin="round" stroke-width="1.5"><g data-name="Grupo 24749" transform="translate(0 90)"><circle data-name="Ellipse 2" cx="5.795" cy="5.795" r="5.795" transform="translate(10.765 -81.157)" stroke="#19a301"/><path data-name="Trazado 29749" d="M37.207-36.127H23.925a8.36 8.36 0 01-8.36-8.36v-21.754" stroke="#000"/><path data-name="Línea 4096" stroke="#000" d="M51.95-50.1v-.5"/><path data-name="Trazado 29750" d="M51.95-67.84v-5.91l-7.22-7.46H24.17" stroke="#000"/><path data-name="Trazado 29751" d="M44.586-81.214v8.048h7.366" stroke="#000"/><path data-name="Línea 4097" stroke="#000" d="M24.523-64.226h19.055"/><path data-name="Línea 4098" stroke="#000" d="M24.523-58.226h19.055"/><path data-name="Línea 4099" stroke="#000" d="M24.523-52.226h19.055"/><path data-name="Línea 4100" stroke="#000" d="M42.806-46.23H24.519"/><path data-name="Trazado 29752" d="M30.3-36.13h13.28a8.356 8.356 0 008.36-8.36v-6.09" stroke="#000"/></g><g data-name="Grupo 24751" stroke="#000"><path data-name="Rectángulo 7902" d="M53.337 22.889l5.53 2.786L47.233 48.76l-5.529-2.787z"/><g data-name="Grupo 24750"><path data-name="Rectángulo 7903" d="M59.084 18.378h0a3.1 3.1 0 011.372 4.164l-1.585 3.143h0l-5.536-2.792h0l1.585-3.143a3.1 3.1 0 014.164-1.372z"/><path data-name="Trazado 29753" d="M41.677 46.008l.693 5.5 4.836-2.708"/><path data-name="Trazado 29754" d="M53.349 22.866l-2.839-1.432-3.428 6.8"/></g></g></g></g></g></svg>