<svg version="1.1" id="Layer_1" xmlns="http://www.w3.org/2000/svg" x="0" y="0" viewBox="0 0 70 70" xml:space="preserve"><style>.st0{fill:none}.st1,.st4{fill:none;stroke:#19a301;stroke-width:2.4;stroke-linecap:round;stroke-linejoin:round}.st4{stroke:#fff;stroke-width:1.5;stroke-miterlimit:10}</style><path class="st0" d="M0 0h70v70H0z"/><path class="st0" d="M0 55h70v15H0z"/><path id="Line_4_1_" class="st1" d="M41.7 62.5h8.4"/><path id="Line_5_1_" class="st1" d="M58.4 62.5h.7"/><path id="Line_6_1_" class="st1" d="M10.9 62.5h8.3"/><path id="Line_7_1_" fill="none" stroke="#82d400" stroke-width="2.4" stroke-linecap="round" stroke-linejoin="round" d="M18.7 62.5h14.6"/><circle id="Ellipse_2_2_" cx="13.9" cy="20.8" r="5.8" fill="none" stroke="#19a301" stroke-width="1.5" stroke-linecap="round" stroke-linejoin="round"/><path class="st4" d="M62.3 19.5v29.4H13.5V29.3"/><path class="st4" d="M62.3 19.5L37 33.7l-15.9-9.6"/><path id="XMLID_41_" transform="rotate(-29.842 54.238 14.276)" class="st4" d="M51.4 9.9h5.7v8.7h-5.7z"/><path id="XMLID_40_" class="st4" d="M33.4 24.5L51 14.4l1.5 2.6L35 27z"/><path id="XMLID_39_" class="st4" d="M62.3 19.5l-7.7 4.4-2-3.7 7.6-4.4z"/><path id="XMLID_38_" transform="rotate(-29.842 51.017 8.663)" class="st4" d="M46.6 6.5h8.8v4.3h-8.8z"/><path class="st4" d="M42.5 19.2H23"/></svg>