<svg data-name="Capa 1" xmlns="http://www.w3.org/2000/svg" xmlns:xlink="http://www.w3.org/1999/xlink" viewBox="0 0 70 70"><defs><symbol id="a" data-name="OCENSA-EXT" viewBox="0 0 70 15"><path data-name="Line 4" fill="none" stroke="#19a301" stroke-linecap="round" stroke-linejoin="round" stroke-width="2.4" d="M41.68 7.5h8.37"/><path data-name="Line 5" fill="none" stroke="#19a301" stroke-linecap="round" stroke-linejoin="round" stroke-width="2.4" d="M58.4 7.5h.68"/><path data-name="Line 6" fill="none" stroke="#19a301" stroke-linecap="round" stroke-linejoin="round" stroke-width="2.4" d="M10.92 7.5h8.29"/><path data-name="Line 7" fill="none" stroke="#82d400" stroke-linecap="round" stroke-linejoin="round" stroke-width="2.4" d="M18.67 7.5H33.3"/><path fill="none" d="M0 0h70v15H0z"/></symbol></defs><use width="70" height="15" transform="translate(0 55)" xlink:href="#a"/><circle data-name="Ellipse 2" cx="10.17" cy="24.31" r="5.8" fill="none" stroke="#19a301" stroke-linecap="round" stroke-linejoin="round" stroke-width="1.5"/><path data-name="Línea 2918" fill="none" stroke="#000" stroke-linecap="round" stroke-linejoin="round" stroke-width="1.5" d="M6.69 54.01h58.93"/><path d="M10.79 15.44A3.46 3.46 0 0114.24 12h9.55a3.46 3.46 0 013.45 3.45v22" fill="none" stroke="#000" stroke-linecap="round" stroke-linejoin="round" stroke-width="1.5"/><path data-name="Línea 2919" fill="none" stroke="#000" stroke-linecap="round" stroke-linejoin="round" stroke-width="1.5" d="M10.79 54.01V33.09"/><path data-name="Trazado 12588" d="M44.76 53.92V40.55a3.32 3.32 0 013.32-3.32h10.1a3.32 3.32 0 013.32 3.32V54" fill="none" stroke="#000" stroke-linecap="round" stroke-linejoin="round" stroke-width="1.5"/><path data-name="Trazado 12589" d="M38.4 53.92V31.37A3.33 3.33 0 0141.72 28h8A3.32 3.32 0 0153 31.37v5.69" fill="none" stroke="#000" stroke-linecap="round" stroke-linejoin="round" stroke-width="1.5"/><path fill="none" stroke="#000" stroke-linecap="round" stroke-linejoin="round" stroke-width="1.5" d="M44.76 46.04H61.5M27.24 23.56h-6.23m6.23 4.41h-4.01m22.49 22.86h3.81M10.88 37.47h27.54M32.94 8.96h26.07v12.35H32.94zm13.28 12.35v6.46"/><path d="M37.8 15.88v2.75h-1.61v-7.82h3.05a3.61 3.61 0 011.55.32 2.37 2.37 0 011 .92 2.57 2.57 0 01.36 1.35 2.22 2.22 0 01-.79 1.81 3.23 3.23 0 01-2.18.67zm0-1.31h1.44a1.44 1.44 0 001-.3 1.11 1.11 0 00.33-.86 1.29 1.29 0 00-.34-.93 1.23 1.23 0 00-.93-.36h-1.5zm11.4-3.76V16a2.6 2.6 0 01-.8 2 3.08 3.08 0 01-2.19.75A3.15 3.15 0 0144 18a2.63 2.63 0 01-.82-2v-5.19h1.61V16a1.45 1.45 0 00.37 1.12 1.38 1.38 0 001 .36c.9 0 1.36-.48 1.38-1.43v-5.24zm6.03 4.43h-3.09v2.1h3.63v1.29h-5.24v-7.82h5.23v1.31h-3.62V14h3.09z"/><path fill="none" d="M0 0h70v70H0z"/></svg>