<svg xmlns="http://www.w3.org/2000/svg" width="70" height="70"><g data-name="Grupo 24457" fill="none"><g data-name="Grupo 23884"><g data-name="Grupo 23883" stroke-linecap="round" stroke-linejoin="round" stroke-width="2.4"><path data-name="Line 4" stroke="#19a301" d="M41.677 62.5h8.375"/><path data-name="Line 5" stroke="#19a301" d="M58.405 62.5h.679"/><path data-name="Line 6" stroke="#19a301" d="M10.916 62.5h8.298"/><path data-name="Line 7" stroke="#82d400" d="M18.674 62.5h14.628"/></g><path data-name="Rectángulo 7360" d="M0 55h70v15H0z"/></g><path data-name="Rectángulo 7361" d="M0 0h70v70H0z"/><g data-name="Grupo 24456" transform="translate(-299.506 -421.082)" stroke-linecap="round" stroke-linejoin="round" stroke-width="1.5"><circle data-name="Ellipse 2" cx="5.795" cy="5.795" r="5.795" transform="translate(325.828 462.974)" stroke="#19a301"/><path data-name="Path 29348" d="M322.5 467.827l-3.6.758-1.244 5.293-5.68-4.4 1.039-6-3-4.715 1.963-2.231-3.822-2.354 3.822-7.8v-11l6.924-2.436 10.131.008 3.268 6.6-3.268.71-3.984-2.974-5.178 3.787v3.891l14.582 1.416 8.42-9.094 15.357 2.264-3.55 10.493 5.279 2.8-1.729 5.917 1.729 4.715-2.713 5.111-2.566-5.111-10.8 8.967-1.006-2.967h-2.733" stroke="#000"/></g></g></svg>