<svg data-name="Capa 1" xmlns="http://www.w3.org/2000/svg" xmlns:xlink="http://www.w3.org/1999/xlink" viewBox="0 0 70 70"><defs><symbol id="a" data-name="OCENSA-EXT" viewBox="0 0 70 15"><path data-name="Line 4" fill="none" stroke="#19a301" stroke-linecap="round" stroke-linejoin="round" stroke-width="2.4" d="M41.68 7.5h8.37"/><path data-name="Line 5" fill="none" stroke="#19a301" stroke-linecap="round" stroke-linejoin="round" stroke-width="2.4" d="M58.4 7.5h.68"/><path data-name="Line 6" fill="none" stroke="#19a301" stroke-linecap="round" stroke-linejoin="round" stroke-width="2.4" d="M10.92 7.5h8.29"/><path data-name="Line 7" fill="none" stroke="#82d400" stroke-linecap="round" stroke-linejoin="round" stroke-width="2.4" d="M18.67 7.5H33.3"/><path fill="none" d="M0 0h70v15H0z"/></symbol></defs><circle data-name="Ellipse 2" cx="20.39" cy="13.14" r="5.14" fill="none" stroke="#19a301" stroke-linecap="round" stroke-linejoin="round" stroke-width="1.5"/><path fill="none" stroke="#000" stroke-linecap="round" stroke-linejoin="round" stroke-width="1.5" d="M18.81 21.39v22.48h20.95V11.13h-11.3M23.43 33h11.5m-11.5 5.13h11.5m4.83-3.15h6.07m-6.07 5.13h6.07"/><path data-name="Trazado 5460" d="M29 17.25c-.66 1.67-1.35 3.33-2 5-.54 1.33-1.19 2.78-.24 4.09A2.89 2.89 0 0029 27.52a2.93 2.93 0 002.67-1.91c.48-1.2-.11-2.55-.62-3.62-.64-1.29-2.11-4.62-2.05-4.74z" fill="none" stroke="#000" stroke-linecap="round" stroke-linejoin="round" stroke-width="1.5"/><path fill="none" stroke="#000" stroke-linecap="round" stroke-linejoin="round" stroke-width="1.5" d="M39.76 16.47h9.13v32.94H27.98v-5.54"/><use width="70" height="15" transform="translate(0 55)" xlink:href="#a"/><path fill="none" d="M0 0h70v70H0z"/></svg>