<svg xmlns="http://www.w3.org/2000/svg" width="200" height="200"><g data-name="Grupo 24891"><path data-name="Trazado 29515" d="M100 0A100 100 0 110 100 100 100 0 01100 0z" fill="#8e9aa2"/><g data-name="Grupo 24859"><g data-name="Grupo 24855"><g data-name="Grupo 24854" fill="none"><g data-name="Grupo 24853" stroke-linecap="round" stroke-linejoin="round" stroke-width="2.4"><path data-name="Line 4" stroke="#fff" d="M106.677 127.5h8.375"/><path data-name="Line 5" stroke="#19a301" d="M123.405 127.5h.679"/><path data-name="Line 6" stroke="#fff" d="M75.916 127.5h8.298"/><path data-name="Line 7" stroke="#82d400" d="M83.674 127.5h14.628"/></g><path data-name="Rectángulo 7946" d="M65 120h70v15H65z"/></g></g><g data-name="Grupo 24858" transform="translate(65 65)"><circle data-name="Ellipse 2" cx="5.795" cy="5.795" r="5.795" transform="translate(48.333 19.367)" fill="none" stroke="#fff" stroke-linecap="round" stroke-linejoin="round" stroke-width="1.5"/><g data-name="Grupo 24856" fill="none" stroke="#fff" stroke-linecap="round" stroke-linejoin="round" stroke-width="1.5"><path data-name="Línea 1013" d="M21.716 26.021v4.292"/><path data-name="Línea 1014" d="M28.002 26.021v4.292"/><path data-name="Trazado 5700" d="M30.825 31.591L28 30.323"/><path data-name="Línea 4169" d="M39.585 53.71v-4.79"/><path data-name="Trazado 5700" d="M39.64 53.707H10.077v-13.94a6.793 6.793 0 011.1-3.82 5.123 5.123 0 012.062-1.841l8.476-3.793"/><path data-name="Línea 1016" d="M24.859 33.876l-3.143-3.563"/><path data-name="Línea 1017" d="M24.859 33.876l3.143-3.563"/><path data-name="Trazado 5701" d="M30.754 21.006a5.919 5.919 0 01-11.839 0"/><path data-name="Trazado 5702" d="M18.91 21.006v-4.087a5.92 5.92 0 0111.839 0v4.087"/></g><path data-name="Trazado 29839" d="M55.971 33.689a12.8 12.8 0 01-17.7 14.731" fill="none" stroke="#fff" stroke-linecap="round" stroke-linejoin="round" stroke-width="1.5"/><path data-name="Trazado 29840" d="M38.274 48.42a12.8 12.8 0 017.811-24.2" fill="none" stroke="#fff" stroke-linecap="round" stroke-linejoin="round" stroke-width="1.5"/><g data-name="Grupo 24857" fill="#fff"><path data-name="Rectángulo 7947" d="M42.501 33.82h3.344v9.163h-3.344z"/><path data-name="Rectángulo 7948" d="M40.27 42.984h8.038v.857H40.27z"/><path data-name="Rectángulo 7949" d="M40.672 32.963h5.174v.857h-5.174z"/><circle data-name="Elipse 3265" cx="1.53" cy="1.53" r="1.53" transform="translate(42.57 29.049)"/></g></g><path data-name="Rectángulo 7950" fill="none" d="M65 65h70v70H65z"/></g></g></svg>