<svg version="1.1" id="Layer_1" xmlns="http://www.w3.org/2000/svg" x="0" y="0" viewBox="0 0 70 70" xml:space="preserve"><style>.st0,.st1{fill:none}.st1{stroke:#19a301;stroke-linecap:round;stroke-linejoin:round}.st1,.st2{stroke-width:2.4}.st2,.st4{fill:none;stroke-linecap:round;stroke-linejoin:round}.st2{stroke:#82d400}.st4{stroke:#000;stroke-width:1.5;stroke-miterlimit:10}</style><path class="st0" d="M0 0h70v70H0z"/><path class="st0" d="M0 55h70v15H0z"/><path id="Line_4_15_" class="st1" d="M41.7 62.5h8.4"/><path id="Line_5_15_" class="st1" d="M58.4 62.5h.7"/><path id="Line_6_15_" class="st1" d="M10.9 62.5h8.3"/><path id="Line_7_15_" class="st2" d="M18.7 62.5h14.6"/><path class="st0" d="M0 0h70v70H0z"/><path class="st0" d="M0 55h70v15H0z"/><path id="Line_4_14_" class="st1" d="M41.7 62.5h8.4"/><path id="Line_5_14_" class="st1" d="M58.4 62.5h.7"/><path id="Line_6_14_" class="st1" d="M10.9 62.5h8.3"/><path id="Line_7_14_" class="st2" d="M18.7 62.5h14.6"/><path class="st4" d="M33.4 26.9l3 3.5 8-9.5"/><path d="M27.2 11.7c0-1.3-.5-2.5-1.3-3.3-.9-1-2.2-1.6-3.6-1.6-2.7 0-4.9 2.2-4.9 4.9s2.2 4.9 4.9 4.9 4.9-2.2 4.9-4.9z" fill="none" stroke="#19a301" stroke-width="1.5" stroke-linecap="round" stroke-linejoin="round"/><path class="st4" d="M46 10.8V18h6.6M20 20.4v21c0 5.2 4.2 9.4 9.4 9.4h23.3V18"/><path class="st4" d="M52.6 17.8l-6.7-7.5h-15m-2.3 33.5h15.2m-12.4-4.1H41M42.4 28c0 1.6-.6 3-1.6 4.1-1.1 1.2-2.7 1.9-4.4 1.9-3.4 0-6.1-2.7-6.1-6.1s2.7-6.1 6.1-6.1 6 2.9 6 6.2z"/></svg>