<svg data-name="Capa 1" xmlns="http://www.w3.org/2000/svg" xmlns:xlink="http://www.w3.org/1999/xlink" viewBox="0 0 70 70"><defs><symbol id="a" data-name="OCENSA-EXT" viewBox="0 0 70 15"><path data-name="Line 4" fill="none" stroke="#19a301" stroke-linecap="round" stroke-linejoin="round" stroke-width="2.4" d="M41.68 7.5h8.37"/><path data-name="Line 5" fill="none" stroke="#19a301" stroke-linecap="round" stroke-linejoin="round" stroke-width="2.4" d="M58.4 7.5h.68"/><path data-name="Line 6" fill="none" stroke="#19a301" stroke-linecap="round" stroke-linejoin="round" stroke-width="2.4" d="M10.92 7.5h8.29"/><path data-name="Line 7" fill="none" stroke="#82d400" stroke-linecap="round" stroke-linejoin="round" stroke-width="2.4" d="M18.67 7.5H33.3"/><path fill="none" d="M0 0h70v15H0z"/></symbol></defs><use width="70" height="15" transform="translate(0 55)" xlink:href="#a"/><path fill="none" d="M0 0h70v70H0z"/><circle data-name="Ellipse 2" cx="48.39" cy="44.64" r="5.8" fill="none" stroke="#19a301" stroke-linecap="round" stroke-linejoin="round" stroke-width="1.5"/><path fill="none" stroke="#fff" stroke-linecap="round" stroke-linejoin="round" stroke-width="1.5" d="M53.07 37.56l3.75-3.06-1.87-2.95-4.4 3.38-4.32-6.62 3.03-3.96-6.19-6.41L29.82 29.1h-6.63l-1.73-4.32 3.75-10.73-2.52-5.19-5.19 2.24.72 10.08-1.94-2.16-3.1 4.32 7.85 8.64-5.91 2.52 2.38 10.44 7.06-.5L25.82 54h6l1.31-2.51 4.61 3.61 2.66-2.81 3.47-.6"/></svg>