<svg xmlns="http://www.w3.org/2000/svg" xmlns:xlink="http://www.w3.org/1999/xlink" viewBox="0 0 70 70"><style>.st0{stroke:#19a301;stroke-width:2.4;stroke-linecap:round;stroke-linejoin:round}.st0,.st2,.st5{fill:none}.st5{stroke:#000;stroke-width:1.5;stroke-linecap:round;stroke-linejoin:round;stroke-miterlimit:10}</style><symbol id="OCENSA-EXT" viewBox="-35 -7.5 70 15"><path id="Line_4_2_" class="st0" d="M6.68 0h8.37"/><path id="Line_5_2_" class="st0" d="M23.41 0h.67"/><path id="Line_6_2_" class="st0" d="M-24.08 0h8.29"/><path id="Line_7_2_" fill="none" stroke="#82d400" stroke-width="2.4" stroke-linecap="round" stroke-linejoin="round" d="M-16.33 0H-1.7"/><path class="st2" d="M-35-7.5h70v15h-70z"/></symbol><g id="Capa_1"><use xlink:href="#OCENSA-EXT" width="70" height="15" x="-35" y="-7.5" transform="matrix(1 0 0 -1 35 62.5)" overflow="visible"/><path class="st2" d="M0 0h70v70H0z"/><circle id="Ellipse_2_146_" cx="8.78" cy="22.09" r="5.8" fill="none" stroke="#19a301" stroke-width="1.5" stroke-linecap="round" stroke-linejoin="round"/><path class="st5" d="M35.85 26.31a5.947 5.947 0 00-4.65-2.23c-3.09 0-5.64 2.36-5.92 5.38-.04.41-.18.81-.41 1.16"/><path class="st5" d="M16.2 26.23c3.8 2.05 7.49 3.83 8.66 4.39.25.12.38.18.38.18 1.4.73 2.32 1.91 2.32 3.25 0 2.22-2.52 4.02-5.62 4.02-.53 0-1.05-.05-1.54-.15-1.66-.34-3-1.2-3.65-2.33m-1.1-3.53c-.39-.05-.76-.11-1.11-.16-2.11-.33-3.68-.67-4.83-1m4.84.99s-10.76 5.79 4.62 3.36"/><path class="st5" d="M20.41 37.92l-9.11 16.4c-.21.37.16.8.56.65 2.2-.84 7.15-3.49 10.5-11.02"/><path class="st5" d="M17.33 43.47c1.23.37 2.53.56 3.87.56 5.76 0 10.68-3.59 12.64-8.66.5-1.28.8-2.66.89-4.1.04-.67.1-1.34.19-2l.16-1.18c.2-1.47 1.3-2.66 2.75-2.98 1.5-.33 3.6-.64 6.07-.62m-12.87 3.39h.57"/><path id="Línea_2376_1_" class="st5" d="M50.16 18.15v35.5"/><path id="Línea_2377_1_" class="st5" d="M39.3 12.66l10.72 10.72"/><path id="Línea_2378_1_" class="st5" d="M59.57 23.94l-9.24 6.28"/><path id="Trazado_11782_1_" class="st5" d="M36.76 18.17a5.825 5.825 0 008.23-.12 5.827 5.827 0 000-8.11C42.72 7.67 32.82 6 32.82 6s1.67 9.9 3.94 12.17z"/><path id="Trazado_11783_1_" class="st5" d="M56.23 19.62c-2.26 1.84-2.59 5.17-.75 7.43a5.279 5.279 0 006.65 1.28c2.21-1.5 4.89-9.67 4.89-9.67s-8.58-.54-10.79.96z"/><path class="st5" d="M58.31 54h-16"/></g></svg>