<svg xmlns="http://www.w3.org/2000/svg" width="200" height="200"><g data-name="Grupo 24889"><path data-name="Trazado 29515" d="M100 0A100 100 0 110 100 100 100 0 01100 0z" fill="#19a301"/><g data-name="Grupo 24845"><g data-name="Grupo 24844" fill="none"><path data-name="Rectángulo 7940" d="M65 65h70v70H65z"/><path data-name="Rectángulo 7941" d="M65 65h70v70H65z"/><g data-name="Grupo 24841" stroke="#fff" stroke-linecap="round" stroke-linejoin="round" stroke-width="1.5" transform="translate(245 65)"><g data-name="Grupo 24839"><circle data-name="Ellipse 2" cx="5.795" cy="5.795" r="5.795" transform="translate(-169.617 7.843)"/><path data-name="Trazado 29823" d="M-143.175 52.873h-13.283a8.36 8.36 0 01-8.36-8.36V22.759"/><path data-name="Trazado 29824" d="M-128.44 32.3l.01-11.14v-5.91l-7.22-7.46h-20.56"/><path data-name="Trazado 29825" d="M-150.08 52.87h13.28a7.357 7.357 0 001.25-.1"/><path data-name="Trazado 29826" d="M-135.8 7.786v8.048h7.366"/><path data-name="Línea 4157" d="M-155.859 24.774h19.055"/><path data-name="Línea 4158" d="M-155.859 30.774h19.055"/><path data-name="Línea 4159" d="M-139.9 36.77h-15.96"/><path data-name="Línea 4160" d="M-141.8 42.77h-14.06"/></g><circle data-name="Elipse 3262" cx="10.898" cy="10.898" r="10.898" transform="translate(-141.796 32.017)"/><g data-name="Grupo 24840"><path data-name="Línea 4161" d="M-129.254 44.489v2.32"/><path data-name="Línea 4162" d="M-132.648 44.489v2.32"/><path data-name="Trazado 29827" d="M-132.648 46.814l-3.869 2.043A3 3 0 00-138 50.311"/><path data-name="Trazado 29828" d="M-129.254 46.814l3.87 2.043a3 3 0 011.482 1.454"/><path data-name="Línea 4163" d="M-130.951 48.732l1.697-1.924"/><path data-name="Línea 4164" d="M-130.951 48.732l-1.697-1.924"/><path data-name="Trazado 29833" d="M-134.136 41.78a3.2 3.2 0 003.2 3.2 3.2 3.2 0 003.2-3.2"/><path data-name="Trazado 29834" d="M-127.739 41.78v-2.209a3.2 3.2 0 00-3.2-3.2 3.2 3.2 0 00-3.2 3.2v2.209"/></g></g><g data-name="Grupo 24843"><g data-name="Grupo 24842" stroke-linecap="round" stroke-linejoin="round" stroke-width="2.4"><path data-name="Line 4" stroke="#fff" d="M106.677 127.5h8.375"/><path data-name="Line 5" stroke="#82d400" d="M123.405 127.5h.679"/><path data-name="Line 6" stroke="#fff" d="M75.916 127.5h8.298"/><path data-name="Line 7" stroke="#82d400" d="M83.674 127.5h14.628"/></g><path data-name="Rectángulo 7942" d="M65 120h70v15H65z"/></g></g></g></g></svg>