<svg data-name="Capa 1" xmlns="http://www.w3.org/2000/svg" xmlns:xlink="http://www.w3.org/1999/xlink" viewBox="0 0 70 70"><defs><symbol id="a" data-name="OCENSA-EXT" viewBox="0 0 70 15"><path data-name="Line 4" fill="none" stroke="#19a301" stroke-linecap="round" stroke-linejoin="round" stroke-width="2.4" d="M41.68 7.5h8.37"/><path data-name="Line 5" fill="none" stroke="#19a301" stroke-linecap="round" stroke-linejoin="round" stroke-width="2.4" d="M58.4 7.5h.68"/><path data-name="Line 6" fill="none" stroke="#19a301" stroke-linecap="round" stroke-linejoin="round" stroke-width="2.4" d="M10.92 7.5h8.29"/><path data-name="Line 7" fill="none" stroke="#82d400" stroke-linecap="round" stroke-linejoin="round" stroke-width="2.4" d="M18.67 7.5H33.3"/><path fill="none" d="M0 0h70v15H0z"/></symbol></defs><circle data-name="Ellipse 2" cx="20.8" cy="14.94" r="5.8" fill="none" stroke="#19a301" stroke-linecap="round" stroke-linejoin="round" stroke-width="1.5"/><path fill="none" stroke="#000" stroke-linecap="round" stroke-linejoin="round" stroke-width="1.5" d="M38.53 50.73H20.16V24m8.85-13.57h22.71v27.81M37 45.45a9 9 0 0118 0m0 0a9 9 0 01-18 0"/><path fill="none" stroke="#000" stroke-linecap="round" stroke-linejoin="round" stroke-width="1.5" d="M46.01 39.34v5.75l4.44 3.82m-24.4-17.16h8.16m-8.16 5.19h5.09m-5.09 4.87h5.09m-5.52-15.98h21.53m-18.53-6.09h18.53"/><path fill="none" d="M0 0h70v70H0z"/><use width="70" height="15" transform="translate(0 55)" xlink:href="#a"/></svg>