<svg data-name="Grupo 24212" xmlns="http://www.w3.org/2000/svg" width="70" height="70"><g data-name="Grupo 24208" fill="none" stroke-linecap="round" stroke-linejoin="round" stroke-width="1.5"><circle data-name="Ellipse 2" cx="5.795" cy="5.795" r="5.795" transform="translate(14.077 30.836)" stroke="#19a301"/><g data-name="Grupo 24207" stroke="#fff"><path data-name="Línea 3919" d="M30.749 23.826v4.539"/><path data-name="Línea 3920" d="M37.39 23.826v4.539"/><path data-name="Trazado 29438" d="M37.393 28.38l8.9 4a5.854 5.854 0 013.46 5.36v.36"/><path data-name="Trazado 29439" d="M49.753 50.67v2.42h-31.37v-8.27"/><path data-name="Línea 3921" d="M30.749 28.375l-4.531 2.037"/><path data-name="Línea 3922" d="M34.07 32.131l-3.321-3.766"/><path data-name="Línea 3923" d="M34.069 32.131l3.321-3.766"/><path data-name="Trazado 29442" d="M40.3 18.524a6.259 6.259 0 11-12.518 0"/><path data-name="Trazado 29443" d="M27.784 18.524V14.2a6.259 6.259 0 1112.518 0v4.322"/><circle data-name="Elipse 3198" cx="6.298" cy="6.298" r="6.298" transform="translate(43.327 38.085)"/><path data-name="Trazado 29444" d="M46.6 44.383l1.872 3.149 5.106-5.106"/></g></g><g data-name="Grupo 24211"><g data-name="Grupo 24210" fill="none"><g data-name="Grupo 24209" stroke-linecap="round" stroke-linejoin="round" stroke-width="2.4"><path data-name="Line 4" stroke="#19a301" d="M41.677 62.5h8.375"/><path data-name="Line 5" stroke="#19a301" d="M58.405 62.5h.679"/><path data-name="Line 6" stroke="#19a301" d="M10.916 62.5h8.298"/><path data-name="Line 7" stroke="#82d400" d="M18.674 62.5h14.628"/></g><path data-name="Rectángulo 7726" d="M0 55h70v15H0z"/></g></g><path data-name="Rectángulo 7727" fill="none" d="M0 0h70v70H0z"/></svg>