<svg version="1.1" id="Capa_1" xmlns="http://www.w3.org/2000/svg" xmlns:xlink="http://www.w3.org/1999/xlink" x="0" y="0" viewBox="0 0 70 70" xml:space="preserve"><style>.st0{stroke:#19a301;stroke-width:2.4;stroke-linecap:round;stroke-linejoin:round}.st0,.st2,.st4{fill:none}.st4{stroke:#000;stroke-width:1.5;stroke-linecap:round;stroke-linejoin:round;stroke-miterlimit:10}</style><symbol id="OCENSA-EXT" viewBox="-35 -7.5 70 15"><path id="Line_4_2_" class="st0" d="M6.7 0h8.4"/><path id="Line_5_2_" class="st0" d="M23.4 0h.7"/><path id="Line_6_2_" class="st0" d="M-24.1 0h8.3"/><path id="Line_7_2_" fill="none" stroke="#82d400" stroke-width="2.4" stroke-linecap="round" stroke-linejoin="round" d="M-16.3 0h14.6"/><path class="st2" d="M-35-7.5h70v15h-70z"/></symbol><use xlink:href="#OCENSA-EXT" width="70" height="15" x="-35" y="-7.5" transform="matrix(1 0 0 -1 35 62.5)" overflow="visible"/><path class="st2" d="M0 0h70v70H0z"/><circle id="Ellipse_2_89_" cx="20.5" cy="15" r="5.8" fill="none" stroke="#19a301" stroke-width="1.5" stroke-linecap="round" stroke-linejoin="round"/><path class="st4" d="M48 10v8h7.3m-36.2 6.3V44c0 5.7 4.6 10.4 10.4 10.4h25.8V18"/><path class="st4" d="M55.3 17.8l-7.5-8.3h-20m1.6 34.7h16.8m-16.8 5.2h16.8M38 29.3v11.2m6.7-15.4l-6.6 6.5m-5.8.4l5.6 3.8m8.3-7.3c-1.4 1.4-3.6 1.4-5 0s-1.4-3.6 0-5 7.5-2.4 7.5-2.4-1.1 6-2.5 7.4zm-15 2.8l3.5 2.4m-.5-4.2c1.4.9 1.6 2.9.6 4.3s-2.9 1.9-4.3 1c-1.4-.9-3-5.9-3-5.9s5.4-.4 6.7.6zm-1.7 11.1h11.6"/></svg>