<svg xmlns="http://www.w3.org/2000/svg" width="70" height="70"><g data-name="Group 24358"><g data-name="Group 24359" fill="none"><g data-name="Group 24358" stroke-linecap="round" stroke-linejoin="round" stroke-width="2.4"><path data-name="Line 4" stroke="#19a301" d="M41.677 62.5h8.375"/><path data-name="Line 5" stroke="#19a301" d="M58.405 62.5h.679"/><path data-name="Line 6" stroke="#19a301" d="M10.916 62.5h8.298"/><path data-name="Line 7" stroke="#82d400" d="M18.674 62.5h14.628"/></g><path data-name="Rectangle 7531" d="M0 55h70v15H0z"/></g><path data-name="Rectangle 7532" fill="none" d="M0 0h70v70H0z"/><g data-name="Group 24361"><g data-name="Group 24360"><circle data-name="Ellipse 2" cx="5.795" cy="5.795" r="5.795" transform="translate(15.36 11.843)" fill="none" stroke="#19a301" stroke-linecap="round" stroke-linejoin="round" stroke-width="1.5"/></g><path data-name="Path 29452" d="M27.814 23.412l8.428 2.661 8.25 2.307 4.081-.8-.444 2.75h5.323l.887 1.6 7.008-1.952v4.17l-8.871 3.815-1.242 2.129 2.04 2.129-3.726 2.75-3.992-2.04.71 3.371-4.879 1.6-.8 4.347h-4.524L35 47.9l-1.109-6.166-3.815-1.774-2.129 6.387-6.654-3.46-2.04.887-.976-5.5-2.928-.089-.177-3.016-4.081-2.04-1.242-2.04 5.678-1.6-6.875-6.077 1.419-3.46L12.153 19" fill="none" stroke="#000" stroke-linecap="round" stroke-linejoin="round" stroke-width="1.5"/></g></g></svg>