<svg version="1.1" id="Capa_1" xmlns="http://www.w3.org/2000/svg" x="0" y="0" viewBox="0 0 40 40" xml:space="preserve"><style>.st0{fill:none;stroke:#19a301;stroke-linecap:round;stroke-linejoin:round;stroke-miterlimit:10}</style><path class="st0" d="M23.6 13H5.2v17.4h27.6V18.5M22.7 33.9h-7.2m17.3-6.1H5.2M19 33.9v-3.5"/><circle class="st0" cx="29.6" cy="13.9" r="3.7"/><path class="st0" d="M36.9 16.4l-1.2-1.5c-.5-.7-.6-1.7-.1-2.4l1.1-1.6c-.2-.4-.3-.7-.5-1.1-.2-.3-.5-.7-.7-1l-1.9.3c-.9.1-1.7-.3-2.1-1.1l-.8-1.8c-.8-.1-1.6-.1-2.4.1l-.7 1.8c-.3.8-1.2 1.3-2 1.3l-1.9-.2c-.5.6-.9 1.3-1.1 2.1l1.2 1.5c.5.7.6 1.7.1 2.4l-1.1 1.6c.2.4.3.7.5 1.1s.5.7.7 1l1.9-.3c.9-.1 1.7.3 2.1 1.1l.8 1.8c.8.1 1.6.1 2.4-.1l.7-1.8c.3-.8 1.2-1.3 2-1.3l1.9.2c.4-.6.8-1.3 1.1-2.1z"/><path fill="none" d="M0 0h40v40H0z"/></svg>