<svg data-name="Capa 1" xmlns="http://www.w3.org/2000/svg" xmlns:xlink="http://www.w3.org/1999/xlink" viewBox="0 0 70 70"><defs><symbol id="a" data-name="OCENSA-EXT" viewBox="0 0 70 15"><path data-name="Line 4" fill="none" stroke="#19a301" stroke-linecap="round" stroke-linejoin="round" stroke-width="2.4" d="M41.68 7.5h8.37"/><path data-name="Line 5" fill="none" stroke="#19a301" stroke-linecap="round" stroke-linejoin="round" stroke-width="2.4" d="M58.4 7.5h.68"/><path data-name="Line 6" fill="none" stroke="#19a301" stroke-linecap="round" stroke-linejoin="round" stroke-width="2.4" d="M10.92 7.5h8.29"/><path data-name="Line 7" fill="none" stroke="#82d400" stroke-linecap="round" stroke-linejoin="round" stroke-width="2.4" d="M18.67 7.5H33.3"/><path fill="none" d="M0 0h70v15H0z"/></symbol></defs><use width="70" height="15" transform="translate(0 55)" xlink:href="#a"/><path fill="none" d="M0 0h70v70H0z"/><circle data-name="Ellipse 2" cx="24.05" cy="22.64" r="5.8" fill="none" stroke="#19a301" stroke-linecap="round" stroke-linejoin="round" stroke-width="1.5"/><path fill="none" stroke="#fff" stroke-linecap="round" stroke-linejoin="round" stroke-width="1.5" d="M21.44 30.67l-.57 2.6-1.66-.83-4.8 4.8-2.03-1.66-2.77 3.6.92 1.11-.46 1.75H8.59L7.95 45l1.47 3.69 4.62 5.73 8.13-2.77 3.04.73 3.79-3.6 13.48-5.63 1.29-3.69 3.97-2.4V35.3l6.28-3.04h2.31l5.72-7.48-1.2-1.39-2.4-.55-1.75-2.68h-4.9l-1.47 1.29-8.41-.36-3.32-1.11-6.21 1.12"/></svg>