<svg xmlns="http://www.w3.org/2000/svg" width="70" height="70"><defs><clipPath id="a"><path data-name="Rectángulo 7876" transform="translate(117 990.051)" fill="#fd0d1b" d="M0 0h70v70H0z"/></clipPath></defs><g data-name="Enmascarar grupo 54" transform="translate(-117 -990.051)" clip-path="url(#a)"><g data-name="icon_nuestros_pricipios_nuestros principios"><g data-name="Grupo 24595"><path data-name="Rectángulo 7872" fill="none" d="M117 990.051h70v70h-70z"/></g><path data-name="Rectángulo 7873" fill="none" d="M117 1045.051h70v15h-70z"/><path fill="none" stroke="#19a301" stroke-linecap="round" stroke-linejoin="round" stroke-width="2.4" d="M158.7 1052.551h8.4m8.3 0h.7m-48.2 0h8.3"/><path fill="none" stroke="#82d400" stroke-linecap="round" stroke-linejoin="round" stroke-width="2.4" d="M135.7 1052.551h14.6"/><g data-name="Grupo 24596"><path data-name="Rectángulo 7874" fill="none" d="M117 990.051h70v70h-70z"/></g><path data-name="Rectángulo 7875" fill="none" d="M117 1045.051h70v15h-70z"/><path fill="none" stroke="#19a301" stroke-linecap="round" stroke-linejoin="round" stroke-width="2.4" d="M158.7 1052.551h8.4m8.3 0h.7m-48.2 0h8.3"/><path fill="none" stroke="#82d400" stroke-linecap="round" stroke-linejoin="round" stroke-width="2.4" d="M135.7 1052.551h14.6"/><path data-name="Trazado 29516" d="M150.4 1016.951l3 3.5 8-9.5" fill="none" stroke="#000" stroke-linecap="round" stroke-linejoin="round" stroke-miterlimit="10" stroke-width="1.5"/><path data-name="Trazado 29517" d="M144.2 1001.751a4.689 4.689 0 00-1.3-3.3 4.841 4.841 0 00-3.6-1.6 4.9 4.9 0 104.9 4.9z" fill="none" stroke="#19a301" stroke-linecap="round" stroke-linejoin="round" stroke-width="1.5"/><path data-name="Trazado 29518" d="M163 1000.851v7.2h6.6" fill="none" stroke="#000" stroke-linecap="round" stroke-linejoin="round" stroke-miterlimit="10" stroke-width="1.5"/><path data-name="Trazado 29519" d="M137 1010.451v21a9.389 9.389 0 009.4 9.4h23.3v-32.8" fill="none" stroke="#000" stroke-linecap="round" stroke-linejoin="round" stroke-miterlimit="10" stroke-width="1.5"/><path data-name="Trazado 29520" d="M169.6 1007.851l-6.7-7.5h-15" fill="none" stroke="#000" stroke-linecap="round" stroke-linejoin="round" stroke-miterlimit="10" stroke-width="1.5"/><path data-name="Línea 3920" fill="none" stroke="#000" stroke-linecap="round" stroke-linejoin="round" stroke-miterlimit="10" stroke-width="1.5" d="M145.6 1033.851h15.2"/><path data-name="Línea 3921" fill="none" stroke="#000" stroke-linecap="round" stroke-linejoin="round" stroke-miterlimit="10" stroke-width="1.5" d="M148.4 1029.751h9.6"/><path data-name="Trazado 29521" d="M159.4 1018.051a6.051 6.051 0 11-6-6.2 6.125 6.125 0 016 6.2z" fill="none" stroke="#000" stroke-linecap="round" stroke-linejoin="round" stroke-miterlimit="10" stroke-width="1.5"/></g></g></svg>