<svg xmlns="http://www.w3.org/2000/svg" width="44.227" height="47.703"><g data-name="Grupo 24885" transform="translate(-911.408 -2966.045)"><circle data-name="Elipse 3205" cx="6" cy="6" r="6" transform="translate(943.635 2966.045)" fill="#172211" opacity=".7" style="mix-blend-mode:multiply;isolation:isolate"/><path data-name="Trazado 12028" d="M911.408 2999.248a14.5 14.5 0 0014.5 14.5 14.5 14.5 0 0014.5-14.5 14.5 14.5 0 00-14.5-14.5 14.5 14.5 0 00-14.5 14.5z" fill="#ffff10"/><path data-name="Trazado 12029" d="M931.437 2986.352l.488 6.983 6.983-.488 11.601-21.506z" fill="#ffff10"/><g data-name="Group 13222" fill="none" stroke="#00009e" stroke-linecap="round" stroke-linejoin="round" stroke-width="1.4"><path data-name="Path 11404" d="M922.673 2993.888a2.973 2.973 0 01-2.974 2.972 2.972 2.972 0 01-2.972-2.974 2.973 2.973 0 012.973-2.972 2.966 2.966 0 012.973 2.957z"/><path data-name="Path 11405" d="M925.485 2991.387a8.159 8.159 0 015.232 2.378"/><path data-name="Path 11406" d="M919.146 3005.337a8.152 8.152 0 01-2.4-5.656"/><path data-name="Path 11407" d="M930.718 2993.764a8.183 8.183 0 010 11.573 8.182 8.182 0 01-11.572 0"/></g></g></svg>