<svg version="1.1" id="Layer_1" xmlns="http://www.w3.org/2000/svg" x="0" y="0" viewBox="0 0 70 70" xml:space="preserve"><style>.st0,.st1{fill:none}.st1{stroke:#19a301;stroke-linecap:round;stroke-linejoin:round}.st1,.st2{stroke-width:2.4}.st2,.st4{fill:none;stroke-linecap:round;stroke-linejoin:round}.st2{stroke:#82d400}.st4{stroke:#000;stroke-width:1.5;stroke-miterlimit:10}</style><path class="st0" d="M0 0h70v70H0z"/><path class="st0" d="M0 55h70v15H0z"/><path id="Line_4_13_" class="st1" d="M41.7 62.5h8.4"/><path id="Line_5_13_" class="st1" d="M58.4 62.5h.7"/><path id="Line_6_13_" class="st1" d="M10.9 62.5h8.3"/><path id="Line_7_13_" class="st2" d="M18.7 62.5h14.6"/><path class="st0" d="M0 0h70v70H0z"/><path class="st0" d="M0 55h70v15H0z"/><path id="Line_4_12_" class="st1" d="M41.7 62.5h8.4"/><path id="Line_5_12_" class="st1" d="M58.4 62.5h.7"/><path id="Line_6_12_" class="st1" d="M10.9 62.5h8.3"/><path id="Line_7_12_" class="st2" d="M18.7 62.5h14.6"/><circle id="Ellipse_2_10_" cx="21.8" cy="14" r="5.1" fill="none" stroke="#19a301" stroke-width="1.5" stroke-linecap="round" stroke-linejoin="round"/><path class="st4" d="M34.6 33.5l3.8 3.8c.5.5.5 1.4 0 1.9s-1.4.5-1.9 0L21.8 24.5m16.7 5.1l3.8 3.8c.5.5 1.4.5 1.9 0s.5-1.4 0-1.9l-8.9-8.9-3.7-.3-.5 2.2s-.7 1.9-2.6 1.5c-1.9-.4-2-2.3-2-2.3l.5-2.6s1.1-2.8 4.4-2.8l7.3 1.1 7.3 7.3-3.2 3.3"/><path class="st4" d="M38.5 29.6l3.8 3.8c.5.5.5 1.4 0 1.9s-1.4.5-1.9 0l-3.8-3.8"/><path class="st4" d="M36.6 31.5l3.8 3.8c.5.5.5 1.4 0 1.9s-1.4.5-1.9 0l-3.8-3.8m4.1-14l2.2-2.2s.8-.8 1.7 0l5.7 5.7s.8.9.1 1.5l-2.3 2.2-7.4-7.2zM27.9 30.8l-1.4 1.5c-.5.5-1.4.5-2 0-.5-.5-.5-1.4 0-2l1.4-1.5"/><path class="st4" d="M29.9 32.7l-1.4 1.5c-.5.5-1.4.5-2 0-.5-.5-.5-1.4 0-2l1.4-1.5"/><path class="st4" d="M31.8 34.7l-1.4 1.5c-.5.5-1.4.5-2 0-.5-.5-.5-1.4 0-2l1.4-1.5"/><path class="st4" d="M33.6 36.9l-1.4 1.5c-.5.5-1.4.5-2 0-.5-.5-.5-1.4 0-2l1.4-1.5m-2.8-24.8c2-.7 4.2-1.1 6.4-1.1 10.6 0 19.3 8.6 19.3 19.3 0 8-4.9 14.8-11.8 17.8m-15.1-.2C20.8 43 16 36.2 16 28.2c0-2.7.5-5.2 1.5-7.5m17.7 29.1l3.1 1.6-.6-3.4 2.5-2.5-3.4-.5-1.6-3.1-1.5 3.1-3.5.5 2.5 2.5-.6 3.4z"/></svg>