<svg version="1.1" id="Capa_1" xmlns="http://www.w3.org/2000/svg" x="0" y="0" viewBox="0 0 40 40" xml:space="preserve"><style>.st0{fill:none;stroke:#19a301;stroke-linecap:round;stroke-linejoin:round;stroke-miterlimit:10}</style><path class="st0" d="M18.1 16.8v2.5m3.7-2.5v2.5m-3.7 0l-4.9 2.2c-1.2.5-1.9 1.7-1.9 3v7.6h17.4v-7.6c0-1.3-.8-2.4-1.9-3l-4.9-2.2M20 21.4l-1.9-2.1m1.9 2.1l1.8-2.1m1.6-5.5c0 1.9-1.6 3.5-3.5 3.5s-3.5-1.6-3.5-3.5m.1 0v-2.4c0-1.9 1.6-3.5 3.5-3.5s3.5 1.6 3.5 3.5v2.4"/><path class="st0" d="M27.5 16.1v2.3m3.4-2.3v2.3m0 0l4.6 2.1c1.1.5 1.8 1.6 1.8 2.8v7.1h-8.6m-1.2-12l-3.8 1.7m5.5.2l-1.7-1.9m1.7 1.9l1.7-1.9m1.5-5.1c0 1.8-1.4 3.2-3.2 3.2-1.8 0-3.2-1.4-3.2-3.2m-.1 0v-2.2c0-1.8 1.4-3.2 3.2-3.2 1.8 0 3.2 1.4 3.2 3.2v2.2m-23 2.8v2.3m3.4-2.3v2.3m3.7 1.7l-3.7-1.7m-3.4 0l-4.6 2.1c-1.1.5-1.8 1.5-1.8 2.7v7.1h8.4m-.3-10l-1.7-1.9m1.7 1.9l1.7-1.9m1.5-5.1c0 1.8-1.4 3.2-3.2 3.2s-3.2-1.4-3.2-3.2m-.1 0v-2.2c0-1.8 1.4-3.2 3.2-3.2s3.2 1.4 3.2 3.2v2.2"/><path fill="none" d="M0 0h40v40H0z"/></svg>