<svg data-name="Grupo 23445" xmlns="http://www.w3.org/2000/svg" width="70" height="70"><g data-name="Grupo 23448"><g data-name="Grupo 23447" fill="none"><g data-name="Grupo 23446" stroke-linecap="round" stroke-linejoin="round" stroke-width="2.4"><path data-name="Line 4" stroke="#19a301" d="M41.677 62.5h8.375"/><path data-name="Line 5" stroke="#19a301" d="M58.405 62.5h.679"/><path data-name="Line 6" stroke="#19a301" d="M10.916 62.5h8.298"/><path data-name="Line 7" stroke="#82d400" d="M18.674 62.5h14.628"/></g><path data-name="Rectángulo 7219" d="M0 55h70v15H0z"/></g></g><path data-name="Rectángulo 7220" fill="none" d="M0 0h70v70H0z"/><g data-name="Grupo 23454"><g data-name="Grupo 23451"><g data-name="Grupo 23450" fill="none"><g data-name="Grupo 23449" stroke-linecap="round" stroke-linejoin="round" stroke-width="2.4"><path data-name="Line 4" stroke="#19a301" d="M41.677 62.5h8.375"/><path data-name="Line 5" stroke="#19a301" d="M58.405 62.5h.679"/><path data-name="Line 6" stroke="#19a301" d="M10.916 62.5h8.298"/><path data-name="Line 7" stroke="#82d400" d="M18.674 62.5h14.628"/></g><path data-name="Rectángulo 7221" d="M0 55h70v15H0z"/></g></g><path data-name="Rectángulo 7222" fill="none" d="M0 0h70v70H0z"/><g data-name="Grupo 23453" fill="none" stroke-linecap="round" stroke-linejoin="round"><circle data-name="Ellipse 2" cx="5.795" cy="5.795" r="5.795" transform="translate(18.835 9.205)" stroke="#19a301" stroke-width="1.5"/><g data-name="Grupo 23452" stroke="#000" stroke-width="1.625"><path data-name="Trazado 29029" d="M35.93 54V15.455"/><path data-name="Trazado 29030" d="M31.89 9.55a15.211 15.211 0 11-11.142 14.658c0-.232.005-.464.016-.694"/><path data-name="Línea 3775" d="M36.404 23.513l5.675-5.675"/><path data-name="Línea 3776" d="M36.404 35.034l5.675-5.675"/><path data-name="Línea 3777" d="M28.772 25.416l7.005 4.811"/></g></g><path data-name="Línea 3778" fill="none" stroke="#000" stroke-linecap="round" stroke-linejoin="round" stroke-width="1.625" d="M22.028 53.999h27.496"/></g></svg>