<svg data-name="Grupo 23947" xmlns="http://www.w3.org/2000/svg" width="70" height="70"><g data-name="Grupo 23943"><g data-name="Grupo 23942" fill="none" stroke="#fff" stroke-linecap="round" stroke-linejoin="round" stroke-width="1.5"><circle data-name="Ellipse 2" cx="5.795" cy="5.795" r="5.795" transform="translate(9.158 5.843)" opacity=".5"/><path data-name="Trazado 29367" d="M35.6 50.873H22.318a8.36 8.36 0 01-8.36-8.36V20.759"/><path data-name="Trazado 29368" d="M22.892 5.79h20.23l7.22 7.46v18.89"/><path data-name="Trazado 29369" d="M42.979 5.786v8.048h7.366"/><path data-name="Línea 3874" d="M22.916 23.774h19.055"/><path data-name="Línea 3875" d="M22.916 31.774h19.055"/><path data-name="Línea 3876" d="M35.982 40.77h-13.07"/><path data-name="Línea 3877" d="M50.332 32.14v-11.2"/><path data-name="Línea 3878" d="M35.982 50.87h-7.29"/><path data-name="Rectángulo 7404" d="M35.986 37.404h24.851v17.128H35.986z"/><path data-name="Línea 3879" d="M51.972 43.85h-7.07"/><path data-name="Línea 3880" d="M60.842 43.85h-5.94"/><path data-name="Línea 3881" d="M41.972 43.85h-5.99"/><path data-name="Rectángulo 7405" d="M41.971 41.489h2.93v5.649h-2.93z"/><path data-name="Rectángulo 7406" d="M51.971 41.489h2.93v5.649h-2.93z"/><path data-name="Rectángulo 7407" d="M44.007 32.138h9.574v5.266h-9.574z"/></g></g><g data-name="Grupo 23946"><g data-name="Grupo 23945" fill="none"><g data-name="Grupo 23944" stroke-linecap="round" stroke-linejoin="round" stroke-width="2.4"><path data-name="Line 4" stroke="#fff" d="M41.677 62.5h8.375"/><path data-name="Line 5" stroke="#82d400" d="M58.405 62.5h.679"/><path data-name="Line 6" stroke="#fff" d="M10.916 62.5h8.298"/><path data-name="Line 7" stroke="#82d400" d="M18.674 62.5h14.628"/></g><path data-name="Rectángulo 7408" d="M0 55h70v15H0z"/></g></g><path data-name="Rectángulo 7409" fill="none" d="M0 0h70v70H0z"/></svg>