<svg xmlns="http://www.w3.org/2000/svg" width="70" height="70"><g data-name="Grupo 23932" fill="none"><g data-name="Grupo 23929"><g data-name="Grupo 23928" stroke-linecap="round" stroke-linejoin="round" stroke-width="2.4"><path data-name="Line 4" stroke="#19a301" d="M41.677 62.5h8.375"/><path data-name="Line 5" stroke="#19a301" d="M58.405 62.5h.679"/><path data-name="Line 6" stroke="#19a301" d="M10.916 62.5h8.298"/><path data-name="Line 7" stroke="#82d400" d="M18.674 62.5h14.628"/></g><path data-name="Rectángulo 7397" d="M0 55h70v15H0z"/></g><path data-name="Rectángulo 7398" d="M0 0h70v70H0z"/><g data-name="Grupo 23931" stroke-linecap="round" stroke-linejoin="round" stroke-width="1.5" transform="translate(-90)"><circle data-name="Ellipse 2" cx="5.795" cy="5.795" r="5.795" transform="translate(104.406 8.843)" stroke="#19a301"/><path data-name="Trazado 29342" d="M130.848 53.873h-13.282a8.36 8.36 0 01-8.36-8.36V23.759" stroke="#000"/><path data-name="Trazado 29343" d="M118.141 8.786h20.224l7.228 7.468V39.9" stroke="#000"/><rect data-name="Rectángulo 7399" width="19.345" height="17.703" rx="4.366" transform="translate(118.221 28.171)" stroke="#000"/><path data-name="Trazado 29344" d="M138.228 8.786v8.048h7.366" stroke="#000"/><path data-name="Línea 3862" stroke="#000" d="M118.164 21.774h19.055"/><path data-name="Trazado 29345" d="M123.942 53.873h13.283a8.36 8.36 0 008.36-8.36V23.944" stroke="#000"/><g data-name="Grupo 23930" stroke="#000"><path data-name="Trazado 29346" d="M127.894 41.97s-3.83-2.41-5.119-4.926c-1.945-3.8 3.285-6.4 5.119-2.959"/><path data-name="Trazado 29347" d="M127.894 41.97s3.83-2.41 5.118-4.926c1.945-3.8-3.285-6.4-5.118-2.959"/></g></g></g></svg>