<svg data-name="Grupo 23685" xmlns="http://www.w3.org/2000/svg" width="70" height="70"><g data-name="Grupo 23681" fill="none" stroke-linecap="round" stroke-linejoin="round" stroke-width="1.5"><path data-name="Trazado 29183" d="M27.151 19.691L39.2 22.6l3.722-5.5h5.656l2.585-2.1 5.171 5.333-1.134 6.14h-4.36l.646 4.686-3.878.97-2.262-.97-5.009 7.757 3.394 3.232-14.06 8.242-6.625 3.717-7.6-6.625 6.141-6.787 5.013-5.011L22.652 32" stroke="#000"/><circle data-name="Ellipse 2" cx="5.795" cy="5.795" r="5.795" transform="translate(13.666 18.162)" stroke="#19a301"/></g><g data-name="Grupo 23684"><g data-name="Grupo 23683" fill="none"><g data-name="Grupo 23682" stroke-linecap="round" stroke-linejoin="round" stroke-width="2.4"><path data-name="Line 4" stroke="#19a301" d="M41.677 62.5h8.375"/><path data-name="Line 5" stroke="#19a301" d="M58.405 62.5h.679"/><path data-name="Line 6" stroke="#19a301" d="M10.916 62.5h8.298"/><path data-name="Line 7" stroke="#82d400" d="M18.674 62.5h14.628"/></g><path data-name="Rectángulo 7300" d="M0 55h70v15H0z"/></g></g><path data-name="Rectángulo 7301" fill="none" d="M0 0h70v70H0z"/></svg>