<svg data-name="Grupo 24907" xmlns="http://www.w3.org/2000/svg" width="70" height="70"><g data-name="Grupo 24925"><g data-name="Grupo 24924" fill="none"><g data-name="Grupo 24923" stroke-linecap="round" stroke-linejoin="round" stroke-width="2.4"><path data-name="Line 4" stroke="#19a301" d="M41.677 62.5h8.375"/><path data-name="Line 5" stroke="#19a301" d="M58.405 62.5h.679"/><path data-name="Line 6" stroke="#19a301" d="M10.916 62.5h8.298"/><path data-name="Line 7" stroke="#82d400" d="M18.674 62.5h14.628"/></g><path data-name="Rectángulo 7951" d="M0 55h70v15H0z"/></g></g><path data-name="Rectángulo 7952" fill="none" d="M0 0h70v70H0z"/><g data-name="Grupo 24928" fill="none" stroke-linecap="round" stroke-linejoin="round" stroke-width="1.5"><g data-name="Grupo 24927"><circle data-name="Ellipse 2" cx="5.795" cy="5.795" r="5.795" transform="translate(10.851 4.843)" stroke="#19a301"/><path data-name="Trazado 29851" d="M44.123 5.636v8h7.323" stroke="#fff"/><path data-name="Línea 4177" stroke="#fff" d="M51.449 40.01V13.64"/><path data-name="Trazado 29852" d="M15.269 19.98v19.65a10.364 10.364 0 0010.37 10.36h18.94" stroke="#fff"/><path data-name="Trazado 29853" d="M51.437 13.478l-7.475-8.326-1.75.016H23.957" stroke="#fff"/><g data-name="Grupo 24926" stroke="#fff"><path data-name="Trazado 29854" d="M33.69 24.391l-1.656 7.363 1.656 2.878"/><path data-name="Trazado 29855" d="M33.69 24.391l1.656 7.363-1.656 2.878"/><path data-name="Línea 4178" d="M32.022 20.614v2.298"/><path data-name="Línea 4179" d="M35.384 20.614v2.298"/><path data-name="Trazado 29856" d="M32.022 22.917l-4.5 2.025a2.977 2.977 0 00-1.755 2.714v6.976h15.877v-6.976a2.977 2.977 0 00-1.755-2.714l-4.505-2.025"/><path data-name="Línea 4180" d="M33.703 24.818l-1.681-1.906"/><path data-name="Línea 4181" d="M33.703 24.818l1.681-1.906"/><path data-name="Trazado 29859" d="M36.858 17.93a3.169 3.169 0 11-6.337 0"/><path data-name="Trazado 29860" d="M30.521 17.93v-2.187a3.169 3.169 0 116.337 0v2.187"/></g><path data-name="Línea 4182" stroke="#fff" d="M25.509 39.866h16.85"/><path data-name="Línea 4183" stroke="#fff" d="M25.509 45.099h16.85"/></g><circle data-name="Elipse 3263" cx="7.5" cy="7.5" r="7.5" transform="translate(44.149 40)" stroke="#fff"/><path data-name="Trazado 29861" d="M48.149 48l2 3 5-6" stroke="#fff"/></g></svg>