<svg data-name="Grupo 23907" xmlns="http://www.w3.org/2000/svg" width="70" height="70"><g data-name="Grupo 23903"><g data-name="Grupo 23902" fill="none"><g data-name="Grupo 23901" stroke-linecap="round" stroke-linejoin="round" stroke-width="2.4"><path data-name="Line 4" stroke="#19a301" d="M41.677 62.5h8.375"/><path data-name="Line 5" stroke="#19a301" d="M58.405 62.5h.679"/><path data-name="Line 6" stroke="#19a301" d="M10.916 62.5h8.298"/><path data-name="Line 7" stroke="#82d400" d="M18.674 62.5h14.628"/></g><path data-name="Rectángulo 7374" d="M0 55h70v15H0z"/></g></g><path data-name="Rectángulo 7375" fill="none" d="M0 0h70v70H0z"/><g data-name="Grupo 23906" fill="none" stroke-linecap="round" stroke-linejoin="round" stroke-width="1.5"><circle data-name="Ellipse 2" cx="5.795" cy="5.795" r="5.795" transform="translate(6.507 10.843)" stroke="#19a301"/><path data-name="Línea 3947" stroke="#000" d="M20.806 22.402V53.46"/><g data-name="Grupo 23904" stroke="#000"><path data-name="Línea 3948" d="M53.143 15.729v38.103"/><circle data-name="Elipse 3200" cx="10.333" cy="10.333" r="10.333" transform="translate(42.827 8.732)"/><path data-name="Línea 3949" d="M53.464 19.968l3.856-3.856"/><path data-name="Línea 3950" d="M48.279 22.495l4.76 3.269"/></g><path data-name="Línea 3951" stroke="#000" d="M63.071 54.022H8.887"/><g data-name="Grupo 23905" stroke="#000"><path data-name="Trazado 29289" d="M27.33 43.808l10.781-6.1 10.715 6.3"/><path data-name="Línea 3952" d="M30.091 53.806v-11.05"/><path data-name="Línea 3953" d="M45.869 42.559v11.463"/></g><path data-name="Trazado 29290" d="M8.325 24.2a6.026 6.026 0 00-1.361 3.85 5.6 5.6 0 005.383 5.793h16.918a5.6 5.6 0 005.383-5.793 5.6 5.6 0 00-5.383-5.793h-.7a4 4 0 001.617-3.259 3.79 3.79 0 00-3.644-3.922h-1.766a3.481 3.481 0 00.44-1.681 4.168 4.168 0 00-4.406-3.879 4.805 4.805 0 00-2.522.7" stroke="#000"/></g></svg>