<svg version="1.1" id="icon__tlu" xmlns="http://www.w3.org/2000/svg" xmlns:xlink="http://www.w3.org/1999/xlink" x="0" y="0" viewBox="0 0 70 70" xml:space="preserve"><style>.st0,.st3{fill:none}.st3{stroke:#19a301;stroke-width:2.4;stroke-linecap:round;stroke-linejoin:round}.st5,.st7{stroke:#000;stroke-miterlimit:10}.st5{fill:none;stroke-width:1.5;stroke-linecap:round;stroke-linejoin:round}.st7{stroke-width:.437}</style><path id="Rectangle_7838" class="st0" d="M0 0h70v70H0z"/><g id="Group_24516"><defs><path id="SVGID_1_" d="M0 55h70v15H0z"/></defs><clipPath id="SVGID_2_"><use xlink:href="#SVGID_1_" overflow="visible"/></clipPath><g id="Group_24515" clip-path="url(#SVGID_2_)"><defs><path id="SVGID_3_" d="M0 55h70v15H0z"/></defs><clipPath id="SVGID_4_"><use xlink:href="#SVGID_3_" overflow="visible"/></clipPath><g id="Group_24514" transform="translate(35 62.5)" clip-path="url(#SVGID_4_)"><g id="Group_24513"><path id="Line_4_1_" class="st3" d="M6.7 0h8.4"/><path id="Line_5_1_" class="st3" d="M23.4 0h.7"/><path id="Line_6_1_" class="st3" d="M-24.1 0h8.3"/><path id="Line_7_1_" fill="none" stroke="#82d400" stroke-width="2.4" stroke-linecap="round" stroke-linejoin="round" d="M-16.3 0h14.6"/></g><path id="Rectangle_7839" class="st0" d="M-35-7.5h70v15h-70z"/></g></g></g><g id="Group_24517"><path id="Path_29404" class="st5" d="M65.7 51.4c-3.8 0-3.8-3.7-7.7-3.7-3.8 0-3.8 3.7-7.7 3.7-3.8 0-3.8-3.7-7.7-3.7-3.8 0-3.8 3.7-7.7 3.7-3.8 0-3.8-3.7-7.7-3.7-3.8 0-3.8 3.7-7.7 3.7-3.8 0-3.8-3.7-7.7-3.7-3.8 0-3.8 3.7-7.7 3.7"/><path id="Line_3926" class="st5" d="M24.3 44.3h-7.4"/><path id="Path_29405" class="st5" d="M17.9 26.1V30h22.5"/><path id="Path_29406" d="M22 15.8c.5 1.1.5 2.3.2 3.4-.4 1.2-1.3 2.2-2.5 2.8-2.3 1.1-5.1 0-6.2-2.3s0-5.1 2.3-6.2 5.1 0 6.2 2.3z" fill="none" stroke="#19a301" stroke-width="1.5" stroke-linecap="round" stroke-linejoin="round"/><path id="Path_29407" class="st5" d="M50 30h4V16.2c0-.8-.7-1.5-1.5-1.5H26.4"/><path id="Path_29408" class="st5" d="M45.9 9H32.1c-1.2 0-2.2 1-2.2 2.2v3.5h17.9v-3.8c0-1-.9-1.9-1.9-1.9z"/><path id="Path_29409" class="st5" d="M40.4 30H13.7c-.9 0-1.7.8-1.7 1.7v15.5"/><path id="Path_29410" class="st5" d="M60.2 48.3V31.5c0-.8-.7-1.5-1.5-1.5H50"/><path id="Line_3929" class="st5" d="M29.1 34.6H12"/><path id="Line_3930" class="st5" d="M24.3 34.6v14.1"/><path id="Line_3931" class="st5" d="M24.3 39h-7.4"/><path id="Line_3932" class="st5" d="M16.8 34.6v15.6"/><path id="Line_3933" class="st5" d="M29.1 30v17.6"/><path id="Path_29411" class="st5" d="M40.4 30.1l-.1 7.3H50V30"/><path id="Line_3934" class="st5" d="M34.4 9v5.7"/><path id="Line_3935" class="st5" d="M38.8 9v5.7"/><path id="Line_3936" class="st5" d="M43.4 9v5.7"/><path id="Path_28578" class="st7" d="M34.2 25.5H37v.8h-3.8v-7.7h1v6.9z"/><path id="Path_28578_1_" class="st7" d="M29 19.4h-1.8v-.8H30v7.7h-1v-6.9z"/><path id="Path_28578_2_" class="st7" d="M30.5 19.4h-1.8v-.8h2.8v.8h-1z"/><path id="Path_29439" d="M44 18.6v5.2c0 .8-.3 1.5-.8 2-.6.5-1.4.8-2.2.7-.8 0-1.6-.2-2.2-.7-.6-.5-.9-1.2-.8-2v-5.2h1.6v5.2c0 .4.1.8.4 1.1.3.2.6.4 1 .4.9 0 1.4-.5 1.4-1.4v-5.2H44z"/><path d="M50.4 26.3h-4.8v-1l2.2-2.8c.3-.4.5-.8.7-1.1.1-.3.2-.6.2-.8 0-.3-.1-.6-.2-.8-.1-.2-.3-.3-.6-.3s-.5.1-.7.4c-.2.3-.2.6-.2 1h-1.5c0-.7.2-1.3.6-1.8.4-.5 1-.7 1.8-.7.7 0 1.3.2 1.7.6.4.4.6 1 .6 1.7 0 .5-.1.9-.4 1.3-.2.4-.6.9-1.2 1.6l-1.1 1.6h2.9v1.1z"/><path id="Line_3937" class="st5" d="M55.1 30v7.9"/><path id="Line_3938" class="st5" d="M34.7 30v7.9"/></g></svg>