<svg xmlns="http://www.w3.org/2000/svg" xmlns:xlink="http://www.w3.org/1999/xlink" viewBox="0 0 70 70"><style>.st0{stroke:#19a301;stroke-width:2.4;stroke-linecap:round;stroke-linejoin:round}.st0,.st2,.st5{fill:none}.st5{stroke:#000;stroke-width:1.5;stroke-linecap:round;stroke-linejoin:round;stroke-miterlimit:10}</style><symbol id="OCENSA-EXT" viewBox="-35 -7.5 70 15"><path id="Line_4_2_" class="st0" d="M6.68 0h8.37"/><path id="Line_5_2_" class="st0" d="M23.41 0h.67"/><path id="Line_6_2_" class="st0" d="M-24.08 0h8.29"/><path id="Line_7_2_" fill="none" stroke="#82d400" stroke-width="2.4" stroke-linecap="round" stroke-linejoin="round" d="M-16.33 0H-1.7"/><path class="st2" d="M-35-7.5h70v15h-70z"/></symbol><g id="Capa_1"><use xlink:href="#OCENSA-EXT" width="70" height="15" x="-35" y="-7.5" transform="matrix(1 0 0 -1 35 62.5)" overflow="visible"/><path class="st2" d="M0 0h70v70H0z"/><circle id="Ellipse_2_12_" cx="54.25" cy="34.64" r="5.8" fill="none" stroke="#19a301" stroke-width="1.5" stroke-linecap="round" stroke-linejoin="round"/><path class="st5" d="M53.27 26.16c-2.29-7.27-8.69-12.94-17.54-12.94-11.17 0-12.44 6.51-12.44 6.51-2.05.14-6.01 6.72.42 10.46s11.81-2.12 11.81-2.12 5.8 2.55 5.8 8.27-6.23 9.48-8.21 9.63m15.28 4.37c.29-.37 2.22-3.13 3.77-7.33m-26.75-.73s7.99-3.54 7.07-11.81"/><path class="st5" d="M41.82 45.81S31.71 48.71 24 41.43c0 0-3.25-3.54-3.82-6.51l-.07-4.53s-1.94 1.75-3.39-1.1c0 0 0 3.57-3.42 1.71 0 0 1.03 2.7-2.28 2.81 0 0 1.75 2.28-1.06 4.22 0 0 7.22 3.19 6.19 12.04"/><circle cx="23.74" cy="24.1" r="1.5"/><path class="st5" d="M40.98 20.26l2.48-1.43c.86-.5 1.98-.2 2.47.66.5.86.2 1.98-.66 2.47l-2.4 1.39m-16.6-2.99s1.68 2.82 4.86.26M11.72 54.2s2.2-.69 3.3-2.25c.46-.66 1.06-1.35 1.9-1.79 3.83-2.06 4.97 4.01 8.4 3.85m0 0s2.18-.24 3.16-2.06c.62-1.14 1.99-2.48 3.96-2.04 1.78.39 2.42 1.57 3.51 2.86.69.81 1.75 1.34 2.83 1.24m.19 0s2.18-.24 3.16-2.06c.52-.97 1.8-2.19 3.42-2.16 3.22.06 3.61 4.37 6.87 4.21"/></g></svg>