<svg data-name="Capa 1" xmlns="http://www.w3.org/2000/svg" xmlns:xlink="http://www.w3.org/1999/xlink" viewBox="0 0 70 70"><defs><symbol id="a" data-name="OCENSA-EXT" viewBox="0 0 70 15"><path data-name="Line 4" fill="none" stroke="#19a301" stroke-linecap="round" stroke-linejoin="round" stroke-width="2.4" d="M41.68 7.5h8.37"/><path data-name="Line 5" fill="none" stroke="#19a301" stroke-linecap="round" stroke-linejoin="round" stroke-width="2.4" d="M58.4 7.5h.68"/><path data-name="Line 6" fill="none" stroke="#19a301" stroke-linecap="round" stroke-linejoin="round" stroke-width="2.4" d="M10.92 7.5h8.29"/><path data-name="Line 7" fill="none" stroke="#82d400" stroke-linecap="round" stroke-linejoin="round" stroke-width="2.4" d="M18.67 7.5H33.3"/><path fill="none" d="M0 0h70v15H0z"/></symbol></defs><use width="70" height="15" transform="translate(0 55)" xlink:href="#a"/><circle data-name="Ellipse 2" cx="10.17" cy="24.31" r="5.8" fill="none" stroke="#19a301" stroke-linecap="round" stroke-linejoin="round" stroke-width="1.5"/><path data-name="Línea 2918" fill="none" stroke="#000" stroke-linecap="round" stroke-linejoin="round" stroke-width="1.5" d="M6.69 54.01h58.93"/><path d="M10.79 15.44A3.46 3.46 0 0114.24 12h9.55a3.46 3.46 0 013.45 3.45v22" fill="none" stroke="#000" stroke-linecap="round" stroke-linejoin="round" stroke-width="1.5"/><path data-name="Línea 2919" fill="none" stroke="#000" stroke-linecap="round" stroke-linejoin="round" stroke-width="1.5" d="M10.79 54.01V33.09"/><path data-name="Trazado 12588" d="M44.76 53.92V40.55a3.32 3.32 0 013.32-3.32h10.1a3.32 3.32 0 013.32 3.32V54" fill="none" stroke="#000" stroke-linecap="round" stroke-linejoin="round" stroke-width="1.5"/><path data-name="Trazado 12589" d="M38.4 53.92V31.37A3.33 3.33 0 0141.72 28h8A3.32 3.32 0 0153 31.37v5.69" fill="none" stroke="#000" stroke-linecap="round" stroke-linejoin="round" stroke-width="1.5"/><path fill="none" stroke="#000" stroke-linecap="round" stroke-linejoin="round" stroke-width="1.5" d="M44.76 46.04H61.5M27.24 23.56h-6.23m6.23 4.41h-4.01m22.49 22.86h3.81M10.88 37.47h27.54M32.94 8.96h26.07v12.35H32.94zm13.28 12.35v6.46"/><path d="M40 16.86a.83.83 0 00-.33-.7 4.23 4.23 0 00-1.16-.51 7.7 7.7 0 01-1.32-.54 2.16 2.16 0 01-1.33-1.94 1.87 1.87 0 01.36-1.17 2.28 2.28 0 011-.77 3.75 3.75 0 011.5-.28 3.51 3.51 0 011.49.3 2.34 2.34 0 011 .86 2.25 2.25 0 01.36 1.25H40a1 1 0 00-.34-.83 1.37 1.37 0 00-1-.3 1.48 1.48 0 00-.92.25.81.81 0 00-.32.66.75.75 0 00.38.64 4.42 4.42 0 001.2.52 4.82 4.82 0 012 1 2 2 0 01.63 1.52 1.9 1.9 0 01-.76 1.6 3.43 3.43 0 01-2.07.57 4.05 4.05 0 01-1.65-.33 2.64 2.64 0 01-1.13-.9 2.34 2.34 0 01-.39-1.33h1.62c0 .86.52 1.29 1.55 1.29a1.52 1.52 0 00.89-.23.77.77 0 00.31-.63zm9.14-1.68a4.78 4.78 0 01-.41 2 3.06 3.06 0 01-1.17 1.34 3.49 3.49 0 01-3.48 0 3.15 3.15 0 01-1.18-1.34 4.51 4.51 0 01-.42-2v-.39a4.78 4.78 0 01.41-2 3.06 3.06 0 011.18-1.35 3.2 3.2 0 011.74-.44 3.14 3.14 0 011.73.47 3.06 3.06 0 011.18 1.35 4.62 4.62 0 01.42 2zm-1.64-.35a3.23 3.23 0 00-.44-1.83 1.55 1.55 0 00-2.5 0 3.18 3.18 0 00-.45 1.85v.38a3.36 3.36 0 00.44 1.77 1.43 1.43 0 001.27.66 1.4 1.4 0 001.24-.64 3.26 3.26 0 00.44-1.85zm5.7 1.22h-1.28v2.87h-1.61v-7.83h2.9a3.29 3.29 0 012.14.62 2.14 2.14 0 01.75 1.75 2.39 2.39 0 01-.34 1.33 2.32 2.32 0 01-1 .85l1.69 3.2v.08h-1.78zm-1.28-1.3h1.3a1.36 1.36 0 00.94-.31 1.11 1.11 0 00.33-.85 1.17 1.17 0 00-.31-.87 1.32 1.32 0 00-1-.32h-1.26z"/><path fill="none" d="M0 0h70v70H0z"/></svg>