<svg xmlns="http://www.w3.org/2000/svg" xmlns:xlink="http://www.w3.org/1999/xlink" viewBox="0 0 70 70"><style>.st0{stroke:#19a301;stroke-width:2.4;stroke-linecap:round;stroke-linejoin:round}.st0,.st2,.st5{fill:none}.st5{stroke:#000;stroke-width:1.5;stroke-linecap:round;stroke-linejoin:round;stroke-miterlimit:10}</style><symbol id="OCENSA-EXT" viewBox="-35 -7.5 70 15"><path id="Line_4_2_" class="st0" d="M6.68 0h8.37"/><path id="Line_5_2_" class="st0" d="M23.41 0h.67"/><path id="Line_6_2_" class="st0" d="M-24.08 0h8.29"/><path id="Line_7_2_" fill="none" stroke="#82d400" stroke-width="2.4" stroke-linecap="round" stroke-linejoin="round" d="M-16.33 0H-1.7"/><path class="st2" d="M-35-7.5h70v15h-70z"/></symbol><g id="Capa_1"><use xlink:href="#OCENSA-EXT" width="70" height="15" x="-35" y="-7.5" transform="matrix(1 0 0 -1 35 62.5)" overflow="visible"/><path class="st2" d="M0 0h70v70H0z"/><circle id="Ellipse_2_135_" cx="18" cy="15.64" r="5.8" fill="none" stroke="#19a301" stroke-width="1.5" stroke-linecap="round" stroke-linejoin="round"/><path class="st5" d="M26.39 15H52v29m-34 0V23.91"/><path class="st5" d="M10 39.3c4.16 0 4.16 5 8.33 5s4.17-5 8.33-5c4.17 0 4.17 5 8.33 5 4.17 0 4.17-5 8.33-5 4.17 0 4.17 5 8.34 5s4.17-5 8.34-5m-50 10c4.16 0 4.16 5 8.33 5s4.17-5 8.33-5c4.17 0 4.17 5 8.33 5 4.17 0 4.17-5 8.33-5 4.17 0 4.17 5 8.34 5s4.17-5 8.34-5M21.5 26h7v9h-7zm10 0h7v9h-7zm10 0h7v9h-7z"/></g></svg>