<svg xmlns="http://www.w3.org/2000/svg" width="200" height="200"><g data-name="Grupo 24997"><path data-name="Trazado 29439" d="M100 0A100 100 0 110 100 100 100 0 01100 0z" fill="#2e3d43"/><g data-name="Grupo 24911"><path data-name="Rectángulo 7961" fill="none" d="M65 64.794h70v70H65z"/><g data-name="Grupo 24951" fill="none" stroke-linecap="round" stroke-linejoin="round" stroke-width="1.5"><g data-name="Grupo 24949" transform="translate(65 64.794)"><circle data-name="Ellipse 2" cx="5.795" cy="5.795" r="5.795" transform="translate(12.383 9.149)" stroke="#19a301"/><path data-name="Trazado 29872" d="M45.655 9.941v8h7.323" stroke="#fff"/><path data-name="Trazado 29873" d="M16.8 24.284v19.649A10.366 10.366 0 0027.167 54.3h25.811V17.943" stroke="#fff"/><path data-name="Trazado 29874" d="M52.969 17.784l-7.475-8.327-1.75.016H25.489" stroke="#fff"/><path data-name="Línea 4196" stroke="#fff" d="M27.041 44.171h16.85"/><path data-name="Línea 4197" stroke="#fff" d="M27.041 49.404h16.85"/></g><g data-name="Grupo 24950" stroke="#fff"><path data-name="Trazado 29875" d="M96.123 94.049l2.166 2.945 5.271-5.954"/><path data-name="Trazado 29876" d="M108.12 90.233a9.1 9.1 0 11-12.063-4.494 9.076 9.076 0 0112.063 4.494z"/></g></g><g data-name="Grupo 24954"><g data-name="Grupo 24953" fill="none"><g data-name="Grupo 24952" stroke-linecap="round" stroke-linejoin="round" stroke-width="2.4"><path data-name="Line 4" stroke="#19a301" d="M106.677 127.294h8.375"/><path data-name="Line 5" stroke="#19a301" d="M123.405 127.294h.679"/><path data-name="Line 6" stroke="#19a301" d="M75.916 127.294h8.298"/><path data-name="Line 7" stroke="#82d400" d="M83.674 127.294h14.628"/></g><path data-name="Rectángulo 7962" d="M65 119.794h70v15H65z"/></g></g></g></g></svg>