<svg data-name="Capa 1" xmlns="http://www.w3.org/2000/svg" xmlns:xlink="http://www.w3.org/1999/xlink" viewBox="0 0 70 70"><defs><symbol id="a" data-name="OCENSA-EXT" viewBox="0 0 70 15"><path data-name="Line 4" fill="none" stroke="#19a301" stroke-linecap="round" stroke-linejoin="round" stroke-width="2.4" d="M41.68 7.5h8.37"/><path data-name="Line 5" fill="none" stroke="#19a301" stroke-linecap="round" stroke-linejoin="round" stroke-width="2.4" d="M58.4 7.5h.68"/><path data-name="Line 6" fill="none" stroke="#19a301" stroke-linecap="round" stroke-linejoin="round" stroke-width="2.4" d="M10.92 7.5h8.29"/><path data-name="Line 7" fill="none" stroke="#82d400" stroke-linecap="round" stroke-linejoin="round" stroke-width="2.4" d="M18.67 7.5H33.3"/><path fill="none" d="M0 0h70v15H0z"/></symbol></defs><circle data-name="Ellipse 2" cx="14.56" cy="14.12" r="5.8" fill="none" stroke="#19a301" stroke-linecap="round" stroke-linejoin="round" stroke-width="1.5"/><path d="M34.77 53.9H14.25V23.36m9.34-11.16H41.9l6.85 7.08v15.88" fill="none" stroke="#000" stroke-linecap="round" stroke-linejoin="round" stroke-width="1.5"/><path fill="none" stroke="#000" stroke-linecap="round" stroke-linejoin="round" stroke-width="1.5" d="M48.75 50.3v3.6H28.21m13.56-41.7v7.64h6.99m-29 6.87h23M19 36h23m-2.35 10.71H19.76"/><path fill="none" d="M-.45-.29h70v70h-70z"/><path d="M51.42 29.26l-9 20a.77.77 0 00.7 1.08h19a.76.76 0 00.68-1.1l-10-20a.75.75 0 00-1.38.02zm.87 7.96v5.22" fill="none" stroke="#000" stroke-linecap="round" stroke-linejoin="round" stroke-width="1.5"/><ellipse cx="52.29" cy="45.95" rx="1.51" ry="1.46"/><use width="70" height="15" transform="translate(0 55)" xlink:href="#a"/></svg>