<svg xmlns="http://www.w3.org/2000/svg" xmlns:xlink="http://www.w3.org/1999/xlink" viewBox="0 0 70 70"><style>.st0{stroke:#19a301;stroke-width:2.4;stroke-linecap:round;stroke-linejoin:round}.st0,.st2,.st5{fill:none}.st5{stroke:#000;stroke-width:1.5;stroke-linecap:round;stroke-linejoin:round;stroke-miterlimit:10}</style><symbol id="OCENSA-EXT" viewBox="-35 -7.5 70 15"><path id="Line_4_2_" class="st0" d="M6.68 0h8.37"/><path id="Line_5_2_" class="st0" d="M23.41 0h.67"/><path id="Line_6_2_" class="st0" d="M-24.08 0h8.29"/><path id="Line_7_2_" fill="none" stroke="#82d400" stroke-width="2.4" stroke-linecap="round" stroke-linejoin="round" d="M-16.33 0H-1.7"/><path class="st2" d="M-35-7.5h70v15h-70z"/></symbol><g id="Capa_1"><use xlink:href="#OCENSA-EXT" width="70" height="15" x="-35" y="-7.5" transform="matrix(1 0 0 -1 35 62.5)" overflow="visible"/><path class="st2" d="M0 0h70v70H0z"/><circle id="Ellipse_2_132_" cx="16.5" cy="27.32" r="5.8" fill="none" stroke="#19a301" stroke-width="1.5" stroke-linecap="round" stroke-linejoin="round"/><path class="st5" d="M22.35 20.5a16.33 16.33 0 015.17-3.41c2.42-1 5.48-1.76 9.3-1.97l.82-2.73c.2-.65.68-1.16 1.32-1.4 2.58-.96 9.58-2.86 15.83 1.92.68.52.99 1.4.78 2.23-.57 2.32-2.7 6.91-10.51 9.4-.73.23-1.52.19-2.21-.14l-2.51-1.23s-10.17 2.14-12.19 15.19c-.3 1.96-.12 3.99.7 5.79 1.65 3.65 6.32 7.97 19.45 5.02 0 0-4.16 7.04-14.42 4.79-4-.88-7.66-3-10.44-6.01-2.47-2.68-5.18-6.67-5.98-11.84"/><path class="st5" d="M35.15 25.75l3.13 2.67c.94.79 1.05 2.19.26 3.13-.8.93-2.2 1.04-3.13.25l-3.42-2.91m-.55-13.03l-.67-4.21a2.218 2.218 0 00-4.38.7l.77 4.9m2.65 28.56l2.88-1.66c1.06-.61 1.43-1.97.81-3.03a2.211 2.211 0 00-3.03-.81l-2.38 1.37m-4.16 6.79l-4.47 1.44c-1.16.37-2.41-.27-2.79-1.44-.38-1.16.26-2.41 1.43-2.79l2.82-.91"/><circle class="st5" cx="47.29" cy="20.5" r="2"/><circle class="st5" cx="43.29" cy="12.5" r="2"/><path class="st5" d="M55.75 14.26s3.54.24 3.54-2.76"/><path class="st2" d="M.72-10.44h70.71V3.69H.72z"/><text transform="translate(.718 -5.469)" font-size="7" font-family="MyriadPro-Regular">vivienda</text></g></svg>