<svg xmlns="http://www.w3.org/2000/svg" width="70" height="70"><g data-name="Grupo 24429"><path data-name="Rectángulo 7779" fill="none" d="M0 0h70v70H0z"/></g><path data-name="Rectángulo 7780" fill="none" d="M0 55h70v15H0z"/><path fill="none" stroke="#fff" stroke-linecap="round" stroke-linejoin="round" stroke-width="2.4" d="M41.7 62.5h8.4"/><path fill="none" stroke="#82d400" stroke-linecap="round" stroke-linejoin="round" stroke-width="2.4" d="M58.4 62.5h.7"/><path fill="none" stroke="#fff" stroke-linecap="round" stroke-linejoin="round" stroke-width="2.4" d="M10.9 62.5h8.3"/><path fill="none" stroke="#82d400" stroke-linecap="round" stroke-linejoin="round" stroke-width="2.4" d="M18.7 62.5h14.6"/><path data-name="Trazado 29488" d="M30.3 15.6l3.6-6.3 11.7 20.2 11.6 20.2H10.6L21.4 31" fill="none" stroke="#fff" stroke-linecap="round" stroke-linejoin="round" stroke-miterlimit="10" stroke-width="1.5"/><g data-name="Grupo 24431"><g data-name="Grupo 24430"><path data-name="Trazado 29489" d="M35.9 22.4l-1 15.3a1 1 0 01-2 0l-1-15.3a2 2 0 014-.2z" fill="#fff"/></g><path data-name="Línea 3897" fill="none" stroke="#fff" stroke-linecap="round" stroke-linejoin="round" stroke-miterlimit="10" stroke-width="5" d="M33.9 42.7h0"/></g><circle cx="5.8" cy="5.8" r="5.8" transform="translate(18.7 17.1)" fill="none" stroke="#fff" stroke-linecap="round" stroke-linejoin="round" stroke-width="1.5"/></svg>