<svg xmlns="http://www.w3.org/2000/svg" width="70" height="70"><g data-name="Grupo 24918" transform="translate(92)" fill="none"><g data-name="Grupo 24917"><g data-name="Grupo 24916" stroke-linecap="round" stroke-linejoin="round" stroke-width="2.4"><path data-name="Line 4" stroke="#19a301" d="M-50.323 62.5h8.375"/><path data-name="Line 5" stroke="#19a301" d="M-33.595 62.5h.679"/><path data-name="Line 6" stroke="#19a301" d="M-81.084 62.5h8.298"/><path data-name="Line 7" stroke="#82d400" d="M-73.326 62.5h14.628"/></g><path data-name="Rectángulo 7783" d="M-92 55h70v15h-70z"/></g><path data-name="Rectángulo 7784" d="M-92 0h70v70h-70z"/><circle data-name="Ellipse 2" cx="5.795" cy="5.795" r="5.795" transform="translate(-85.493 15.205)" stroke="#19a301" stroke-linecap="round" stroke-linejoin="round" stroke-width="1.5"/><path data-name="Trazado 29275" d="M-80.657 30.415v16.117a1.393 1.393 0 001.39 1.4h43.657a2.294 2.294 0 002.3-2.294h0V19.6a1.4 1.4 0 00-1.394-1.4h-35.724" stroke="#000" stroke-linecap="round" stroke-linejoin="round" stroke-width="1.5"/><path data-name="Trazado 29276" d="M-54.048 29.865l-.8-.464-5.6-3.258-.022 6.477-.022 6.477 5.62-3.22 5.62-3.22-4.8-2.794" stroke="#000" stroke-linecap="round" stroke-linejoin="round" stroke-width="1.5"/></g></svg>