<svg data-name="Grupo 23651" xmlns="http://www.w3.org/2000/svg" width="70" height="70"><g data-name="Grupo 23649"><g data-name="Grupo 23648" fill="none"><g data-name="Grupo 23647" stroke-linecap="round" stroke-linejoin="round" stroke-width="2.4"><path data-name="Line 4" stroke="#19a301" d="M41.677 62.5h8.375"/><path data-name="Line 5" stroke="#19a301" d="M58.405 62.5h.679"/><path data-name="Line 6" stroke="#19a301" d="M10.916 62.5h8.298"/><path data-name="Line 7" stroke="#82d400" d="M18.674 62.5h14.628"/></g><path data-name="Rectángulo 7290" d="M0 55h70v15H0z"/></g></g><path data-name="Rectángulo 7291" fill="none" d="M0 0h70v70H0z"/><g data-name="Grupo 23650" fill="none" stroke-linecap="round" stroke-linejoin="round" stroke-width="1.5"><circle data-name="Ellipse 2" cx="5.795" cy="5.795" r="5.795" transform="translate(8.507 31.205)" stroke="#19a301"/><path data-name="Línea 3876" stroke="#fff" d="M14.048 45.472v8.691"/><path data-name="Línea 3877" stroke="#fff" d="M9.795 54.163h51.698"/><path data-name="Línea 3878" stroke="#fff" d="M38.784 37.414v16.687"/><path data-name="Línea 3879" stroke="#fff" d="M48.914 54.055V20.099"/><path data-name="Línea 3880" stroke="#fff" d="M43.821 27.138l5.018 3.595"/><path data-name="Línea 3881" stroke="#fff" d="M53.932 22.052l-5.018 3.07"/><path data-name="Trazado 29179" d="M43.92 39.67l-17.848-9.907-4.562 2.183" stroke="#fff"/><circle data-name="Elipse 3187" cx="11.847" cy="11.847" r="11.847" transform="translate(37.13 12.032)" stroke="#fff"/></g></svg>