<svg data-name="Capa 1" xmlns="http://www.w3.org/2000/svg" xmlns:xlink="http://www.w3.org/1999/xlink" viewBox="0 0 70 70"><defs><symbol id="a" data-name="OCENSA-EXT" viewBox="0 0 70 15"><path data-name="Line 4" fill="none" stroke="#19a301" stroke-linecap="round" stroke-linejoin="round" stroke-width="2.4" d="M41.68 7.5h8.37"/><path data-name="Line 5" fill="none" stroke="#19a301" stroke-linecap="round" stroke-linejoin="round" stroke-width="2.4" d="M58.4 7.5h.68"/><path data-name="Line 6" fill="none" stroke="#19a301" stroke-linecap="round" stroke-linejoin="round" stroke-width="2.4" d="M10.92 7.5h8.29"/><path data-name="Line 7" fill="none" stroke="#82d400" stroke-linecap="round" stroke-linejoin="round" stroke-width="2.4" d="M18.67 7.5H33.3"/><path fill="none" d="M0 0h70v15H0z"/></symbol></defs><use width="70" height="15" transform="translate(0 55)" xlink:href="#a"/><path fill="none" stroke="#fff" stroke-linecap="round" stroke-linejoin="round" stroke-width="1.288" d="M18.54 26.93l.75 4.69 8.07 2.44h3.48l2.53-7.23 2.91 1.79-2.07 3.28.76 1.69 4.5-4.41 2.35.19 6.29-5.35-1.22-5.63 1.22-.47 1.59 2.44 1.69-.85 1.97-8.16L59.75 9l4.03 1.13-3.1 5.44-1.31 5.16-4.41 3.01.66 8.35 2.34-.09-1.03 5.91-1.88-.66-5.82 5.07-2.06-2.06-2.63 3.38 1.03 2.06-1.5 2.25-1.22-.65-.47 4.97-1.13 1.32-3.09-1.04-3.29-3h-2.91l-.19-1.6 1.79-1.87-.75-3.66-1.32-1.22h-.47l.1-1.41-3.48-3.1-4.03 3.66-4.88-2.25-1.51-6.1-6.66.56.52-2.26"/><circle data-name="Ellipse 2" cx="12.02" cy="21.09" r="5.8" fill="none" stroke="#19a301" stroke-linecap="round" stroke-linejoin="round" stroke-width="1.5"/><path fill="none" d="M0 0h70v70H0z"/></svg>