<svg xmlns="http://www.w3.org/2000/svg" width="200" height="200"><g data-name="Grupo 24998"><path data-name="Trazado 29438" d="M100 0A100 100 0 110 100 100 100 0 01100 0z" fill="#8999a2"/><g data-name="Grupo 24910"><path data-name="Rectángulo 7959" fill="none" d="M65 64.794h70v70H65z"/><g data-name="Grupo 24944" fill="none" stroke="#fff" stroke-linecap="round" stroke-linejoin="round" stroke-width="1.5"><g data-name="Grupo 24942" transform="translate(65 64.794)"><circle data-name="Elipse 3264" cx="4.016" cy="4.016" r="4.016" transform="translate(31.664 24.707)"/><path data-name="Trazado 29868" d="M44.178 21.876l-2.756.3a2.875 2.875 0 01-2.941-1.7l-1.115-2.529a11.018 11.018 0 00-1.685-.143 13.184 13.184 0 00-1.681.145l-1.115 2.529a2.876 2.876 0 01-2.941 1.7l-2.756-.3a10.9 10.9 0 00-1.688 2.914l1.635 2.234a2.873 2.873 0 010 3.4L25.5 32.655a10.914 10.914 0 001.679 2.916l2.756-.3a2.875 2.875 0 012.941 1.7L34 39.5a9.931 9.931 0 003.37 0l1.115-2.528a2.874 2.874 0 012.941-1.7l2.756.3a10.914 10.914 0 001.679-2.916l-1.635-2.234a2.873 2.873 0 010-3.4l1.635-2.234a10.9 10.9 0 00-1.683-2.912z"/></g><g data-name="Grupo 24943" transform="translate(65 64.794)"><circle data-name="Ellipse 2" cx="5.795" cy="5.795" r="5.795" transform="translate(12.383 9.149)"/><path data-name="Trazado 29869" d="M45.655 9.941v8h7.323"/><path data-name="Trazado 29870" d="M16.8 24.284v19.649A10.366 10.366 0 0027.167 54.3h25.811V17.943"/><path data-name="Trazado 29871" d="M52.969 17.784l-7.475-8.327-1.75.016H25.489"/><path data-name="Línea 4194" d="M27.041 44.171h16.85"/><path data-name="Línea 4195" d="M27.041 49.404h16.85"/></g></g><g data-name="Grupo 24947"><g data-name="Grupo 24946" fill="none"><g data-name="Grupo 24945" stroke-linecap="round" stroke-linejoin="round" stroke-width="2.4"><path data-name="Line 4" stroke="#fff" d="M106.677 127.294h8.375"/><path data-name="Line 5" stroke="#82d400" d="M123.405 127.294h.679"/><path data-name="Line 6" stroke="#fff" d="M75.916 127.294h8.298"/><path data-name="Line 7" stroke="#82d400" d="M83.674 127.294h14.628"/></g><path data-name="Rectángulo 7960" d="M65 119.794h70v15H65z"/></g></g></g></g></svg>