<svg version="1.1" id="Capa_1" xmlns="http://www.w3.org/2000/svg" x="0" y="0" viewBox="0 0 40 40" xml:space="preserve"><style>.st0{fill:none;stroke:#19a301;stroke-linecap:round;stroke-linejoin:round;stroke-miterlimit:10}</style><circle class="st0" cx="13.1" cy="24.7" r="4.8"/><path class="st0" d="M16.5 15.3l-2 1.5c-.9.7-2.2.7-3.1 0l-2.1-1.5c-.5.2-.9.4-1.4.7-.4.3-.9.7-1.2 1l.3 2.5c.1 1.1-.5 2.2-1.5 2.7l-2.3 1.1c-.1 1-.1 2.1 0 3.1l2.3 1c1.1.4 1.7 1.5 1.6 2.7l-.2 2.5c.8.6 1.7 1.1 2.7 1.5l2-1.5c.9-.7 2.2-.7 3.1 0l2.1 1.5c.5-.2.9-.4 1.4-.7s.9-.6 1.3-.9l-.3-2.5c-.1-1.1.5-2.2 1.5-2.7l2.3-1.1c.1-1 .1-2.1 0-3.1l-2.3-1c-1.1-.4-1.7-1.5-1.6-2.7l.2-2.5c-.9-.7-1.8-1.3-2.8-1.6z"/><circle class="st0" cx="28.9" cy="14.3" r="4"/><path class="st0" d="M36.7 17.1l-1.3-1.7c-.6-.8-.6-1.8-.1-2.6l1.2-1.7-.6-1.2c-.2-.4-.5-.8-.8-1l-2.1.3c-.9.1-1.9-.4-2.3-1.2l-.9-1.9c-.8-.1-1.7-.1-2.6.1l-.8 2c-.4.9-1.3 1.4-2.2 1.4l-2.1-.2c-.5.7-.9 1.5-1.2 2.3l1.3 1.7c.6.8.6 1.8.1 2.6l-1.2 1.7.6 1.2c.2.4.5.7.8 1l2.1-.3c.9-.1 1.9.4 2.3 1.2l.9 1.9c.8.1 1.7.1 2.6-.1l.8-2c.4-.9 1.3-1.4 2.2-1.4l2.1.2c.5-.7.9-1.5 1.2-2.3z"/><path fill="none" d="M0 0h40v40H0z"/></svg>