<svg version="1.1" id="Layer_1" xmlns="http://www.w3.org/2000/svg" xmlns:xlink="http://www.w3.org/1999/xlink" x="0" y="0" viewBox="0 0 70 70" xml:space="preserve"><style>.st0{stroke:#19a301;stroke-width:2.4;stroke-linecap:round;stroke-linejoin:round}.st0,.st2{fill:none}</style><symbol id="OCENSA-EXT" viewBox="-35 -7.5 70 15"><path id="Line_4_1_" class="st0" d="M6.7 0h8.4"/><path id="Line_5_1_" class="st0" d="M23.4 0h.7"/><path id="Line_6_1_" class="st0" d="M-24.1 0h8.3"/><path id="Line_7_1_" fill="none" stroke="#82d400" stroke-width="2.4" stroke-linecap="round" stroke-linejoin="round" d="M-16.3 0h14.6"/><path class="st2" d="M-35-7.5h70v15h-70z"/></symbol><g id="Capa_2"><path class="st2" d="M0 0h70v70H0z"/><circle id="Ellipse_2_144_" cx="20.4" cy="41.6" r="5.8" fill="none" stroke="#19a301" stroke-width="1.5" stroke-linecap="round" stroke-linejoin="round"/><path d="M61.6 54.3H8.4m5.9-.1l2.3-4.9m39.3 4.8L43.7 25.5l-4 3-6.8-14.8-9.1 19.8m15 5.2h13.6m-5.3 5.2h7.4" stroke="#fff" stroke-width="1.5" stroke-linecap="round" stroke-linejoin="round" stroke-miterlimit="10" fill="none"/><defs><path id="SVGID_1_" d="M0 55h70v15H0z"/></defs><clipPath id="SVGID_2_"><use xlink:href="#SVGID_1_" overflow="visible"/></clipPath><g clip-path="url(#SVGID_2_)"><use xlink:href="#OCENSA-EXT" width="70" height="15" x="-35" y="-7.5" transform="matrix(1 0 0 -1 35 62.5)" overflow="visible"/></g></g></svg>