<svg data-name="Capa 1" xmlns="http://www.w3.org/2000/svg" xmlns:xlink="http://www.w3.org/1999/xlink" viewBox="0 0 70 70"><defs><symbol id="a" data-name="OCENSA-EXT" viewBox="0 0 70 15"><path data-name="Line 4" fill="none" stroke="#19a301" stroke-linecap="round" stroke-linejoin="round" stroke-width="2.4" d="M41.68 7.5h8.37"/><path data-name="Line 5" fill="none" stroke="#19a301" stroke-linecap="round" stroke-linejoin="round" stroke-width="2.4" d="M58.4 7.5h.68"/><path data-name="Line 6" fill="none" stroke="#19a301" stroke-linecap="round" stroke-linejoin="round" stroke-width="2.4" d="M10.92 7.5h8.29"/><path data-name="Line 7" fill="none" stroke="#82d400" stroke-linecap="round" stroke-linejoin="round" stroke-width="2.4" d="M18.67 7.5H33.3"/><path fill="none" d="M0 0h70v15H0z"/></symbol></defs><path fill="none" d="M0 0h70v70H0z"/><circle data-name="Ellipse 2" cx="23.7" cy="25.64" r="5.8" fill="none" stroke="#19a301" stroke-linecap="round" stroke-linejoin="round" stroke-width="1.5"/><path fill="none" stroke="#000" stroke-linecap="round" stroke-linejoin="round" stroke-width="1.5" d="M14.74 30.93H9.71v11.64h41.63m3.21-2.27v-9.37H32.22M9.71 43.38H5.76V30.12h3.95zm44.84-3.08V30.12h3.95v9.91M37.02 27.01v3.92h11.72v-7.41H37.02v3.49zM43 23.52V19m3.38 0h-7"/><path d="M9.71 35.4c3.2 0 3.2 2.69 6.4 2.69s3.2-2.69 6.41-2.69 3.2 2.69 6.4 2.69 3.2-2.69 6.4-2.69 3.21 2.69 6.41 2.69 3.21-2.69 6.41-2.69 3.21 2.69 6.41 2.69" fill="none" stroke="#000" stroke-linecap="round" stroke-linejoin="round" stroke-width="1.5"/><circle cx="56.98" cy="47.13" r="7.26" fill="none" stroke="#000" stroke-linecap="round" stroke-linejoin="round" stroke-width="1.5"/><path fill="none" stroke="#000" stroke-linecap="round" stroke-linejoin="round" stroke-width="1.5" d="M53.26 46.64l2.28 3.45 4.48-6.26"/><use width="70" height="15" transform="translate(0 55)" xlink:href="#a"/></svg>