<svg xmlns="http://www.w3.org/2000/svg" width="29" height="42.95"><g data-name="Grupo 24884" transform="translate(-966.246 -2982.05)"><circle data-name="Elipse 2754" cx="6" cy="6" r="6" transform="translate(975.016 2982.05)" fill="#172211" opacity=".7" style="mix-blend-mode:multiply;isolation:isolate"/><path data-name="Trazado 12028" d="M980.746 2996a14.5 14.5 0 0114.5 14.5 14.5 14.5 0 01-14.5 14.5 14.5 14.5 0 01-14.5-14.5 14.5 14.5 0 0114.5-14.5z" fill="#ffff10"/><path data-name="Trazado 12029" d="M985.696 2997.446l-4.95 4.95-4.95-4.95 4.95-9.396z" fill="#ffff10"/><g data-name="Group 13222" fill="none" stroke="#00009e" stroke-linecap="round" stroke-linejoin="round" stroke-width="1.4"><path data-name="Path 11404" d="M978.998 3005.14a2.973 2.973 0 01-2.974 2.972 2.972 2.972 0 01-2.972-2.974 2.973 2.973 0 012.973-2.972 2.966 2.966 0 012.973 2.957z"/><path data-name="Path 11405" d="M981.811 3002.639a8.159 8.159 0 015.232 2.378"/><path data-name="Path 11406" d="M975.471 3016.589a8.152 8.152 0 01-2.4-5.656"/><path data-name="Path 11407" d="M987.043 3005.016a8.183 8.183 0 010 11.573 8.182 8.182 0 01-11.572 0"/></g></g></svg>