<svg version="1.1" id="Grupo_24204" xmlns="http://www.w3.org/2000/svg" x="0" y="0" viewBox="0 0 70 70" xml:space="preserve"><style>.st0,.st1{stroke-width:2.4;stroke-linecap:round;stroke-linejoin:round}.st0{fill:none;stroke:#fff}.st1{stroke:#82d400}.st1,.st2{fill:none}.st3,.st4{fill:none;stroke:#fff;stroke-width:1.5;stroke-linecap:round;stroke-linejoin:round}.st4{stroke-width:1.63}</style><g id="Grupo_24187"><g id="Grupo_24186"><g id="Grupo_24185"><path id="Line_4" class="st0" d="M41.7 62.5h8.4"/><path id="Line_5" class="st1" d="M58.4 62.5h.7"/><path id="Line_6" class="st0" d="M10.9 62.5h8.3"/><path id="Line_7" class="st1" d="M18.7 62.5h14.6"/></g><path id="Rectángulo_7720" class="st2" d="M0 55h70v15H0z"/></g></g><path id="Rectángulo_7721" class="st2" d="M0 0h70v70H0z"/><path id="Trazado_29418" class="st3" d="M33.9 53.9h13.3"/><g id="Grupo_24190"><circle id="Ellipse_2" class="st3" cx="15.5" cy="14.6" r="5.8"/><path id="Trazado_29419" class="st3" d="M36.1 53.9H22.9c-4.6 0-8.4-3.7-8.4-8.4V23.8"/><path id="Trazado_29420" class="st3" d="M23.4 8.8h20.2l7.2 7.5v7.4"/><path id="Trazado_29421" class="st3" d="M43.5 8.8v8h7.4"/><path id="Línea_3902" class="st3" d="M23.5 32.8h19"/><path id="Línea_3903" class="st3" d="M40.7 40.8H23.5"/><g id="Grupo_24188"><path id="Línea_3904" class="st4" d="M48.1 33.8v2.9"/><path id="Línea_3905" class="st4" d="M52.4 33.8v2.9"/><path id="Trazado_29422" class="st4" d="M48.1 36.7l-5.7 2.6c-1.4.6-2.2 2-2.2 3.4v11.2h20.1V42.7c0-1.5-.9-2.8-2.2-3.4l-5.7-2.6"/><path id="Línea_3906" class="st4" d="M50.3 39.1l-2.2-2.4"/><path id="Línea_3907" class="st4" d="M50.3 39.1l2.1-2.4"/><path id="Trazado_29423" class="st4" d="M54.2 30.4c0 2.2-1.8 4-4 4s-4-1.8-4-4"/><path id="Trazado_29424" class="st4" d="M46.2 30.4v-2.8c0-2.2 1.8-4 4-4s4 1.8 4 4v2.8"/></g><g id="Grupo_24189"><path id="Trazado_29425" class="st3" d="M32.5 21.5c-1.3 0-2.3-1-2.3-2.3s1-2.3 2.3-2.3 2.3 1 2.3 2.3"/><path id="Trazado_29426" class="st3" d="M32.5 21.5c1.3 0 2.3 1 2.3 2.3s-1 2.3-2.3 2.3-2.3-1-2.3-2.3"/><path id="Línea_3908" class="st3" d="M32.5 16.8v-1.2"/><path id="Línea_3909" class="st3" d="M32.5 27.5v-1.3"/></g></g></svg>