<svg xmlns="http://www.w3.org/2000/svg" width="70" height="70"><g data-name="Group 23941" fill="none"><g data-name="Group 23938"><g data-name="Group 23937" stroke-linecap="round" stroke-linejoin="round" stroke-width="2.4"><path data-name="Line 4" stroke="#19a301" d="M41.677 62.5h8.375"/><path data-name="Line 5" stroke="#19a301" d="M58.405 62.5h.679"/><path data-name="Line 6" stroke="#19a301" d="M10.916 62.5h8.298"/><path data-name="Line 7" stroke="#82d400" d="M18.674 62.5h14.628"/></g><path data-name="Rectangle 7402" d="M0 55h70v15H0z"/></g><path data-name="Rectangle 7403" d="M0 0h70v70H0z"/><path data-name="Path 29357" d="M33.94 53.87h13.28" stroke="#000" stroke-linecap="round" stroke-linejoin="round" stroke-width="1.5"/><g data-name="Group 23940" stroke-linecap="round" stroke-linejoin="round" transform="translate(-180)"><circle data-name="Ellipse 2" cx="5.795" cy="5.795" r="5.795" transform="translate(189.703 8.843)" stroke="#19a301" stroke-width="1.5"/><path data-name="Path 29358" d="M216.145 53.873h-13.282a8.36 8.36 0 01-8.36-8.36V23.759" stroke="#000" stroke-width="1.5"/><path data-name="Path 29359" d="M203.437 8.79h20.23l7.22 7.46v7.44" stroke="#000" stroke-width="1.5"/><path data-name="Path 29360" d="M223.524 8.786v8.048h7.366" stroke="#000" stroke-width="1.5"/><path data-name="Line 3868" stroke="#000" stroke-width="1.5" d="M203.461 32.774h19.055"/><path data-name="Line 3869" stroke="#000" stroke-width="1.5" d="M220.747 40.77h-17.29"/><g data-name="Group 23939" stroke="#000" stroke-width="1.63"><path data-name="Line 3870" d="M228.125 33.799v2.907"/><path data-name="Line 3871" d="M232.378 33.799v2.907"/><path data-name="Path 29361" d="M228.125 36.712l-5.7 2.561a3.766 3.766 0 00-2.221 3.433v11.167H240.3V42.706a3.765 3.765 0 00-2.221-3.433l-5.7-2.561"/><path data-name="Line 3872" d="M230.252 39.117l-2.127-2.412"/><path data-name="Line 3873" d="M230.252 39.117l2.127-2.412"/><path data-name="Path 29362" d="M234.243 30.4a4.008 4.008 0 11-8.017 0"/><path data-name="Path 29363" d="M226.226 30.4v-2.764a4.008 4.008 0 018.017 0V30.4"/></g><path data-name="Path 29364" d="M208 24l3 3 6-8" stroke="#000" stroke-width="1.5"/></g></g></svg>