<svg xmlns="http://www.w3.org/2000/svg" width="70" height="70"><g data-name="Grupo 24761"><g data-name="Grupo 24762" fill="none"><g data-name="Grupo 24761" stroke-linecap="round" stroke-linejoin="round" stroke-width="2.4"><path data-name="Line 4" stroke="#19a301" d="M41.677 62.5h8.375"/><path data-name="Line 5" stroke="#19a301" d="M58.405 62.5h.679"/><path data-name="Line 6" stroke="#19a301" d="M10.916 62.5h8.298"/><path data-name="Line 7" stroke="#82d400" d="M18.674 62.5h14.628"/></g><path data-name="Rectángulo 7907" d="M0 55h70v15H0z"/></g><path data-name="Rectángulo 7908" fill="none" d="M0 0h70v70H0z"/><g data-name="Grupo 24765" transform="translate(-180 90)"><circle data-name="Ellipse 2" cx="5.795" cy="5.795" r="5.795" transform="translate(187.041 -59.157)" fill="none" stroke="#19a301" stroke-linecap="round" stroke-linejoin="round" stroke-width="1.5"/><g data-name="Grupo 24763" fill="none" stroke="#000" stroke-linecap="round" stroke-linejoin="round" stroke-width="1.5"><path data-name="Línea 4108" d="M205.019-65.174v4.539"/><path data-name="Línea 4109" d="M211.661-65.174v4.539"/><path data-name="Trazado 29763" d="M192.653-44.182v8.276h31.374v-15.358a5.878 5.878 0 00-3.468-5.361l-8.9-4"/><path data-name="Línea 4110" d="M205.019-60.625l-4.531 2.037"/><path data-name="Línea 4111" d="M208.34-56.869l-3.321-3.766"/><path data-name="Línea 4112" d="M208.34-56.869l3.321-3.766"/><path data-name="Trazado 29766" d="M214.573-70.476a6.259 6.259 0 01-6.259 6.259 6.26 6.26 0 01-6.26-6.259"/><path data-name="Trazado 29767" d="M202.054-70.476V-74.8a6.26 6.26 0 016.26-6.259 6.259 6.259 0 016.259 6.259v4.322"/></g><g data-name="Grupo 24764"><path data-name="Trazado 29768" d="M224.161-64.256h4.207l.077 4.526a.344.344 0 00.57.253l5.457-4.779h6.077a2.41 2.41 0 002.41-2.411v-10.927a2.41 2.41 0 00-2.41-2.406h-16.388a2.411 2.411 0 00-2.411 2.411v10.927a2.411 2.411 0 002.411 2.406z" fill="none" stroke="#000" stroke-linecap="round" stroke-linejoin="round" stroke-width="1.5"/><path data-name="Línea 4113" fill="none" stroke="#000" stroke-linecap="round" stroke-linejoin="round" stroke-width="1.5" d="M232.693-76.681v5.34"/><circle data-name="Elipse 3257" cx="1.085" cy="1.085" r="1.085" transform="translate(231.608 -69.346)"/></g></g></g></svg>