<svg data-name="Grupo 24567" xmlns="http://www.w3.org/2000/svg" width="70" height="70"><g data-name="Grupo 24571"><g data-name="Grupo 24567" fill="none" stroke="#fff" stroke-linecap="round" stroke-linejoin="round" stroke-width="1.5"><path data-name="Trazado 29441" d="M64.982 42.731c0 3.187-5.77 11.031-5.77 11.031s-5.77-7.844-5.77-11.031a5.77 5.77 0 0111.54 0z"/><circle data-name="Elipse 3223" cx="1.771" cy="1.771" r="1.771" transform="translate(57.442 40.786)"/></g><g data-name="Grupo 24570"><g data-name="Grupo 24568" fill="none" stroke-linecap="round" stroke-linejoin="round" stroke-width="1.5"><path data-name="Trazado 29442" d="M17.91 8.592a3.417 3.417 0 11-4.528-1.687 3.407 3.407 0 014.528 1.687z" stroke="#19a301" opacity=".85"/><path data-name="Trazado 29443" d="M45.922 32.262V20.025a1.06 1.06 0 00-1.059-1.06H12.029a1.228 1.228 0 00-1.229 1.227v11.33" stroke="#fff"/><path data-name="Línea 3955" stroke="#fff" d="M26.879 22.776l-16.076.003"/><path data-name="Línea 3956" stroke="#fff" d="M20.272 22.766v9.512"/><path data-name="Línea 3957" stroke="#fff" d="M20.268 26h-5.429"/><path data-name="Línea 3958" stroke="#fff" d="M20.275 29.367h-5.429"/><path data-name="Línea 3959" stroke="#fff" d="M14.821 22.766v11.41"/><path data-name="Línea 3960" stroke="#fff" d="M26.898 19.007v15.539"/><path data-name="Trazado 29444" d="M14.933 16.086v2.87h26.3v-8.648a1.075 1.075 0 00-1.075-1.075H21.139" stroke="#fff"/><path data-name="Rectángulo 7869" d="M24.689 5.051h11.188a.882.882 0 01.882.882v3.3h0-13.09 0V6.071a1.02 1.02 0 011.02-1.02z" stroke="#fff"/><path data-name="Línea 3961" stroke="#fff" d="M20.819 12.857h20.45"/></g><g data-name="Grupo 24569"><path data-name="Trazado 29445" d="M49.817 34.582c-2.8 0-2.8-2.735-5.6-2.735s-2.8 2.735-5.6 2.735-2.8-2.735-5.6-2.735-2.8 2.735-5.6 2.735-2.8-2.735-5.6-2.735-2.8 2.735-5.6 2.735-2.8-2.735-5.605-2.735-2.8 2.735-5.605 2.735" fill="none" stroke="#fff" stroke-linecap="round" stroke-linejoin="round" stroke-width="1.5"/></g></g><path data-name="Trazado 29446" d="M15.961 39v13.255h36.511" fill="none" stroke="#fff" stroke-linecap="round" stroke-linejoin="round" stroke-width="1.5" stroke-dasharray="4.257"/></g><g data-name="Grupo 24574"><g data-name="Grupo 24573" fill="none"><g data-name="Grupo 24572" stroke-linecap="round" stroke-linejoin="round" stroke-width="2.4"><path data-name="Line 4" stroke="#19a301" d="M41.677 62.5h8.375"/><path data-name="Line 5" stroke="#19a301" d="M58.405 62.5h.679"/><path data-name="Line 6" stroke="#19a301" d="M10.916 62.5h8.298"/><path data-name="Line 7" stroke="#82d400" d="M18.674 62.5h14.628"/></g><path data-name="Rectángulo 7870" d="M0 55h70v15H0z"/></g></g><path data-name="Rectángulo 7871" fill="none" d="M0 0h70v70H0z"/></svg>