<svg xmlns="http://www.w3.org/2000/svg" xmlns:xlink="http://www.w3.org/1999/xlink" viewBox="0 0 70 70"><style>.st0{stroke:#19a301;stroke-width:2.4;stroke-linecap:round;stroke-linejoin:round}.st0,.st2,.st5{fill:none}.st5{stroke:#000;stroke-width:1.5;stroke-linecap:round;stroke-linejoin:round;stroke-miterlimit:10}</style><symbol id="OCENSA-EXT" viewBox="-35 -7.5 70 15"><path id="Line_4_2_" class="st0" d="M6.68 0h8.37"/><path id="Line_5_2_" class="st0" d="M23.41 0h.67"/><path id="Line_6_2_" class="st0" d="M-24.08 0h8.29"/><path id="Line_7_2_" fill="none" stroke="#82d400" stroke-width="2.4" stroke-linecap="round" stroke-linejoin="round" d="M-16.33 0H-1.7"/><path class="st2" d="M-35-7.5h70v15h-70z"/></symbol><g id="Capa_1"><use xlink:href="#OCENSA-EXT" width="70" height="15" x="-35" y="-7.5" transform="matrix(1 0 0 -1 35 62.5)" overflow="visible"/><path class="st2" d="M0 0h70v70H0z"/><circle id="Ellipse_2_138_" cx="41.04" cy="40.22" r="5.22" fill="none" stroke="#19a301" stroke-width="1.5" stroke-linecap="round" stroke-linejoin="round"/><path class="st5" d="M25.4 18.65s-8.99-2.94-10.16-3.09c0 0 2.35 11.03 16.91 17.79 2.37 1.1-1.91 4.85-3.09 11.18-1.18 6.32-8.97 9.41-8.97 9.41h9.16s2.99-4.15 2.79-9.13"/><path class="st5" d="M43.21 28.55s-.1-4.19-4.89-6.98S24.56 9 24.56 9s-.06 10.55 3.29 15.46c3.23 4.74 6.54 8.12 6.54 8.12m8.69.35c.42-1.14.84-2 1.93-2.08 1.4-.1 1.9.1 1.9.1M29.06 44.53s2.41.34 5.29-.86m15.34-11.52v6.08c2.66-.15 4.67-2.53 4.94-4.33.53-3.47-.58-6.55-3.62-8.27"/><circle class="st5" cx="49.45" cy="28.67" r="3.41"/><path class="st5" d="M42.62 26.28s3.54-1.43 6.83-1.01"/></g></svg>