<svg xmlns="http://www.w3.org/2000/svg" width="70" height="70"><g data-name="Grupo 24432"><path data-name="Rectángulo 7781" fill="none" d="M0 0h70v70H0z"/></g><path data-name="Rectángulo 7782" fill="none" d="M0 55h70v15H0z"/><path fill="none" stroke="#fff" stroke-linecap="round" stroke-linejoin="round" stroke-width="2.4" d="M41.7 62.5h8.4"/><path fill="none" stroke="#82d400" stroke-linecap="round" stroke-linejoin="round" stroke-width="2.4" d="M58.4 62.5h.7"/><path fill="none" stroke="#fff" stroke-linecap="round" stroke-linejoin="round" stroke-width="2.4" d="M10.9 62.5h8.3"/><path fill="none" stroke="#82d400" stroke-linecap="round" stroke-linejoin="round" stroke-width="2.4" d="M18.7 62.5h14.6"/><circle cx="5.8" cy="5.8" r="5.8" transform="translate(9.9 16.2)" fill="none" stroke="#fff" stroke-linecap="round" stroke-linejoin="round" stroke-width="1.5"/><path data-name="Trazado 29490" d="M54.5 22.4v29.2h-39V30.7" fill="none" stroke="#fff" stroke-linecap="round" stroke-linejoin="round" stroke-miterlimit="10" stroke-width="1.5"/><path data-name="Trazado 29491" d="M15.5 13.5v-3h31.9" fill="none" stroke="#fff" stroke-linecap="round" stroke-linejoin="round" stroke-miterlimit="10" stroke-width="1.5"/><path data-name="Trazado 29492" d="M50.1 21.1v5.8H26V15.6h20.5" fill="none" stroke="#fff" stroke-linecap="round" stroke-linejoin="round" stroke-miterlimit="10" stroke-width="1.5"/><g data-name="Grupo 24433" fill="none" stroke="#fff" stroke-linecap="round" stroke-linejoin="round" stroke-miterlimit="10" stroke-width="1.5"><path data-name="Línea 3898" d="M20.6 33.2h5.5"/><path data-name="Línea 3899" d="M32.2 33.2h5.6"/><path data-name="Línea 3900" d="M43.9 33.2h5.5"/></g><g data-name="Grupo 24434" fill="none" stroke="#fff" stroke-linecap="round" stroke-linejoin="round" stroke-miterlimit="10" stroke-width="1.5"><path data-name="Línea 3901" d="M20.6 38.7h5.5"/><path data-name="Línea 3902" d="M32.2 38.7h5.6"/><path data-name="Línea 3903" d="M43.9 38.7h5.5"/></g><path data-name="Rectángulo 7783" fill="none" stroke="#fff" stroke-linecap="round" stroke-linejoin="round" stroke-miterlimit="10" stroke-width="1.5" d="M54.5 40.2h4.6v9.5h-4.6z"/><path data-name="Trazado 29493" d="M30.5 26.9a7.3 7.3 0 1114.6 0" fill="none" stroke="#fff" stroke-linecap="round" stroke-linejoin="round" stroke-miterlimit="10" stroke-width="1.5"/><path data-name="Línea 3904" fill="none" stroke="#fff" stroke-linecap="round" stroke-linejoin="round" stroke-miterlimit="10" stroke-width="1.5" d="M37.8 26.9l1.6-3.7"/><circle data-name="Elipse 3197" cx="8" cy="8" r="8" transform="translate(46.5 6.3)" fill="none" stroke="#fff" stroke-linecap="round" stroke-linejoin="round" stroke-miterlimit="10" stroke-width="1.5"/><g data-name="Grupo 24437" fill="none" stroke="#fff" stroke-linecap="round" stroke-linejoin="round" stroke-miterlimit="10" stroke-width="1.5"><g data-name="Grupo 24435"><path data-name="Trazado 29494" d="M54.5 14.2a2 2 0 112-2"/><path data-name="Trazado 29495" d="M54.5 14.2a2.2 2.2 0 11-2.2 2.2"/></g><g data-name="Grupo 24436"><path data-name="Línea 3905" d="M54.6 10.2V8.6"/><path data-name="Línea 3906" d="M54.6 20.1v-1.6"/></g></g></svg>