<svg xmlns="http://www.w3.org/2000/svg" xmlns:xlink="http://www.w3.org/1999/xlink" viewBox="0 0 70 70"><style>.st0{stroke:#19a301;stroke-width:2.4;stroke-linecap:round;stroke-linejoin:round}.st0,.st2{fill:none}</style><symbol id="OCENSA-EXT" viewBox="-35 -7.5 70 15"><path id="Line_4_2_" class="st0" d="M6.68 0h8.37"/><path id="Line_5_2_" class="st0" d="M23.41 0h.67"/><path id="Line_6_2_" class="st0" d="M-24.08 0h8.29"/><path id="Line_7_2_" fill="none" stroke="#82d400" stroke-width="2.4" stroke-linecap="round" stroke-linejoin="round" d="M-16.33 0H-1.7"/><path class="st2" d="M-35-7.5h70v15h-70z"/></symbol><g id="Capa_1"><use xlink:href="#OCENSA-EXT" width="70" height="15" x="-35" y="-7.5" transform="matrix(1 0 0 -1 35 62.5)" overflow="visible"/><path class="st2" d="M0 0h70v70H0z"/><circle id="Ellipse_2_175_" cx="19.25" cy="40.51" r="5.8" fill="none" stroke="#19a301" stroke-width="1.5" stroke-linecap="round" stroke-linejoin="round"/><path fill="none" stroke="#000" stroke-width="1.5" stroke-linecap="round" stroke-linejoin="round" stroke-miterlimit="10" d="M25.24 34.36l5.37-3.84-1.51-9.12 2.11-3.09-.38-9.5 3.77 3.01-.06 4.18 2.1 1.03 5.73 3.09 1.66-1.66 6.86 5.73-1.06 4.82 6.71 2.79v8.9l-2.04.82-3.01-2.86-.75 1.51 1.58 5.43-5.73 5.27h-3.77l-3.39 4-1.59-1.21 1.89-4.75-2.34-.68-2.64 4.07-3.61 3.55-8.46-7.42"/></g></svg>