<svg data-name="Group 22399" xmlns="http://www.w3.org/2000/svg" width="70" height="70"><g data-name="Group 22401"><g data-name="Group 22400" fill="none"><g data-name="Group 22399" stroke-linecap="round" stroke-linejoin="round" stroke-width="2.4"><path data-name="Line 4" stroke="#19a301" d="M41.677 62.5h8.375"/><path data-name="Line 5" stroke="#19a301" d="M58.405 62.5h.679"/><path data-name="Line 6" stroke="#19a301" d="M10.916 62.5h8.298"/><path data-name="Line 7" stroke="#82d400" d="M18.674 62.5h14.628"/></g><path data-name="Rectangle 6888" d="M0 55h70v15H0z"/></g></g><path data-name="Rectangle 6889" fill="none" d="M0 0h70v70H0z"/><g data-name="Group 22405" fill="none" stroke-linecap="round" stroke-linejoin="round" stroke-width="1.5"><circle data-name="Ellipse 2" cx="5.795" cy="5.795" r="5.795" transform="translate(20.775 33.634)" stroke="#19a301"/><path data-name="Path 28528" d="M35.089 40.718h22.327v11.644H12.577V40.718h5.037" stroke="#000"/><path data-name="Rectangle 6890" stroke="#000" d="M12.577 53.169H8.63V39.911h3.947z"/><path data-name="Rectangle 6891" stroke="#000" d="M61.37 53.169h-3.947V39.911h3.947z"/><path data-name="Path 28529" d="M39.892 35.345v5.373h11.717V30.563H39.892z" stroke="#000"/><g data-name="Group 22402" stroke="#000"><path data-name="Line 3057" d="M40.983 46.564h11.863"/><path data-name="Path 28530" d="M49.96 43.544l3.02 3.02-3.02 3.02"/></g><g data-name="Group 22404" stroke="#000"><circle data-name="Elipse 2295" cx="7.768" cy="7.768" r="7.768" transform="translate(37.982 8.831)"/><g data-name="Group 22403"><path data-name="Line 3058" d="M46.094 16.131h1.47"/><path data-name="Line 3059" d="M45.483 18.161V14"/></g></g><path data-name="Line 3060" stroke="#000" d="M45.87 30.561v-6.19"/></g></svg>