<svg xmlns="http://www.w3.org/2000/svg" width="70" height="70"><g data-name="Group 22441" transform="translate(180)"><g data-name="Group 22442" fill="none"><g data-name="Group 22441" stroke-linecap="round" stroke-linejoin="round" stroke-width="2.4"><path data-name="Line 4" stroke="#19a301" d="M-138.323 62.5h8.375"/><path data-name="Line 5" stroke="#19a301" d="M-121.595 62.5h.679"/><path data-name="Line 6" stroke="#19a301" d="M-169.084 62.5h8.298"/><path data-name="Line 7" stroke="#82d400" d="M-161.326 62.5h14.628"/></g><path data-name="Rectangle 6906" d="M-180 55h70v15h-70z"/></g><path data-name="Rectangle 6907" fill="none" d="M-180 0h70v70h-70z"/><circle data-name="Ellipse 2" cx="5.795" cy="5.795" r="5.795" transform="translate(-174.986 18.843)" fill="none" stroke="#19a301" stroke-linecap="round" stroke-linejoin="round" stroke-width="1.5"/><path data-name="Rectángulo 2137" fill="none" stroke="#000" stroke-linecap="round" stroke-linejoin="round" stroke-width="1.5" d="M-141.142 33.183h17.581v20.911h-17.581z"/><path data-name="Trazado 5455" d="M-157.542 11.706h-11.1V15.7" fill="none" stroke="#000" stroke-linecap="round" stroke-linejoin="round" stroke-width="1.5"/><path data-name="Trazado 5456" d="M-168.643 33.816v20.278h11.1V12.126" fill="none" stroke="#000" stroke-linecap="round" stroke-linejoin="round" stroke-width="1.5"/><path data-name="Path 28559" d="M-157.556 33.184h5.983a4.021 4.021 0 013.857 4.158v5.983a4 4 0 003.842 4.145h2.594" fill="none" stroke="#000" stroke-linecap="round" stroke-linejoin="round" stroke-width="1.5"/><path data-name="Trazado 5459" d="M-157.236 16.276h.684c2.832 0 5.125 1.858 5.125 4.151V54.1" fill="none" stroke="#000" stroke-linecap="round" stroke-linejoin="round" stroke-width="1.5"/><path data-name="Línea 708" fill="none" stroke="#000" stroke-linecap="round" stroke-linejoin="round" stroke-width="1.659" d="M-118 54.094h-55.426"/><path data-name="Trazado 5460" d="M-132.16 38.552c-.664 1.67-1.348 3.325-2.028 4.99-.545 1.328-1.2 2.776-.239 4.083a2.866 2.866 0 002.267 1.193 2.935 2.935 0 002.667-1.909c.482-1.2-.1-2.552-.618-3.621-.622-1.288-2.095-4.622-2.049-4.736z" fill="none" stroke="#000" stroke-linecap="round" stroke-linejoin="round" stroke-width="1.5"/><path data-name="Rectangle 6908" fill="none" stroke="#000" stroke-linecap="round" stroke-linejoin="round" stroke-width="1.5" d="M-145.389 14.376h26.075v12.351h-26.075z"/><path data-name="Line 3078" fill="none" stroke="#000" stroke-linecap="round" stroke-linejoin="round" stroke-width="1.5" d="M-132.115 26.727v6.457"/><g data-name="Group 22443" stroke="#000" stroke-miterlimit="10" stroke-width=".437"><path data-name="Path 28560" d="M-136.419 23.509a2.488 2.488 0 01-.954.788 3.777 3.777 0 01-1.764.359 2.973 2.973 0 01-2.205-.882 3.116 3.116 0 01-.872-2.285V19.9a3.177 3.177 0 01.841-2.285 2.861 2.861 0 012.168-.882 2.888 2.888 0 012.03.684 2.2 2.2 0 01.724 1.742l-.01.033h-1a1.615 1.615 0 00-.454-1.172 1.719 1.719 0 00-1.29-.468 1.749 1.749 0 00-1.423.661 2.56 2.56 0 00-.539 1.676v1.6a2.494 2.494 0 00.571 1.689 1.839 1.839 0 001.459.664 2.732 2.732 0 001.081-.177 1.549 1.549 0 00.6-.421V21.51h-1.744v-.81h2.786z"/><path data-name="Path 28561" d="M-133.747 21.209v3.336h-1.041v-7.693h2.633a2.93 2.93 0 011.93.56 2.01 2.01 0 01.666 1.629 1.743 1.743 0 01-.309 1.031 2.1 2.1 0 01-.9.7 1.573 1.573 0 01.912.669 2.179 2.179 0 01.278 1.144v.725a2.4 2.4 0 00.079.645.961.961 0 00.275.465v.127h-1.076a.861.861 0 01-.265-.528 4.364 4.364 0 01-.058-.72v-.7a1.393 1.393 0 00-.364-1 1.3 1.3 0 00-.979-.38zm0-.82h1.486a1.934 1.934 0 001.272-.335 1.282 1.282 0 00.388-1.024 1.319 1.319 0 00-.378-1.007 1.665 1.665 0 00-1.176-.357h-1.592z"/><path data-name="Path 28562" d="M-123.756 22.563h-2.9l-.688 1.982h-1.056l2.776-7.7h.893l2.718 7.7h-1.063zm-2.6-.873h2.3l-1.121-3.305h-.031z"/></g></g></svg>