<svg xmlns="http://www.w3.org/2000/svg" width="70" height="70"><g data-name="Group 22456" transform="translate(180 89.472)"><g data-name="Group 22457" fill="none"><g data-name="Group 22456" stroke-linecap="round" stroke-linejoin="round" stroke-width="2.4"><path data-name="Line 4" stroke="#19a301" d="M-138.323-26.971h8.375"/><path data-name="Line 5" stroke="#19a301" d="M-121.595-26.971h.679"/><path data-name="Line 6" stroke="#19a301" d="M-169.084-26.971h8.298"/><path data-name="Line 7" stroke="#82d400" d="M-161.326-26.971h14.628"/></g><path data-name="Rectangle 6921" d="M-180-34.471h70v15h-70z"/></g><path data-name="Rectangle 6922" fill="none" d="M-180-89.471h70v70h-70z"/><circle data-name="Ellipse 2" cx="5.795" cy="5.795" r="5.795" transform="translate(-174.986 -70.628)" fill="none" stroke="#19a301" stroke-linecap="round" stroke-linejoin="round" stroke-width="1.5"/><path data-name="Rectángulo 2137" fill="none" stroke="#000" stroke-linecap="round" stroke-linejoin="round" stroke-width="1.5" d="M-141.142-56.289h17.581v20.911h-17.581z"/><path data-name="Trazado 5455" d="M-157.542-77.765h-11.1v3.994" fill="none" stroke="#000" stroke-linecap="round" stroke-linejoin="round" stroke-width="1.5"/><path data-name="Trazado 5456" d="M-168.643-55.655v20.278h11.1v-41.968" fill="none" stroke="#000" stroke-linecap="round" stroke-linejoin="round" stroke-width="1.5"/><path data-name="Path 28579" d="M-157.556-56.288h5.983a4.021 4.021 0 013.857 4.158v5.984A4 4 0 00-143.874-42h2.594" fill="none" stroke="#000" stroke-linecap="round" stroke-linejoin="round" stroke-width="1.5"/><path data-name="Trazado 5459" d="M-157.236-73.195h.684c2.832 0 5.125 1.857 5.125 4.15v33.673" fill="none" stroke="#000" stroke-linecap="round" stroke-linejoin="round" stroke-width="1.5"/><path data-name="Línea 708" fill="none" stroke="#000" stroke-linecap="round" stroke-linejoin="round" stroke-width="1.659" d="M-118-35.377h-55.426"/><path data-name="Trazado 5460" d="M-132.16-50.919c-.664 1.67-1.348 3.325-2.028 4.99-.545 1.328-1.2 2.775-.239 4.083a2.866 2.866 0 002.267 1.193 2.935 2.935 0 002.667-1.909c.482-1.2-.1-2.553-.618-3.621-.622-1.292-2.095-4.622-2.049-4.736z" fill="none" stroke="#000" stroke-linecap="round" stroke-linejoin="round" stroke-width="1.5"/><path data-name="Rectangle 6923" fill="none" stroke="#000" stroke-linecap="round" stroke-linejoin="round" stroke-width="1.5" d="M-145.389-75.095h26.075v12.351h-26.075z"/><path data-name="Line 3083" fill="none" stroke="#000" stroke-linecap="round" stroke-linejoin="round" stroke-width="1.5" d="M-132.115-62.744v6.457"/><g data-name="Group 22458" stroke="#000" stroke-miterlimit="10" stroke-width=".437"><path data-name="Path 28580" d="M-137.677-66.318h.031l2.4-6.112h1.266v7.522h-1.017v-5.636l-.031-.005-2.279 5.641h-.708l-2.345-5.827h-.031v5.822h-1.018v-7.517h1.338z"/><path data-name="Path 28581" d="M-130.6-64.908h-1.023v-7.522h1.023z"/><path data-name="Path 28582" d="M-127.241-68.167v3.259h-1.018v-7.517h2.573a2.859 2.859 0 011.886.548 1.963 1.963 0 01.651 1.591 1.709 1.709 0 01-.3 1.008 2.062 2.062 0 01-.881.681 1.544 1.544 0 01.891.654 2.138 2.138 0 01.271 1.118v.708a2.386 2.386 0 00.077.631.949.949 0 00.269.454v.124h-1.049a.843.843 0 01-.258-.516 4.266 4.266 0 01-.057-.7v-.687a1.358 1.358 0 00-.356-.982 1.265 1.265 0 00-.956-.371zm0-.8h1.452a1.893 1.893 0 001.242-.327 1.251 1.251 0 00.38-1 1.291 1.291 0 00-.369-.985 1.631 1.631 0 00-1.15-.348h-1.555z"/></g></g></svg>