<svg data-name="Group 22652" xmlns="http://www.w3.org/2000/svg" width="106" height="70"><g data-name="Group 22654"><g data-name="Group 22653" fill="none"><g data-name="Group 22652" stroke-linecap="round" stroke-linejoin="round" stroke-width="2.4"><path data-name="Line 4" stroke="#19a301" d="M59.677 62.5h8.375"/><path data-name="Line 5" stroke="#19a301" d="M76.405 62.5h.679"/><path data-name="Line 6" stroke="#19a301" d="M28.916 62.5h8.298"/><path data-name="Line 7" stroke="#82d400" d="M36.674 62.5h14.628"/></g><path data-name="Rectangle 7009" d="M18 55h70v15H18z"/></g></g><g data-name="Group 22656"><circle data-name="Ellipse 2" cx="5.795" cy="5.795" r="5.795" transform="translate(13.748 10.141)" fill="none" stroke="#19a301" stroke-linecap="round" stroke-linejoin="round" stroke-width="1.5"/><path data-name="Path 28788" d="M88.5 50l4.183-15.488a.6.6 0 00-.735-.712L83.2 36.167a1.58 1.58 0 01-.4.053H20.106a.7.7 0 00-.7.7v4.225a.877.877 0 00.876.876h2.122l.075.3c.411 1.623-1.429 8.248-1.98 9.683" fill="none" stroke="#fff" stroke-linecap="round" stroke-linejoin="round" stroke-width="1.5"/><path data-name="Path 28789" d="M27.112 10.543H32.3a.658.658 0 01.586.71v2.536h3.591a1.243 1.243 0 011.243 1.244v7.055h-9.951" fill="none" stroke="#fff" stroke-linecap="round" stroke-linejoin="round" stroke-width="1.5"/><path data-name="Line 3161" fill="none" stroke="#fff" stroke-linecap="round" stroke-linejoin="round" stroke-width="1.5" d="M22.405 42.02h68.314"/><path data-name="Path 28790" d="M20.6 33.235v2.985h27.086v-6.132H20.6z" fill="none" stroke="#fff" stroke-linecap="round" stroke-linejoin="round" stroke-width="1.5"/><path data-name="Path 28791" d="M37.33 22.088h7.17v8" fill="none" stroke="#fff" stroke-linecap="round" stroke-linejoin="round" stroke-width="1.5"/><path data-name="Path 28792" d="M79.83 36.2H76.5v-15h4v14.82" fill="none" stroke="#fff" stroke-linecap="round" stroke-linejoin="round" stroke-width="1.5"/><g data-name="Group 22655"><path data-name="Path 28793" d="M94.5 53.32c-5.928 0-5.928-6.64-11.855-6.64s-5.926 6.64-11.852 6.64-5.927-6.64-11.854-6.64-5.929 6.64-11.858 6.64-5.928-6.64-11.855-6.64-5.932 6.64-11.863 6.64-5.932-6.64-11.863-6.64" fill="none" stroke="#fff" stroke-linecap="round" stroke-linejoin="round" stroke-width="1.5"/></g><path data-name="Line 3162" fill="none" stroke="#fff" stroke-linecap="round" stroke-linejoin="round" stroke-width="1.5" d="M23.479 30.088V24"/><path data-name="Rectangle 7010" fill="none" stroke="#fff" stroke-linecap="round" stroke-linejoin="round" stroke-width="1.5" d="M63.5 27.2h13v9h-13z"/></g><path data-name="Rectangle 7011" fill="none" d="M0 0h106v70H0z"/></svg>