<svg xmlns="http://www.w3.org/2000/svg" width="70" height="70"><g data-name="Group 22615" transform="translate(-189 -190)"><g data-name="Group 22616" fill="none"><g data-name="Group 22615" stroke-linecap="round" stroke-linejoin="round" stroke-width="2.4"><path data-name="Line 4" stroke="#19a301" d="M230.677 252.5h8.375"/><path data-name="Line 5" stroke="#19a301" d="M247.405 252.5h.679"/><path data-name="Line 6" stroke="#19a301" d="M199.916 252.5h8.298"/><path data-name="Line 7" stroke="#82d400" d="M207.674 252.5h14.628"/></g><path data-name="Rectangle 6987" d="M189 245h70v15h-70z"/></g><circle data-name="Ellipse 2" cx="5.795" cy="5.795" r="5.795" transform="translate(202.405 199.405)" fill="none" stroke="#19a301" stroke-linecap="round" stroke-linejoin="round" stroke-width="1.5"/><rect data-name="Rectangle 6988" width="9.125" height="4.631" rx=".722" transform="translate(218.823 198)" fill="none" stroke="#000" stroke-linecap="round" stroke-linejoin="round" stroke-width="1.5"/><path data-name="Path 28746" d="M211.388 213.644v1.966h-1.212a1.5 1.5 0 00-1.5 1.5v.713a1.5 1.5 0 001.5 1.5h1.212v7.2h-1.212a1.5 1.5 0 00-1.5 1.5v.713a1.5 1.5 0 001.5 1.5h1.212v9.267h25.52v-9.267h1.212a1.5 1.5 0 001.5-1.5v-.713a1.5 1.5 0 00-1.5-1.5h-1.212v-7.2h1.212a1.5 1.5 0 001.5-1.5v-.713a1.5 1.5 0 00-1.5-1.5h-1.212v-8.554h-18.775" fill="none" stroke="#000" stroke-linecap="round" stroke-linejoin="round" stroke-width="1.5"/><rect data-name="Rectangle 6989" width="30.938" height="4.425" rx="1.687" transform="translate(208.679 239.491)" fill="none" stroke="#000" stroke-linecap="round" stroke-linejoin="round" stroke-width="1.5"/><path data-name="Path 28747" d="M216.809 202.631h21.712a1.1 1.1 0 011.1 1.1v2.234a1.1 1.1 0 01-1.1 1.1h-21.36" fill="none" stroke="#000" stroke-linecap="round" stroke-linejoin="round" stroke-width="1.5"/><g data-name="Group 22617"><path data-name="Path 28748" d="M220.479 219.451a1.552 1.552 0 01-2.309-.021 2.064 2.064 0 01-.445-1.381 2.28 2.28 0 01.226-1.02 1.7 1.7 0 01.645-.711 1.83 1.83 0 01.968-.254 1.644 1.644 0 011.364.641 2.7 2.7 0 01.5 1.715v.266a3.5 3.5 0 01-.7 2.347 2.616 2.616 0 01-2.074.821h-.113v-.786h.137a1.936 1.936 0 001.289-.4 1.69 1.69 0 00.512-1.217zm-.915-.238a.96.96 0 00.536-.164 1.077 1.077 0 00.386-.453v-.371a1.79 1.79 0 00-.257-1.012.778.778 0 00-.668-.383.767.767 0 00-.655.338 1.427 1.427 0 00-.244.853 1.405 1.405 0 00.246.864.779.779 0 00.656.328z"/><path data-name="Path 28749" d="M225.025 219.451a1.551 1.551 0 01-2.308-.021 2.065 2.065 0 01-.446-1.381 2.281 2.281 0 01.227-1.02 1.691 1.691 0 01.645-.711 1.83 1.83 0 01.968-.254 1.644 1.644 0 011.364.641 2.7 2.7 0 01.5 1.715v.266a3.5 3.5 0 01-.7 2.347 2.616 2.616 0 01-2.074.821h-.101v-.786h.136a1.933 1.933 0 001.289-.4 1.682 1.682 0 00.5-1.217zm-.914-.238a.956.956 0 00.535-.164 1.086 1.086 0 00.387-.453v-.371a1.782 1.782 0 00-.258-1.012.776.776 0 00-.668-.383.766.766 0 00-.654.338 1.427 1.427 0 00-.244.853 1.405 1.405 0 00.246.864.779.779 0 00.656.328z"/><path data-name="Path 28750" d="M229.572 219.451a1.551 1.551 0 01-2.308-.021 2.065 2.065 0 01-.446-1.381 2.281 2.281 0 01.227-1.02 1.7 1.7 0 01.644-.711 1.836 1.836 0 01.969-.254 1.642 1.642 0 011.363.641 2.7 2.7 0 01.5 1.715v.266a3.5 3.5 0 01-.695 2.347 2.616 2.616 0 01-2.074.821h-.113v-.786h.136a1.933 1.933 0 001.289-.4 1.682 1.682 0 00.508-1.217zm-.914-.238a.956.956 0 00.535-.164 1.086 1.086 0 00.387-.453v-.371a1.782 1.782 0 00-.258-1.012.777.777 0 00-.668-.383.766.766 0 00-.654.338 1.427 1.427 0 00-.244.853 1.405 1.405 0 00.246.864.779.779 0 00.656.328z"/></g><g data-name="Group 22618"><path data-name="Path 28751" d="M216.292 227.494l-.369.379v1.207h-.831v-5.25h.831v3.028l.259-.325 1.022-1.151h1l-1.374 1.542 1.521 2.156h-.96z"/><path data-name="Path 28752" d="M218.53 227.2a2.156 2.156 0 01.406-1.375 1.3 1.3 0 011.074-.515 1.221 1.221 0 011 .441l.038-.372h.748v3.585a1.486 1.486 0 01-.453 1.148 1.722 1.722 0 01-1.222.421 1.986 1.986 0 01-.795-.169 1.416 1.416 0 01-.589-.443l.393-.5a1.189 1.189 0 00.944.454.912.912 0 00.652-.224.857.857 0 00.24-.658v-.25a1.219 1.219 0 01-.957.4 1.293 1.293 0 01-1.061-.515 2.233 2.233 0 01-.418-1.428zm.828.072a1.487 1.487 0 00.227.877.731.731 0 00.631.32.8.8 0 00.745-.431v-1.627a.79.79 0 00-.739-.42.735.735 0 00-.637.324 1.666 1.666 0 00-.227.96z"/><path data-name="Path 28753" d="M222.878 229.508h-.653l1.959-5.4h.653z"/><path data-name="Path 28754" d="M226.194 225.382l.023.386a1.333 1.333 0 011.067-.455 1.022 1.022 0 011.015.568 1.313 1.313 0 011.135-.568 1.151 1.151 0 01.91.339 1.487 1.487 0 01.307 1v2.43h-.831v-2.406a.734.734 0 00-.154-.516.673.673 0 00-.509-.164.687.687 0 00-.463.152.792.792 0 00-.251.4v2.536h-.831v-2.434a.591.591 0 00-.666-.652.732.732 0 00-.708.406v2.68h-.83v-3.7z"/><path data-name="Path 28755" d="M232.172 225.724h.392a.7.7 0 00.471-.155.549.549 0 00.173-.437.6.6 0 00-.144-.427.579.579 0 00-.441-.153.615.615 0 00-.427.15.5.5 0 00-.167.39h-.644a.975.975 0 01.158-.54 1.059 1.059 0 01.44-.381 1.443 1.443 0 01.632-.136 1.326 1.326 0 01.907.29 1.017 1.017 0 01.33.807.824.824 0 01-.165.49 1.043 1.043 0 01-.428.346.949.949 0 01.484.341.938.938 0 01.165.557 1.04 1.04 0 01-.356.827 1.566 1.566 0 01-1.849.01.975.975 0 01-.355-.79h.644a.539.539 0 00.171.414.648.648 0 00.46.159.666.666 0 00.471-.159.6.6 0 00.173-.461.607.607 0 00-.181-.47.771.771 0 00-.535-.163h-.379z"/></g><path data-name="Rectangle 6990" fill="none" d="M189 190h70v70h-70z"/></g></svg>