<svg xmlns="http://www.w3.org/2000/svg" width="70" height="70"><g data-name="Group 22447" transform="translate(360)"><g data-name="Group 22448" fill="none"><g data-name="Group 22447" stroke-linecap="round" stroke-linejoin="round" stroke-width="2.4"><path data-name="Line 4" stroke="#19a301" d="M-318.323 62.5h8.375"/><path data-name="Line 5" stroke="#19a301" d="M-301.595 62.5h.679"/><path data-name="Line 6" stroke="#19a301" d="M-349.084 62.5h8.298"/><path data-name="Line 7" stroke="#82d400" d="M-341.326 62.5h14.628"/></g><path data-name="Rectangle 6912" d="M-360 55h70v15h-70z"/></g><path data-name="Rectangle 6913" fill="none" d="M-360 0h70v70h-70z"/><circle data-name="Ellipse 2" cx="5.795" cy="5.795" r="5.795" transform="translate(-354.986 18.843)" fill="none" stroke="#19a301" stroke-linecap="round" stroke-linejoin="round" stroke-width="1.5"/><path data-name="Rectángulo 2137" fill="none" stroke="#000" stroke-linecap="round" stroke-linejoin="round" stroke-width="1.5" d="M-321.142 33.183h17.581v20.911h-17.581z"/><path data-name="Trazado 5455" d="M-337.542 11.706h-11.1V15.7" fill="none" stroke="#000" stroke-linecap="round" stroke-linejoin="round" stroke-width="1.5"/><path data-name="Trazado 5456" d="M-348.643 33.816v20.278h11.1V12.126" fill="none" stroke="#000" stroke-linecap="round" stroke-linejoin="round" stroke-width="1.5"/><path data-name="Path 28567" d="M-337.556 33.184h5.983a4.021 4.021 0 013.857 4.158v5.983a4 4 0 003.842 4.145h2.594" fill="none" stroke="#000" stroke-linecap="round" stroke-linejoin="round" stroke-width="1.5"/><path data-name="Trazado 5459" d="M-337.236 16.276h.684c2.832 0 5.125 1.858 5.125 4.151V54.1" fill="none" stroke="#000" stroke-linecap="round" stroke-linejoin="round" stroke-width="1.5"/><path data-name="Línea 708" fill="none" stroke="#000" stroke-linecap="round" stroke-linejoin="round" stroke-width="1.659" d="M-298 54.094h-55.426"/><path data-name="Trazado 5460" d="M-312.16 38.552c-.664 1.67-1.348 3.325-2.028 4.99-.545 1.328-1.2 2.776-.239 4.083a2.866 2.866 0 002.267 1.193 2.935 2.935 0 002.667-1.909c.482-1.2-.1-2.552-.618-3.621-.622-1.288-2.095-4.622-2.049-4.736z" fill="none" stroke="#000" stroke-linecap="round" stroke-linejoin="round" stroke-width="1.5"/><path data-name="Rectangle 6914" fill="none" stroke="#000" stroke-linecap="round" stroke-linejoin="round" stroke-width="1.5" d="M-325.389 14.376h26.075v12.351h-26.075z"/><path data-name="Line 3080" fill="none" stroke="#000" stroke-linecap="round" stroke-linejoin="round" stroke-width="1.5" d="M-312.115 26.727v6.457"/><g data-name="Group 22449" stroke="#000" stroke-miterlimit="10" stroke-width=".437"><path data-name="Path 28568" d="M-315.535 21.95l.01.031a2.316 2.316 0 01-.761 1.814 2.909 2.909 0 01-2.068.73 2.716 2.716 0 01-2.128-.926 3.4 3.4 0 01-.822-2.348v-1.369a3.414 3.414 0 01.822-2.35 2.711 2.711 0 012.128-.928 2.985 2.985 0 012.078.695 2.3 2.3 0 01.751 1.843l-.01.031h-1a1.717 1.717 0 00-.476-1.279 1.827 1.827 0 00-1.343-.471 1.641 1.641 0 00-1.39.7 2.859 2.859 0 00-.518 1.745v1.38a2.874 2.874 0 00.518 1.756 1.639 1.639 0 001.39.7 1.838 1.838 0 001.343-.467 1.735 1.735 0 00.476-1.293z"/><path data-name="Path 28569" d="M-307.35 24.652h-1.041v-3.4h-3.739v3.4h-1.041v-7.7h1.041v3.479h3.739v-3.478h1.041z"/><path data-name="Path 28570" d="M-303.923 24.652h-1.047v-7.7h1.047z"/></g></g></svg>