<svg data-name="Group 22434" xmlns="http://www.w3.org/2000/svg" width="70" height="70"><g data-name="Group 22436"><g data-name="Group 22435" fill="none"><g data-name="Group 22434" stroke-linecap="round" stroke-linejoin="round" stroke-width="2.4"><path data-name="Line 4" stroke="#19a301" d="M41.677 62.5h8.375"/><path data-name="Line 5" stroke="#19a301" d="M58.405 62.5h.679"/><path data-name="Line 6" stroke="#19a301" d="M10.916 62.5h8.298"/><path data-name="Line 7" stroke="#82d400" d="M18.674 62.5h14.628"/></g><path data-name="Rectangle 6900" d="M0 55h70v15H0z"/></g></g><path data-name="Rectangle 6901" fill="none" d="M0 0h70v70H0z"/><circle data-name="Ellipse 2" cx="5.795" cy="5.795" r="5.795" transform="translate(5.014 18.843)" fill="none" stroke="#19a301" stroke-linecap="round" stroke-linejoin="round" stroke-width="1.5"/><path data-name="Rectángulo 2137" fill="none" stroke="#000" stroke-linecap="round" stroke-linejoin="round" stroke-width="1.5" d="M38.858 33.183h17.581v20.911H38.858z"/><path data-name="Trazado 5455" d="M22.458 11.706h-11.1V15.7" fill="none" stroke="#000" stroke-linecap="round" stroke-linejoin="round" stroke-width="1.5"/><path data-name="Trazado 5456" d="M11.357 33.816v20.278h11.1V12.126" fill="none" stroke="#000" stroke-linecap="round" stroke-linejoin="round" stroke-width="1.5"/><path data-name="Path 28551" d="M22.444 33.184h5.983a4.021 4.021 0 013.857 4.158v5.983a4 4 0 003.842 4.145h2.594" fill="none" stroke="#000" stroke-linecap="round" stroke-linejoin="round" stroke-width="1.5"/><path data-name="Trazado 5459" d="M22.764 16.276h.684c2.832 0 5.125 1.858 5.125 4.151V54.1" fill="none" stroke="#000" stroke-linecap="round" stroke-linejoin="round" stroke-width="1.5"/><path data-name="Línea 708" fill="none" stroke="#000" stroke-linecap="round" stroke-linejoin="round" stroke-width="1.659" d="M62 54.094H6.574"/><path data-name="Trazado 5460" d="M47.84 38.552c-.664 1.67-1.348 3.325-2.028 4.99-.545 1.328-1.2 2.776-.239 4.083a2.866 2.866 0 002.267 1.193 2.935 2.935 0 002.667-1.909c.482-1.2-.1-2.552-.618-3.621-.622-1.288-2.095-4.622-2.049-4.736z" fill="none" stroke="#000" stroke-linecap="round" stroke-linejoin="round" stroke-width="1.5"/><path data-name="Rectangle 6902" fill="none" stroke="#000" stroke-linecap="round" stroke-linejoin="round" stroke-width="1.5" d="M34.611 14.376h26.075v12.351H34.611z"/><path data-name="Line 3076" fill="none" stroke="#000" stroke-linecap="round" stroke-linejoin="round" stroke-width="1.5" d="M47.885 26.727v6.457"/><g data-name="Group 22437" stroke="#000" stroke-miterlimit="10" stroke-width=".437"><path data-name="Path 28552" d="M44.47 17.665h-2.538v6.879H40.89v-6.879h-2.505v-.819h6.085z"/><path data-name="Path 28553" d="M46.606 23.73h3.754v.814h-4.8v-7.7h1.041z"/><path data-name="Path 28554" d="M56.912 16.846v5.112a2.489 2.489 0 01-.825 1.984 3.138 3.138 0 01-2.126.714 2.958 2.958 0 01-2.051-.717 2.527 2.527 0 01-.8-1.981v-5.112h1.042v5.112a1.856 1.856 0 00.505 1.383 1.772 1.772 0 001.3.5 1.933 1.933 0 001.378-.5 1.807 1.807 0 00.531-1.383v-5.112z"/></g></svg>