<svg data-name="Group 22413" xmlns="http://www.w3.org/2000/svg" width="70" height="70"><g data-name="Group 22415"><g data-name="Group 22414" fill="none"><g data-name="Group 22413" stroke-linecap="round" stroke-linejoin="round" stroke-width="2.4"><path data-name="Line 4" stroke="#19a301" d="M41.677 62.5h8.375"/><path data-name="Line 5" stroke="#19a301" d="M58.405 62.5h.679"/><path data-name="Line 6" stroke="#19a301" d="M10.916 62.5h8.298"/><path data-name="Line 7" stroke="#82d400" d="M18.674 62.5h14.628"/></g><path data-name="Rectangle 6894" d="M0 55h70v15H0z"/></g></g><circle data-name="Ellipse 2" cx="5.795" cy="5.795" r="5.795" transform="translate(15.014 19.843)" fill="none" stroke="#19a301" stroke-linecap="round" stroke-linejoin="round" stroke-width="1.5"/><path data-name="Rectangle 6895" fill="none" d="M0 0h70v70H0z"/><g data-name="Group 22418"><g data-name="Group 22416"><g data-name="Grupo 15307"><path data-name="Rectángulo 5190" fill="none" stroke="#000" stroke-linecap="round" stroke-linejoin="round" stroke-width="1.5" d="M45.482 17.707h14.552v23.091H45.482z"/><g data-name="Grupo 15301-2" fill="none" stroke="#000" stroke-linecap="round" stroke-linejoin="round" stroke-width="1.5"><path data-name="Línea 2965" d="M60.034 21.829v-4.122"/><path data-name="Línea 2968" d="M45.475 17.707v4.158"/></g><path data-name="Línea 2969" fill="none" stroke="#000" stroke-linecap="round" stroke-linejoin="round" stroke-width="1.5" d="M43.653 21.877h18.212"/><path data-name="Trazado 12633" d="M45.37 37h-5.744v-5h5.744" fill="none" stroke="#000" stroke-linecap="round" stroke-linejoin="round" stroke-width="1.5"/><path data-name="Rectángulo 5191" fill="none" stroke="#000" stroke-linecap="round" stroke-linejoin="round" stroke-width="1.5" d="M45.482 17.707h14.552v23.091H45.482z"/><g data-name="Grupo 15302" fill="none" stroke="#000" stroke-linecap="round" stroke-linejoin="round" stroke-width="1.5"><path data-name="Línea 2970" d="M60.034 21.829v-4.122"/><path data-name="Línea 2972" d="M53 21.829v-4.122"/><path data-name="Línea 2973" d="M45.475 17.707v4.158"/></g><path data-name="Línea 2974" fill="none" stroke="#000" stroke-linecap="round" stroke-linejoin="round" stroke-width="1.5" d="M43.653 21.877h18.212"/><path data-name="Trazado 12634" d="M45.472 26.9c2.27 2.07 6.744 1.319 8.768.459a6.5 6.5 0 015.766.474" fill="none" stroke="#000" stroke-linecap="round" stroke-linejoin="round" stroke-width="1.5"/><path data-name="Trazado 12635" d="M20.556 16.984V8.252H39.4V40.8H20.556v-5.843" fill="none" stroke="#000" stroke-linecap="round" stroke-linejoin="round" stroke-width="1.5"/><g data-name="Grupo 15304" fill="none" stroke="#000" stroke-linecap="round" stroke-linejoin="round" stroke-width="1.5"><path data-name="Línea 2976" d="M39.402 12.374V8.252"/><path data-name="Línea 2977" d="M30 12.374V8.252"/><path data-name="Línea 2978" d="M20.545 8.252v4.158"/></g><path data-name="Línea 2979" fill="none" stroke="#000" stroke-linecap="round" stroke-linejoin="round" stroke-width="1.5" d="M18.722 12.422h22.509"/><path data-name="Trazado 12638" d="M20.556 17V8.252H39.4V40.8H20.556v-5.843" fill="none" stroke="#000" stroke-linecap="round" stroke-linejoin="round" stroke-width="1.5"/><g data-name="Grupo 15305" fill="none" stroke="#000" stroke-linecap="round" stroke-linejoin="round" stroke-width="1.5"><path data-name="Línea 2980" d="M39.402 12.374V8.252"/><path data-name="Línea 2982" d="M20.545 8.252v4.158"/></g><path data-name="Línea 2983" fill="none" stroke="#000" stroke-linecap="round" stroke-linejoin="round" stroke-width="1.5" d="M18.722 12.422h22.509"/><path data-name="Trazado 12641" d="M31.221 24.973c2.834-.255 7.206.173 8.153.859" fill="none" stroke="#000" stroke-linecap="round" stroke-linejoin="round" stroke-width="1.5"/><g data-name="Grupo 15306"><path data-name="Línea 2984" fill="none" stroke="#000" stroke-linecap="round" stroke-linejoin="round" stroke-width="1.5" d="M20.545 36.638h8.73"/></g><path data-name="Línea 2985" fill="none" stroke="#000" stroke-linecap="round" stroke-linejoin="round" stroke-width="1.5" d="M5.843 40.798h58.313"/></g></g><g data-name="Grupo 15385"><g data-name="Grupo 13591"><g data-name="Grupo 13590" fill="none" stroke="#000" stroke-linecap="round" stroke-linejoin="round" stroke-width="1.5"><path data-name="Rectángulo 4762" d="M9.15 45.295h3.1v8.453h-3.1z"/><path data-name="Rectángulo 4763" d="M5.671 48.123H9.15v2.798H5.671z"/><path data-name="Trazado 11867-2" d="M32.093 46.928h32.235m.001 5.189H12.246v-5.189h15.52"/></g></g></g><g data-name="Group 22417" fill="none" stroke="#000" stroke-linecap="round" stroke-linejoin="round" stroke-width="1.5"><path data-name="Line 3063" d="M27.766 40.798v6.13"/><path data-name="Line 3064" d="M32.093 40.798v6.13"/></g></g></svg>