<svg data-name="Group 22484" xmlns="http://www.w3.org/2000/svg" width="70" height="70"><g data-name="Group 22486"><g data-name="Group 22485" fill="none"><g data-name="Group 22484" stroke-linecap="round" stroke-linejoin="round" stroke-width="2.4"><path data-name="Line 4" stroke="#19a301" d="M41.677 62.5h8.375"/><path data-name="Line 5" stroke="#19a301" d="M58.405 62.5h.679"/><path data-name="Line 6" stroke="#19a301" d="M10.916 62.5h8.298"/><path data-name="Line 7" stroke="#82d400" d="M18.674 62.5h14.628"/></g><path data-name="Rectangle 6935" d="M0 55h70v15H0z"/></g></g><path data-name="Rectangle 6936" fill="none" d="M0 0h70v70H0z"/><g data-name="Group 22488" fill="none" stroke-linecap="round" stroke-linejoin="round" stroke-width="1.5"><circle data-name="Ellipse 2" cx="5.795" cy="5.795" r="5.795" transform="translate(13.916 35)" stroke="#19a301"/><path data-name="Path 28599" d="M19.716 49.48V54h36.368V9.038H19.711v22.481" stroke="#fff"/><path data-name="Line 3093" stroke="#fff" d="M29.065 45.65h10.239"/><path data-name="Line 3094" stroke="#fff" d="M29.065 37.679h22.239"/><g data-name="Group 22487" stroke="#fff"><path data-name="Path 28600" d="M41.5 19.681v11.66h-5.056V16.1H41.5z"/><path data-name="Rectangle 6937" d="M44.495 24.832h5.052v6.509h-5.052z"/><path data-name="Rectangle 6938" d="M28.393 21.974h5.052v9.367h-5.052z"/></g><path data-name="Line 3095" stroke="#fff" d="M26.616 31.519h24.688"/></g></svg>