<svg data-name="Group 22653" xmlns="http://www.w3.org/2000/svg" width="70" height="70"><g data-name="Group 22642"><g data-name="Group 22641" fill="none"><g data-name="Group 22640" stroke-linecap="round" stroke-linejoin="round" stroke-width="2.4"><path data-name="Line 4" stroke="#19a301" d="M41.677 62.5h8.375"/><path data-name="Line 5" stroke="#19a301" d="M58.405 62.5h.679"/><path data-name="Line 6" stroke="#19a301" d="M10.916 62.5h8.298"/><path data-name="Line 7" stroke="#82d400" d="M18.674 62.5h14.628"/></g><path data-name="Rectangle 7002" d="M0 55h70v15H0z"/></g></g><g data-name="Group 22643" stroke-linecap="round" stroke-linejoin="round"><path data-name="Path 28775" d="M29 30.936V24.5h12v24H29v-2.053" fill="none" stroke="#000" stroke-width="1.485"/><path data-name="Rectangle 7003" fill="none" stroke="#000" stroke-width="1.5" d="M15 48.5h40v6H15z"/><path data-name="Path 28776" d="M24.4 20.244a2.3 2.3 0 01-1.479-.725 2.464 2.464 0 011.866-4.119 6.883 6.883 0 01.759.054s4.718.578 8.607 6.2c0 0-.219-.17-.607-.409a9.394 9.394 0 00-6.514-1.219 12.172 12.172 0 01-2.632.218z" fill="none" stroke="#000" stroke-width="1.5"/><path data-name="Path 28777" d="M40.391 12.828a2.3 2.3 0 011.088-1.237 2.464 2.464 0 013.48 2.889 6.677 6.677 0 01-.251.717s-1.8 4.4-8.242 6.675a7.233 7.233 0 00.555-.479 9.389 9.389 0 002.889-5.963 12.143 12.143 0 01.481-2.602z" fill="none" stroke="#000" stroke-width="1.5"/><path data-name="Path 28778" d="M28.452 11.364a2.491 2.491 0 01-.69-1.65 2.675 2.675 0 014.473-2.024 7.507 7.507 0 01.581.586s3.439 3.847 2.6 11.216a7.712 7.712 0 00-.2-.769 10.193 10.193 0 00-4.447-5.653 13.187 13.187 0 01-2.317-1.706z" fill="none" stroke="#000" stroke-width="1.5"/><path data-name="Line 3156" fill="#fff" stroke="#000" stroke-width="1.5" d="M29 28.66h12"/><circle data-name="Ellipse 2" cx="5.259" cy="5.259" r="5.259" transform="translate(22 33.741)" fill="none" stroke="#19a301" stroke-width="1.5"/></g><path data-name="Rectangle 7004" fill="none" d="M0 0h70v70H0z"/></svg>