<svg data-name="Group 22459" xmlns="http://www.w3.org/2000/svg" width="70" height="70"><g data-name="Group 22461"><g data-name="Group 22460" fill="none"><g data-name="Group 22459" stroke-linecap="round" stroke-linejoin="round" stroke-width="2.4"><path data-name="Line 4" stroke="#19a301" d="M41.677 62.5h8.375"/><path data-name="Line 5" stroke="#19a301" d="M58.405 62.5h.679"/><path data-name="Line 6" stroke="#19a301" d="M10.916 62.5h8.298"/><path data-name="Line 7" stroke="#82d400" d="M18.674 62.5h14.628"/></g><path data-name="Rectangle 6924" d="M0 55h70v15H0z"/></g></g><path data-name="Rectangle 6925" fill="none" d="M0 0h70v70H0z"/><circle data-name="Ellipse 2" cx="5.795" cy="5.795" r="5.795" transform="translate(5.014 18.843)" fill="none" stroke="#19a301" stroke-linecap="round" stroke-linejoin="round" stroke-width="1.5"/><path data-name="Rectángulo 2137" fill="none" stroke="#000" stroke-linecap="round" stroke-linejoin="round" stroke-width="1.5" d="M38.858 33.183h17.581v20.911H38.858z"/><path data-name="Trazado 5455" d="M22.458 11.706h-11.1V15.7" fill="none" stroke="#000" stroke-linecap="round" stroke-linejoin="round" stroke-width="1.5"/><path data-name="Trazado 5456" d="M11.357 33.816v20.278h11.1V12.126" fill="none" stroke="#000" stroke-linecap="round" stroke-linejoin="round" stroke-width="1.5"/><path data-name="Path 28583" d="M22.444 33.184h5.983a4.021 4.021 0 013.857 4.158v5.983a4 4 0 003.842 4.145h2.594" fill="none" stroke="#000" stroke-linecap="round" stroke-linejoin="round" stroke-width="1.5"/><path data-name="Trazado 5459" d="M22.764 16.276h.684c2.832 0 5.125 1.858 5.125 4.151V54.1" fill="none" stroke="#000" stroke-linecap="round" stroke-linejoin="round" stroke-width="1.5"/><path data-name="Línea 708" fill="none" stroke="#000" stroke-linecap="round" stroke-linejoin="round" stroke-width="1.659" d="M62 54.094H6.574"/><path data-name="Trazado 5460" d="M47.84 38.552c-.664 1.67-1.348 3.325-2.028 4.99-.545 1.328-1.2 2.776-.239 4.083a2.866 2.866 0 002.267 1.193 2.935 2.935 0 002.667-1.909c.482-1.2-.1-2.552-.618-3.621-.622-1.288-2.095-4.622-2.049-4.736z" fill="none" stroke="#000" stroke-linecap="round" stroke-linejoin="round" stroke-width="1.5"/><path data-name="Rectangle 6926" fill="none" stroke="#000" stroke-linecap="round" stroke-linejoin="round" stroke-width="1.5" d="M34.611 14.376h26.075v12.351H34.611z"/><path data-name="Line 3084" fill="none" stroke="#000" stroke-linecap="round" stroke-linejoin="round" stroke-width="1.5" d="M47.885 26.727v6.457"/><g data-name="Group 22463"><g data-name="Group 22462" stroke="#000" stroke-miterlimit="10" stroke-width=".437"><path data-name="Path 28584" d="M39.7 21.546v3.017h-1.018v-7.521h2.877a2.652 2.652 0 011.873.619 2.334 2.334 0 010 3.271 2.669 2.669 0 01-1.873.614zm0-.8h1.859a1.365 1.365 0 001.519-1.446 1.491 1.491 0 00-.38-1.043 1.46 1.46 0 00-1.139-.419H39.7z"/><path data-name="Path 28585" d="M48.992 22.626h-2.83l-.672 1.937h-1.038l2.712-7.521h.873l2.655 7.521h-1.038zm-2.536-.852H48.7l-1.095-3.229h-.031z"/><path data-name="Path 28586" d="M56.5 21.076h-3.087v2.692h3.616v.8H52.4v-7.526h4.576v.8h-3.563v2.433H56.5z"/></g></g></svg>