<svg xmlns="http://www.w3.org/2000/svg" width="70" height="70"><g data-name="Group 22644" transform="translate(4.189 113.479)"><g data-name="Group 22645" fill="none"><g data-name="Group 22644" stroke-linecap="round" stroke-linejoin="round" stroke-width="2.4"><path data-name="Line 4" stroke="#19a301" d="M37.488-50.979h8.375"/><path data-name="Line 5" stroke="#19a301" d="M54.216-50.979h.679"/><path data-name="Line 6" stroke="#19a301" d="M6.727-50.979h8.298"/><path data-name="Line 7" stroke="#82d400" d="M14.485-50.979h14.628"/></g><path data-name="Rectangle 7005" d="M-4.189-58.479h70v15h-70z"/></g><path data-name="Path 28779" d="M52.63-66.105l3.363-12.861a.6.6 0 00-.734-.713l-8.745 2.367a1.531 1.531 0 01-.4.054H7.417a.7.7 0 00-.7.7v4.224a.876.876 0 00.876.876h2.123l.075.3a9.68 9.68 0 01-.62 5.238h0" fill="none" stroke="#fff" stroke-linecap="round" stroke-linejoin="round" stroke-width="1.5"/><path data-name="Path 28780" d="M14.423-90.936h5.185a.657.657 0 01.586.711v2.535h3.592a1.244 1.244 0 011.243 1.244v3.055h-9.95" fill="none" stroke="#fff" stroke-linecap="round" stroke-linejoin="round" stroke-width="1.5"/><path data-name="Line 3157" fill="none" stroke="#fff" stroke-linecap="round" stroke-linejoin="round" stroke-width="1.5" d="M9.716-71.459H54.03"/><path data-name="Path 28781" d="M7.906-80.244v2.985H29v-6.133H14.321" fill="none" stroke="#fff" stroke-linecap="round" stroke-linejoin="round" stroke-width="1.5"/><g data-name="Group 22646"><path data-name="Path 28782" d="M59.811-62.612c-3.481 0-3.481-3.4-6.962-3.4s-3.48 3.4-6.961 3.4-3.481-3.4-6.962-3.4-3.481 3.4-6.963 3.4-3.48-3.4-6.959-3.4-3.483 3.4-6.966 3.4-3.485-3.4-6.97-3.4-3.485 3.4-6.97 3.4" fill="none" stroke="#fff" stroke-linecap="round" stroke-linejoin="round" stroke-width="1.5"/></g><circle data-name="Ellipse 2" cx="5.795" cy="5.795" r="5.795" transform="translate(.016 -94.338)" fill="none" stroke="#19a301" stroke-linecap="round" stroke-linejoin="round" stroke-width="1.5"/><path data-name="Rectangle 7006" fill="none" d="M-4.189-113.479h70v70h-70z"/></g></svg>