<svg xmlns="http://www.w3.org/2000/svg" width="120" height="70"><g data-name="Group 22657"><g data-name="Group 22658" fill="none"><g data-name="Group 22657" stroke-linecap="round" stroke-linejoin="round" stroke-width="2.4"><path data-name="Line 4" stroke="#19a301" d="M66.677 62.5h8.375"/><path data-name="Line 5" stroke="#19a301" d="M83.405 62.5h.679"/><path data-name="Line 6" stroke="#19a301" d="M35.916 62.5h8.298"/><path data-name="Line 7" stroke="#82d400" d="M43.674 62.5h14.628"/></g><path data-name="Rectangle 7012" d="M25 55h70v15H25z"/></g><g data-name="Group 22660" transform="translate(-133)"><circle data-name="Ellipse 2" cx="5.795" cy="5.795" r="5.795" transform="translate(145.648 10.141)" fill="none" stroke="#19a301" stroke-linecap="round" stroke-linejoin="round" stroke-width="1.5"/><path data-name="Path 28794" d="M236.831 51.464l4.752-16.952a.6.6 0 00-.735-.712l-8.748 2.367a1.58 1.58 0 01-.4.053h-80.693a.7.7 0 00-.7.7v4.225a.876.876 0 00.876.876h2.122l.075.3c.216.855-.193 3.1-.709 5.246" fill="none" stroke="#fff" stroke-linecap="round" stroke-linejoin="round" stroke-width="1.5"/><path data-name="Line 3163" fill="none" stroke="#fff" stroke-linecap="round" stroke-linejoin="round" stroke-width="1.5" d="M239.48 42.02h-86.17"/><path data-name="Path 28795" d="M151.5 31.245v4.975h27.091V26H151.5z" fill="none" stroke="#fff" stroke-linecap="round" stroke-linejoin="round" stroke-width="1.5"/><path data-name="Path 28796" d="M160.23 16.09h15.17V26" fill="none" stroke="#fff" stroke-linecap="round" stroke-linejoin="round" stroke-width="1.5"/><path data-name="Line 3164" fill="none" stroke="#fff" stroke-linecap="round" stroke-linejoin="round" stroke-width="1.5" d="M154.38 26v-2"/><g data-name="Group 22659"><path data-name="Path 28797" d="M241.4 53.88c-6.061 0-6.061-7.76-12.123-7.76s-6.061 7.76-12.123 7.76-6.06-7.76-12.119-7.76-6.062 7.76-12.123 7.76-6.063-7.76-12.126-7.76-6.062 7.76-12.123 7.76-6.066-7.76-12.132-7.76-6.065 7.76-12.131 7.76" fill="none" stroke="#fff" stroke-linecap="round" stroke-linejoin="round" stroke-width="1.5"/></g><path data-name="Rectangle 7013" fill="none" stroke="#fff" stroke-linecap="round" stroke-linejoin="round" stroke-width="1.5" d="M161.9 7h6v9h-6z"/><path data-name="Rectangle 7014" fill="none" stroke="#fff" stroke-linecap="round" stroke-linejoin="round" stroke-width="1.5" d="M190.4 25.2h5v11h-5z"/><path data-name="Rectangle 7015" fill="none" stroke="#fff" stroke-linecap="round" stroke-linejoin="round" stroke-width="1.5" d="M204.4 25.2h5v11h-5z"/><path data-name="Rectangle 7016" fill="none" stroke="#fff" stroke-linecap="round" stroke-linejoin="round" stroke-width="1.5" d="M218.4 25.2h5v11h-5z"/></g><path data-name="Rectangle 7017" fill="none" d="M0 0h120v70H0z"/></g></svg>