<svg xmlns="http://www.w3.org/2000/svg" width="86" height="70"><g data-name="Group 22647"><g data-name="Group 22648" fill="none"><g data-name="Group 22647" stroke-linecap="round" stroke-linejoin="round" stroke-width="2.4"><path data-name="Line 4" stroke="#19a301" d="M49.677 62.5h8.375"/><path data-name="Line 5" stroke="#19a301" d="M66.405 62.5h.679"/><path data-name="Line 6" stroke="#19a301" d="M18.916 62.5h8.298"/><path data-name="Line 7" stroke="#82d400" d="M26.674 62.5h14.628"/></g><path data-name="Rectangle 7007" d="M8 55h70v15H8z"/></g><g data-name="Group 22651" transform="translate(116)"><g data-name="Group 22649" fill="none" stroke="#fff" stroke-linecap="round" stroke-linejoin="round" stroke-width="1.5"><path data-name="Path 28783" d="M-45.681 47.374l3.364-12.862a.6.6 0 00-.735-.712l-8.748 2.367a1.58 1.58 0 01-.4.053h-46.694a.7.7 0 00-.7.7v4.225a.877.877 0 00.876.876h2.118l.075.3c.411 1.623-1.429 8.248-1.98 9.683"/><path data-name="Path 28784" d="M-91.888 18.543h5.188a.658.658 0 01.586.71v2.536h3.591a1.243 1.243 0 011.243 1.244v7.055h-9.949"/><path data-name="Line 3158" d="M-96.595 42.02h52.314"/><path data-name="Path 28785" d="M-98.4 32.191v4.029h21.091v-6.132H-91.99"/></g><path data-name="Path 28786" d="M-51.17 36h-3.33V21h4v14.82" fill="none" stroke="#fff" stroke-linecap="round" stroke-linejoin="round" stroke-width="1.5"/><g data-name="Group 22650"><path data-name="Path 28787" d="M-38.5 52.76c-4.926 0-4.926-5.52-9.853-5.52s-4.926 5.52-9.852 5.52-4.928-5.52-9.856-5.52-4.929 5.52-9.859 5.52-4.927-5.52-9.855-5.52-4.931 5.52-9.863 5.52-4.931-5.52-9.862-5.52" fill="none" stroke="#fff" stroke-linecap="round" stroke-linejoin="round" stroke-width="1.5"/></g><circle data-name="Ellipse 2" cx="5.795" cy="5.795" r="5.795" transform="translate(-104.895 18.141)" fill="none" stroke="#19a301" stroke-linecap="round" stroke-linejoin="round" stroke-width="1.5"/><path data-name="Line 3159" fill="none" stroke="#fff" stroke-linecap="round" stroke-linejoin="round" stroke-width="1.5" d="M-84.691 30.088v6.133"/><path data-name="Line 3160" fill="none" stroke="#fff" stroke-linecap="round" stroke-linejoin="round" stroke-width="1.5" d="M-90.691 30.088v6.133"/></g><path data-name="Rectangle 7008" fill="none" d="M0 0h86v70H0z"/></g></svg>