<svg xmlns="http://www.w3.org/2000/svg" width="70" height="70"><g data-name="Group 22611" transform="translate(-96 -190)"><g data-name="Group 22612" fill="none"><g data-name="Group 22611" stroke-linecap="round" stroke-linejoin="round" stroke-width="2.4"><path data-name="Line 4" stroke="#19a301" d="M137.677 252.5h8.375"/><path data-name="Line 5" stroke="#19a301" d="M154.405 252.5h.679"/><path data-name="Line 6" stroke="#19a301" d="M106.916 252.5h8.298"/><path data-name="Line 7" stroke="#82d400" d="M114.674 252.5h14.628"/></g><path data-name="Rectangle 6983" d="M96 245h70v15H96z"/></g><circle data-name="Ellipse 2" cx="5.795" cy="5.795" r="5.795" transform="translate(109.405 199.405)" fill="none" stroke="#19a301" stroke-linecap="round" stroke-linejoin="round" stroke-width="1.5"/><rect data-name="Rectangle 6984" width="9.125" height="4.631" rx=".722" transform="translate(125.823 198)" fill="none" stroke="#000" stroke-linecap="round" stroke-linejoin="round" stroke-width="1.5"/><path data-name="Path 28736" d="M118.388 213.644v1.966h-1.212a1.5 1.5 0 00-1.5 1.5v.713a1.5 1.5 0 001.5 1.5h1.212v7.2h-1.212a1.5 1.5 0 00-1.5 1.5v.713a1.5 1.5 0 001.5 1.5h1.212v9.267h25.52v-9.267h1.212a1.5 1.5 0 001.5-1.5v-.713a1.5 1.5 0 00-1.5-1.5h-1.212v-7.2h1.212a1.5 1.5 0 001.5-1.5v-.713a1.5 1.5 0 00-1.5-1.5h-1.212v-8.554h-18.775" fill="none" stroke="#000" stroke-linecap="round" stroke-linejoin="round" stroke-width="1.5"/><rect data-name="Rectangle 6985" width="30.938" height="4.425" rx="1.687" transform="translate(115.679 239.491)" fill="none" stroke="#000" stroke-linecap="round" stroke-linejoin="round" stroke-width="1.5"/><path data-name="Path 28737" d="M123.809 202.631h21.712a1.1 1.1 0 011.1 1.1v2.234a1.1 1.1 0 01-1.1 1.1h-21.36" fill="none" stroke="#000" stroke-linecap="round" stroke-linejoin="round" stroke-width="1.5"/><g data-name="Group 22613"><path data-name="Path 28738" d="M127.479 219.451a1.552 1.552 0 01-2.309-.021 2.064 2.064 0 01-.445-1.381 2.28 2.28 0 01.226-1.02 1.7 1.7 0 01.645-.711 1.83 1.83 0 01.968-.254 1.644 1.644 0 011.364.641 2.7 2.7 0 01.5 1.715v.266a3.5 3.5 0 01-.7 2.347 2.616 2.616 0 01-2.074.821h-.113v-.786h.137a1.936 1.936 0 001.289-.4 1.69 1.69 0 00.512-1.217zm-.915-.238a.96.96 0 00.536-.164 1.077 1.077 0 00.386-.453v-.371a1.79 1.79 0 00-.257-1.012.778.778 0 00-.668-.383.767.767 0 00-.655.338 1.427 1.427 0 00-.244.853 1.405 1.405 0 00.246.864.779.779 0 00.656.328z"/><path data-name="Path 28739" d="M133.158 221.83h-3.824v-.652l1.9-2.067a4.664 4.664 0 00.583-.763 1.227 1.227 0 00.174-.616.937.937 0 00-.228-.656.793.793 0 00-.615-.25.917.917 0 00-.715.281 1.11 1.11 0 00-.254.77h-.949a1.868 1.868 0 01.236-.936 1.627 1.627 0 01.676-.646 2.158 2.158 0 011.013-.231 1.923 1.923 0 011.307.416 1.447 1.447 0 01.479 1.151 1.952 1.952 0 01-.241.892 5.039 5.039 0 01-.787 1.061l-1.39 1.488h2.64z"/><path data-name="Path 28740" d="M137.588 219.436a3.093 3.093 0 01-.459 1.849 1.623 1.623 0 01-1.4.623 1.641 1.641 0 01-1.388-.607 2.974 2.974 0 01-.479-1.8v-.984a3.062 3.062 0 01.459-1.84 1.912 1.912 0 012.793-.016 2.958 2.958 0 01.471 1.789zm-.949-1.063a2.4 2.4 0 00-.219-1.174.836.836 0 00-1.379-.019 2.221 2.221 0 00-.23 1.1v1.289a2.477 2.477 0 00.222 1.188.747.747 0 00.7.39.733.733 0 00.676-.361 2.312 2.312 0 00.231-1.131z"/></g><g data-name="Group 22614"><path data-name="Path 28741" d="M123.292 227.494l-.369.379v1.207h-.831v-5.25h.831v3.028l.259-.325 1.022-1.151h1l-1.374 1.542 1.521 2.156h-.96z"/><path data-name="Path 28742" d="M125.53 227.2a2.156 2.156 0 01.406-1.375 1.3 1.3 0 011.074-.515 1.221 1.221 0 011 .441l.038-.372h.748v3.585a1.486 1.486 0 01-.453 1.148 1.722 1.722 0 01-1.222.421 1.986 1.986 0 01-.795-.169 1.416 1.416 0 01-.589-.443l.393-.5a1.189 1.189 0 00.944.454.912.912 0 00.652-.224.857.857 0 00.24-.658v-.25a1.219 1.219 0 01-.957.4 1.293 1.293 0 01-1.061-.515 2.233 2.233 0 01-.418-1.428zm.828.072a1.487 1.487 0 00.227.877.731.731 0 00.631.32.8.8 0 00.745-.431v-1.627a.79.79 0 00-.739-.42.735.735 0 00-.637.324 1.666 1.666 0 00-.227.96z"/><path data-name="Path 28743" d="M129.878 229.508h-.653l1.959-5.4h.653z"/><path data-name="Path 28744" d="M133.194 225.382l.023.386a1.333 1.333 0 011.067-.455 1.022 1.022 0 011.015.568 1.313 1.313 0 011.135-.568 1.151 1.151 0 01.91.339 1.487 1.487 0 01.307 1v2.43h-.831v-2.406a.734.734 0 00-.154-.516.673.673 0 00-.509-.164.687.687 0 00-.463.152.792.792 0 00-.251.4v2.536h-.831v-2.434a.591.591 0 00-.666-.652.732.732 0 00-.708.406v2.68h-.83v-3.7z"/><path data-name="Path 28745" d="M139.172 225.724h.392a.7.7 0 00.471-.155.549.549 0 00.173-.437.6.6 0 00-.144-.427.579.579 0 00-.441-.153.615.615 0 00-.427.15.5.5 0 00-.167.39h-.644a.975.975 0 01.158-.54 1.059 1.059 0 01.44-.381 1.443 1.443 0 01.632-.136 1.326 1.326 0 01.907.29 1.017 1.017 0 01.33.807.824.824 0 01-.165.49 1.043 1.043 0 01-.428.346.949.949 0 01.484.341.938.938 0 01.165.557 1.04 1.04 0 01-.356.827 1.566 1.566 0 01-1.849.01.975.975 0 01-.355-.79h.644a.539.539 0 00.171.414.648.648 0 00.46.159.666.666 0 00.471-.159.6.6 0 00.173-.461.607.607 0 00-.181-.47.771.771 0 00-.535-.163h-.379z"/></g><path data-name="Rectangle 6986" fill="none" d="M96 190h70v70H96z"/></g></svg>