<svg xmlns="http://www.w3.org/2000/svg" width="70" height="70"><g data-name="Group 22655"><g data-name="Group 22626" fill="none"><g data-name="Group 22625" stroke-linecap="round" stroke-linejoin="round" stroke-width="2.4"><path data-name="Line 4" stroke="#19a301" d="M41.677 62.5h8.375"/><path data-name="Line 5" stroke="#19a301" d="M58.405 62.5h.679"/><path data-name="Line 6" stroke="#19a301" d="M10.916 62.5h8.298"/><path data-name="Line 7" stroke="#82d400" d="M18.674 62.5h14.628"/></g><path data-name="Rectangle 6995" d="M0 55h70v15H0z"/></g><g data-name="Group 22629" transform="translate(279 -98)"><circle data-name="Ellipse 2" cx="5.795" cy="5.795" r="5.795" transform="translate(-264.722 113.505)" fill="none" stroke="#19a301" stroke-linecap="round" stroke-linejoin="round" stroke-width="1.5"/><path data-name="Path 28768" d="M-250.458 123.349h17.758a1.926 1.926 0 011.927 1.926v10.436" fill="none" stroke="#fff" stroke-linecap="round" stroke-linejoin="round" stroke-width="1.603"/><path data-name="Line 3153" fill="none" stroke="#fff" stroke-linecap="round" stroke-linejoin="round" stroke-width="1.603" d="M-256.964 134.826v-6.858"/><path data-name="Path 28769" d="M-250.458 115.678h12.609a1.285 1.285 0 011.284 1.285v6.4" fill="none" stroke="#fff" stroke-linecap="round" stroke-linejoin="round" stroke-width="1.603"/><g data-name="Group 22627" fill="none" stroke="#fff" stroke-linecap="round" stroke-linejoin="round" stroke-width="1.603"><path data-name="Path 28770" d="M-231.121 152.7l3.952-13.574a1.505 1.505 0 00-.695-1.8l-16.016-8.886a1.507 1.507 0 00-1.456 0l-16.155 8.88a1.506 1.506 0 00-.691 1.83l4.189 12.924"/><path data-name="Line 3154" d="M-244.607 128.241v24.166"/></g><circle data-name="Ellipse 3131" cx="1.955" cy="1.955" r="1.955" transform="translate(-254.395 137.069)" fill="#fff"/><circle data-name="Ellipse 3132" cx="1.955" cy="1.955" r="1.955" transform="translate(-238.771 137.069)" fill="#fff"/><path data-name="Rectangle 6996" d="M-245.587 106.324h2.891a1.882 1.882 0 011.882 1.882v7.473h0-6.525 0v-7.6a1.752 1.752 0 011.752-1.755z" fill="none" stroke="#fff" stroke-linecap="round" stroke-linejoin="round" stroke-width="1.603"/><g data-name="Group 22628"><path data-name="Path 28771" d="M-221.727 153.633c-2.783 0-2.783-2.719-5.566-2.719s-2.783 2.719-5.566 2.719-2.783-2.719-5.566-2.719-2.784 2.719-5.568 2.719-2.782-2.719-5.564-2.719-2.785 2.719-5.569 2.719-2.787-2.719-5.573-2.719-2.787 2.719-5.574 2.719" fill="none" stroke="#fff" stroke-linecap="round" stroke-linejoin="round" stroke-width="1.603"/></g></g><path data-name="Rectangle 6997" fill="none" d="M0 0h70v70H0z"/></g></svg>