<svg data-name="Group 22619" xmlns="http://www.w3.org/2000/svg" width="70" height="70"><g data-name="Group 22621"><g data-name="Group 22620" fill="none"><g data-name="Group 22619" stroke-linecap="round" stroke-linejoin="round" stroke-width="2.4"><path data-name="Line 4" stroke="#19a301" d="M41.677 62.5h8.375"/><path data-name="Line 5" stroke="#19a301" d="M58.405 62.5h.679"/><path data-name="Line 6" stroke="#19a301" d="M10.916 62.5h8.298"/><path data-name="Line 7" stroke="#82d400" d="M18.674 62.5h14.628"/></g><path data-name="Rectangle 6991" d="M0 55h70v15H0z"/></g></g><circle data-name="Ellipse 2" cx="5.795" cy="5.795" r="5.795" transform="translate(13.405 9.405)" fill="none" stroke="#19a301" stroke-linecap="round" stroke-linejoin="round" stroke-width="1.5"/><rect data-name="Rectangle 6992" width="9.125" height="4.631" rx=".722" transform="translate(29.823 8)" fill="none" stroke="#000" stroke-linecap="round" stroke-linejoin="round" stroke-width="1.5"/><path data-name="Path 28756" d="M22.388 23.644v1.966h-1.212a1.5 1.5 0 00-1.5 1.5v.713a1.5 1.5 0 001.5 1.5h1.212v7.2h-1.212a1.5 1.5 0 00-1.5 1.5v.713a1.5 1.5 0 001.5 1.5h1.212v9.267h25.52v-9.279h1.212a1.5 1.5 0 001.5-1.5v-.713a1.5 1.5 0 00-1.5-1.5h-1.212v-7.2h1.212a1.5 1.5 0 001.5-1.5v-.713a1.5 1.5 0 00-1.5-1.5h-1.212v-8.542H29.133" fill="none" stroke="#000" stroke-linecap="round" stroke-linejoin="round" stroke-width="1.5"/><rect data-name="Rectangle 6993" width="30.938" height="4.425" rx="1.687" transform="translate(19.679 49.491)" fill="none" stroke="#000" stroke-linecap="round" stroke-linejoin="round" stroke-width="1.5"/><path data-name="Path 28757" d="M27.809 12.631h21.712a1.1 1.1 0 011.1 1.1v2.229a1.1 1.1 0 01-1.1 1.1h-21.36" fill="none" stroke="#000" stroke-linecap="round" stroke-linejoin="round" stroke-width="1.5"/><g data-name="Group 22622"><path data-name="Path 28758" d="M31.608 30.33H30.9V26.9l-1.045.357v-.6l1.664-.612h.09z"/><path data-name="Path 28759" d="M33.58 29.58a.409.409 0 01.308.113.393.393 0 01.108.283.375.375 0 01-.108.276.412.412 0 01-.308.11.417.417 0 01-.3-.108.371.371 0 01-.111-.278.393.393 0 01.108-.283.405.405 0 01.303-.113z"/><path data-name="Path 28760" d="M37.547 28.534a2.334 2.334 0 01-.344 1.388 1.218 1.218 0 01-1.048.467 1.236 1.236 0 01-1.042-.455 2.241 2.241 0 01-.358-1.35v-.738a2.278 2.278 0 01.345-1.38 1.433 1.433 0 012.093-.012 2.212 2.212 0 01.354 1.342zm-.712-.8a1.81 1.81 0 00-.164-.88.627.627 0 00-1.034-.015 1.668 1.668 0 00-.173.828v.967a1.853 1.853 0 00.167.89.559.559 0 00.524.293.55.55 0 00.507-.271 1.745 1.745 0 00.173-.848z"/><path data-name="Path 28761" d="M40.957 28.534a2.334 2.334 0 01-.344 1.388 1.218 1.218 0 01-1.048.467 1.236 1.236 0 01-1.042-.455 2.241 2.241 0 01-.358-1.35v-.738a2.278 2.278 0 01.345-1.38 1.434 1.434 0 012.094-.012 2.219 2.219 0 01.353 1.342zm-.712-.8a1.81 1.81 0 00-.164-.88.627.627 0 00-1.034-.015 1.668 1.668 0 00-.173.828v.967a1.853 1.853 0 00.167.89.559.559 0 00.524.293.55.55 0 00.507-.271 1.733 1.733 0 00.173-.848z"/><path data-name="Path 28762" d="M44.367 28.534a2.334 2.334 0 01-.344 1.388 1.218 1.218 0 01-1.047.467 1.235 1.235 0 01-1.042-.455 2.234 2.234 0 01-.359-1.35v-.738a2.278 2.278 0 01.345-1.38 1.434 1.434 0 012.094-.012 2.219 2.219 0 01.353 1.342zm-.712-.8a1.8 1.8 0 00-.164-.88.627.627 0 00-1.034-.015 1.679 1.679 0 00-.173.828v.967a1.853 1.853 0 00.167.89.56.56 0 00.525.293.549.549 0 00.506-.271 1.733 1.733 0 00.173-.848z"/></g><g data-name="Group 22623"><path data-name="Path 28763" d="M27.292 37.494l-.369.379v1.207h-.831v-5.25h.831v3.028l.259-.325 1.018-1.151h1l-1.374 1.542 1.521 2.156h-.96z"/><path data-name="Path 28764" d="M29.53 37.2a2.156 2.156 0 01.406-1.375 1.3 1.3 0 011.074-.515 1.221 1.221 0 011 .441l.038-.372h.748v3.585a1.486 1.486 0 01-.453 1.148 1.722 1.722 0 01-1.222.421 1.986 1.986 0 01-.8-.169 1.416 1.416 0 01-.589-.443l.393-.5a1.189 1.189 0 00.944.454.912.912 0 00.652-.224.857.857 0 00.24-.658v-.25a1.219 1.219 0 01-.957.4 1.293 1.293 0 01-1.061-.515 2.233 2.233 0 01-.413-1.428zm.828.072a1.487 1.487 0 00.227.877.731.731 0 00.631.32.8.8 0 00.745-.431v-1.624a.79.79 0 00-.739-.42.735.735 0 00-.637.324 1.666 1.666 0 00-.227.957z"/><path data-name="Path 28765" d="M33.878 39.508h-.653l1.959-5.4h.653z"/><path data-name="Path 28766" d="M37.194 35.382l.023.386a1.333 1.333 0 011.067-.455 1.022 1.022 0 011.015.568 1.313 1.313 0 011.135-.568 1.151 1.151 0 01.91.339 1.487 1.487 0 01.307 1v2.43h-.831v-2.408a.734.734 0 00-.154-.516.673.673 0 00-.509-.164.687.687 0 00-.463.152.792.792 0 00-.251.4v2.536h-.831v-2.436a.591.591 0 00-.666-.652.732.732 0 00-.708.406v2.68h-.83v-3.7z"/><path data-name="Path 28767" d="M43.172 35.724h.392a.7.7 0 00.471-.155.549.549 0 00.173-.437.6.6 0 00-.144-.427.579.579 0 00-.441-.153.615.615 0 00-.427.15.5.5 0 00-.167.39h-.644a.975.975 0 01.158-.54 1.059 1.059 0 01.44-.381 1.443 1.443 0 01.632-.136 1.326 1.326 0 01.907.29 1.017 1.017 0 01.33.807.824.824 0 01-.165.49 1.043 1.043 0 01-.428.346.949.949 0 01.484.341.938.938 0 01.165.557 1.04 1.04 0 01-.356.827 1.566 1.566 0 01-1.849.01.975.975 0 01-.355-.79h.644a.539.539 0 00.171.414.648.648 0 00.46.159.666.666 0 00.471-.159.6.6 0 00.173-.461.607.607 0 00-.181-.47.771.771 0 00-.535-.163h-.379z"/></g><g data-name="Group 22624" fill="none" stroke="#000" stroke-linecap="round" stroke-linejoin="round" stroke-width=".75"><path data-name="Line 3151" d="M26.5 27v3"/><path data-name="Line 3152" d="M25 28.5h3"/></g><path data-name="Rectangle 6994" fill="none" d="M0 0h70v70H0z"/></svg>