<svg data-name="Group 22390" xmlns="http://www.w3.org/2000/svg" width="70" height="70"><g data-name="Group 22392"><g data-name="Group 22391" fill="none"><g data-name="Group 22390" stroke-linecap="round" stroke-linejoin="round" stroke-width="2.4"><path data-name="Line 4" stroke="#19a301" d="M41.677 62.5h8.375"/><path data-name="Line 5" stroke="#19a301" d="M58.405 62.5h.679"/><path data-name="Line 6" stroke="#19a301" d="M10.916 62.5h8.298"/><path data-name="Line 7" stroke="#82d400" d="M18.674 62.5h14.628"/></g><path data-name="Rectangle 6886" d="M0 55h70v15H0z"/></g></g><path data-name="Rectangle 6887" fill="none" d="M0 0h70v70H0z"/><g data-name="Group 22398" fill="none" stroke-linecap="round" stroke-linejoin="round" stroke-width="1.5"><circle data-name="Ellipse 2" cx="5.795" cy="5.795" r="5.795" transform="translate(7.535 10.843)" stroke="#19a301"/><g data-name="Group 22397" stroke="#000"><path data-name="Rectángulo 4585" d="M20.1 11.037V10.3a.568.568 0 01.568-.568H26.7a.567.567 0 01.567.568v2.5a.567.567 0 01-.567.567h-4.792"/><path data-name="Trazado 11678" d="M32.753 38.764v-3.713l.005-2.913V16.849M12.7 25.247v17.089h5.466"/><path data-name="Línea 2316" d="M16.585 24.706h12.287"/><path data-name="Línea 2317" d="M16.585 33.237h12.287"/><path data-name="Rectángulo 4586" d="M17.643 45.807h-6.206a.86.86 0 01-.86-.86v-1.756a.86.86 0 01.86-.86h6.732m36.858 0H61.6a.86.86 0 01.86.86v1.756a.86.86 0 01-.86.86h-6.416"/><path data-name="Rectángulo 4587" d="M21.908 13.374h12.025a.865.865 0 01.865.865h0v1.756a.866.866 0 01-.865.866H21.992"/><rect data-name="Rectángulo 4585-2" width="7.169" height="3.638" rx=".567" transform="translate(46.014 9.736)"/><path data-name="Trazado 11678-2" d="M55.027 42.329h5.193v-25.48m-20.048 0v21.915"/><path data-name="Línea 2316-2" d="M44.053 24.706H56.34"/><path data-name="Línea 2317-2" d="M44.053 33.237H56.34"/><rect data-name="Rectángulo 4587-2" width="24.305" height="3.476" rx=".86" transform="translate(37.955 13.374)"/><g data-name="Group 22396"><path data-name="Rectángulo 4586-2" d="M31.743 38.764h17.42a6.051 6.051 0 016.118 5.982h0a6.051 6.051 0 01-6.118 5.982h-16.41"/><g data-name="Group 22394"><g data-name="Group 22393"><path data-name="Line 3056" d="M38.332 44.746h12.585"/><path data-name="Path 28526" d="M47.856 41.542l3.2 3.2-3.2 3.2"/></g><circle data-name="Ellipse 3114" cx="8.487" cy="8.487" r="8.487" transform="translate(17.643 36.789)"/><path data-name="Path 28527" d="M26.13 40.814v4.463h3.57"/></g></g></g></g></svg>