<svg data-name="Group 22477" xmlns="http://www.w3.org/2000/svg" width="70" height="70"><g data-name="Group 22483"><g data-name="Group 22479"><g data-name="Group 22478" fill="none"><g data-name="Group 22477" stroke-linecap="round" stroke-linejoin="round" stroke-width="2.4"><path data-name="Line 4" stroke="#19a301" d="M41.677 62.5h8.375"/><path data-name="Line 5" stroke="#19a301" d="M58.405 62.5h.679"/><path data-name="Line 6" stroke="#19a301" d="M10.916 62.5h8.298"/><path data-name="Line 7" stroke="#82d400" d="M18.674 62.5h14.628"/></g><path data-name="Rectangle 6933" d="M0 55h70v15H0z"/></g></g><path data-name="Rectangle 6934" fill="none" d="M0 0h70v70H0z"/><g data-name="Group 22482"><g data-name="Group 22481"><path data-name="Path 28597" d="M37.786 21.441a8.721 8.721 0 00-2.957-.509 6.351 6.351 0 00-5.623 3.457 7.788 7.788 0 00-.119 5.739 14.747 14.747 0 00.8 1.932c.558 1.129 1.23 2.209 1.882 3.289 1.16 1.918 2.321 3.772 3.673 5.627a180.526 180.526 0 003.639-5.821 22.7 22.7 0 002.319-4.811" fill="none" stroke="#000" stroke-linecap="round" stroke-linejoin="round" stroke-width="1.612"/><g data-name="Group 22480"><circle data-name="Ellipse 3115" cx="2.798" cy="2.798" r="2.798" transform="translate(32.057 24.32)" fill="none" stroke="#000" stroke-linecap="round" stroke-linejoin="round" stroke-width="1.612"/></g></g></g><path data-name="Path 28598" d="M50.892 30.755l.372 1.1a.906.906 0 01-.237.949l-.467.441a.907.907 0 00.156 1.437l1.075.645a.907.907 0 01.422.6l.436 2.144a.907.907 0 01-.485.993l-.217.107a.906.906 0 01-1.264-.525l-.267-.8a.907.907 0 00-1.266-.525l-.66.331a.915.915 0 01-.545.085l-2.978-.462a.907.907 0 00-1.046.869h0a.907.907 0 00.8.927l.371.045a.907.907 0 01.766.665l.223.827h-1.647a.907.907 0 00-.906.863l-.05 1.022a.907.907 0 00.208.623l1.368 1.649a.908.908 0 01.2.721l-1.408 8.922-1.092-.96a.907.907 0 00-.634-.226l-1.54.059 1.31-2.125a.907.907 0 00-.4-1.3l-2.2-1.006a.908.908 0 00-.519-.071l-3.327.529a.909.909 0 01-.854-.334l-4.09-5.192a.911.911 0 00-.344-.267l-4.907-2.179a.894.894 0 00-.353-.078l-2.765-.046a.91.91 0 01-.57-.214l-3.9-3.3a.906.906 0 01-.183-1.176l1.053-1.672a.91.91 0 01.529-.392l1.5-.408a.909.909 0 00.5-.348l1.57-2.2a.915.915 0 00.165-.612l-.718-7.626a.914.914 0 00-.285-.579l-1.324-1.231a.906.906 0 01-.172-1.111l1.488-2.63a.906.906 0 01.789-.46h1.042a.909.909 0 00.651-.276l2.805-2.89a.91.91 0 00.217-.366l.875-2.867a.907.907 0 01.573-.592l2.546-.876a.926.926 0 01.3-.049h1.648a.912.912 0 00.592-.219l3.853-3.312a.907.907 0 011.257.072l.786.848a.906.906 0 01-.252 1.423l-1.724.885a.918.918 0 00-.2.139l-2.216 2.036a.918.918 0 00-.264.438l-.86 3.269a.91.91 0 00.21.845l2.024 2.2a.906.906 0 01.215.4l.576 2.413a.907.907 0 00.8.692" fill="none" stroke="#000" stroke-linecap="round" stroke-linejoin="round" stroke-width="1.612"/></g><circle data-name="Ellipse 2" cx="5.795" cy="5.795" r="5.795" transform="translate(40.677 17.442)" fill="none" stroke="#19a301" stroke-linecap="round" stroke-linejoin="round" stroke-width="1.5"/></svg>