<svg data-name="Group 22464" xmlns="http://www.w3.org/2000/svg" width="70" height="70"><g data-name="Group 22467"><g data-name="Group 22466"><g data-name="Group 22465"><g data-name="Grupo 13591"><g data-name="Grupo 13590" fill="none" stroke="#000" stroke-linecap="round" stroke-linejoin="round" stroke-width="1.5"><path data-name="Rectángulo 4762" d="M12.697 40.553h6.25v13.238h-6.25z"/><path data-name="Rectángulo 4763" d="M5.952 44.244h6.745v5.855H5.952z"/><path data-name="Trazado 11867" d="M43.969 48.978a12.16 12.16 0 01-7.62 2.684h-17.4v-8.978H30l4.21-.052a8.524 8.524 0 005.9-2.471L64.048 16.4m0 12.539l-6.162 6.215"/></g></g><g data-name="Group 22464" fill="none" stroke="#000" stroke-linecap="round" stroke-linejoin="round" stroke-width="1.5"><path data-name="Trazado 11837" d="M22.319 23.241v7.136h11.07v-7.136h-11.07"/><path data-name="Línea 2401" d="M27.854 23.241v-4.356"/><path data-name="Línea 2402" d="M25.029 18.885h5.873"/><path data-name="Línea 2403" d="M26.981 26.809h6.408"/></g><path data-name="Line 3085" fill="none" stroke="#000" stroke-linecap="round" stroke-linejoin="round" stroke-width="1.5" d="M5.952 30.377h44.084"/><path data-name="Line 3086" fill="none" stroke="#000" stroke-linecap="round" stroke-linejoin="round" stroke-width="1.5" d="M26.072 30.377v12.307"/><path data-name="Line 3087" fill="none" stroke="#000" stroke-linecap="round" stroke-linejoin="round" stroke-width="1.5" d="M30.244 30.377v12.307"/><path data-name="Path 28587" d="M38.26 30.041l17.432-17.87 8.356-3.963" fill="none" stroke="#000" stroke-linecap="round" stroke-linejoin="round" stroke-width="1.5"/></g></g></g><g data-name="Group 22470"><g data-name="Group 22469" fill="none"><g data-name="Group 22468" stroke-linecap="round" stroke-linejoin="round" stroke-width="2.4"><path data-name="Line 4" stroke="#19a301" d="M41.677 62.5h8.375"/><path data-name="Line 5" stroke="#19a301" d="M58.405 62.5h.679"/><path data-name="Line 6" stroke="#19a301" d="M10.916 62.5h8.298"/><path data-name="Line 7" stroke="#82d400" d="M18.674 62.5h14.628"/></g><path data-name="Rectangle 6927" d="M0 55h70v15H0z"/></g></g><path data-name="Rectangle 6928" fill="none" d="M0 0h70v70H0z"/><circle data-name="Ellipse 2" cx="5.795" cy="5.795" r="5.795" transform="translate(45.864 36.889)" fill="none" stroke="#19a301" stroke-linecap="round" stroke-linejoin="round" stroke-width="1.5"/></svg>