<svg xmlns="http://www.w3.org/2000/svg" width="70" height="70"><g data-name="Group 23396" fill="none"><g data-name="Group 22637"><g data-name="Group 22636" stroke-linecap="round" stroke-linejoin="round" stroke-width="2.4"><path data-name="Line 4" stroke="#19a301" d="M41.677 62.5h8.375"/><path data-name="Line 5" stroke="#19a301" d="M58.405 62.5h.679"/><path data-name="Line 6" stroke="#19a301" d="M10.916 62.5h8.298"/><path data-name="Line 7" stroke="#82d400" d="M18.674 62.5h14.628"/></g><path data-name="Rectangle 7000" d="M0 55h70v15H0z"/></g><g data-name="Group 22639" transform="translate(.055 93)" stroke-linecap="round" stroke-linejoin="round" stroke-width="1.5"><g data-name="Group 22638"><circle data-name="Ellipse 2" cx="5.795" cy="5.795" r="5.795" transform="translate(18.256 -76.467)" stroke="#19a301"/><path data-name="Path 28772" d="M32.4-72.21l6.2-1.12 3.33 1.1 8.4.37 1.48-1.29h4.89l1.76 2.68 2.4.55 1.2 1.39-5.73 7.48h-.24" stroke="#000"/><path data-name="Path 28773" d="M21.445-62.64l-.57 2.6-1.67-.83-4.8 4.8-2.03-1.66-2.775 3.6.93 1.11-.47 1.75H8.6l-.65 2.96 1.48 3.69 4.61 5.73 8.13-2.77 3.05.73 3.78-3.6 13.48-5.63 1.29-3.69 1.18-.72" stroke="#000"/></g><path data-name="Path 28774" d="M59.945-54.5c0 4.142-7.5 15.5-7.5 15.5s-7.5-11.358-7.5-15.5a7.5 7.5 0 017.5-7.5 7.5 7.5 0 017.5 7.5z" stroke="#000"/><circle data-name="Ellipse 3133" cx="3.5" cy="3.5" r="3.5" transform="translate(48.945 -58)" stroke="#000"/></g><path data-name="Rectangle 7001" d="M0 0h70v70H0z"/></g></svg>