<svg xmlns="http://www.w3.org/2000/svg" width="70" height="70"><g data-name="Group 22406"><path data-name="Rectangle 6892" fill="none" d="M0 0h70v70H0z"/><g data-name="Group 22410" transform="translate(-360 -90)"><g data-name="Group 22409"><g data-name="Group 22407"><g data-name="Group 22406" fill="none" stroke="#fff" stroke-linecap="round" stroke-linejoin="round" stroke-width="1.5"><path data-name="Path 28531" d="M370.1 124.513H367v10.182h7.577"/><path data-name="Path 28532" d="M415.3 124.513h-11.174a10.517 10.517 0 00-4.791-4.44h-8.67a10.517 10.517 0 00-4.791 4.44h-17.7"/><path data-name="Path 28533" d="M374.7 134.7h11.149a10.473 10.473 0 0018.31 0H415.3"/><path data-name="Line 3061" d="M415.423 122.376v14.456"/><path data-name="Line 3062" d="M374.814 122.376v14.456"/><path data-name="Path 28534" d="M415.423 134.695H423v-10.182h-7.577"/></g></g><g data-name="Group 22408" fill="none" stroke="#fff" stroke-linecap="round" stroke-linejoin="round" stroke-width="1.5"><path data-name="Rectángulo 5166" d="M390.326 113.026h9.13v7.047h-9.13z"/><path data-name="Rectángulo 5167" d="M392.64 109.059h4.502v3.968h-4.502z"/><rect data-name="Rectángulo 5168" width="17.821" height="3.251" rx="1.007" transform="translate(385.98 101.918)"/><path data-name="Línea 2909" d="M392.64 109.058l-3.652-3.889"/><path data-name="Línea 2910" d="M397.142 109.058l3.652-3.889"/></g></g><circle data-name="Ellipse 2" cx="5.795" cy="5.795" r="5.795" transform="translate(389.014 124.343)" fill="none" stroke="#19a301" stroke-linecap="round" stroke-linejoin="round" stroke-width="1.5"/></g><g data-name="Group 22412" fill="none"><g data-name="Group 22411" stroke-linecap="round" stroke-linejoin="round" stroke-width="2.4"><path data-name="Line 4" stroke="#fff" d="M41.677 62.5h8.375"/><path data-name="Line 5" stroke="#82d400" d="M58.405 62.5h.679"/><path data-name="Line 6" stroke="#fff" d="M10.916 62.5h8.298"/><path data-name="Line 7" stroke="#82d400" d="M18.674 62.5h14.628"/></g><path data-name="Rectangle 6893" d="M0 55h70v15H0z"/></g></g></svg>