<svg xmlns="http://www.w3.org/2000/svg" width="70" height="70"><g data-name="Group 22453" transform="translate(270 89.472)"><g data-name="Group 22454" fill="none"><g data-name="Group 22453" stroke-linecap="round" stroke-linejoin="round" stroke-width="2.4"><path data-name="Line 4" stroke="#19a301" d="M-228.323-26.971h8.375"/><path data-name="Line 5" stroke="#19a301" d="M-211.595-26.971h.679"/><path data-name="Line 6" stroke="#19a301" d="M-259.084-26.971h8.298"/><path data-name="Line 7" stroke="#82d400" d="M-251.326-26.971h14.628"/></g><path data-name="Rectangle 6918" d="M-270-34.471h70v15h-70z"/></g><path data-name="Rectangle 6919" fill="none" d="M-270-89.471h70v70h-70z"/><circle data-name="Ellipse 2" cx="5.795" cy="5.795" r="5.795" transform="translate(-264.986 -70.628)" fill="none" stroke="#19a301" stroke-linecap="round" stroke-linejoin="round" stroke-width="1.5"/><path data-name="Rectángulo 2137" fill="none" stroke="#000" stroke-linecap="round" stroke-linejoin="round" stroke-width="1.5" d="M-231.142-56.289h17.581v20.911h-17.581z"/><path data-name="Trazado 5455" d="M-247.542-77.765h-11.1v3.994" fill="none" stroke="#000" stroke-linecap="round" stroke-linejoin="round" stroke-width="1.5"/><path data-name="Trazado 5456" d="M-258.643-55.655v20.278h11.1v-41.968" fill="none" stroke="#000" stroke-linecap="round" stroke-linejoin="round" stroke-width="1.5"/><path data-name="Path 28575" d="M-247.556-56.288h5.983a4.021 4.021 0 013.857 4.158v5.984A4 4 0 00-233.874-42h2.594" fill="none" stroke="#000" stroke-linecap="round" stroke-linejoin="round" stroke-width="1.5"/><path data-name="Trazado 5459" d="M-247.236-73.195h.684c2.832 0 5.125 1.857 5.125 4.15v33.673" fill="none" stroke="#000" stroke-linecap="round" stroke-linejoin="round" stroke-width="1.5"/><path data-name="Línea 708" fill="none" stroke="#000" stroke-linecap="round" stroke-linejoin="round" stroke-width="1.659" d="M-208-35.377h-55.426"/><path data-name="Trazado 5460" d="M-222.16-50.919c-.664 1.67-1.348 3.325-2.028 4.99-.545 1.328-1.2 2.775-.239 4.083a2.866 2.866 0 002.267 1.193 2.935 2.935 0 002.667-1.909c.482-1.2-.1-2.553-.618-3.621-.622-1.292-2.095-4.622-2.049-4.736z" fill="none" stroke="#000" stroke-linecap="round" stroke-linejoin="round" stroke-width="1.5"/><path data-name="Rectangle 6920" fill="none" stroke="#000" stroke-linecap="round" stroke-linejoin="round" stroke-width="1.5" d="M-235.389-75.095h26.075v12.351h-26.075z"/><path data-name="Line 3082" fill="none" stroke="#000" stroke-linecap="round" stroke-linejoin="round" stroke-width="1.5" d="M-222.115-62.744v6.457"/><g data-name="Group 22455" stroke="#000" stroke-miterlimit="10" stroke-width=".437"><path data-name="Path 28576" d="M-231.624-64.82v-7.7h2.511a3.054 3.054 0 011.888.52 1.844 1.844 0 01.682 1.563 1.416 1.416 0 01-.306.891 1.928 1.928 0 01-.815.6 1.8 1.8 0 011.2.655 2.012 2.012 0 01.441 1.3 1.961 1.961 0 01-.687 1.616 2.866 2.866 0 01-1.861.557zm1.042-4.426h1.686a1.384 1.384 0 00.947-.319 1.126 1.126 0 00.365-.891 1.113 1.113 0 00-.394-.933 1.807 1.807 0 00-1.135-.31h-1.469zm0 .815v2.8h2.009a1.605 1.605 0 001.108-.352 1.266 1.266 0 00.393-1 1.369 1.369 0 00-.4-1.031 1.572 1.572 0 00-1.083-.418h-2.025z"/><path data-name="Path 28577" d="M-219.946-68.389h-3.163v2.755h3.7v.814h-4.743v-7.7h4.685v.819h-3.644v2.491h3.163z"/><path data-name="Path 28578" d="M-216.36-65.634h3.754v.814h-4.8v-7.7h1.042z"/></g></g></svg>