<svg data-name="Group 22471" xmlns="http://www.w3.org/2000/svg" width="70" height="70"><g data-name="Group 22473"><g data-name="Group 22472" fill="none"><g data-name="Group 22471" stroke-linecap="round" stroke-linejoin="round" stroke-width="2.4"><path data-name="Line 4" stroke="#19a301" d="M41.677 62.5h8.375"/><path data-name="Line 5" stroke="#19a301" d="M58.405 62.5h.679"/><path data-name="Line 6" stroke="#19a301" d="M10.916 62.5h8.298"/><path data-name="Line 7" stroke="#82d400" d="M18.674 62.5h14.628"/></g><path data-name="Rectangle 6929" d="M0 55h70v15H0z"/></g></g><path data-name="Rectangle 6930" fill="none" d="M0 0h70v70H0z"/><g data-name="Group 22476"><rect data-name="Rectangle 6931" width="34.267" height="6.789" rx="1.576" transform="translate(28.707 30.08)" fill="none" stroke="#000" stroke-linecap="round" stroke-linejoin="round" stroke-width="1.5"/><path data-name="Path 28588" d="M32.167 27.773v2.281h28.061V12.209a2.6 2.6 0 00-2.6-2.6H34.643a3.067 3.067 0 00-2.476 1.413" fill="none" stroke="#000" stroke-linecap="round" stroke-linejoin="round" stroke-width="1.5"/><path data-name="Line 3088" fill="none" stroke="#000" stroke-linecap="round" stroke-linejoin="round" stroke-width="1.5" d="M40.219 14.59l20.008-.001"/><path data-name="Line 3089" fill="none" stroke="#000" stroke-linecap="round" stroke-linejoin="round" stroke-width="1.5" d="M47.329 14.623V30.08"/><path data-name="Line 3090" fill="none" stroke="#000" stroke-linecap="round" stroke-linejoin="round" stroke-width="1.5" d="M47.329 19.595h7.624"/><path data-name="Line 3091" fill="none" stroke="#000" stroke-linecap="round" stroke-linejoin="round" stroke-width="1.5" d="M47.329 25.108h7.624"/><path data-name="Line 3092" fill="none" stroke="#000" stroke-linecap="round" stroke-linejoin="round" stroke-width="1.5" d="M54.976 14.623V30.08"/><g data-name="Group 22474" fill="none" stroke="#000" stroke-linecap="round" stroke-linejoin="round" stroke-width="1.5"><path data-name="Path 28593" d="M17.875 49.921H6.662V44.11h11.213"/><path data-name="Path 28594" d="M21.547 44.11h12.194a3.605 3.605 0 003.6-3.6v-3.641h5.812v3.639a9.423 9.423 0 01-9.413 9.413H21.547"/></g><path data-name="Rectangle 6932" fill="none" stroke="#000" stroke-linecap="round" stroke-linejoin="round" stroke-width="1.5" d="M17.875 41.636h3.672v10.759h-3.672z"/><path data-name="Path 28595" d="M24.661 34.665c-2.25 0-2.25-2.382-4.5-2.382s-2.249 2.382-4.5 2.382-2.251-2.382-4.5-2.382-2.25 2.382-4.5 2.382" fill="none" stroke="#000" stroke-linecap="round" stroke-linejoin="round" stroke-width="1.5"/><g data-name="Group 22475"><path data-name="Path 28596" d="M57.821 49.921h5.517V44.11h-5.517a3.605 3.605 0 01-3.6-3.6v-3.641h-5.813v3.639a9.423 9.423 0 009.413 9.413z" fill="none" stroke="#000" stroke-linecap="round" stroke-linejoin="round" stroke-width="1.5"/></g><circle data-name="Ellipse 2" cx="5.795" cy="5.795" r="5.795" transform="translate(26.372 13.264)" fill="none" stroke="#19a301" stroke-linecap="round" stroke-linejoin="round" stroke-width="1.5"/></g></svg>