<svg data-name="Group 22489" xmlns="http://www.w3.org/2000/svg" width="70" height="70"><g data-name="Group 22491"><g data-name="Group 22490" fill="none"><g data-name="Group 22489" stroke-linecap="round" stroke-linejoin="round" stroke-width="2.4"><path data-name="Line 4" stroke="#19a301" d="M41.677 62.5h8.375"/><path data-name="Line 5" stroke="#19a301" d="M58.405 62.5h.679"/><path data-name="Line 6" stroke="#19a301" d="M10.916 62.5h8.298"/><path data-name="Line 7" stroke="#82d400" d="M18.674 62.5h14.628"/></g><path data-name="Rectangle 6940" d="M0 55h70v15H0z"/></g></g><path data-name="Rectangle 6941" fill="none" d="M0 0h70v70H0z"/><g data-name="Group 22499"><g data-name="Group 22498"><g data-name="Group 22495"><g data-name="Group 22494"><g data-name="Group 22493" fill="none" stroke="#000" stroke-linecap="round" stroke-linejoin="round" stroke-width="1.5"><path data-name="Path 28602" d="M29.958 25.456H14.623a2.221 2.221 0 00-2.22 2.221v7.284"/><path data-name="Path 28603" d="M28.769 25.464v-4.777a1.582 1.582 0 00-1.582-1.587h-9.1a1.582 1.582 0 00-1.587 1.587v4.769"/><g data-name="Group 22492"><path data-name="Path 28604" d="M23.237 29.671a1.247 1.247 0 00-1.2 0l-13.383 7.35a1.246 1.246 0 00-.572 1.515L11.8 49.862"/><path data-name="Line 3096" d="M22.635 29.507v21.051"/></g><circle data-name="Ellipse 3116" cx="1.619" cy="1.619" r="1.619" transform="translate(14.53 36.817)"/><path data-name="Rectangle 6942" d="M20.738 13.442h3.555a.957.957 0 01.954.957v4.706h0-5.4 0v-4.772a.891.891 0 01.891-.891z"/><path data-name="Path 28605" d="M15.007 25.456h15.335a2.222 2.222 0 012.221 2.221v7.284"/></g></g></g><g data-name="Group 22496" fill="none" stroke="#000" stroke-linecap="round" stroke-linejoin="round" stroke-width="1.5"><path data-name="Path 28606" d="M30.187 49.587V36.064a.906.906 0 01.911-.9h28.219a1.049 1.049 0 011.054 1.043v12.751"/><path data-name="Line 3097" d="M46.554 38.401l13.817.003"/><path data-name="Line 3098" d="M52.233 38.393v12.08"/><path data-name="Line 3099" d="M52.23 42.375h4.666"/><path data-name="Line 3100" d="M52.23 47.352h4.666"/><path data-name="Line 3101" d="M56.917 38.393v11.194"/><path data-name="Line 3102" d="M46.537 35.198v14.079"/></g><g data-name="Group 22497"><path data-name="Path 28607" d="M64.749 51.187c-2.7 0-2.7-2.249-5.406-2.249s-2.7 2.249-5.4 2.249-2.7-2.249-5.406-2.249-2.7 2.249-5.408 2.249-2.7-2.249-5.409-2.249-2.7 2.249-5.408 2.249-2.7-2.249-5.41-2.249-2.7 2.249-5.407 2.249-2.7-2.249-5.411-2.249-2.708 2.249-5.415 2.249-2.708-2.249-5.415-2.249" fill="none" stroke="#000" stroke-linecap="round" stroke-linejoin="round" stroke-width="1.5"/></g><path data-name="Path 28608" d="M23.238 29.668l9.824 5.387c.254.157-.815-.469-.735-.391" fill="none" stroke="#000" stroke-linecap="round" stroke-linejoin="round" stroke-width="1.5"/></g><circle data-name="Ellipse 2" cx="5.795" cy="5.795" r="5.795" transform="translate(49.767 18.321)" fill="none" stroke="#19a301" stroke-linecap="round" stroke-linejoin="round" stroke-width="1.5"/><path data-name="Path 28609" d="M56.838 32.716v2.439h-22.6" fill="none" stroke="#000" stroke-linecap="round" stroke-linejoin="round" stroke-width="1.5"/><path data-name="Rectangle 6943" d="M43.33 27.67h-6.25 0v-2.8a.754.754 0 01.754-.754h4.624a.872.872 0 01.872.872v2.682h0z" fill="none" stroke="#000" stroke-linecap="round" stroke-linejoin="round" stroke-width="1.5"/><path data-name="Line 3103" fill="none" stroke="#000" stroke-linecap="round" stroke-linejoin="round" stroke-width="1.5" d="M32.563 27.677h14.76"/></g></svg>