<svg xmlns="http://www.w3.org/2000/svg" width="70" height="70"><g data-name="Group 22606" transform="translate(0 -190)"><circle data-name="Ellipse 2" cx="5.795" cy="5.795" r="5.795" transform="translate(13.405 199.405)" fill="none" stroke="#19a301" stroke-linecap="round" stroke-linejoin="round" stroke-width="1.5"/><g data-name="Group 22610"><g data-name="Group 22607" fill="none"><g data-name="Group 22606" stroke-linecap="round" stroke-linejoin="round" stroke-width="2.4"><path data-name="Line 4" stroke="#19a301" d="M41.677 252.5h8.375"/><path data-name="Line 5" stroke="#19a301" d="M58.405 252.5h.679"/><path data-name="Line 6" stroke="#19a301" d="M10.916 252.5h8.298"/><path data-name="Line 7" stroke="#82d400" d="M18.674 252.5h14.628"/></g><path data-name="Rectangle 6979" d="M0 245h70v15H0z"/></g><rect data-name="Rectangle 6980" width="9.125" height="4.631" rx=".722" transform="translate(29.823 198)" fill="none" stroke="#000" stroke-linecap="round" stroke-linejoin="round" stroke-width="1.5"/><path data-name="Path 28726" d="M22.388 213.644v1.966h-1.212a1.5 1.5 0 00-1.5 1.5v.713a1.5 1.5 0 001.5 1.5h1.212v7.2h-1.212a1.5 1.5 0 00-1.5 1.5v.713a1.5 1.5 0 001.5 1.5h1.212v9.267h25.52v-9.267h1.212a1.5 1.5 0 001.5-1.5v-.713a1.5 1.5 0 00-1.5-1.5h-1.212v-7.2h1.212a1.5 1.5 0 001.5-1.5v-.713a1.5 1.5 0 00-1.5-1.5h-1.212v-8.554H29.133" fill="none" stroke="#000" stroke-linecap="round" stroke-linejoin="round" stroke-width="1.5"/><rect data-name="Rectangle 6981" width="30.938" height="4.425" rx="1.687" transform="translate(19.679 239.491)" fill="none" stroke="#000" stroke-linecap="round" stroke-linejoin="round" stroke-width="1.5"/><path data-name="Path 28727" d="M27.809 202.631h21.712a1.1 1.1 0 011.1 1.1v2.234a1.1 1.1 0 01-1.1 1.1h-21.36" fill="none" stroke="#000" stroke-linecap="round" stroke-linejoin="round" stroke-width="1.5"/><g data-name="Group 22608"><path data-name="Path 28728" d="M32.37 217.643a1.326 1.326 0 01-.215.744 1.493 1.493 0 01-.586.513 1.625 1.625 0 01.685.567 1.423 1.423 0 01.241.812 1.5 1.5 0 01-.508 1.19 2.3 2.3 0 01-2.709 0 1.492 1.492 0 01-.51-1.188 1.449 1.449 0 01.242-.82 1.559 1.559 0 01.68-.559 1.482 1.482 0 01-.58-.513 1.333 1.333 0 01-.213-.744 1.479 1.479 0 01.469-1.153 2.1 2.1 0 012.535 0 1.482 1.482 0 01.469 1.151zm-.825 2.589a.936.936 0 00-.252-.681.981.981 0 00-1.328 0 .944.944 0 00-.248.683.918.918 0 00.244.668 1.041 1.041 0 001.344.008.918.918 0 00.24-.678zm-.121-2.554a.883.883 0 00-.215-.612.825.825 0 00-1.152-.011 1.018 1.018 0 000 1.244.836.836 0 001.152 0 .874.874 0 00.215-.621z"/><path data-name="Path 28729" d="M37.12 216.67l-2.274 5.16h-1l2.27-4.926h-2.938v-.761h3.942z"/><path data-name="Path 28730" d="M41.588 219.436a3.093 3.093 0 01-.459 1.849 1.621 1.621 0 01-1.4.623 1.642 1.642 0 01-1.389-.607 2.974 2.974 0 01-.478-1.8v-.984a3.055 3.055 0 01.459-1.84 1.912 1.912 0 012.793-.016 2.958 2.958 0 01.47 1.789zm-.949-1.063a2.4 2.4 0 00-.219-1.174.835.835 0 00-1.378-.019 2.22 2.22 0 00-.231 1.1v1.289a2.463 2.463 0 00.223 1.188.745.745 0 00.7.39.734.734 0 00.676-.361 2.325 2.325 0 00.23-1.131z"/></g><g data-name="Group 22609"><path data-name="Path 28731" d="M27.292 227.494l-.369.379v1.207h-.831v-5.25h.831v3.028l.259-.325 1.022-1.151h1l-1.374 1.542 1.521 2.156h-.96z"/><path data-name="Path 28732" d="M29.53 227.2a2.156 2.156 0 01.406-1.375 1.3 1.3 0 011.074-.515 1.221 1.221 0 011 .441l.038-.372h.748v3.585a1.486 1.486 0 01-.453 1.148 1.722 1.722 0 01-1.222.421 1.986 1.986 0 01-.8-.169 1.416 1.416 0 01-.589-.443l.393-.5a1.189 1.189 0 00.944.454.912.912 0 00.652-.224.857.857 0 00.24-.658v-.25a1.219 1.219 0 01-.957.4 1.293 1.293 0 01-1.061-.515 2.233 2.233 0 01-.413-1.428zm.828.072a1.487 1.487 0 00.227.877.731.731 0 00.631.32.8.8 0 00.745-.431v-1.627a.79.79 0 00-.739-.42.735.735 0 00-.637.324 1.666 1.666 0 00-.227.96z"/><path data-name="Path 28733" d="M33.878 229.508h-.653l1.959-5.4h.653z"/><path data-name="Path 28734" d="M37.194 225.382l.023.386a1.333 1.333 0 011.067-.455 1.022 1.022 0 011.015.568 1.313 1.313 0 011.135-.568 1.151 1.151 0 01.91.339 1.487 1.487 0 01.307 1v2.43h-.831v-2.406a.734.734 0 00-.154-.516.673.673 0 00-.509-.164.687.687 0 00-.463.152.792.792 0 00-.251.4v2.536h-.831v-2.434a.591.591 0 00-.666-.652.732.732 0 00-.708.406v2.68h-.83v-3.7z"/><path data-name="Path 28735" d="M43.172 225.724h.392a.7.7 0 00.471-.155.549.549 0 00.173-.437.6.6 0 00-.144-.427.579.579 0 00-.441-.153.615.615 0 00-.427.15.5.5 0 00-.167.39h-.644a.975.975 0 01.158-.54 1.059 1.059 0 01.44-.381 1.443 1.443 0 01.632-.136 1.326 1.326 0 01.907.29 1.017 1.017 0 01.33.807.824.824 0 01-.165.49 1.043 1.043 0 01-.428.346.949.949 0 01.484.341.938.938 0 01.165.557 1.04 1.04 0 01-.356.827 1.566 1.566 0 01-1.849.01.975.975 0 01-.355-.79h.644a.539.539 0 00.171.414.648.648 0 00.46.159.666.666 0 00.471-.159.6.6 0 00.173-.461.607.607 0 00-.181-.47.771.771 0 00-.535-.163h-.379z"/></g><path data-name="Rectangle 6982" fill="none" d="M0 190h70v70H0z"/></g></g></svg>