<svg xmlns="http://www.w3.org/2000/svg" width="70" height="70"><g data-name="Group 22634"><g data-name="Group 22631" fill="none"><g data-name="Group 22630" stroke-linecap="round" stroke-linejoin="round" stroke-width="2.4"><path data-name="Line 4" stroke="#19a301" d="M41.677 62.5h8.375"/><path data-name="Line 5" stroke="#19a301" d="M58.405 62.5h.679"/><path data-name="Line 6" stroke="#19a301" d="M10.916 62.5h8.298"/><path data-name="Line 7" stroke="#82d400" d="M18.674 62.5h14.628"/></g><path data-name="Rectangle 6998" d="M0 55h70v15H0z"/></g><g data-name="Group 22633" transform="translate(279 97)"><g data-name="Group 22632"><g data-name="Grupo 15307"><path data-name="Rectángulo 5190" fill="none" stroke="#000" stroke-linecap="round" stroke-linejoin="round" stroke-width="1.5" d="M-236.889-72.85H-218v29.972h-18.889z"/><g data-name="Grupo 15301-2" fill="none" stroke="#000" stroke-linecap="round" stroke-linejoin="round" stroke-width="1.5"><path data-name="Línea 2965" d="M-217.999-67.499v-5.351"/><path data-name="Línea 2968" d="M-236.898-72.85v5.397"/></g><path data-name="Línea 2969" fill="none" stroke="#000" stroke-linecap="round" stroke-linejoin="round" stroke-width="1.5" d="M-239.263-67.437h23.639"/><path data-name="Rectángulo 5191" fill="none" stroke="#000" stroke-linecap="round" stroke-linejoin="round" stroke-width="1.5" d="M-236.889-72.85H-218v29.972h-18.889z"/><g data-name="Grupo 15302" fill="none" stroke="#000" stroke-linecap="round" stroke-linejoin="round" stroke-width="1.5"><path data-name="Línea 2970" d="M-217.999-67.499v-5.351"/><path data-name="Línea 2972" d="M-227.13-67.499v-5.351"/><path data-name="Línea 2973" d="M-236.898-72.85v5.397"/></g><path data-name="Línea 2974" fill="none" stroke="#000" stroke-linecap="round" stroke-linejoin="round" stroke-width="1.5" d="M-239.263-67.437h23.639"/><path data-name="Trazado 12634" d="M-236.9-60.918c2.946 2.687 8.753 1.711 11.381.6a8.439 8.439 0 017.484.614" fill="none" stroke="#000" stroke-linecap="round" stroke-linejoin="round" stroke-width="1.5"/><g data-name="Grupo 15304" fill="none" stroke="#000" stroke-linecap="round" stroke-linejoin="round" stroke-width="1.5"><path data-name="Línea 2976" d="M-242.78-79.772v-5.351"/><path data-name="Línea 2977" d="M-254.984-79.772v-5.351"/><path data-name="Línea 2978" d="M-267.257-85.123v5.397"/></g><path data-name="Línea 2979" fill="none" stroke="#000" stroke-linecap="round" stroke-linejoin="round" stroke-width="1.5" d="M-269.624-79.71h29.218"/><path data-name="Trazado 12638" d="M-267.243-74.427v-10.7h24.463v42.246h-24.463v-13.577" fill="none" stroke="#000" stroke-linecap="round" stroke-linejoin="round" stroke-width="1.5"/><g data-name="Grupo 15305" fill="none" stroke="#000" stroke-linecap="round" stroke-linejoin="round" stroke-width="1.5"><path data-name="Línea 2980" d="M-242.78-79.772v-5.351"/><path data-name="Línea 2982" d="M-267.257-85.123v5.397"/></g><path data-name="Línea 2983" fill="none" stroke="#000" stroke-linecap="round" stroke-linejoin="round" stroke-width="1.5" d="M-269.624-79.71h29.218"/><g data-name="Grupo 15306"><path data-name="Línea 2984" fill="none" stroke="#000" stroke-linecap="round" stroke-linejoin="round" stroke-width="1.5" d="M-267.257-48.277h11.331"/></g><path data-name="Line 3155" fill="none" stroke="#000" stroke-linecap="round" stroke-linejoin="round" stroke-width="1.5" d="M-242.808-65.243h-9.111"/></g></g><circle data-name="Ellipse 2" cx="5.795" cy="5.795" r="5.795" transform="translate(-272.376 -71.294)" fill="none" stroke="#19a301" stroke-linecap="round" stroke-linejoin="round" stroke-width="1.5"/></g><path data-name="Rectangle 6999" fill="none" d="M0 0h70v70H0z"/></g></svg>