<svg data-name="Group 22182" xmlns="http://www.w3.org/2000/svg" width="70" height="70"><path data-name="Rectangle 6774" fill="none" d="M0 0h70v70H0z"/><g data-name="Group 22186"><circle data-name="Ellipse 2" cx="5.795" cy="5.795" r="5.795" transform="translate(7.126 33.843)" fill="none" stroke="#19a301" stroke-linecap="round" stroke-linejoin="round" stroke-width="1.5"/><path data-name="Línea 1013" fill="none" stroke="#fff" stroke-linecap="round" stroke-linejoin="round" stroke-width="1.5" d="M22.822 25.687v4.362"/><path data-name="Línea 1014" fill="none" stroke="#fff" stroke-linecap="round" stroke-linejoin="round" stroke-width="1.5" d="M29.211 25.687v4.362"/><path data-name="Line 2970" fill="none" stroke="#fff" stroke-linecap="round" stroke-linejoin="round" stroke-width="1.5" d="M33.872 32.15l-4.66-2.09"/><path data-name="Path 28349" d="M40.982 45.81v8.02h-30.05v-5.16" fill="none" stroke="#fff" stroke-linecap="round" stroke-linejoin="round" stroke-width="1.5"/><path data-name="Línea 1015" fill="none" stroke="#fff" stroke-linecap="round" stroke-linejoin="round" stroke-width="1.5" d="M22.822 30.058l-4.66 2.155"/><path data-name="Línea 1016" fill="none" stroke="#fff" stroke-linecap="round" stroke-linejoin="round" stroke-width="1.5" d="M26.016 33.67l-3.194-3.622"/><path data-name="Línea 1017" fill="none" stroke="#fff" stroke-linecap="round" stroke-linejoin="round" stroke-width="1.5" d="M26.017 33.67l3.194-3.622"/><path data-name="Trazado 5701" d="M32.008 20.589a6.016 6.016 0 11-12.032 0" fill="none" stroke="#fff" stroke-linecap="round" stroke-linejoin="round" stroke-width="1.5"/><path data-name="Trazado 5702" d="M19.971 20.589v-6.228a6.016 6.016 0 1112.032 0v6.228" fill="none" stroke="#fff" stroke-linecap="round" stroke-linejoin="round" stroke-width="1.5"/><path data-name="Line 2971" fill="none" stroke="#fff" stroke-linecap="round" stroke-linejoin="round" stroke-width="1.5" d="M17.157 15.205h17.6"/><path data-name="Line 2972" fill="none" stroke="#fff" stroke-linecap="round" stroke-linejoin="round" stroke-width="1.5" d="M10.934 53.826l41.091-.027"/><path data-name="Rectangle 6776" fill="none" stroke="#fff" stroke-linecap="round" stroke-linejoin="round" stroke-width="1.5" d="M33.874 28.806h29v17h-29z"/><g data-name="Group 22185" fill="#fff"><path data-name="Path 28350" d="M41.929 41.09h-5.188v-1.029l2.448-2.61a6.015 6.015 0 00.746-.961 1.549 1.549 0 00.242-.78 1.157 1.157 0 00-.255-.793.92.92 0 00-.728-.288.992.992 0 00-.8.351 1.392 1.392 0 00-.293.922H36.59a2.483 2.483 0 01.33-1.263 2.322 2.322 0 01.933-.9 2.832 2.832 0 011.367-.325 2.686 2.686 0 011.817.561 1.985 1.985 0 01.647 1.586 2.544 2.544 0 01-.291 1.143 6.348 6.348 0 01-1 1.357l-1.72 1.814h3.254z"/><path data-name="Path 28351" d="M47.943 37.961a3.834 3.834 0 01-.65 2.4 2.6 2.6 0 01-3.794.016 3.717 3.717 0 01-.671-2.339v-1.392a3.782 3.782 0 01.658-2.407 2.6 2.6 0 013.786-.008 3.713 3.713 0 01.671 2.337zm-1.5-1.532a2.764 2.764 0 00-.258-1.371.869.869 0 00-.8-.429.854.854 0 00-.782.408 2.6 2.6 0 00-.268 1.278v1.842a2.91 2.91 0 00.252 1.376.859.859 0 00.809.45.844.844 0 00.8-.432 2.838 2.838 0 00.255-1.322z"/><path data-name="Path 28352" d="M50.485 36.641h.8a1.133 1.133 0 00.848-.286 1.052 1.052 0 00.275-.759.925.925 0 00-.273-.712 1.056 1.056 0 00-.751-.255 1.114 1.114 0 00-.723.236.757.757 0 00-.291.616h-1.5a1.85 1.85 0 01.32-1.063 2.134 2.134 0 01.894-.735 2.981 2.981 0 011.266-.265 2.828 2.828 0 011.881.574 1.961 1.961 0 01.681 1.583 1.588 1.588 0 01-.317.956 2.058 2.058 0 01-.831.671 1.766 1.766 0 011.268 1.767 1.991 1.991 0 01-.736 1.617 2.958 2.958 0 01-1.946.608 2.8 2.8 0 01-1.853-.6 1.951 1.951 0 01-.72-1.58h1.5a.87.87 0 00.32.7 1.335 1.335 0 001.627-.013.982.982 0 00.3-.751q0-1.134-1.248-1.134h-.795z"/><path data-name="Path 28353" d="M60.158 37.961a3.834 3.834 0 01-.649 2.4 2.6 2.6 0 01-3.795.016 3.717 3.717 0 01-.67-2.339v-1.392a3.788 3.788 0 01.657-2.407 2.6 2.6 0 013.787-.008 3.707 3.707 0 01.67 2.337zm-1.5-1.532a2.777 2.777 0 00-.257-1.371.87.87 0 00-.8-.429.856.856 0 00-.783.408 2.594 2.594 0 00-.267 1.278v1.842a2.91 2.91 0 00.252 1.376.857.857 0 00.808.45.843.843 0 00.8-.432 2.838 2.838 0 00.255-1.322z"/></g><path data-name="Line 2973" fill="none" stroke="#fff" stroke-linecap="round" stroke-linejoin="round" stroke-width="1.5" d="M48.372 53.81v-8"/></g><g data-name="Group 22187"><g data-name="Group 22173" fill="none"><g data-name="Group 22172" stroke-linecap="round" stroke-linejoin="round" stroke-width="2.4"><path data-name="Line 4" stroke="#19a301" d="M41.677 62.5h8.375"/><path data-name="Line 5" stroke="#19a301" d="M58.405 62.5h.679"/><path data-name="Line 6" stroke="#19a301" d="M10.916 62.5h8.298"/><path data-name="Line 7" stroke="#82d400" d="M18.674 62.5h14.628"/></g><path data-name="Rectangle 6769" d="M0 55h70v15H0z"/></g></g></svg>