<svg version="1.1" id="Group_22412" xmlns="http://www.w3.org/2000/svg" x="0" y="0" viewBox="0 0 70 70" xml:space="preserve"><style>.st0{fill:none}.st1,.st2{fill:none;stroke:#82d400;stroke-width:2.4;stroke-linecap:round;stroke-linejoin:round}.st2{stroke:#fff}</style><path id="Rectangle_6760" class="st0" d="M0 0h70v70H0z"/><g id="Group_22153"><g id="Group_22152"><g id="Group_22151"><path id="Line_4" class="st1" d="M41.7 62.5h8.4"/><path id="Line_5" class="st2" d="M58.4 62.5h.7"/><path id="Line_6" class="st1" d="M10.9 62.5h8.3"/><path id="Line_7" class="st2" d="M18.7 62.5h14.6"/></g><path id="Rectangle_6761" class="st0" d="M0 55h70v15H0z"/></g></g><path d="M35 1.3C19.9 1.3 7.7 13.6 7.7 28.7S19.9 56 35 56s27.3-12.2 27.3-27.3S50.1 1.3 35 1.3zm0 42.4c-8.3 0-15.1-6.7-15.1-15.1s6.8-15 15.1-15 15.1 6.7 15.1 15.1-6.8 15-15.1 15z" fill="none" stroke="#000" stroke-width="1.5" stroke-miterlimit="10"/><path d="M7.9 25.5L20 27.9c.4-7.9 7-14.3 15-14.3V1.3C21 1.3 9.5 11.9 7.9 25.5z" fill="#fff" stroke="#000" stroke-width="1.5" stroke-miterlimit="10"/></svg>