<svg data-name="Group 22143" xmlns="http://www.w3.org/2000/svg" width="70" height="70"><path data-name="Rectangle 6758" fill="none" d="M0 0h70v70H0z"/><g data-name="Group 22147" fill="none" stroke-linecap="round" stroke-linejoin="round" stroke-width="1.5"><g data-name="Group 22146"><circle data-name="Ellipse 2" cx="5.795" cy="5.795" r="5.795" transform="translate(6.615 41.769)" stroke="#19a500"/><path data-name="Path 28312" d="M35.611 40.435a5.332 5.332 0 11-10.663 0" stroke="#fff"/><path data-name="Path 28313" d="M40.825 40.318q.334.039.659.106a7.414 7.414 0 015.573 5.8 24.541 24.541 0 01.544 5.344v3.363H16.62" stroke="#fff"/><path data-name="Path 28314" d="M19.987 40.306a7.615 7.615 0 00-2.12.528" stroke="#fff"/><path data-name="Path 28315" d="M26.935 35.49v4.86h-1.99c-2.96 0-5.14.01-5.14.01V21.1a10.5 10.5 0 1121 0v8.19" stroke="#fff"/><path data-name="Path 28316" d="M40.805 32.95v7.37s-2.22 0-5.21.01h-2.18v-4.84" stroke="#fff"/><path data-name="Path 28317" d="M37.68 24.909v4.349a6.361 6.361 0 01-6.361 6.361h-2.025a6.36 6.36 0 01-6.361-6.361v-4.349c0-.1 0-.208.007-.311v-.967h4.369s5.485.074 5.485-5.115c0 0 .149 5.041 4.744 5.041z" stroke="#fff"/></g><path data-name="Línea 2376" stroke="#fff" d="M51.848 37.441v17.447"/><path data-name="Línea 2377" stroke="#fff" d="M44.414 33.681l7.336 7.336"/><path data-name="Línea 2378" stroke="#fff" d="M58.288 41.405l-6.326 4.296"/><path data-name="Trazado 11782" d="M42.679 37.456a3.983 3.983 0 005.631-5.632c-1.554-1.555-8.33-2.7-8.33-2.7s1.144 6.776 2.699 8.332z" stroke="#fff"/><path data-name="Trazado 11783" d="M56 38.448a3.613 3.613 0 004.039 5.952c1.515-1.027 3.346-6.62 3.346-6.62s-5.872-.362-7.385.668z" stroke="#fff"/></g><path data-name="Línea 2380" fill="none" stroke="#fff" stroke-linecap="round" stroke-linejoin="round" stroke-width="1.5" d="M61.672 54.926h-12.95"/><g data-name="Group 22652" fill="none"><g data-name="Group 22053" stroke-linecap="round" stroke-linejoin="round" stroke-width="2.4"><path data-name="Line 4" stroke="#19a301" d="M41.677 62.5h8.375"/><path data-name="Line 5" stroke="#19a301" d="M58.405 62.5h.679"/><path data-name="Line 6" stroke="#19a301" d="M10.916 62.5h8.298"/><path data-name="Line 7" stroke="#82d400" d="M18.674 62.5h14.628"/></g><path data-name="Rectangle 6707" d="M0 55h70v15H0z"/></g></svg>