<svg data-name="Group 23092" xmlns="http://www.w3.org/2000/svg" width="70" height="70"><g data-name="Group 22231"><g data-name="Group 22230" fill="none"><g data-name="Group 22229" stroke-linecap="round" stroke-linejoin="round" stroke-width="2.4"><path data-name="Line 4" stroke="#19a301" d="M41.677 62.5h8.375"/><path data-name="Line 5" stroke="#19a301" d="M58.405 62.5h.679"/><path data-name="Line 6" stroke="#19a301" d="M10.916 62.5h8.298"/><path data-name="Line 7" stroke="#82d400" d="M18.674 62.5h14.628"/></g><path data-name="Rectangle 6800" d="M0 55h70v15H0z"/></g></g><path data-name="Rectangle 6801" fill="none" d="M0 0h70v70H0z"/><g data-name="Group 22237"><g data-name="Group 22235"><g data-name="Group 22232" fill="none" stroke="#000" stroke-linecap="round" stroke-linejoin="round" stroke-width="1.5"><circle data-name="Ellipse 3109" cx="6.781" cy="6.781" r="6.781" transform="translate(41.763 28.024)"/><path data-name="Path 28422" d="M53.466 21.522l-2.874 2.166a3.732 3.732 0 01-4.408.062l-2.924-2.079a14.3 14.3 0 00-1.974.961 16.9 16.9 0 00-1.783 1.28l.437 3.56a3.729 3.729 0 01-2.15 3.848l-3.272 1.5a14.137 14.137 0 00.066 4.368l3.308 1.4a3.733 3.733 0 012.257 3.787l-.338 3.577a14.156 14.156 0 003.81 2.135l2.874-2.166a3.732 3.732 0 014.405-.061l2.924 2.078a14.075 14.075 0 001.974-.96 14.222 14.222 0 001.784-1.28l-.438-3.561a3.732 3.732 0 012.156-3.848l3.272-1.5a14.162 14.162 0 00-.067-4.367L59.2 31.02a3.731 3.731 0 01-2.258-3.786l.339-3.577a14.146 14.146 0 00-3.815-2.135z"/></g><g data-name="Group 22234"><g data-name="Group 22233"><g data-name="Grupo 13591"><g data-name="Grupo 13590" fill="none" stroke="#000" stroke-linecap="round" stroke-linejoin="round" stroke-width="1.5"><path data-name="Rectángulo 4762" d="M12.254 40.981h4.755v12.587h-4.755z"/><path data-name="Rectángulo 4763" d="M7.122 43.789h5.132v6.97H7.122z"/><path data-name="Trazado 11867" d="M22.122 42.6h-5.114v9.345h45.87V42.6h-5.472m-17.343 0H27.741"/></g></g></g></g><path data-name="Trazado 12472" d="M26.945 41.855l-2.174-4.5-2.012 4.5a4.73 4.73 0 00-.424 1.457 2.508 2.508 0 005.016 0 4.9 4.9 0 00-.406-1.457z" fill="none" stroke="#000" stroke-linecap="round" stroke-linejoin="round" stroke-width="1.5"/></g><circle data-name="Ellipse 2" cx="9.471" cy="9.471" r="9.471" transform="translate(17.026 9.72)" fill="none" stroke="#19a301" stroke-linecap="round" stroke-linejoin="round" stroke-width="1.5"/><g data-name="Group 22236" fill="none" stroke="#000" stroke-linecap="round" stroke-linejoin="round" stroke-width="1.5"><path data-name="Path 28423" d="M26.5 19.191a2.328 2.328 0 112.329-2.328"/><path data-name="Path 28424" d="M26.5 19.191a2.329 2.329 0 11-2.328 2.329"/><path data-name="Line 3004" d="M26.497 14.534v-1.293"/><path data-name="Line 3005" d="M26.497 25.142v-1.293"/></g></g></svg>