<svg data-name="Group 22412" xmlns="http://www.w3.org/2000/svg" width="70" height="70"><path data-name="Rectangle 6760" fill="none" d="M0 0h70v70H0z"/><g data-name="Group 22150"><circle data-name="Ellipse 2" cx="5.795" cy="5.795" r="5.795" transform="translate(4.751 22.843)" fill="none" stroke="#fff" stroke-linecap="round" stroke-linejoin="round" stroke-width="1.5"/><path data-name="Path 28318" d="M9.178 37.748a10.559 10.559 0 008.5 4.29h26.489a10.571 10.571 0 10-1.457-21.03 10.652 10.652 0 00-20.984.693 10.6 10.6 0 00-5.595-.692" fill="none" stroke="#000" stroke-linecap="round" stroke-linejoin="round" stroke-width="1.5"/><g data-name="Group 22148"><path data-name="Path 28319" d="M29.091 32.563a3.914 3.914 0 01-1.318 2.812 4.631 4.631 0 01-3.135 1.025 4.165 4.165 0 01-3.348-1.432 5.875 5.875 0 01-1.219-3.933v-.677a6.629 6.629 0 01.562-2.811 4.216 4.216 0 011.607-1.866 4.505 4.505 0 012.428-.65 4.512 4.512 0 013.086 1.026 4.206 4.206 0 011.352 2.88h-2.279a2.313 2.313 0 00-.6-1.554 2.212 2.212 0 00-1.562-.482 1.937 1.937 0 00-1.706.817 4.578 4.578 0 00-.581 2.534v.836a4.9 4.9 0 00.543 2.622 1.9 1.9 0 001.714.828 2.255 2.255 0 001.577-.482 2.179 2.179 0 00.6-1.494z"/><path data-name="Path 28320" d="M30.1 32.062a4.876 4.876 0 01.471-2.181A3.438 3.438 0 0131.93 28.4a3.951 3.951 0 012.055-.525 3.744 3.744 0 012.715 1.018 4.085 4.085 0 011.174 2.766l.015.562a4.3 4.3 0 01-1.056 3.036 4.094 4.094 0 01-5.673 0 4.371 4.371 0 01-1.06-3.1zm2.2.156a3.071 3.071 0 00.441 1.792 1.584 1.584 0 002.508.007 3.359 3.359 0 00.448-1.959 3.042 3.042 0 00-.448-1.781 1.457 1.457 0 00-1.262-.632 1.433 1.433 0 00-1.246.628 3.418 3.418 0 00-.441 1.945z"/><path data-name="Path 28321" d="M46.737 36.249h-7.584v-1.505l3.579-3.815a8.837 8.837 0 001.091-1.405 2.268 2.268 0 00.353-1.14 1.69 1.69 0 00-.372-1.159 1.341 1.341 0 00-1.064-.425 1.448 1.448 0 00-1.174.513 2.033 2.033 0 00-.43 1.349h-2.2a3.624 3.624 0 01.482-1.847 3.412 3.412 0 011.364-1.311 4.155 4.155 0 012-.475 3.927 3.927 0 012.656.821 2.9 2.9 0 01.946 2.318 3.72 3.72 0 01-.426 1.672 9.278 9.278 0 01-1.459 1.983l-2.519 2.655h4.757z"/></g><g data-name="Group 22149" fill="none" stroke="#000" stroke-linecap="round" stroke-linejoin="round" stroke-width="1.5"><path data-name="Line 2948" d="M59.686 28.602v21.854"/><path data-name="Path 28322" d="M54.123 45.141l5.563 5.559 5.563-5.563"/></g></g><g data-name="Group 22153"><g data-name="Group 22152" fill="none"><g data-name="Group 22151" stroke-linecap="round" stroke-linejoin="round" stroke-width="2.4"><path data-name="Line 4" stroke="#82d400" d="M41.677 62.5h8.375"/><path data-name="Line 5" stroke="#fff" d="M58.405 62.5h.679"/><path data-name="Line 6" stroke="#82d400" d="M10.916 62.5h8.298"/><path data-name="Line 7" stroke="#fff" d="M18.674 62.5h14.628"/></g><path data-name="Rectangle 6761" d="M0 55h70v15H0z"/></g></g></svg>