<svg version="1.1" id="Layer_1" xmlns="http://www.w3.org/2000/svg" x="0" y="0" viewBox="0 0 70 70" xml:space="preserve"><style>.st0{fill:none}.st1,.st2{fill:none;stroke:#82d400;stroke-width:2.4;stroke-linecap:round;stroke-linejoin:round}.st2{stroke:#fff;stroke-width:1.5}.st3{fill:#fff}.st4{fill:none;stroke:#fff;stroke-width:2.4;stroke-linecap:round;stroke-linejoin:round}</style><path id="Rectangle_6760" class="st0" d="M0 0h70v70H0z"/><g id="Group_22150"><circle id="Ellipse_2" class="st1" cx="10.5" cy="28.6" r="5.8"/><path id="Path_28318" class="st2" d="M9.2 37.7c2 2.7 5.1 4.3 8.5 4.3h26.5c5.8 0 10.6-4.7 10.6-10.5s-4.7-10.6-10.5-10.6c-.5 0-1.1 0-1.6.1-1.2-5.8-6.8-9.5-12.6-8.3-4.4.9-7.8 4.5-8.4 9-1.8-.7-3.7-1-5.6-.7"/><g id="Group_22148"><path id="Path_28319" class="st3" d="M29.1 32.6c0 1.1-.5 2.1-1.3 2.8-.9.7-2 1.1-3.1 1-1.3.1-2.5-.5-3.3-1.4-.9-1.1-1.3-2.5-1.2-3.9v-.7c0-1 .2-1.9.6-2.8.3-.8.9-1.4 1.6-1.9.7-.4 1.6-.7 2.4-.6 1.1-.1 2.2.3 3.1 1 .8.7 1.3 1.8 1.4 2.9H27c0-.6-.2-1.1-.6-1.6-.4-.4-1-.5-1.6-.5-.7 0-1.3.3-1.7.8-.4.8-.6 1.7-.6 2.5v.8c-.1.9.1 1.8.5 2.6.4.6 1 .9 1.7.8.6 0 1.1-.1 1.6-.5.4-.4.6-.9.6-1.5l2.2.2z"/><path id="Path_28320" class="st3" d="M30.1 32.1c0-.8.1-1.5.5-2.2.3-.6.8-1.1 1.4-1.5.6-.4 1.3-.5 2.1-.5 1 0 2 .3 2.7 1s1.1 1.7 1.2 2.8v.6c.1 1.1-.3 2.2-1.1 3-1.6 1.5-4.1 1.5-5.7 0-.8-.9-1.2-2-1.1-3.2zm2.2.1c0 .6.1 1.3.4 1.8.5.7 1.5.8 2.2.3l.3-.3c.3-.6.5-1.3.4-2 0-.6-.1-1.2-.4-1.8-.3-.4-.8-.7-1.3-.6-.5 0-1 .2-1.2.6-.3.7-.4 1.3-.4 2z"/><path id="Path_28321" class="st3" d="M46.7 36.2h-7.6v-1.5l3.6-3.8c.4-.4.8-.9 1.1-1.4.2-.3.3-.7.4-1.1 0-.4-.1-.8-.4-1.2-.3-.3-.7-.4-1.1-.4-.4 0-.9.2-1.2.5-.3.4-.5.9-.4 1.3h-2.2c0-.6.2-1.3.5-1.8.3-.6.8-1 1.4-1.3.6-.3 1.3-.5 2-.5 1-.1 1.9.2 2.7.8.6.6 1 1.4.9 2.3 0 .6-.2 1.2-.4 1.7-.4.7-.9 1.4-1.5 2L42 34.5h4.8l-.1 1.7z"/></g><g id="Group_22149"><path id="Line_2948" class="st2" d="M59.7 28.6v21.9"/><path id="Path_28322" class="st2" d="M54.1 45.1l5.6 5.6 5.6-5.6"/></g></g><g id="Group_22153"><g id="Group_22152"><g id="Group_22151"><path id="Line_4" class="st1" d="M41.7 62.5h8.4"/><path id="Line_5" class="st4" d="M58.4 62.5h.7"/><path id="Line_6" class="st1" d="M10.9 62.5h8.3"/><path id="Line_7" class="st4" d="M18.7 62.5h14.6"/></g><path id="Rectangle_6761" class="st0" d="M0 55h70v15H0z"/></g></g></svg>