<svg version="1.1" id="Layer_1" xmlns="http://www.w3.org/2000/svg" x="0" y="0" viewBox="0 0 70 70" xml:space="preserve"><style>.st0,.st1{stroke-width:2.4;stroke-linecap:round;stroke-linejoin:round}.st0{fill:none;stroke:#fff}.st1{stroke:#82d400}.st1,.st2,.st4{fill:none}.st4{stroke:#fff;stroke-width:1.5;stroke-linecap:round;stroke-linejoin:round;stroke-miterlimit:10}</style><path id="Line_4_2_" class="st0" d="M41.7 62.5h8.4"/><path id="Line_5_2_" class="st1" d="M58.4 62.5h.7"/><path id="Line_6_2_" class="st0" d="M10.9 62.5h8.3"/><path id="Line_7_2_" class="st1" d="M18.7 62.5h14.6"/><path class="st2" d="M0 55h70v15H0z"/><path class="st2" d="M0 0h70v70H0z"/><circle id="Ellipse_2_54_" cx="15.7" cy="34.7" r="5.8" fill="none" stroke="#82d400" stroke-width="1.5" stroke-linecap="round" stroke-linejoin="round"/><path class="st4" d="M25.2 22.2v3.9m5.7-3.9v3.9m0 0l7.7 3.4c1.2.5 2.1 1.5 2.6 2.7M14.6 43.7v5.4h18.5m-7.9-23l-3.7 1.7m6.6 1.5l-2.9-3.2m2.9 3.2l2.8-3.2m2.5-8.5c0 3-2.4 5.4-5.4 5.4s-5.4-2.4-5.4-5.4m.1 0v-3.7c0-3 2.4-5.4 5.4-5.4s5.4 2.4 5.4 5.4v3.7m10.2 9.5V31m5.7-3.9V31"/><path class="st4" d="M43.7 31L36 34.4c-1.8.8-3 2.6-3 4.6v15h27V39c0-2-1.2-3.8-3-4.6L49.4 31m-2.8 3.3L43.7 31m2.9 3.3l2.8-3.3m2.5-8.4c0 3-2.4 5.4-5.4 5.4-3 0-5.4-2.4-5.4-5.4m.1 0v-3.7c0-3 2.4-5.4 5.4-5.4 3 0 5.4 2.4 5.4 5.4v3.7"/></svg>