<svg version="1.1" id="Group_22412" xmlns="http://www.w3.org/2000/svg" x="0" y="0" viewBox="0 0 70 70" xml:space="preserve"><style>.st1{fill:none}.st2,.st3{fill:none;stroke:#82d400;stroke-width:2.4;stroke-linecap:round;stroke-linejoin:round}.st3{stroke:#fff}</style><path d="M62.3 26.9c-1-15.1-14-26.5-29.1-25.5S6.7 15.3 7.7 30.4s13.9 26.5 29 25.5 26.6-13.9 25.6-29zM20 29.6c-.5-8.3 5.7-15.5 14.1-16S49.5 19.4 50 27.7s-5.7 15.5-14.1 16S20.5 37.9 20 29.6z" fill="#248f1a"/><path id="Rectangle_6760" class="st1" d="M0 0h70v70H0V0z"/><g id="Group_22153"><g id="Group_22152"><g id="Group_22151"><path id="Line_4" class="st2" d="M41.7 62.5h8.4"/><path id="Line_5" class="st3" d="M58.4 62.5h.7"/><path id="Line_6" class="st2" d="M10.9 62.5h8.3"/><path id="Line_7" class="st3" d="M18.7 62.5h14.6"/></g><path id="Rectangle_6761" class="st1" d="M0 55h70v15H0V55z"/></g></g><path d="M62.3 26.9c-1-15.1-14-26.5-29.1-25.5S6.7 15.3 7.7 30.4s13.9 26.5 29 25.5 26.6-13.9 25.6-29zM20 29.6c-.5-8.3 5.7-15.5 14.1-16S49.5 19.4 50 27.7s-5.7 15.5-14.1 16S20.5 37.9 20 29.6z" fill="none" stroke="#fff" stroke-width="1.5" stroke-miterlimit="10"/><path d="M35 1.4v12.2c7 0 12.9 4.7 14.6 11.3l11.9-3.1C58.4 9.9 47.5 1.4 35 1.4z" fill="#82d400" stroke="#fff" stroke-width="1.5" stroke-miterlimit="10"/></svg>