<svg xmlns="http://www.w3.org/2000/svg" width="70" height="70"><g data-name="Group 23096"><g data-name="Group 22174"><g data-name="Group 22173" fill="none"><g data-name="Group 22172" stroke-linecap="round" stroke-linejoin="round" stroke-width="2.4"><path data-name="Line 4" stroke="#19a301" d="M41.677 62.5h8.375"/><path data-name="Line 5" stroke="#19a301" d="M58.405 62.5h.679"/><path data-name="Line 6" stroke="#19a301" d="M10.916 62.5h8.298"/><path data-name="Line 7" stroke="#82d400" d="M18.674 62.5h14.628"/></g><path data-name="Rectangle 6769" d="M0 55h70v15H0z"/></g></g><path data-name="Rectangle 6770" fill="none" d="M0 0h70v70H0z"/><g data-name="Group 22178" fill="none" stroke-linecap="round" stroke-linejoin="round" stroke-width="1.5"><circle data-name="Ellipse 2" cx="5.795" cy="5.795" r="5.795" transform="translate(5.935 9.709)" stroke="#19a301"/><path data-name="Line 2959" stroke="#000" d="M6.884 54.291h57.181"/><path data-name="Path 28342" d="M19.773 12.291h10.149v42h-18V24.7" stroke="#000"/><path data-name="Line 2960" stroke="#000" d="M40.922 53.866v-10.68"/><path data-name="Path 28343" d="M29.922 32.866h11v3.65" stroke="#000"/><path data-name="Line 2961" stroke="#000" d="M29.922 20.015h-9"/><path data-name="Line 2962" stroke="#000" d="M29.922 26.015h-9"/><g data-name="Group 22177" stroke="#000"><path data-name="Line 2963" d="M49.528 30.04v24.189"/><g data-name="Group 22175"><path data-name="Path 28344" d="M56.6 43.35a11.179 11.179 0 01-4.207-.916s1.133-4.064 4.191-5.471 6.882.375 6.882.375-1.133 4.064-4.191 5.471a6.376 6.376 0 01-2.675.541"/><path data-name="Line 2964" d="M49.528 43.754l8.406-3.868"/></g><g data-name="Group 22176"><path data-name="Path 28345" d="M39.776 42.809c3.058 1.407 6.882-.375 6.882-.375s-1.134-4.064-4.192-5.471-6.881.375-6.881.375 1.133 4.062 4.191 5.471z"/><path data-name="Line 2965" d="M49.527 43.754l-8.406-3.868"/></g><path data-name="Path 28346" d="M45.616 30.218c-.056 4.122 3.839 7.518 3.839 7.518s3.987-3.288 4.043-7.41-3.838-7.519-3.838-7.519-3.987 3.288-4.044 7.411z"/></g></g></g></svg>