<svg version="1.1" id="Capa_1" xmlns="http://www.w3.org/2000/svg" xmlns:xlink="http://www.w3.org/1999/xlink" x="0" y="0" viewBox="0 0 70 70" xml:space="preserve"><style>.st0{stroke:#19a301;stroke-width:2.4;stroke-linecap:round;stroke-linejoin:round}.st0,.st2,.st3{fill:none}.st3{stroke:#000;stroke-width:1.5;stroke-linecap:round;stroke-linejoin:round}</style><symbol id="OCENSA-EXT" viewBox="-35 -7.5 70 15"><path id="Line_4_1_" class="st0" d="M6.7 0h8.4"/><path id="Line_5_1_" class="st0" d="M23.4 0h.7"/><path id="Line_6_1_" class="st0" d="M-24.1 0h8.3"/><path id="Line_7_1_" fill="none" stroke="#82d400" stroke-width="2.4" stroke-linecap="round" stroke-linejoin="round" d="M-16.3 0h14.6"/><path class="st2" d="M-35-7.5h70v15h-70z"/></symbol><path class="st2" d="M0 0h70v70H0z"/><use xlink:href="#OCENSA-EXT" width="70" height="15" x="-35" y="-7.5" transform="translate(35 62.5)" overflow="visible"/><path class="st3" d="M15.6 25.4v9.7c0 2.2 1.8 4 4 4h2.6v8l7.9-8h10.5m8.6-15.6v-9.9H27"/><circle id="Ellipse_2_2_" cx="17.2" cy="15.1" r="5.8" fill="#fff" stroke="#19a301" stroke-width="1.5" stroke-linecap="round" stroke-linejoin="round"/><circle class="st3" cx="49.6" cy="37.4" r="9"/><path class="st3" d="M49.2 31.6v6.2l2.5 2.5M24.2 21.4h16.4m-16.4 5.1h14m-14 5.1h6.4"/></svg>